<?xml version="1.0" encoding="utf-8" standalone="no"?>
<!DOCTYPE svg PUBLIC "-//W3C//DTD SVG 1.1//EN"
  "http://www.w3.org/Graphics/SVG/1.1/DTD/svg11.dtd">
<svg xmlns:xlink="http://www.w3.org/1999/xlink" width="406.885937pt" height="267.915469pt" viewBox="0 0 406.885937 267.915469" xmlns="http://www.w3.org/2000/svg" version="1.1">
 <metadata>
  <rdf:RDF xmlns:dc="http://purl.org/dc/elements/1.1/" xmlns:cc="http://creativecommons.org/ns#" xmlns:rdf="http://www.w3.org/1999/02/22-rdf-syntax-ns#">
   <cc:Work>
    <dc:type rdf:resource="http://purl.org/dc/dcmitype/StillImage"/>
    <dc:date>2025-07-09T15:00:02.929935</dc:date>
    <dc:format>image/svg+xml</dc:format>
    <dc:creator>
     <cc:Agent>
      <dc:title>Matplotlib v3.10.3, https://matplotlib.org/</dc:title>
     </cc:Agent>
    </dc:creator>
   </cc:Work>
  </rdf:RDF>
 </metadata>
 <defs>
  <style type="text/css">*{stroke-linejoin: round; stroke-linecap: butt}</style>
 </defs>
 <g id="figure_1">
  <g id="patch_1">
   <path d="M 0 267.915469 
L 406.885937 267.915469 
L 406.885937 0 
L 0 0 
z
" style="fill: #ffffff"/>
  </g>
  <g id="axes_1">
   <g id="patch_2">
    <path d="M 58.523438 109.399219 
L 393.323438 109.399219 
L 393.323438 8.599219 
L 58.523438 8.599219 
z
" style="fill: #ffffff"/>
   </g>
   <g id="matplotlib.axis_1">
    <g id="xtick_1">
     <g id="line2d_1">
      <path d="M 58.523438 109.399219 
L 58.523438 8.599219 
" clip-path="url(#p4ef6608f81)" style="fill: none; stroke: #b0b0b0; stroke-width: 0.8; stroke-linecap: square"/>
     </g>
     <g id="line2d_2">
      <defs>
       <path id="m570ed2c9d9" d="M 0 0 
L 0 3.5 
" style="stroke: #000000; stroke-width: 0.8"/>
      </defs>
      <g>
       <use xlink:href="#m570ed2c9d9" x="58.523438" y="58.999219" style="stroke: #000000; stroke-width: 0.8"/>
      </g>
     </g>
    </g>
    <g id="xtick_2">
     <g id="line2d_3">
      <path d="M 80.843438 109.399219 
L 80.843438 8.599219 
" clip-path="url(#p4ef6608f81)" style="fill: none; stroke: #b0b0b0; stroke-width: 0.8; stroke-linecap: square"/>
     </g>
     <g id="line2d_4">
      <g>
       <use xlink:href="#m570ed2c9d9" x="80.843438" y="58.999219" style="stroke: #000000; stroke-width: 0.8"/>
      </g>
     </g>
    </g>
    <g id="xtick_3">
     <g id="line2d_5">
      <path d="M 103.163438 109.399219 
L 103.163438 8.599219 
" clip-path="url(#p4ef6608f81)" style="fill: none; stroke: #b0b0b0; stroke-width: 0.8; stroke-linecap: square"/>
     </g>
     <g id="line2d_6">
      <g>
       <use xlink:href="#m570ed2c9d9" x="103.163438" y="58.999219" style="stroke: #000000; stroke-width: 0.8"/>
      </g>
     </g>
    </g>
    <g id="xtick_4">
     <g id="line2d_7">
      <path d="M 125.483438 109.399219 
L 125.483438 8.599219 
" clip-path="url(#p4ef6608f81)" style="fill: none; stroke: #b0b0b0; stroke-width: 0.8; stroke-linecap: square"/>
     </g>
     <g id="line2d_8">
      <g>
       <use xlink:href="#m570ed2c9d9" x="125.483438" y="58.999219" style="stroke: #000000; stroke-width: 0.8"/>
      </g>
     </g>
    </g>
    <g id="xtick_5">
     <g id="line2d_9">
      <path d="M 147.803438 109.399219 
L 147.803438 8.599219 
" clip-path="url(#p4ef6608f81)" style="fill: none; stroke: #b0b0b0; stroke-width: 0.8; stroke-linecap: square"/>
     </g>
     <g id="line2d_10">
      <g>
       <use xlink:href="#m570ed2c9d9" x="147.803438" y="58.999219" style="stroke: #000000; stroke-width: 0.8"/>
      </g>
     </g>
    </g>
    <g id="xtick_6">
     <g id="line2d_11">
      <path d="M 170.123437 109.399219 
L 170.123437 8.599219 
" clip-path="url(#p4ef6608f81)" style="fill: none; stroke: #b0b0b0; stroke-width: 0.8; stroke-linecap: square"/>
     </g>
     <g id="line2d_12">
      <g>
       <use xlink:href="#m570ed2c9d9" x="170.123437" y="58.999219" style="stroke: #000000; stroke-width: 0.8"/>
      </g>
     </g>
    </g>
    <g id="xtick_7">
     <g id="line2d_13">
      <path d="M 192.443438 109.399219 
L 192.443438 8.599219 
" clip-path="url(#p4ef6608f81)" style="fill: none; stroke: #b0b0b0; stroke-width: 0.8; stroke-linecap: square"/>
     </g>
     <g id="line2d_14">
      <g>
       <use xlink:href="#m570ed2c9d9" x="192.443438" y="58.999219" style="stroke: #000000; stroke-width: 0.8"/>
      </g>
     </g>
    </g>
    <g id="xtick_8">
     <g id="line2d_15">
      <path d="M 214.763438 109.399219 
L 214.763438 8.599219 
" clip-path="url(#p4ef6608f81)" style="fill: none; stroke: #b0b0b0; stroke-width: 0.8; stroke-linecap: square"/>
     </g>
     <g id="line2d_16">
      <g>
       <use xlink:href="#m570ed2c9d9" x="214.763438" y="58.999219" style="stroke: #000000; stroke-width: 0.8"/>
      </g>
     </g>
    </g>
    <g id="xtick_9">
     <g id="line2d_17">
      <path d="M 237.083438 109.399219 
L 237.083438 8.599219 
" clip-path="url(#p4ef6608f81)" style="fill: none; stroke: #b0b0b0; stroke-width: 0.8; stroke-linecap: square"/>
     </g>
     <g id="line2d_18">
      <g>
       <use xlink:href="#m570ed2c9d9" x="237.083438" y="58.999219" style="stroke: #000000; stroke-width: 0.8"/>
      </g>
     </g>
    </g>
    <g id="xtick_10">
     <g id="line2d_19">
      <path d="M 259.403437 109.399219 
L 259.403437 8.599219 
" clip-path="url(#p4ef6608f81)" style="fill: none; stroke: #b0b0b0; stroke-width: 0.8; stroke-linecap: square"/>
     </g>
     <g id="line2d_20">
      <g>
       <use xlink:href="#m570ed2c9d9" x="259.403437" y="58.999219" style="stroke: #000000; stroke-width: 0.8"/>
      </g>
     </g>
    </g>
    <g id="xtick_11">
     <g id="line2d_21">
      <path d="M 281.723437 109.399219 
L 281.723437 8.599219 
" clip-path="url(#p4ef6608f81)" style="fill: none; stroke: #b0b0b0; stroke-width: 0.8; stroke-linecap: square"/>
     </g>
     <g id="line2d_22">
      <g>
       <use xlink:href="#m570ed2c9d9" x="281.723437" y="58.999219" style="stroke: #000000; stroke-width: 0.8"/>
      </g>
     </g>
    </g>
    <g id="xtick_12">
     <g id="line2d_23">
      <path d="M 304.043438 109.399219 
L 304.043438 8.599219 
" clip-path="url(#p4ef6608f81)" style="fill: none; stroke: #b0b0b0; stroke-width: 0.8; stroke-linecap: square"/>
     </g>
     <g id="line2d_24">
      <g>
       <use xlink:href="#m570ed2c9d9" x="304.043438" y="58.999219" style="stroke: #000000; stroke-width: 0.8"/>
      </g>
     </g>
    </g>
    <g id="xtick_13">
     <g id="line2d_25">
      <path d="M 326.363438 109.399219 
L 326.363438 8.599219 
" clip-path="url(#p4ef6608f81)" style="fill: none; stroke: #b0b0b0; stroke-width: 0.8; stroke-linecap: square"/>
     </g>
     <g id="line2d_26">
      <g>
       <use xlink:href="#m570ed2c9d9" x="326.363438" y="58.999219" style="stroke: #000000; stroke-width: 0.8"/>
      </g>
     </g>
    </g>
    <g id="xtick_14">
     <g id="line2d_27">
      <path d="M 348.683438 109.399219 
L 348.683438 8.599219 
" clip-path="url(#p4ef6608f81)" style="fill: none; stroke: #b0b0b0; stroke-width: 0.8; stroke-linecap: square"/>
     </g>
     <g id="line2d_28">
      <g>
       <use xlink:href="#m570ed2c9d9" x="348.683438" y="58.999219" style="stroke: #000000; stroke-width: 0.8"/>
      </g>
     </g>
    </g>
    <g id="xtick_15">
     <g id="line2d_29">
      <path d="M 371.003438 109.399219 
L 371.003438 8.599219 
" clip-path="url(#p4ef6608f81)" style="fill: none; stroke: #b0b0b0; stroke-width: 0.8; stroke-linecap: square"/>
     </g>
     <g id="line2d_30">
      <g>
       <use xlink:href="#m570ed2c9d9" x="371.003438" y="58.999219" style="stroke: #000000; stroke-width: 0.8"/>
      </g>
     </g>
    </g>
    <g id="xtick_16">
     <g id="line2d_31">
      <path d="M 393.323438 109.399219 
L 393.323438 8.599219 
" clip-path="url(#p4ef6608f81)" style="fill: none; stroke: #b0b0b0; stroke-width: 0.8; stroke-linecap: square"/>
     </g>
     <g id="line2d_32">
      <g>
       <use xlink:href="#m570ed2c9d9" x="393.323438" y="58.999219" style="stroke: #000000; stroke-width: 0.8"/>
      </g>
     </g>
    </g>
   </g>
   <g id="matplotlib.axis_2">
    <g id="ytick_1">
     <g id="line2d_33">
      <path d="M 58.523438 106.999219 
L 393.323438 106.999219 
" clip-path="url(#p4ef6608f81)" style="fill: none; stroke: #b0b0b0; stroke-width: 0.8; stroke-linecap: square"/>
     </g>
     <g id="line2d_34">
      <defs>
       <path id="m7fd3e8b37f" d="M 0 0 
L -3.5 0 
" style="stroke: #000000; stroke-width: 0.8"/>
      </defs>
      <g>
       <use xlink:href="#m7fd3e8b37f" x="58.523438" y="106.999219" style="stroke: #000000; stroke-width: 0.8"/>
      </g>
     </g>
     <g id="text_1">
      <!-- −1 -->
      <g transform="translate(36.78125 110.798437) scale(0.1 -0.1)">
       <defs>
        <path id="DejaVuSans-2212" d="M 678 2272 
L 4684 2272 
L 4684 1741 
L 678 1741 
L 678 2272 
z
" transform="scale(0.015625)"/>
        <path id="DejaVuSans-31" d="M 794 531 
L 1825 531 
L 1825 4091 
L 703 3866 
L 703 4441 
L 1819 4666 
L 2450 4666 
L 2450 531 
L 3481 531 
L 3481 0 
L 794 0 
L 794 531 
z
" transform="scale(0.015625)"/>
       </defs>
       <use xlink:href="#DejaVuSans-2212"/>
       <use xlink:href="#DejaVuSans-31" transform="translate(83.789062 0)"/>
      </g>
     </g>
    </g>
    <g id="ytick_2">
     <g id="line2d_35">
      <path d="M 58.523438 58.999219 
L 393.323438 58.999219 
" clip-path="url(#p4ef6608f81)" style="fill: none; stroke: #b0b0b0; stroke-width: 0.8; stroke-linecap: square"/>
     </g>
     <g id="line2d_36">
      <g>
       <use xlink:href="#m7fd3e8b37f" x="58.523438" y="58.999219" style="stroke: #000000; stroke-width: 0.8"/>
      </g>
     </g>
     <g id="text_2">
      <!-- 0 -->
      <g transform="translate(45.160938 62.798437) scale(0.1 -0.1)">
       <defs>
        <path id="DejaVuSans-30" d="M 2034 4250 
Q 1547 4250 1301 3770 
Q 1056 3291 1056 2328 
Q 1056 1369 1301 889 
Q 1547 409 2034 409 
Q 2525 409 2770 889 
Q 3016 1369 3016 2328 
Q 3016 3291 2770 3770 
Q 2525 4250 2034 4250 
z
M 2034 4750 
Q 2819 4750 3233 4129 
Q 3647 3509 3647 2328 
Q 3647 1150 3233 529 
Q 2819 -91 2034 -91 
Q 1250 -91 836 529 
Q 422 1150 422 2328 
Q 422 3509 836 4129 
Q 1250 4750 2034 4750 
z
" transform="scale(0.015625)"/>
       </defs>
       <use xlink:href="#DejaVuSans-30"/>
      </g>
     </g>
    </g>
    <g id="ytick_3">
     <g id="line2d_37">
      <path d="M 58.523438 10.999219 
L 393.323438 10.999219 
" clip-path="url(#p4ef6608f81)" style="fill: none; stroke: #b0b0b0; stroke-width: 0.8; stroke-linecap: square"/>
     </g>
     <g id="line2d_38">
      <g>
       <use xlink:href="#m7fd3e8b37f" x="58.523438" y="10.999219" style="stroke: #000000; stroke-width: 0.8"/>
      </g>
     </g>
     <g id="text_3">
      <!-- 1 -->
      <g transform="translate(45.160938 14.798438) scale(0.1 -0.1)">
       <use xlink:href="#DejaVuSans-31"/>
      </g>
     </g>
    </g>
    <g id="text_4">
     <!-- Forcing Function -->
     <g transform="translate(14.798438 100.03125) rotate(-90) scale(0.1 -0.1)">
      <defs>
       <path id="DejaVuSans-46" d="M 628 4666 
L 3309 4666 
L 3309 4134 
L 1259 4134 
L 1259 2759 
L 3109 2759 
L 3109 2228 
L 1259 2228 
L 1259 0 
L 628 0 
L 628 4666 
z
" transform="scale(0.015625)"/>
       <path id="DejaVuSans-6f" d="M 1959 3097 
Q 1497 3097 1228 2736 
Q 959 2375 959 1747 
Q 959 1119 1226 758 
Q 1494 397 1959 397 
Q 2419 397 2687 759 
Q 2956 1122 2956 1747 
Q 2956 2369 2687 2733 
Q 2419 3097 1959 3097 
z
M 1959 3584 
Q 2709 3584 3137 3096 
Q 3566 2609 3566 1747 
Q 3566 888 3137 398 
Q 2709 -91 1959 -91 
Q 1206 -91 779 398 
Q 353 888 353 1747 
Q 353 2609 779 3096 
Q 1206 3584 1959 3584 
z
" transform="scale(0.015625)"/>
       <path id="DejaVuSans-72" d="M 2631 2963 
Q 2534 3019 2420 3045 
Q 2306 3072 2169 3072 
Q 1681 3072 1420 2755 
Q 1159 2438 1159 1844 
L 1159 0 
L 581 0 
L 581 3500 
L 1159 3500 
L 1159 2956 
Q 1341 3275 1631 3429 
Q 1922 3584 2338 3584 
Q 2397 3584 2469 3576 
Q 2541 3569 2628 3553 
L 2631 2963 
z
" transform="scale(0.015625)"/>
       <path id="DejaVuSans-63" d="M 3122 3366 
L 3122 2828 
Q 2878 2963 2633 3030 
Q 2388 3097 2138 3097 
Q 1578 3097 1268 2742 
Q 959 2388 959 1747 
Q 959 1106 1268 751 
Q 1578 397 2138 397 
Q 2388 397 2633 464 
Q 2878 531 3122 666 
L 3122 134 
Q 2881 22 2623 -34 
Q 2366 -91 2075 -91 
Q 1284 -91 818 406 
Q 353 903 353 1747 
Q 353 2603 823 3093 
Q 1294 3584 2113 3584 
Q 2378 3584 2631 3529 
Q 2884 3475 3122 3366 
z
" transform="scale(0.015625)"/>
       <path id="DejaVuSans-69" d="M 603 3500 
L 1178 3500 
L 1178 0 
L 603 0 
L 603 3500 
z
M 603 4863 
L 1178 4863 
L 1178 4134 
L 603 4134 
L 603 4863 
z
" transform="scale(0.015625)"/>
       <path id="DejaVuSans-6e" d="M 3513 2113 
L 3513 0 
L 2938 0 
L 2938 2094 
Q 2938 2591 2744 2837 
Q 2550 3084 2163 3084 
Q 1697 3084 1428 2787 
Q 1159 2491 1159 1978 
L 1159 0 
L 581 0 
L 581 3500 
L 1159 3500 
L 1159 2956 
Q 1366 3272 1645 3428 
Q 1925 3584 2291 3584 
Q 2894 3584 3203 3211 
Q 3513 2838 3513 2113 
z
" transform="scale(0.015625)"/>
       <path id="DejaVuSans-67" d="M 2906 1791 
Q 2906 2416 2648 2759 
Q 2391 3103 1925 3103 
Q 1463 3103 1205 2759 
Q 947 2416 947 1791 
Q 947 1169 1205 825 
Q 1463 481 1925 481 
Q 2391 481 2648 825 
Q 2906 1169 2906 1791 
z
M 3481 434 
Q 3481 -459 3084 -895 
Q 2688 -1331 1869 -1331 
Q 1566 -1331 1297 -1286 
Q 1028 -1241 775 -1147 
L 775 -588 
Q 1028 -725 1275 -790 
Q 1522 -856 1778 -856 
Q 2344 -856 2625 -561 
Q 2906 -266 2906 331 
L 2906 616 
Q 2728 306 2450 153 
Q 2172 0 1784 0 
Q 1141 0 747 490 
Q 353 981 353 1791 
Q 353 2603 747 3093 
Q 1141 3584 1784 3584 
Q 2172 3584 2450 3431 
Q 2728 3278 2906 2969 
L 2906 3500 
L 3481 3500 
L 3481 434 
z
" transform="scale(0.015625)"/>
       <path id="DejaVuSans-20" transform="scale(0.015625)"/>
       <path id="DejaVuSans-75" d="M 544 1381 
L 544 3500 
L 1119 3500 
L 1119 1403 
Q 1119 906 1312 657 
Q 1506 409 1894 409 
Q 2359 409 2629 706 
Q 2900 1003 2900 1516 
L 2900 3500 
L 3475 3500 
L 3475 0 
L 2900 0 
L 2900 538 
Q 2691 219 2414 64 
Q 2138 -91 1772 -91 
Q 1169 -91 856 284 
Q 544 659 544 1381 
z
M 1991 3584 
L 1991 3584 
z
" transform="scale(0.015625)"/>
       <path id="DejaVuSans-74" d="M 1172 4494 
L 1172 3500 
L 2356 3500 
L 2356 3053 
L 1172 3053 
L 1172 1153 
Q 1172 725 1289 603 
Q 1406 481 1766 481 
L 2356 481 
L 2356 0 
L 1766 0 
Q 1100 0 847 248 
Q 594 497 594 1153 
L 594 3053 
L 172 3053 
L 172 3500 
L 594 3500 
L 594 4494 
L 1172 4494 
z
" transform="scale(0.015625)"/>
      </defs>
      <use xlink:href="#DejaVuSans-46"/>
      <use xlink:href="#DejaVuSans-6f" transform="translate(53.894531 0)"/>
      <use xlink:href="#DejaVuSans-72" transform="translate(115.076172 0)"/>
      <use xlink:href="#DejaVuSans-63" transform="translate(153.939453 0)"/>
      <use xlink:href="#DejaVuSans-69" transform="translate(208.919922 0)"/>
      <use xlink:href="#DejaVuSans-6e" transform="translate(236.703125 0)"/>
      <use xlink:href="#DejaVuSans-67" transform="translate(300.082031 0)"/>
      <use xlink:href="#DejaVuSans-20" transform="translate(363.558594 0)"/>
      <use xlink:href="#DejaVuSans-46" transform="translate(395.345703 0)"/>
      <use xlink:href="#DejaVuSans-75" transform="translate(447.365234 0)"/>
      <use xlink:href="#DejaVuSans-6e" transform="translate(510.744141 0)"/>
      <use xlink:href="#DejaVuSans-63" transform="translate(574.123047 0)"/>
      <use xlink:href="#DejaVuSans-74" transform="translate(629.103516 0)"/>
      <use xlink:href="#DejaVuSans-69" transform="translate(668.3125 0)"/>
      <use xlink:href="#DejaVuSans-6f" transform="translate(696.095703 0)"/>
      <use xlink:href="#DejaVuSans-6e" transform="translate(757.277344 0)"/>
     </g>
    </g>
   </g>
   <g id="line2d_39">
    <path d="M 58.523438 58.999219 
L 60.532238 33.279533 
L 61.558958 22.795152 
L 62.362478 16.64924 
L 62.987438 13.348506 
L 63.478478 11.740131 
L 63.880238 11.093936 
L 64.148078 11.003009 
L 64.415918 11.184806 
L 64.728398 11.740131 
L 65.130158 12.990173 
L 65.621198 15.314132 
L 66.246158 19.469654 
L 67.005038 26.140958 
L 67.987118 36.939385 
L 69.460238 55.985274 
L 71.736878 85.226147 
L 72.763598 95.596459 
L 73.567118 101.629768 
L 74.192078 104.832717 
L 74.683118 106.360144 
L 75.040238 106.904502 
L 75.308078 106.995429 
L 75.575918 106.813632 
L 75.888398 106.258307 
L 76.290158 105.008265 
L 76.781198 102.684305 
L 77.406158 98.528783 
L 78.165038 91.85748 
L 79.147118 81.059052 
L 80.620238 62.013164 
L 82.896878 32.77229 
L 83.923598 22.401978 
L 84.727118 16.368669 
L 85.352078 13.165721 
L 85.843118 11.638293 
L 86.200238 11.093936 
L 86.468078 11.003009 
L 86.735917 11.184806 
L 87.048398 11.740131 
L 87.450158 12.990173 
L 87.941198 15.314132 
L 88.566158 19.469654 
L 89.325038 26.140958 
L 90.307118 36.939385 
L 91.780237 55.985274 
L 94.056878 85.226147 
L 95.083598 95.596459 
L 95.887118 101.629768 
L 96.512078 104.832717 
L 97.003118 106.360144 
L 97.360238 106.904502 
L 97.628078 106.995429 
L 97.895918 106.813632 
L 98.208398 106.258307 
L 98.610158 105.008265 
L 99.101198 102.684305 
L 99.726157 98.528783 
L 100.485038 91.85748 
L 101.467118 81.059052 
L 102.940238 62.013164 
L 105.216878 32.77229 
L 106.243598 22.401978 
L 107.047118 16.368669 
L 107.672078 13.165721 
L 108.163118 11.638293 
L 108.520238 11.093936 
L 108.788078 11.003009 
L 109.055918 11.184806 
L 109.368398 11.740131 
L 109.770158 12.990173 
L 110.261198 15.314132 
L 110.886158 19.469654 
L 111.645038 26.140958 
L 112.627117 36.939385 
L 114.100238 55.985274 
L 116.376878 85.226147 
L 117.403598 95.596459 
L 118.207118 101.629768 
L 118.832077 104.832717 
L 119.323118 106.360144 
L 119.680238 106.904502 
L 119.948078 106.995429 
L 120.215918 106.813632 
L 120.528398 106.258307 
L 120.930158 105.008265 
L 121.421198 102.684305 
L 122.046158 98.528783 
L 122.805037 91.85748 
L 123.787117 81.059052 
L 125.260238 62.013164 
L 127.536878 32.77229 
L 128.563598 22.401978 
L 129.367118 16.368669 
L 129.992077 13.165721 
L 130.483118 11.638293 
L 130.840238 11.093936 
L 131.108078 11.003009 
L 131.375918 11.184806 
L 131.688398 11.740131 
L 132.090158 12.990173 
L 132.581198 15.314132 
L 133.206158 19.469654 
L 133.965037 26.140958 
L 134.947118 36.939385 
L 136.420238 55.985274 
L 138.696877 85.226147 
L 139.723598 95.596459 
L 140.527118 101.629768 
L 141.152078 104.832717 
L 141.643118 106.360144 
L 142.000238 106.904502 
L 142.268078 106.995429 
L 142.535918 106.813632 
L 142.848398 106.258307 
L 143.250158 105.008265 
L 143.741197 102.684305 
L 144.366158 98.528783 
L 145.125038 91.85748 
L 146.107118 81.059052 
L 147.580238 62.013164 
L 149.856878 32.77229 
L 150.883598 22.401978 
L 151.687118 16.368669 
L 152.312078 13.165721 
L 152.803118 11.638293 
L 153.160238 11.093936 
L 153.428078 11.003009 
L 153.695918 11.184806 
L 154.008398 11.740131 
L 154.410158 12.990173 
L 154.901198 15.314132 
L 155.526158 19.469654 
L 156.285038 26.140958 
L 157.267118 36.939385 
L 158.740238 55.985274 
L 161.016878 85.226147 
L 162.043598 95.596459 
L 162.847118 101.629768 
L 163.472078 104.832717 
L 163.963118 106.360144 
L 164.320238 106.904502 
L 164.588077 106.995429 
L 164.855918 106.813632 
L 165.168398 106.258307 
L 165.570158 105.008265 
L 166.061198 102.684305 
L 166.686158 98.528783 
L 167.445038 91.85748 
L 168.427118 81.059052 
L 169.900238 62.013164 
L 172.176878 32.77229 
L 173.203598 22.401978 
L 174.007118 16.368669 
L 174.632078 13.165721 
L 175.123118 11.638293 
L 175.480238 11.093936 
L 175.748077 11.003009 
L 176.015918 11.184806 
L 176.328398 11.740131 
L 176.730158 12.990173 
L 177.221198 15.314132 
L 177.846158 19.469654 
L 178.605038 26.140958 
L 179.587118 36.939385 
L 181.060237 55.985274 
L 183.336878 85.226147 
L 184.363597 95.596459 
L 185.167118 101.629768 
L 185.792078 104.832717 
L 186.283118 106.360144 
L 186.640238 106.904502 
L 186.908077 106.995429 
L 187.175917 106.813632 
L 187.488398 106.258307 
L 187.890158 105.008265 
L 188.381198 102.684305 
L 189.006158 98.528783 
L 189.765038 91.85748 
L 190.747118 81.059052 
L 192.220237 62.013164 
L 194.496878 32.77229 
L 195.523597 22.401978 
L 196.327118 16.368669 
L 196.952078 13.165721 
L 197.443117 11.638293 
L 197.800238 11.093936 
L 198.068077 11.003009 
L 198.335917 11.184806 
L 198.648398 11.740131 
L 199.050158 12.990173 
L 199.541198 15.314132 
L 200.166157 19.469654 
L 200.925038 26.140958 
L 201.907117 36.939385 
L 203.380237 55.985274 
L 205.656878 85.226147 
L 206.683597 95.596459 
L 207.487118 101.629768 
L 208.112077 104.832717 
L 208.603117 106.360144 
L 208.960238 106.904502 
L 209.228077 106.995429 
L 209.495918 106.813632 
L 209.808398 106.258307 
L 210.210158 105.008265 
L 210.701198 102.684305 
L 211.326157 98.528783 
L 212.085037 91.85748 
L 213.067118 81.059052 
L 214.540238 62.013164 
L 216.816878 32.77229 
L 217.843597 22.401978 
L 218.647118 16.368669 
L 219.272077 13.165721 
L 219.763117 11.638293 
L 220.120238 11.093936 
L 220.388078 11.003009 
L 220.655918 11.184806 
L 220.968398 11.740131 
L 221.370158 12.990173 
L 221.861198 15.314132 
L 222.486157 19.469654 
L 223.245037 26.140958 
L 224.227118 36.939385 
L 225.700238 55.985274 
L 227.976878 85.226147 
L 229.003598 95.596459 
L 229.807118 101.629768 
L 230.432077 104.832717 
L 230.923118 106.360144 
L 231.280237 106.904502 
L 231.548078 106.995429 
L 231.815918 106.813632 
L 232.128398 106.258307 
L 232.530158 105.008265 
L 233.021197 102.684305 
L 233.646158 98.528783 
L 234.405037 91.85748 
L 235.387118 81.059052 
L 236.860238 62.013164 
L 239.136878 32.77229 
L 240.163598 22.401978 
L 240.967118 16.368669 
L 241.592077 13.165721 
L 242.083118 11.638293 
L 242.440237 11.093936 
L 242.708078 11.003009 
L 242.975917 11.184806 
L 243.288398 11.740131 
L 243.690157 12.990173 
L 244.181197 15.314132 
L 244.806158 19.469654 
L 245.565038 26.140958 
L 246.547117 36.939385 
L 248.020238 55.985274 
L 250.296878 85.226147 
L 251.323598 95.596459 
L 252.127117 101.629768 
L 252.752078 104.832717 
L 253.243118 106.360144 
L 253.600238 106.904502 
L 253.868078 106.995429 
L 254.135917 106.813632 
L 254.448398 106.258307 
L 254.850157 105.008265 
L 255.341197 102.684305 
L 255.966158 98.528783 
L 256.725038 91.85748 
L 257.707117 81.059052 
L 259.180238 62.013164 
L 261.456878 32.77229 
L 262.483598 22.401978 
L 263.287118 16.368669 
L 263.912078 13.165721 
L 264.403118 11.638293 
L 264.760238 11.093936 
L 265.028078 11.003009 
L 265.295918 11.184806 
L 265.608398 11.740131 
L 266.010157 12.990173 
L 266.501197 15.314132 
L 267.126158 19.469654 
L 267.885038 26.140958 
L 268.867118 36.939385 
L 270.340238 55.985274 
L 272.616878 85.226147 
L 273.643597 95.596459 
L 274.447117 101.629768 
L 275.072078 104.832717 
L 275.563118 106.360144 
L 275.920238 106.904502 
L 276.188078 106.995429 
L 276.455917 106.813632 
L 276.768398 106.258307 
L 277.170158 105.008265 
L 277.661198 102.684305 
L 278.286158 98.528783 
L 279.045038 91.85748 
L 280.027118 81.059052 
L 281.500238 62.013164 
L 283.776878 32.77229 
L 284.803598 22.401978 
L 285.607118 16.368669 
L 286.232078 13.165721 
L 286.723118 11.638293 
L 287.080238 11.093936 
L 287.348078 11.003009 
L 287.615918 11.184806 
L 287.928398 11.740131 
L 288.330157 12.990173 
L 288.821197 15.314132 
L 289.446158 19.469654 
L 290.205038 26.140958 
L 291.187117 36.939385 
L 292.660237 55.985274 
L 294.936878 85.226147 
L 295.963597 95.596459 
L 296.767117 101.629768 
L 297.392078 104.832717 
L 297.883118 106.360144 
L 298.240238 106.904502 
L 298.508078 106.995429 
L 298.775917 106.813632 
L 299.088398 106.258307 
L 299.490158 105.008265 
L 299.981198 102.684305 
L 300.606157 98.528783 
L 301.365038 91.85748 
L 302.347118 81.059052 
L 303.820238 62.013164 
L 306.096878 32.77229 
L 307.123598 22.401978 
L 307.927118 16.368669 
L 308.552077 13.165721 
L 309.043117 11.638293 
L 309.400238 11.093936 
L 309.668078 11.003009 
L 309.935918 11.184806 
L 310.248398 11.740131 
L 310.650157 12.990173 
L 311.141198 15.314132 
L 311.766158 19.469654 
L 312.525038 26.140958 
L 313.507117 36.939385 
L 314.980237 55.985274 
L 317.256878 85.226147 
L 318.283597 95.596459 
L 319.087117 101.629768 
L 319.712078 104.832717 
L 320.203118 106.360144 
L 320.560238 106.904502 
L 320.828078 106.995429 
L 321.095918 106.813632 
L 321.408398 106.258307 
L 321.810158 105.008265 
L 322.301198 102.684305 
L 322.926157 98.528783 
L 323.685038 91.85748 
L 324.667118 81.059052 
L 326.140238 62.013164 
L 328.416877 32.77229 
L 329.443598 22.401978 
L 330.247118 16.368669 
L 330.872077 13.165721 
L 331.363117 11.638293 
L 331.720237 11.093936 
L 331.988078 11.003009 
L 332.255918 11.184806 
L 332.568398 11.740131 
L 332.970157 12.990173 
L 333.461197 15.314132 
L 334.086158 19.469654 
L 334.845038 26.140958 
L 335.827117 36.939385 
L 337.300237 55.985274 
L 339.576878 85.226147 
L 340.603597 95.596459 
L 341.407117 101.629768 
L 342.032078 104.832717 
L 342.523118 106.360144 
L 342.880238 106.904502 
L 343.148077 106.995429 
L 343.415918 106.813632 
L 343.728398 106.258307 
L 344.130158 105.008265 
L 344.621197 102.684305 
L 345.246157 98.528783 
L 346.005038 91.85748 
L 346.987118 81.059052 
L 348.460238 62.013164 
L 350.736877 32.77229 
L 351.763598 22.401978 
L 352.567117 16.368669 
L 353.192077 13.165721 
L 353.683117 11.638293 
L 354.040237 11.093936 
L 354.308078 11.003009 
L 354.575918 11.184806 
L 354.888397 11.740131 
L 355.290158 12.990173 
L 355.781198 15.314132 
L 356.406158 19.469654 
L 357.165038 26.140958 
L 358.147117 36.939385 
L 359.620238 55.985274 
L 361.896878 85.226147 
L 362.923598 95.596459 
L 363.727118 101.629768 
L 364.352078 104.832717 
L 364.843118 106.360144 
L 365.200238 106.904502 
L 365.468077 106.995429 
L 365.735918 106.813632 
L 366.048398 106.258307 
L 366.450158 105.008265 
L 366.941197 102.684305 
L 367.566158 98.528783 
L 368.325038 91.85748 
L 369.307118 81.059052 
L 370.780237 62.013164 
L 373.056878 32.77229 
L 374.083597 22.401978 
L 374.887117 16.368669 
L 375.512077 13.165721 
L 376.003118 11.638293 
L 376.360237 11.093936 
L 376.628078 11.003009 
L 376.895918 11.184806 
L 377.208397 11.740131 
L 377.610158 12.990173 
L 378.101198 15.314132 
L 378.726157 19.469654 
L 379.485038 26.140958 
L 380.467117 36.939385 
L 381.940238 55.985274 
L 384.216878 85.226147 
L 385.243598 95.596459 
L 386.047118 101.629768 
L 386.672078 104.832717 
L 387.163117 106.360144 
L 387.520238 106.904502 
L 387.788078 106.995429 
L 388.055918 106.813632 
L 388.368398 106.258307 
L 388.770158 105.008265 
L 389.261197 102.684305 
L 389.886158 98.528783 
L 390.645038 91.85748 
L 391.627117 81.059052 
L 393.100237 62.013164 
L 393.323438 58.999219 
L 393.323438 58.999219 
" clip-path="url(#p4ef6608f81)" style="fill: none; stroke: #1f77b4; stroke-width: 1.5; stroke-linecap: square"/>
   </g>
   <g id="patch_3">
    <path d="M 58.523438 109.399219 
L 58.523438 8.599219 
" style="fill: none"/>
   </g>
   <g id="patch_4">
    <path d="M 393.323438 109.399219 
L 393.323438 8.599219 
" style="fill: none"/>
   </g>
   <g id="patch_5">
    <path d="M 58.523438 58.999219 
L 393.323438 58.999219 
" style="fill: none; stroke: #000000; stroke-width: 0.8; stroke-linejoin: miter; stroke-linecap: square"/>
   </g>
   <g id="patch_6">
    <path d="M 58.523438 8.599219 
L 393.323438 8.599219 
" style="fill: none"/>
   </g>
  </g>
  <g id="axes_2">
   <g id="patch_7">
    <path d="M 58.523438 230.359219 
L 393.323438 230.359219 
L 393.323438 129.559219 
L 58.523438 129.559219 
z
" style="fill: #ffffff"/>
   </g>
   <g id="matplotlib.axis_3">
    <g id="xtick_17">
     <g id="line2d_40">
      <path d="M 58.523438 230.359219 
L 58.523438 129.559219 
" clip-path="url(#p0d66bbd784)" style="fill: none; stroke: #b0b0b0; stroke-width: 0.8; stroke-linecap: square"/>
     </g>
     <g id="line2d_41">
      <g>
       <use xlink:href="#m570ed2c9d9" x="58.523438" y="230.359219" style="stroke: #000000; stroke-width: 0.8"/>
      </g>
     </g>
     <g id="text_5">
      <!-- 0 -->
      <g transform="translate(55.342188 244.957656) scale(0.1 -0.1)">
       <use xlink:href="#DejaVuSans-30"/>
      </g>
     </g>
    </g>
    <g id="xtick_18">
     <g id="line2d_42">
      <path d="M 80.843438 230.359219 
L 80.843438 129.559219 
" clip-path="url(#p0d66bbd784)" style="fill: none; stroke: #b0b0b0; stroke-width: 0.8; stroke-linecap: square"/>
     </g>
     <g id="line2d_43">
      <g>
       <use xlink:href="#m570ed2c9d9" x="80.843438" y="230.359219" style="stroke: #000000; stroke-width: 0.8"/>
      </g>
     </g>
     <g id="text_6">
      <!-- 1 -->
      <g transform="translate(77.662188 244.957656) scale(0.1 -0.1)">
       <use xlink:href="#DejaVuSans-31"/>
      </g>
     </g>
    </g>
    <g id="xtick_19">
     <g id="line2d_44">
      <path d="M 103.163438 230.359219 
L 103.163438 129.559219 
" clip-path="url(#p0d66bbd784)" style="fill: none; stroke: #b0b0b0; stroke-width: 0.8; stroke-linecap: square"/>
     </g>
     <g id="line2d_45">
      <g>
       <use xlink:href="#m570ed2c9d9" x="103.163438" y="230.359219" style="stroke: #000000; stroke-width: 0.8"/>
      </g>
     </g>
     <g id="text_7">
      <!-- 2 -->
      <g transform="translate(99.982188 244.957656) scale(0.1 -0.1)">
       <defs>
        <path id="DejaVuSans-32" d="M 1228 531 
L 3431 531 
L 3431 0 
L 469 0 
L 469 531 
Q 828 903 1448 1529 
Q 2069 2156 2228 2338 
Q 2531 2678 2651 2914 
Q 2772 3150 2772 3378 
Q 2772 3750 2511 3984 
Q 2250 4219 1831 4219 
Q 1534 4219 1204 4116 
Q 875 4013 500 3803 
L 500 4441 
Q 881 4594 1212 4672 
Q 1544 4750 1819 4750 
Q 2544 4750 2975 4387 
Q 3406 4025 3406 3419 
Q 3406 3131 3298 2873 
Q 3191 2616 2906 2266 
Q 2828 2175 2409 1742 
Q 1991 1309 1228 531 
z
" transform="scale(0.015625)"/>
       </defs>
       <use xlink:href="#DejaVuSans-32"/>
      </g>
     </g>
    </g>
    <g id="xtick_20">
     <g id="line2d_46">
      <path d="M 125.483438 230.359219 
L 125.483438 129.559219 
" clip-path="url(#p0d66bbd784)" style="fill: none; stroke: #b0b0b0; stroke-width: 0.8; stroke-linecap: square"/>
     </g>
     <g id="line2d_47">
      <g>
       <use xlink:href="#m570ed2c9d9" x="125.483438" y="230.359219" style="stroke: #000000; stroke-width: 0.8"/>
      </g>
     </g>
     <g id="text_8">
      <!-- 3 -->
      <g transform="translate(122.302188 244.957656) scale(0.1 -0.1)">
       <defs>
        <path id="DejaVuSans-33" d="M 2597 2516 
Q 3050 2419 3304 2112 
Q 3559 1806 3559 1356 
Q 3559 666 3084 287 
Q 2609 -91 1734 -91 
Q 1441 -91 1130 -33 
Q 819 25 488 141 
L 488 750 
Q 750 597 1062 519 
Q 1375 441 1716 441 
Q 2309 441 2620 675 
Q 2931 909 2931 1356 
Q 2931 1769 2642 2001 
Q 2353 2234 1838 2234 
L 1294 2234 
L 1294 2753 
L 1863 2753 
Q 2328 2753 2575 2939 
Q 2822 3125 2822 3475 
Q 2822 3834 2567 4026 
Q 2313 4219 1838 4219 
Q 1578 4219 1281 4162 
Q 984 4106 628 3988 
L 628 4550 
Q 988 4650 1302 4700 
Q 1616 4750 1894 4750 
Q 2613 4750 3031 4423 
Q 3450 4097 3450 3541 
Q 3450 3153 3228 2886 
Q 3006 2619 2597 2516 
z
" transform="scale(0.015625)"/>
       </defs>
       <use xlink:href="#DejaVuSans-33"/>
      </g>
     </g>
    </g>
    <g id="xtick_21">
     <g id="line2d_48">
      <path d="M 147.803438 230.359219 
L 147.803438 129.559219 
" clip-path="url(#p0d66bbd784)" style="fill: none; stroke: #b0b0b0; stroke-width: 0.8; stroke-linecap: square"/>
     </g>
     <g id="line2d_49">
      <g>
       <use xlink:href="#m570ed2c9d9" x="147.803438" y="230.359219" style="stroke: #000000; stroke-width: 0.8"/>
      </g>
     </g>
     <g id="text_9">
      <!-- 4 -->
      <g transform="translate(144.622187 244.957656) scale(0.1 -0.1)">
       <defs>
        <path id="DejaVuSans-34" d="M 2419 4116 
L 825 1625 
L 2419 1625 
L 2419 4116 
z
M 2253 4666 
L 3047 4666 
L 3047 1625 
L 3713 1625 
L 3713 1100 
L 3047 1100 
L 3047 0 
L 2419 0 
L 2419 1100 
L 313 1100 
L 313 1709 
L 2253 4666 
z
" transform="scale(0.015625)"/>
       </defs>
       <use xlink:href="#DejaVuSans-34"/>
      </g>
     </g>
    </g>
    <g id="xtick_22">
     <g id="line2d_50">
      <path d="M 170.123437 230.359219 
L 170.123437 129.559219 
" clip-path="url(#p0d66bbd784)" style="fill: none; stroke: #b0b0b0; stroke-width: 0.8; stroke-linecap: square"/>
     </g>
     <g id="line2d_51">
      <g>
       <use xlink:href="#m570ed2c9d9" x="170.123437" y="230.359219" style="stroke: #000000; stroke-width: 0.8"/>
      </g>
     </g>
     <g id="text_10">
      <!-- 5 -->
      <g transform="translate(166.942187 244.957656) scale(0.1 -0.1)">
       <defs>
        <path id="DejaVuSans-35" d="M 691 4666 
L 3169 4666 
L 3169 4134 
L 1269 4134 
L 1269 2991 
Q 1406 3038 1543 3061 
Q 1681 3084 1819 3084 
Q 2600 3084 3056 2656 
Q 3513 2228 3513 1497 
Q 3513 744 3044 326 
Q 2575 -91 1722 -91 
Q 1428 -91 1123 -41 
Q 819 9 494 109 
L 494 744 
Q 775 591 1075 516 
Q 1375 441 1709 441 
Q 2250 441 2565 725 
Q 2881 1009 2881 1497 
Q 2881 1984 2565 2268 
Q 2250 2553 1709 2553 
Q 1456 2553 1204 2497 
Q 953 2441 691 2322 
L 691 4666 
z
" transform="scale(0.015625)"/>
       </defs>
       <use xlink:href="#DejaVuSans-35"/>
      </g>
     </g>
    </g>
    <g id="xtick_23">
     <g id="line2d_52">
      <path d="M 192.443438 230.359219 
L 192.443438 129.559219 
" clip-path="url(#p0d66bbd784)" style="fill: none; stroke: #b0b0b0; stroke-width: 0.8; stroke-linecap: square"/>
     </g>
     <g id="line2d_53">
      <g>
       <use xlink:href="#m570ed2c9d9" x="192.443438" y="230.359219" style="stroke: #000000; stroke-width: 0.8"/>
      </g>
     </g>
     <g id="text_11">
      <!-- 6 -->
      <g transform="translate(189.262188 244.957656) scale(0.1 -0.1)">
       <defs>
        <path id="DejaVuSans-36" d="M 2113 2584 
Q 1688 2584 1439 2293 
Q 1191 2003 1191 1497 
Q 1191 994 1439 701 
Q 1688 409 2113 409 
Q 2538 409 2786 701 
Q 3034 994 3034 1497 
Q 3034 2003 2786 2293 
Q 2538 2584 2113 2584 
z
M 3366 4563 
L 3366 3988 
Q 3128 4100 2886 4159 
Q 2644 4219 2406 4219 
Q 1781 4219 1451 3797 
Q 1122 3375 1075 2522 
Q 1259 2794 1537 2939 
Q 1816 3084 2150 3084 
Q 2853 3084 3261 2657 
Q 3669 2231 3669 1497 
Q 3669 778 3244 343 
Q 2819 -91 2113 -91 
Q 1303 -91 875 529 
Q 447 1150 447 2328 
Q 447 3434 972 4092 
Q 1497 4750 2381 4750 
Q 2619 4750 2861 4703 
Q 3103 4656 3366 4563 
z
" transform="scale(0.015625)"/>
       </defs>
       <use xlink:href="#DejaVuSans-36"/>
      </g>
     </g>
    </g>
    <g id="xtick_24">
     <g id="line2d_54">
      <path d="M 214.763438 230.359219 
L 214.763438 129.559219 
" clip-path="url(#p0d66bbd784)" style="fill: none; stroke: #b0b0b0; stroke-width: 0.8; stroke-linecap: square"/>
     </g>
     <g id="line2d_55">
      <g>
       <use xlink:href="#m570ed2c9d9" x="214.763438" y="230.359219" style="stroke: #000000; stroke-width: 0.8"/>
      </g>
     </g>
     <g id="text_12">
      <!-- 7 -->
      <g transform="translate(211.582188 244.957656) scale(0.1 -0.1)">
       <defs>
        <path id="DejaVuSans-37" d="M 525 4666 
L 3525 4666 
L 3525 4397 
L 1831 0 
L 1172 0 
L 2766 4134 
L 525 4134 
L 525 4666 
z
" transform="scale(0.015625)"/>
       </defs>
       <use xlink:href="#DejaVuSans-37"/>
      </g>
     </g>
    </g>
    <g id="xtick_25">
     <g id="line2d_56">
      <path d="M 237.083438 230.359219 
L 237.083438 129.559219 
" clip-path="url(#p0d66bbd784)" style="fill: none; stroke: #b0b0b0; stroke-width: 0.8; stroke-linecap: square"/>
     </g>
     <g id="line2d_57">
      <g>
       <use xlink:href="#m570ed2c9d9" x="237.083438" y="230.359219" style="stroke: #000000; stroke-width: 0.8"/>
      </g>
     </g>
     <g id="text_13">
      <!-- 8 -->
      <g transform="translate(233.902187 244.957656) scale(0.1 -0.1)">
       <defs>
        <path id="DejaVuSans-38" d="M 2034 2216 
Q 1584 2216 1326 1975 
Q 1069 1734 1069 1313 
Q 1069 891 1326 650 
Q 1584 409 2034 409 
Q 2484 409 2743 651 
Q 3003 894 3003 1313 
Q 3003 1734 2745 1975 
Q 2488 2216 2034 2216 
z
M 1403 2484 
Q 997 2584 770 2862 
Q 544 3141 544 3541 
Q 544 4100 942 4425 
Q 1341 4750 2034 4750 
Q 2731 4750 3128 4425 
Q 3525 4100 3525 3541 
Q 3525 3141 3298 2862 
Q 3072 2584 2669 2484 
Q 3125 2378 3379 2068 
Q 3634 1759 3634 1313 
Q 3634 634 3220 271 
Q 2806 -91 2034 -91 
Q 1263 -91 848 271 
Q 434 634 434 1313 
Q 434 1759 690 2068 
Q 947 2378 1403 2484 
z
M 1172 3481 
Q 1172 3119 1398 2916 
Q 1625 2713 2034 2713 
Q 2441 2713 2670 2916 
Q 2900 3119 2900 3481 
Q 2900 3844 2670 4047 
Q 2441 4250 2034 4250 
Q 1625 4250 1398 4047 
Q 1172 3844 1172 3481 
z
" transform="scale(0.015625)"/>
       </defs>
       <use xlink:href="#DejaVuSans-38"/>
      </g>
     </g>
    </g>
    <g id="xtick_26">
     <g id="line2d_58">
      <path d="M 259.403437 230.359219 
L 259.403437 129.559219 
" clip-path="url(#p0d66bbd784)" style="fill: none; stroke: #b0b0b0; stroke-width: 0.8; stroke-linecap: square"/>
     </g>
     <g id="line2d_59">
      <g>
       <use xlink:href="#m570ed2c9d9" x="259.403437" y="230.359219" style="stroke: #000000; stroke-width: 0.8"/>
      </g>
     </g>
     <g id="text_14">
      <!-- 9 -->
      <g transform="translate(256.222188 244.957656) scale(0.1 -0.1)">
       <defs>
        <path id="DejaVuSans-39" d="M 703 97 
L 703 672 
Q 941 559 1184 500 
Q 1428 441 1663 441 
Q 2288 441 2617 861 
Q 2947 1281 2994 2138 
Q 2813 1869 2534 1725 
Q 2256 1581 1919 1581 
Q 1219 1581 811 2004 
Q 403 2428 403 3163 
Q 403 3881 828 4315 
Q 1253 4750 1959 4750 
Q 2769 4750 3195 4129 
Q 3622 3509 3622 2328 
Q 3622 1225 3098 567 
Q 2575 -91 1691 -91 
Q 1453 -91 1209 -44 
Q 966 3 703 97 
z
M 1959 2075 
Q 2384 2075 2632 2365 
Q 2881 2656 2881 3163 
Q 2881 3666 2632 3958 
Q 2384 4250 1959 4250 
Q 1534 4250 1286 3958 
Q 1038 3666 1038 3163 
Q 1038 2656 1286 2365 
Q 1534 2075 1959 2075 
z
" transform="scale(0.015625)"/>
       </defs>
       <use xlink:href="#DejaVuSans-39"/>
      </g>
     </g>
    </g>
    <g id="xtick_27">
     <g id="line2d_60">
      <path d="M 281.723437 230.359219 
L 281.723437 129.559219 
" clip-path="url(#p0d66bbd784)" style="fill: none; stroke: #b0b0b0; stroke-width: 0.8; stroke-linecap: square"/>
     </g>
     <g id="line2d_61">
      <g>
       <use xlink:href="#m570ed2c9d9" x="281.723437" y="230.359219" style="stroke: #000000; stroke-width: 0.8"/>
      </g>
     </g>
     <g id="text_15">
      <!-- 10 -->
      <g transform="translate(275.360937 244.957656) scale(0.1 -0.1)">
       <use xlink:href="#DejaVuSans-31"/>
       <use xlink:href="#DejaVuSans-30" transform="translate(63.623047 0)"/>
      </g>
     </g>
    </g>
    <g id="xtick_28">
     <g id="line2d_62">
      <path d="M 304.043438 230.359219 
L 304.043438 129.559219 
" clip-path="url(#p0d66bbd784)" style="fill: none; stroke: #b0b0b0; stroke-width: 0.8; stroke-linecap: square"/>
     </g>
     <g id="line2d_63">
      <g>
       <use xlink:href="#m570ed2c9d9" x="304.043438" y="230.359219" style="stroke: #000000; stroke-width: 0.8"/>
      </g>
     </g>
     <g id="text_16">
      <!-- 11 -->
      <g transform="translate(297.680938 244.957656) scale(0.1 -0.1)">
       <use xlink:href="#DejaVuSans-31"/>
       <use xlink:href="#DejaVuSans-31" transform="translate(63.623047 0)"/>
      </g>
     </g>
    </g>
    <g id="xtick_29">
     <g id="line2d_64">
      <path d="M 326.363438 230.359219 
L 326.363438 129.559219 
" clip-path="url(#p0d66bbd784)" style="fill: none; stroke: #b0b0b0; stroke-width: 0.8; stroke-linecap: square"/>
     </g>
     <g id="line2d_65">
      <g>
       <use xlink:href="#m570ed2c9d9" x="326.363438" y="230.359219" style="stroke: #000000; stroke-width: 0.8"/>
      </g>
     </g>
     <g id="text_17">
      <!-- 12 -->
      <g transform="translate(320.000938 244.957656) scale(0.1 -0.1)">
       <use xlink:href="#DejaVuSans-31"/>
       <use xlink:href="#DejaVuSans-32" transform="translate(63.623047 0)"/>
      </g>
     </g>
    </g>
    <g id="xtick_30">
     <g id="line2d_66">
      <path d="M 348.683438 230.359219 
L 348.683438 129.559219 
" clip-path="url(#p0d66bbd784)" style="fill: none; stroke: #b0b0b0; stroke-width: 0.8; stroke-linecap: square"/>
     </g>
     <g id="line2d_67">
      <g>
       <use xlink:href="#m570ed2c9d9" x="348.683438" y="230.359219" style="stroke: #000000; stroke-width: 0.8"/>
      </g>
     </g>
     <g id="text_18">
      <!-- 13 -->
      <g transform="translate(342.320938 244.957656) scale(0.1 -0.1)">
       <use xlink:href="#DejaVuSans-31"/>
       <use xlink:href="#DejaVuSans-33" transform="translate(63.623047 0)"/>
      </g>
     </g>
    </g>
    <g id="xtick_31">
     <g id="line2d_68">
      <path d="M 371.003438 230.359219 
L 371.003438 129.559219 
" clip-path="url(#p0d66bbd784)" style="fill: none; stroke: #b0b0b0; stroke-width: 0.8; stroke-linecap: square"/>
     </g>
     <g id="line2d_69">
      <g>
       <use xlink:href="#m570ed2c9d9" x="371.003438" y="230.359219" style="stroke: #000000; stroke-width: 0.8"/>
      </g>
     </g>
     <g id="text_19">
      <!-- 14 -->
      <g transform="translate(364.640938 244.957656) scale(0.1 -0.1)">
       <use xlink:href="#DejaVuSans-31"/>
       <use xlink:href="#DejaVuSans-34" transform="translate(63.623047 0)"/>
      </g>
     </g>
    </g>
    <g id="xtick_32">
     <g id="line2d_70">
      <path d="M 393.323438 230.359219 
L 393.323438 129.559219 
" clip-path="url(#p0d66bbd784)" style="fill: none; stroke: #b0b0b0; stroke-width: 0.8; stroke-linecap: square"/>
     </g>
     <g id="line2d_71">
      <g>
       <use xlink:href="#m570ed2c9d9" x="393.323438" y="230.359219" style="stroke: #000000; stroke-width: 0.8"/>
      </g>
     </g>
     <g id="text_20">
      <!-- 15 -->
      <g transform="translate(386.960938 244.957656) scale(0.1 -0.1)">
       <use xlink:href="#DejaVuSans-31"/>
       <use xlink:href="#DejaVuSans-35" transform="translate(63.623047 0)"/>
      </g>
     </g>
    </g>
    <g id="text_21">
     <!-- Time -->
     <g transform="translate(213.689844 258.635781) scale(0.1 -0.1)">
      <defs>
       <path id="DejaVuSans-54" d="M -19 4666 
L 3928 4666 
L 3928 4134 
L 2272 4134 
L 2272 0 
L 1638 0 
L 1638 4134 
L -19 4134 
L -19 4666 
z
" transform="scale(0.015625)"/>
       <path id="DejaVuSans-6d" d="M 3328 2828 
Q 3544 3216 3844 3400 
Q 4144 3584 4550 3584 
Q 5097 3584 5394 3201 
Q 5691 2819 5691 2113 
L 5691 0 
L 5113 0 
L 5113 2094 
Q 5113 2597 4934 2840 
Q 4756 3084 4391 3084 
Q 3944 3084 3684 2787 
Q 3425 2491 3425 1978 
L 3425 0 
L 2847 0 
L 2847 2094 
Q 2847 2600 2669 2842 
Q 2491 3084 2119 3084 
Q 1678 3084 1418 2786 
Q 1159 2488 1159 1978 
L 1159 0 
L 581 0 
L 581 3500 
L 1159 3500 
L 1159 2956 
Q 1356 3278 1631 3431 
Q 1906 3584 2284 3584 
Q 2666 3584 2933 3390 
Q 3200 3197 3328 2828 
z
" transform="scale(0.015625)"/>
       <path id="DejaVuSans-65" d="M 3597 1894 
L 3597 1613 
L 953 1613 
Q 991 1019 1311 708 
Q 1631 397 2203 397 
Q 2534 397 2845 478 
Q 3156 559 3463 722 
L 3463 178 
Q 3153 47 2828 -22 
Q 2503 -91 2169 -91 
Q 1331 -91 842 396 
Q 353 884 353 1716 
Q 353 2575 817 3079 
Q 1281 3584 2069 3584 
Q 2775 3584 3186 3129 
Q 3597 2675 3597 1894 
z
M 3022 2063 
Q 3016 2534 2758 2815 
Q 2500 3097 2075 3097 
Q 1594 3097 1305 2825 
Q 1016 2553 972 2059 
L 3022 2063 
z
" transform="scale(0.015625)"/>
      </defs>
      <use xlink:href="#DejaVuSans-54"/>
      <use xlink:href="#DejaVuSans-69" transform="translate(57.958984 0)"/>
      <use xlink:href="#DejaVuSans-6d" transform="translate(85.742188 0)"/>
      <use xlink:href="#DejaVuSans-65" transform="translate(183.154297 0)"/>
     </g>
    </g>
   </g>
   <g id="matplotlib.axis_4">
    <g id="ytick_4">
     <g id="line2d_72">
      <path d="M 58.523438 217.049616 
L 393.323438 217.049616 
" clip-path="url(#p0d66bbd784)" style="fill: none; stroke: #b0b0b0; stroke-width: 0.8; stroke-linecap: square"/>
     </g>
     <g id="line2d_73">
      <g>
       <use xlink:href="#m7fd3e8b37f" x="58.523438" y="217.049616" style="stroke: #000000; stroke-width: 0.8"/>
      </g>
     </g>
     <g id="text_22">
      <!-- −0.02 -->
      <g transform="translate(20.878125 220.848835) scale(0.1 -0.1)">
       <defs>
        <path id="DejaVuSans-2e" d="M 684 794 
L 1344 794 
L 1344 0 
L 684 0 
L 684 794 
z
" transform="scale(0.015625)"/>
       </defs>
       <use xlink:href="#DejaVuSans-2212"/>
       <use xlink:href="#DejaVuSans-30" transform="translate(83.789062 0)"/>
       <use xlink:href="#DejaVuSans-2e" transform="translate(147.412109 0)"/>
       <use xlink:href="#DejaVuSans-30" transform="translate(179.199219 0)"/>
       <use xlink:href="#DejaVuSans-32" transform="translate(242.822266 0)"/>
      </g>
     </g>
    </g>
    <g id="ytick_5">
     <g id="line2d_74">
      <path d="M 58.523438 179.959219 
L 393.323438 179.959219 
" clip-path="url(#p0d66bbd784)" style="fill: none; stroke: #b0b0b0; stroke-width: 0.8; stroke-linecap: square"/>
     </g>
     <g id="line2d_75">
      <g>
       <use xlink:href="#m7fd3e8b37f" x="58.523438" y="179.959219" style="stroke: #000000; stroke-width: 0.8"/>
      </g>
     </g>
     <g id="text_23">
      <!-- 0.00 -->
      <g transform="translate(29.257813 183.758437) scale(0.1 -0.1)">
       <use xlink:href="#DejaVuSans-30"/>
       <use xlink:href="#DejaVuSans-2e" transform="translate(63.623047 0)"/>
       <use xlink:href="#DejaVuSans-30" transform="translate(95.410156 0)"/>
       <use xlink:href="#DejaVuSans-30" transform="translate(159.033203 0)"/>
      </g>
     </g>
    </g>
    <g id="ytick_6">
     <g id="line2d_76">
      <path d="M 58.523438 142.868822 
L 393.323438 142.868822 
" clip-path="url(#p0d66bbd784)" style="fill: none; stroke: #b0b0b0; stroke-width: 0.8; stroke-linecap: square"/>
     </g>
     <g id="line2d_77">
      <g>
       <use xlink:href="#m7fd3e8b37f" x="58.523438" y="142.868822" style="stroke: #000000; stroke-width: 0.8"/>
      </g>
     </g>
     <g id="text_24">
      <!-- 0.02 -->
      <g transform="translate(29.257813 146.66804) scale(0.1 -0.1)">
       <use xlink:href="#DejaVuSans-30"/>
       <use xlink:href="#DejaVuSans-2e" transform="translate(63.623047 0)"/>
       <use xlink:href="#DejaVuSans-30" transform="translate(95.410156 0)"/>
       <use xlink:href="#DejaVuSans-32" transform="translate(159.033203 0)"/>
      </g>
     </g>
    </g>
    <g id="text_25">
     <!-- Position -->
     <g transform="translate(14.798438 199.423281) rotate(-90) scale(0.1 -0.1)">
      <defs>
       <path id="DejaVuSans-50" d="M 1259 4147 
L 1259 2394 
L 2053 2394 
Q 2494 2394 2734 2622 
Q 2975 2850 2975 3272 
Q 2975 3691 2734 3919 
Q 2494 4147 2053 4147 
L 1259 4147 
z
M 628 4666 
L 2053 4666 
Q 2838 4666 3239 4311 
Q 3641 3956 3641 3272 
Q 3641 2581 3239 2228 
Q 2838 1875 2053 1875 
L 1259 1875 
L 1259 0 
L 628 0 
L 628 4666 
z
" transform="scale(0.015625)"/>
       <path id="DejaVuSans-73" d="M 2834 3397 
L 2834 2853 
Q 2591 2978 2328 3040 
Q 2066 3103 1784 3103 
Q 1356 3103 1142 2972 
Q 928 2841 928 2578 
Q 928 2378 1081 2264 
Q 1234 2150 1697 2047 
L 1894 2003 
Q 2506 1872 2764 1633 
Q 3022 1394 3022 966 
Q 3022 478 2636 193 
Q 2250 -91 1575 -91 
Q 1294 -91 989 -36 
Q 684 19 347 128 
L 347 722 
Q 666 556 975 473 
Q 1284 391 1588 391 
Q 1994 391 2212 530 
Q 2431 669 2431 922 
Q 2431 1156 2273 1281 
Q 2116 1406 1581 1522 
L 1381 1569 
Q 847 1681 609 1914 
Q 372 2147 372 2553 
Q 372 3047 722 3315 
Q 1072 3584 1716 3584 
Q 2034 3584 2315 3537 
Q 2597 3491 2834 3397 
z
" transform="scale(0.015625)"/>
      </defs>
      <use xlink:href="#DejaVuSans-50"/>
      <use xlink:href="#DejaVuSans-6f" transform="translate(56.677734 0)"/>
      <use xlink:href="#DejaVuSans-73" transform="translate(117.859375 0)"/>
      <use xlink:href="#DejaVuSans-69" transform="translate(169.958984 0)"/>
      <use xlink:href="#DejaVuSans-74" transform="translate(197.742188 0)"/>
      <use xlink:href="#DejaVuSans-69" transform="translate(236.951172 0)"/>
      <use xlink:href="#DejaVuSans-6f" transform="translate(264.734375 0)"/>
      <use xlink:href="#DejaVuSans-6e" transform="translate(325.916016 0)"/>
     </g>
    </g>
   </g>
   <g id="line2d_78">
    <path d="M 58.523438 179.959219 
L 59.371598 179.853924 
L 59.862638 179.551388 
L 60.309038 179.012291 
L 60.800078 178.053403 
L 61.335758 176.508251 
L 61.960718 174.012979 
L 62.764238 169.781001 
L 63.924878 162.273799 
L 65.487278 152.405254 
L 66.156878 149.443324 
L 66.647918 148.113054 
L 67.005038 147.682838 
L 67.272878 147.687032 
L 67.540718 147.987681 
L 67.853198 148.727682 
L 68.254958 150.311409 
L 68.745998 153.219505 
L 69.370958 158.417857 
L 70.129838 166.746269 
L 71.201198 181.262108 
L 73.611758 214.770802 
L 74.370638 222.121558 
L 74.950958 225.867985 
L 75.397358 227.490709 
L 75.709838 227.937724 
L 75.888398 227.933256 
L 76.111598 227.660589 
L 76.424078 226.782554 
L 76.825838 224.819177 
L 77.316878 221.204286 
L 77.941838 214.856576 
L 78.789998 203.719678 
L 80.263118 180.713648 
L 81.736238 158.931166 
L 82.584398 149.354046 
L 83.253998 144.01998 
L 83.789678 141.331496 
L 84.191438 140.261673 
L 84.459278 139.994882 
L 84.682478 140.038955 
L 84.950318 140.401481 
L 85.307438 141.385326 
L 85.753838 143.356135 
L 86.334158 146.98366 
L 87.137678 153.514681 
L 88.967918 170.923268 
L 90.128557 180.691612 
L 90.976718 186.14394 
L 91.690958 189.441318 
L 92.315918 191.382812 
L 92.896238 192.491355 
L 93.387278 193.003608 
L 93.878318 193.224456 
L 94.503278 193.243478 
L 95.931758 193.195442 
L 96.467438 193.439519 
L 97.047758 193.969318 
L 97.717358 194.932115 
L 98.610158 196.667612 
L 100.083278 199.561128 
L 100.618958 200.17426 
L 101.020718 200.33724 
L 101.333198 200.246266 
L 101.690318 199.874375 
L 102.092078 199.07651 
L 102.583118 197.506176 
L 103.163438 194.756421 
L 103.833038 190.370951 
L 104.636558 183.527797 
L 105.752558 171.893712 
L 108.029198 147.698107 
L 108.788078 142.028427 
L 109.368398 139.190919 
L 109.770158 138.111361 
L 110.082638 137.809787 
L 110.305837 137.892401 
L 110.573678 138.324724 
L 110.930798 139.469281 
L 111.377198 141.802655 
L 111.912878 145.871495 
L 112.627117 153.235604 
L 113.564558 165.539702 
L 116.957198 212.74452 
L 117.671437 218.71754 
L 118.207118 221.602976 
L 118.608878 222.813861 
L 118.921357 223.182734 
L 119.144558 223.141252 
L 119.367758 222.84967 
L 119.680238 222.032114 
L 120.081997 220.311001 
L 120.617678 216.941816 
L 121.331918 210.834522 
L 122.358638 199.812817 
L 124.992398 170.588321 
L 125.840558 163.835827 
L 126.554798 159.757288 
L 127.135118 157.561591 
L 127.626158 156.454242 
L 128.027918 156.020165 
L 128.340398 155.948571 
L 128.652878 156.085494 
L 129.054638 156.52863 
L 129.590317 157.498082 
L 130.393838 159.495034 
L 133.116878 166.660067 
L 134.322158 168.93435 
L 135.795278 171.72032 
L 136.554158 173.675641 
L 137.313038 176.281965 
L 138.116558 179.9119 
L 139.009357 185.032833 
L 140.214638 193.383044 
L 142.312718 208.044611 
L 143.071598 211.786638 
L 143.607278 213.48449 
L 144.009038 214.143626 
L 144.276878 214.26258 
L 144.500078 214.155826 
L 144.767918 213.772864 
L 145.125038 212.8198 
L 145.571438 210.909208 
L 146.107118 207.575226 
L 146.776718 201.905278 
L 147.624877 192.680693 
L 148.919438 175.81105 
L 150.749677 152.327086 
L 151.597837 144.113746 
L 152.267437 139.618404 
L 152.758478 137.616695 
L 153.115598 136.892912 
L 153.383438 136.763003 
L 153.606638 136.925688 
L 153.874478 137.443423 
L 154.231598 138.670026 
L 154.722638 141.313144 
L 155.347598 146.135116 
L 156.151117 154.313135 
L 157.356398 169.206265 
L 159.409838 194.504489 
L 160.302638 202.843286 
L 161.016878 207.661614 
L 161.597198 210.244081 
L 162.043598 211.408146 
L 162.400718 211.838036 
L 162.668558 211.880073 
L 162.936397 211.693503 
L 163.293518 211.11129 
L 163.739918 209.897202 
L 164.320238 207.631378 
L 165.168398 203.283982 
L 166.864718 193.031205 
L 168.337838 184.777912 
L 169.498478 179.519768 
L 170.659118 175.276187 
L 176.462318 156.325379 
L 177.131918 154.898186 
L 177.622958 154.300379 
L 177.980078 154.158325 
L 178.292558 154.262539 
L 178.649677 154.666265 
L 179.051438 155.509424 
L 179.542477 157.131472 
L 180.122798 159.914783 
L 180.792397 164.280679 
L 181.640557 171.430463 
L 182.801198 183.40077 
L 185.256398 209.348054 
L 186.059918 215.397897 
L 186.684877 218.556876 
L 187.131278 219.854325 
L 187.443758 220.254259 
L 187.666958 220.276322 
L 187.890158 220.076246 
L 188.202638 219.422242 
L 188.604398 217.946918 
L 189.095438 215.206376 
L 189.720397 210.338723 
L 190.523917 202.156729 
L 191.684558 187.776475 
L 193.961198 159.288613 
L 194.853998 151.023028 
L 195.523597 146.633736 
L 196.059278 144.370156 
L 196.461038 143.424083 
L 196.773517 143.132215 
L 196.996717 143.15732 
L 197.264557 143.437675 
L 197.621678 144.219748 
L 198.068077 145.811279 
L 198.648398 148.788215 
L 199.407278 153.936174 
L 200.567917 163.545158 
L 202.933838 183.333181 
L 203.960557 189.936583 
L 204.808718 194.078083 
L 205.567598 196.792816 
L 206.281837 198.585443 
L 206.951437 199.704165 
L 207.576398 200.355688 
L 208.201358 200.711583 
L 208.870958 200.837018 
L 209.540558 200.742704 
L 210.254797 200.407857 
L 210.924397 199.839816 
L 211.593998 198.957429 
L 212.263598 197.67016 
L 212.933198 195.878665 
L 213.647437 193.309183 
L 214.450957 189.511848 
L 215.343758 184.138477 
L 216.459758 175.927691 
L 219.807758 150.084293 
L 220.521997 146.702508 
L 221.057678 145.148619 
L 221.414797 144.641343 
L 221.682638 144.555923 
L 221.950478 144.731709 
L 222.262957 145.273378 
L 222.664717 146.507147 
L 223.155758 148.828597 
L 223.780718 153.021361 
L 224.539597 159.77946 
L 225.566317 171.147527 
L 228.735758 207.901186 
L 229.494638 213.701055 
L 230.119597 216.904994 
L 230.565998 218.243504 
L 230.923118 218.7262 
L 231.190957 218.744064 
L 231.458798 218.469978 
L 231.771278 217.788893 
L 232.217678 216.16763 
L 232.753357 213.288142 
L 233.467598 208.077097 
L 234.449678 199.005464 
L 237.976238 164.615834 
L 238.824397 159.179994 
L 239.538637 155.965209 
L 240.118958 154.280719 
L 240.609997 153.478307 
L 241.011758 153.21908 
L 241.368877 153.266036 
L 241.725998 153.552082 
L 242.172397 154.211139 
L 242.752717 155.497467 
L 243.511598 157.758137 
L 244.582958 161.709726 
L 246.279278 168.930817 
L 248.332718 178.623156 
L 250.252238 188.803507 
L 252.975278 203.350392 
L 253.868078 206.874718 
L 254.493037 208.559591 
L 254.984077 209.315458 
L 255.341197 209.509307 
L 255.653678 209.413633 
L 255.966158 209.057803 
L 256.367918 208.203546 
L 256.858958 206.537969 
L 257.439278 203.685669 
L 258.153518 198.913299 
L 259.046318 191.227018 
L 260.296238 178.235818 
L 262.572878 154.410641 
L 263.421038 147.826288 
L 264.090638 144.189347 
L 264.581678 142.538422 
L 264.983438 141.872108 
L 265.251278 141.779331 
L 265.474478 141.918342 
L 265.786958 142.442131 
L 266.188717 143.670745 
L 266.679758 145.987414 
L 267.304718 150.129067 
L 268.108238 157.115007 
L 269.268878 169.452229 
L 271.768718 196.590567 
L 272.706158 204.144498 
L 273.420398 208.281005 
L 274.000718 210.506448 
L 274.491758 211.578268 
L 274.848878 211.897965 
L 275.116718 211.891405 
L 275.429198 211.627172 
L 275.786317 211.003793 
L 276.277357 209.630341 
L 276.902318 207.124569 
L 277.705838 202.91087 
L 278.911118 195.265951 
L 282.035917 174.96025 
L 283.330478 168.200074 
L 284.491118 163.238715 
L 285.562478 159.591021 
L 286.455278 157.281162 
L 287.169518 155.978002 
L 287.749838 155.331861 
L 288.196238 155.120324 
L 288.597998 155.164678 
L 288.999758 155.450328 
L 289.446158 156.071981 
L 289.937198 157.150477 
L 290.517517 158.987897 
L 291.187117 161.891254 
L 291.990638 166.474077 
L 292.928078 173.202483 
L 294.222638 184.283644 
L 296.633198 205.161622 
L 297.481358 210.61083 
L 298.150958 213.611087 
L 298.641998 214.946774 
L 298.999118 215.418683 
L 299.266957 215.485346 
L 299.534798 215.300999 
L 299.847278 214.766152 
L 300.249038 213.574113 
L 300.740078 211.363705 
L 301.365038 207.420569 
L 302.168558 200.720991 
L 303.239918 189.679083 
L 306.320078 156.732313 
L 307.168238 150.531797 
L 307.837838 147.182568 
L 308.328878 145.673911 
L 308.730638 145.052131 
L 308.998477 144.943404 
L 309.266318 145.075781 
L 309.578798 145.527849 
L 309.980558 146.561755 
L 310.516238 148.678695 
L 311.185838 152.371081 
L 312.078638 158.719649 
L 313.507117 170.802293 
L 315.560558 187.871972 
L 316.631917 194.967304 
L 317.524718 199.495432 
L 318.283597 202.287247 
L 318.953198 203.952631 
L 319.488878 204.76891 
L 319.979917 205.135587 
L 320.381678 205.178335 
L 320.783437 205.001212 
L 321.229837 204.559056 
L 321.765517 203.704859 
L 322.435117 202.167076 
L 323.193998 199.824824 
L 324.086797 196.289948 
L 325.113518 191.231624 
L 326.318798 184.062582 
L 327.970478 172.689969 
L 330.202478 157.483315 
L 331.139918 152.573655 
L 331.854157 149.927758 
L 332.389837 148.711652 
L 332.791598 148.283512 
L 333.104078 148.255526 
L 333.416558 148.504139 
L 333.773678 149.134401 
L 334.220078 150.446625 
L 334.755758 152.78339 
L 335.425358 156.8216 
L 336.228878 163.129366 
L 337.344877 173.891552 
L 340.469677 205.267989 
L 341.273198 210.793506 
L 341.898158 213.774396 
L 342.389198 215.216766 
L 342.790957 215.780625 
L 343.058798 215.844157 
L 343.326638 215.658295 
L 343.639117 215.13005 
L 344.040878 213.970815 
L 344.576558 211.628198 
L 345.246157 207.543715 
L 346.094317 200.858338 
L 347.388878 188.59949 
L 349.665518 166.989129 
L 350.647598 159.765114 
L 351.451118 155.371551 
L 352.120718 152.86512 
L 352.656398 151.632445 
L 353.102798 151.120968 
L 353.459918 151.037921 
L 353.772398 151.193222 
L 354.174158 151.689689 
L 354.665198 152.718643 
L 355.290158 154.630438 
L 356.049037 157.721066 
L 357.075758 162.934481 
L 358.548878 171.713581 
L 362.700398 197.080068 
L 363.816398 202.342882 
L 364.664558 205.382922 
L 365.334158 207.03605 
L 365.869838 207.80525 
L 366.271597 208.026337 
L 366.584077 207.974077 
L 366.941197 207.663832 
L 367.342958 206.985163 
L 367.833998 205.670586 
L 368.414318 203.424201 
L 369.128557 199.653782 
L 369.976718 193.853291 
L 371.092717 184.476626 
L 374.663918 152.964691 
L 375.422798 148.650279 
L 376.003118 146.421737 
L 376.449518 145.408769 
L 376.806638 145.059976 
L 377.074478 145.073487 
L 377.342318 145.324371 
L 377.699438 146.026716 
L 378.145838 147.485086 
L 378.681517 150.049523 
L 379.351118 154.39572 
L 380.243918 161.826937 
L 381.583118 175.189544 
L 383.725838 196.511208 
L 384.707918 204.053897 
L 385.466797 208.301053 
L 386.091758 210.621982 
L 386.582798 211.667066 
L 386.939918 211.995429 
L 387.252397 211.989124 
L 387.564878 211.715649 
L 387.966637 210.986346 
L 388.457677 209.55224 
L 389.082638 206.947888 
L 389.886158 202.524266 
L 391.002158 194.946177 
L 393.323438 177.405405 
L 393.323438 177.405405 
" clip-path="url(#p0d66bbd784)" style="fill: none; stroke: #1f77b4; stroke-width: 1.5; stroke-linecap: square"/>
   </g>
   <g id="patch_8">
    <path d="M 58.523438 230.359219 
L 58.523438 129.559219 
" style="fill: none"/>
   </g>
   <g id="patch_9">
    <path d="M 393.323438 230.359219 
L 393.323438 129.559219 
" style="fill: none"/>
   </g>
   <g id="patch_10">
    <path d="M 58.523438 230.359219 
L 393.323438 230.359219 
" style="fill: none; stroke: #000000; stroke-width: 0.8; stroke-linejoin: miter; stroke-linecap: square"/>
   </g>
   <g id="patch_11">
    <path d="M 58.523438 179.959219 
L 393.323438 179.959219 
" style="fill: none; stroke: #000000; stroke-width: 0.8; stroke-linejoin: miter; stroke-linecap: square"/>
   </g>
  </g>
 </g>
 <defs>
  <clipPath id="p4ef6608f81">
   <rect x="58.523438" y="8.599219" width="334.8" height="100.8"/>
  </clipPath>
  <clipPath id="p0d66bbd784">
   <rect x="58.523438" y="129.559219" width="334.8" height="100.8"/>
  </clipPath>
 </defs>
</svg>
