<?xml version="1.0" encoding="utf-8" standalone="no"?>
<!DOCTYPE svg PUBLIC "-//W3C//DTD SVG 1.1//EN"
  "http://www.w3.org/Graphics/SVG/1.1/DTD/svg11.dtd">
<svg xmlns:xlink="http://www.w3.org/1999/xlink" width="432pt" height="288pt" viewBox="0 0 432 288" xmlns="http://www.w3.org/2000/svg" version="1.1">
 <metadata>
  <rdf:RDF xmlns:dc="http://purl.org/dc/elements/1.1/" xmlns:cc="http://creativecommons.org/ns#" xmlns:rdf="http://www.w3.org/1999/02/22-rdf-syntax-ns#">
   <cc:Work>
    <dc:type rdf:resource="http://purl.org/dc/dcmitype/StillImage"/>
    <dc:date>2025-07-09T14:47:57.141067</dc:date>
    <dc:format>image/svg+xml</dc:format>
    <dc:creator>
     <cc:Agent>
      <dc:title>Matplotlib v3.10.3, https://matplotlib.org/</dc:title>
     </cc:Agent>
    </dc:creator>
   </cc:Work>
  </rdf:RDF>
 </metadata>
 <defs>
  <style type="text/css">*{stroke-linejoin: round; stroke-linecap: butt}</style>
 </defs>
 <g id="figure_1">
  <g id="patch_1">
   <path d="M 0 288 
L 432 288 
L 432 0 
L 0 0 
z
" style="fill: #ffffff"/>
  </g>
  <g id="axes_1">
   <g id="patch_2">
    <path d="M 54 135.36 
L 388.8 135.36 
L 388.8 34.56 
L 54 34.56 
z
" style="fill: #ffffff"/>
   </g>
   <g id="matplotlib.axis_1">
    <g id="xtick_1">
     <g id="line2d_1">
      <path d="M 54 135.36 
L 54 34.56 
" clip-path="url(#p46462c9d34)" style="fill: none; stroke: #b0b0b0; stroke-width: 0.8; stroke-linecap: square"/>
     </g>
     <g id="line2d_2">
      <defs>
       <path id="m6d10fbc8a6" d="M 0 0 
L 0 3.5 
" style="stroke: #000000; stroke-width: 0.8"/>
      </defs>
      <g>
       <use xlink:href="#m6d10fbc8a6" x="54" y="84.96" style="stroke: #000000; stroke-width: 0.8"/>
      </g>
     </g>
    </g>
    <g id="xtick_2">
     <g id="line2d_3">
      <path d="M 76.32 135.36 
L 76.32 34.56 
" clip-path="url(#p46462c9d34)" style="fill: none; stroke: #b0b0b0; stroke-width: 0.8; stroke-linecap: square"/>
     </g>
     <g id="line2d_4">
      <g>
       <use xlink:href="#m6d10fbc8a6" x="76.32" y="84.96" style="stroke: #000000; stroke-width: 0.8"/>
      </g>
     </g>
    </g>
    <g id="xtick_3">
     <g id="line2d_5">
      <path d="M 98.64 135.36 
L 98.64 34.56 
" clip-path="url(#p46462c9d34)" style="fill: none; stroke: #b0b0b0; stroke-width: 0.8; stroke-linecap: square"/>
     </g>
     <g id="line2d_6">
      <g>
       <use xlink:href="#m6d10fbc8a6" x="98.64" y="84.96" style="stroke: #000000; stroke-width: 0.8"/>
      </g>
     </g>
    </g>
    <g id="xtick_4">
     <g id="line2d_7">
      <path d="M 120.96 135.36 
L 120.96 34.56 
" clip-path="url(#p46462c9d34)" style="fill: none; stroke: #b0b0b0; stroke-width: 0.8; stroke-linecap: square"/>
     </g>
     <g id="line2d_8">
      <g>
       <use xlink:href="#m6d10fbc8a6" x="120.96" y="84.96" style="stroke: #000000; stroke-width: 0.8"/>
      </g>
     </g>
    </g>
    <g id="xtick_5">
     <g id="line2d_9">
      <path d="M 143.28 135.36 
L 143.28 34.56 
" clip-path="url(#p46462c9d34)" style="fill: none; stroke: #b0b0b0; stroke-width: 0.8; stroke-linecap: square"/>
     </g>
     <g id="line2d_10">
      <g>
       <use xlink:href="#m6d10fbc8a6" x="143.28" y="84.96" style="stroke: #000000; stroke-width: 0.8"/>
      </g>
     </g>
    </g>
    <g id="xtick_6">
     <g id="line2d_11">
      <path d="M 165.6 135.36 
L 165.6 34.56 
" clip-path="url(#p46462c9d34)" style="fill: none; stroke: #b0b0b0; stroke-width: 0.8; stroke-linecap: square"/>
     </g>
     <g id="line2d_12">
      <g>
       <use xlink:href="#m6d10fbc8a6" x="165.6" y="84.96" style="stroke: #000000; stroke-width: 0.8"/>
      </g>
     </g>
    </g>
    <g id="xtick_7">
     <g id="line2d_13">
      <path d="M 187.92 135.36 
L 187.92 34.56 
" clip-path="url(#p46462c9d34)" style="fill: none; stroke: #b0b0b0; stroke-width: 0.8; stroke-linecap: square"/>
     </g>
     <g id="line2d_14">
      <g>
       <use xlink:href="#m6d10fbc8a6" x="187.92" y="84.96" style="stroke: #000000; stroke-width: 0.8"/>
      </g>
     </g>
    </g>
    <g id="xtick_8">
     <g id="line2d_15">
      <path d="M 210.24 135.36 
L 210.24 34.56 
" clip-path="url(#p46462c9d34)" style="fill: none; stroke: #b0b0b0; stroke-width: 0.8; stroke-linecap: square"/>
     </g>
     <g id="line2d_16">
      <g>
       <use xlink:href="#m6d10fbc8a6" x="210.24" y="84.96" style="stroke: #000000; stroke-width: 0.8"/>
      </g>
     </g>
    </g>
    <g id="xtick_9">
     <g id="line2d_17">
      <path d="M 232.56 135.36 
L 232.56 34.56 
" clip-path="url(#p46462c9d34)" style="fill: none; stroke: #b0b0b0; stroke-width: 0.8; stroke-linecap: square"/>
     </g>
     <g id="line2d_18">
      <g>
       <use xlink:href="#m6d10fbc8a6" x="232.56" y="84.96" style="stroke: #000000; stroke-width: 0.8"/>
      </g>
     </g>
    </g>
    <g id="xtick_10">
     <g id="line2d_19">
      <path d="M 254.88 135.36 
L 254.88 34.56 
" clip-path="url(#p46462c9d34)" style="fill: none; stroke: #b0b0b0; stroke-width: 0.8; stroke-linecap: square"/>
     </g>
     <g id="line2d_20">
      <g>
       <use xlink:href="#m6d10fbc8a6" x="254.88" y="84.96" style="stroke: #000000; stroke-width: 0.8"/>
      </g>
     </g>
    </g>
    <g id="xtick_11">
     <g id="line2d_21">
      <path d="M 277.2 135.36 
L 277.2 34.56 
" clip-path="url(#p46462c9d34)" style="fill: none; stroke: #b0b0b0; stroke-width: 0.8; stroke-linecap: square"/>
     </g>
     <g id="line2d_22">
      <g>
       <use xlink:href="#m6d10fbc8a6" x="277.2" y="84.96" style="stroke: #000000; stroke-width: 0.8"/>
      </g>
     </g>
    </g>
    <g id="xtick_12">
     <g id="line2d_23">
      <path d="M 299.52 135.36 
L 299.52 34.56 
" clip-path="url(#p46462c9d34)" style="fill: none; stroke: #b0b0b0; stroke-width: 0.8; stroke-linecap: square"/>
     </g>
     <g id="line2d_24">
      <g>
       <use xlink:href="#m6d10fbc8a6" x="299.52" y="84.96" style="stroke: #000000; stroke-width: 0.8"/>
      </g>
     </g>
    </g>
    <g id="xtick_13">
     <g id="line2d_25">
      <path d="M 321.84 135.36 
L 321.84 34.56 
" clip-path="url(#p46462c9d34)" style="fill: none; stroke: #b0b0b0; stroke-width: 0.8; stroke-linecap: square"/>
     </g>
     <g id="line2d_26">
      <g>
       <use xlink:href="#m6d10fbc8a6" x="321.84" y="84.96" style="stroke: #000000; stroke-width: 0.8"/>
      </g>
     </g>
    </g>
    <g id="xtick_14">
     <g id="line2d_27">
      <path d="M 344.16 135.36 
L 344.16 34.56 
" clip-path="url(#p46462c9d34)" style="fill: none; stroke: #b0b0b0; stroke-width: 0.8; stroke-linecap: square"/>
     </g>
     <g id="line2d_28">
      <g>
       <use xlink:href="#m6d10fbc8a6" x="344.16" y="84.96" style="stroke: #000000; stroke-width: 0.8"/>
      </g>
     </g>
    </g>
    <g id="xtick_15">
     <g id="line2d_29">
      <path d="M 366.48 135.36 
L 366.48 34.56 
" clip-path="url(#p46462c9d34)" style="fill: none; stroke: #b0b0b0; stroke-width: 0.8; stroke-linecap: square"/>
     </g>
     <g id="line2d_30">
      <g>
       <use xlink:href="#m6d10fbc8a6" x="366.48" y="84.96" style="stroke: #000000; stroke-width: 0.8"/>
      </g>
     </g>
    </g>
    <g id="xtick_16">
     <g id="line2d_31">
      <path d="M 388.8 135.36 
L 388.8 34.56 
" clip-path="url(#p46462c9d34)" style="fill: none; stroke: #b0b0b0; stroke-width: 0.8; stroke-linecap: square"/>
     </g>
     <g id="line2d_32">
      <g>
       <use xlink:href="#m6d10fbc8a6" x="388.8" y="84.96" style="stroke: #000000; stroke-width: 0.8"/>
      </g>
     </g>
    </g>
   </g>
   <g id="matplotlib.axis_2">
    <g id="ytick_1">
     <g id="line2d_33">
      <path d="M 54 132.96 
L 388.8 132.96 
" clip-path="url(#p46462c9d34)" style="fill: none; stroke: #b0b0b0; stroke-width: 0.8; stroke-linecap: square"/>
     </g>
     <g id="line2d_34">
      <defs>
       <path id="mba68d462a0" d="M 0 0 
L -3.5 0 
" style="stroke: #000000; stroke-width: 0.8"/>
      </defs>
      <g>
       <use xlink:href="#mba68d462a0" x="54" y="132.96" style="stroke: #000000; stroke-width: 0.8"/>
      </g>
     </g>
     <g id="text_1">
      <!-- −1 -->
      <g transform="translate(32.257812 136.759219) scale(0.1 -0.1)">
       <defs>
        <path id="DejaVuSans-2212" d="M 678 2272 
L 4684 2272 
L 4684 1741 
L 678 1741 
L 678 2272 
z
" transform="scale(0.015625)"/>
        <path id="DejaVuSans-31" d="M 794 531 
L 1825 531 
L 1825 4091 
L 703 3866 
L 703 4441 
L 1819 4666 
L 2450 4666 
L 2450 531 
L 3481 531 
L 3481 0 
L 794 0 
L 794 531 
z
" transform="scale(0.015625)"/>
       </defs>
       <use xlink:href="#DejaVuSans-2212"/>
       <use xlink:href="#DejaVuSans-31" transform="translate(83.789062 0)"/>
      </g>
     </g>
    </g>
    <g id="ytick_2">
     <g id="line2d_35">
      <path d="M 54 84.96 
L 388.8 84.96 
" clip-path="url(#p46462c9d34)" style="fill: none; stroke: #b0b0b0; stroke-width: 0.8; stroke-linecap: square"/>
     </g>
     <g id="line2d_36">
      <g>
       <use xlink:href="#mba68d462a0" x="54" y="84.96" style="stroke: #000000; stroke-width: 0.8"/>
      </g>
     </g>
     <g id="text_2">
      <!-- 0 -->
      <g transform="translate(40.6375 88.759219) scale(0.1 -0.1)">
       <defs>
        <path id="DejaVuSans-30" d="M 2034 4250 
Q 1547 4250 1301 3770 
Q 1056 3291 1056 2328 
Q 1056 1369 1301 889 
Q 1547 409 2034 409 
Q 2525 409 2770 889 
Q 3016 1369 3016 2328 
Q 3016 3291 2770 3770 
Q 2525 4250 2034 4250 
z
M 2034 4750 
Q 2819 4750 3233 4129 
Q 3647 3509 3647 2328 
Q 3647 1150 3233 529 
Q 2819 -91 2034 -91 
Q 1250 -91 836 529 
Q 422 1150 422 2328 
Q 422 3509 836 4129 
Q 1250 4750 2034 4750 
z
" transform="scale(0.015625)"/>
       </defs>
       <use xlink:href="#DejaVuSans-30"/>
      </g>
     </g>
    </g>
    <g id="ytick_3">
     <g id="line2d_37">
      <path d="M 54 36.96 
L 388.8 36.96 
" clip-path="url(#p46462c9d34)" style="fill: none; stroke: #b0b0b0; stroke-width: 0.8; stroke-linecap: square"/>
     </g>
     <g id="line2d_38">
      <g>
       <use xlink:href="#mba68d462a0" x="54" y="36.96" style="stroke: #000000; stroke-width: 0.8"/>
      </g>
     </g>
     <g id="text_3">
      <!-- 1 -->
      <g transform="translate(40.6375 40.759219) scale(0.1 -0.1)">
       <use xlink:href="#DejaVuSans-31"/>
      </g>
     </g>
    </g>
    <g id="text_4">
     <!-- Forcing Function -->
     <g transform="translate(10.275 125.992031) rotate(-90) scale(0.1 -0.1)">
      <defs>
       <path id="DejaVuSans-46" d="M 628 4666 
L 3309 4666 
L 3309 4134 
L 1259 4134 
L 1259 2759 
L 3109 2759 
L 3109 2228 
L 1259 2228 
L 1259 0 
L 628 0 
L 628 4666 
z
" transform="scale(0.015625)"/>
       <path id="DejaVuSans-6f" d="M 1959 3097 
Q 1497 3097 1228 2736 
Q 959 2375 959 1747 
Q 959 1119 1226 758 
Q 1494 397 1959 397 
Q 2419 397 2687 759 
Q 2956 1122 2956 1747 
Q 2956 2369 2687 2733 
Q 2419 3097 1959 3097 
z
M 1959 3584 
Q 2709 3584 3137 3096 
Q 3566 2609 3566 1747 
Q 3566 888 3137 398 
Q 2709 -91 1959 -91 
Q 1206 -91 779 398 
Q 353 888 353 1747 
Q 353 2609 779 3096 
Q 1206 3584 1959 3584 
z
" transform="scale(0.015625)"/>
       <path id="DejaVuSans-72" d="M 2631 2963 
Q 2534 3019 2420 3045 
Q 2306 3072 2169 3072 
Q 1681 3072 1420 2755 
Q 1159 2438 1159 1844 
L 1159 0 
L 581 0 
L 581 3500 
L 1159 3500 
L 1159 2956 
Q 1341 3275 1631 3429 
Q 1922 3584 2338 3584 
Q 2397 3584 2469 3576 
Q 2541 3569 2628 3553 
L 2631 2963 
z
" transform="scale(0.015625)"/>
       <path id="DejaVuSans-63" d="M 3122 3366 
L 3122 2828 
Q 2878 2963 2633 3030 
Q 2388 3097 2138 3097 
Q 1578 3097 1268 2742 
Q 959 2388 959 1747 
Q 959 1106 1268 751 
Q 1578 397 2138 397 
Q 2388 397 2633 464 
Q 2878 531 3122 666 
L 3122 134 
Q 2881 22 2623 -34 
Q 2366 -91 2075 -91 
Q 1284 -91 818 406 
Q 353 903 353 1747 
Q 353 2603 823 3093 
Q 1294 3584 2113 3584 
Q 2378 3584 2631 3529 
Q 2884 3475 3122 3366 
z
" transform="scale(0.015625)"/>
       <path id="DejaVuSans-69" d="M 603 3500 
L 1178 3500 
L 1178 0 
L 603 0 
L 603 3500 
z
M 603 4863 
L 1178 4863 
L 1178 4134 
L 603 4134 
L 603 4863 
z
" transform="scale(0.015625)"/>
       <path id="DejaVuSans-6e" d="M 3513 2113 
L 3513 0 
L 2938 0 
L 2938 2094 
Q 2938 2591 2744 2837 
Q 2550 3084 2163 3084 
Q 1697 3084 1428 2787 
Q 1159 2491 1159 1978 
L 1159 0 
L 581 0 
L 581 3500 
L 1159 3500 
L 1159 2956 
Q 1366 3272 1645 3428 
Q 1925 3584 2291 3584 
Q 2894 3584 3203 3211 
Q 3513 2838 3513 2113 
z
" transform="scale(0.015625)"/>
       <path id="DejaVuSans-67" d="M 2906 1791 
Q 2906 2416 2648 2759 
Q 2391 3103 1925 3103 
Q 1463 3103 1205 2759 
Q 947 2416 947 1791 
Q 947 1169 1205 825 
Q 1463 481 1925 481 
Q 2391 481 2648 825 
Q 2906 1169 2906 1791 
z
M 3481 434 
Q 3481 -459 3084 -895 
Q 2688 -1331 1869 -1331 
Q 1566 -1331 1297 -1286 
Q 1028 -1241 775 -1147 
L 775 -588 
Q 1028 -725 1275 -790 
Q 1522 -856 1778 -856 
Q 2344 -856 2625 -561 
Q 2906 -266 2906 331 
L 2906 616 
Q 2728 306 2450 153 
Q 2172 0 1784 0 
Q 1141 0 747 490 
Q 353 981 353 1791 
Q 353 2603 747 3093 
Q 1141 3584 1784 3584 
Q 2172 3584 2450 3431 
Q 2728 3278 2906 2969 
L 2906 3500 
L 3481 3500 
L 3481 434 
z
" transform="scale(0.015625)"/>
       <path id="DejaVuSans-20" transform="scale(0.015625)"/>
       <path id="DejaVuSans-75" d="M 544 1381 
L 544 3500 
L 1119 3500 
L 1119 1403 
Q 1119 906 1312 657 
Q 1506 409 1894 409 
Q 2359 409 2629 706 
Q 2900 1003 2900 1516 
L 2900 3500 
L 3475 3500 
L 3475 0 
L 2900 0 
L 2900 538 
Q 2691 219 2414 64 
Q 2138 -91 1772 -91 
Q 1169 -91 856 284 
Q 544 659 544 1381 
z
M 1991 3584 
L 1991 3584 
z
" transform="scale(0.015625)"/>
       <path id="DejaVuSans-74" d="M 1172 4494 
L 1172 3500 
L 2356 3500 
L 2356 3053 
L 1172 3053 
L 1172 1153 
Q 1172 725 1289 603 
Q 1406 481 1766 481 
L 2356 481 
L 2356 0 
L 1766 0 
Q 1100 0 847 248 
Q 594 497 594 1153 
L 594 3053 
L 172 3053 
L 172 3500 
L 594 3500 
L 594 4494 
L 1172 4494 
z
" transform="scale(0.015625)"/>
      </defs>
      <use xlink:href="#DejaVuSans-46"/>
      <use xlink:href="#DejaVuSans-6f" transform="translate(53.894531 0)"/>
      <use xlink:href="#DejaVuSans-72" transform="translate(115.076172 0)"/>
      <use xlink:href="#DejaVuSans-63" transform="translate(153.939453 0)"/>
      <use xlink:href="#DejaVuSans-69" transform="translate(208.919922 0)"/>
      <use xlink:href="#DejaVuSans-6e" transform="translate(236.703125 0)"/>
      <use xlink:href="#DejaVuSans-67" transform="translate(300.082031 0)"/>
      <use xlink:href="#DejaVuSans-20" transform="translate(363.558594 0)"/>
      <use xlink:href="#DejaVuSans-46" transform="translate(395.345703 0)"/>
      <use xlink:href="#DejaVuSans-75" transform="translate(447.365234 0)"/>
      <use xlink:href="#DejaVuSans-6e" transform="translate(510.744141 0)"/>
      <use xlink:href="#DejaVuSans-63" transform="translate(574.123047 0)"/>
      <use xlink:href="#DejaVuSans-74" transform="translate(629.103516 0)"/>
      <use xlink:href="#DejaVuSans-69" transform="translate(668.3125 0)"/>
      <use xlink:href="#DejaVuSans-6f" transform="translate(696.095703 0)"/>
      <use xlink:href="#DejaVuSans-6e" transform="translate(757.277344 0)"/>
     </g>
    </g>
   </g>
   <g id="line2d_39">
    <path d="M 54 84.96 
L 56.0088 59.240314 
L 57.03552 48.755934 
L 57.83904 42.610021 
L 58.464 39.309287 
L 58.95504 37.700912 
L 59.3568 37.054717 
L 59.62464 36.96379 
L 59.89248 37.145587 
L 60.20496 37.700912 
L 60.60672 38.950954 
L 61.09776 41.274913 
L 61.72272 45.430435 
L 62.4816 52.101739 
L 63.46368 62.900167 
L 64.9368 81.946055 
L 67.21344 111.186929 
L 68.24016 121.557241 
L 69.04368 127.59055 
L 69.66864 130.793498 
L 70.15968 132.320925 
L 70.5168 132.865283 
L 70.78464 132.95621 
L 71.05248 132.774413 
L 71.36496 132.219088 
L 71.76672 130.969046 
L 72.25776 128.645087 
L 72.88272 124.489565 
L 73.6416 117.818261 
L 74.62368 107.019833 
L 76.0968 87.973945 
L 78.37344 58.733071 
L 79.40016 48.362759 
L 80.20368 42.32945 
L 80.82864 39.126502 
L 81.31968 37.599075 
L 81.6768 37.054717 
L 81.94464 36.96379 
L 82.21248 37.145587 
L 82.52496 37.700912 
L 82.92672 38.950954 
L 83.41776 41.274913 
L 84.04272 45.430435 
L 84.8016 52.101739 
L 85.78368 62.900167 
L 87.2568 81.946055 
L 89.53344 111.186929 
L 90.56016 121.557241 
L 91.36368 127.59055 
L 91.98864 130.793498 
L 92.47968 132.320925 
L 92.8368 132.865283 
L 93.10464 132.95621 
L 93.37248 132.774413 
L 93.68496 132.219088 
L 94.08672 130.969046 
L 94.57776 128.645087 
L 95.20272 124.489565 
L 95.9616 117.818261 
L 96.94368 107.019833 
L 98.4168 87.973945 
L 100.69344 58.733071 
L 101.72016 48.362759 
L 102.52368 42.32945 
L 103.14864 39.126502 
L 103.63968 37.599075 
L 103.9968 37.054717 
L 104.26464 36.96379 
L 104.53248 37.145587 
L 104.84496 37.700912 
L 105.24672 38.950954 
L 105.73776 41.274913 
L 106.36272 45.430435 
L 107.1216 52.101739 
L 108.10368 62.900167 
L 109.5768 81.946055 
L 111.85344 111.186929 
L 112.88016 121.557241 
L 113.68368 127.59055 
L 114.30864 130.793498 
L 114.79968 132.320925 
L 115.1568 132.865283 
L 115.42464 132.95621 
L 115.69248 132.774413 
L 116.00496 132.219088 
L 116.40672 130.969046 
L 116.89776 128.645087 
L 117.52272 124.489565 
L 118.2816 117.818261 
L 119.26368 107.019833 
L 120.7368 87.973945 
L 123.01344 58.733071 
L 124.04016 48.362759 
L 124.84368 42.32945 
L 125.46864 39.126502 
L 125.95968 37.599075 
L 126.3168 37.054717 
L 126.58464 36.96379 
L 126.85248 37.145587 
L 127.16496 37.700912 
L 127.56672 38.950954 
L 128.05776 41.274913 
L 128.68272 45.430435 
L 129.4416 52.101739 
L 130.42368 62.900167 
L 131.8968 81.946055 
L 134.17344 111.186929 
L 135.20016 121.557241 
L 136.00368 127.59055 
L 136.62864 130.793498 
L 137.11968 132.320925 
L 137.4768 132.865283 
L 137.74464 132.95621 
L 138.01248 132.774413 
L 138.32496 132.219088 
L 138.72672 130.969046 
L 139.21776 128.645087 
L 139.84272 124.489565 
L 140.6016 117.818261 
L 141.58368 107.019833 
L 143.0568 87.973945 
L 145.33344 58.733071 
L 146.36016 48.362759 
L 147.16368 42.32945 
L 147.78864 39.126502 
L 148.27968 37.599075 
L 148.6368 37.054717 
L 148.90464 36.96379 
L 149.17248 37.145587 
L 149.48496 37.700912 
L 149.88672 38.950954 
L 150.37776 41.274913 
L 151.00272 45.430435 
L 151.7616 52.101739 
L 152.74368 62.900167 
L 154.2168 81.946055 
L 156.49344 111.186929 
L 157.52016 121.557241 
L 158.32368 127.59055 
L 158.94864 130.793498 
L 159.43968 132.320925 
L 159.7968 132.865283 
L 160.06464 132.95621 
L 160.33248 132.774413 
L 160.64496 132.219088 
L 161.04672 130.969046 
L 161.53776 128.645087 
L 162.16272 124.489565 
L 162.9216 117.818261 
L 163.90368 107.019833 
L 165.3768 87.973945 
L 167.65344 58.733071 
L 168.68016 48.362759 
L 169.48368 42.32945 
L 170.10864 39.126502 
L 170.59968 37.599075 
L 170.9568 37.054717 
L 171.22464 36.96379 
L 171.49248 37.145587 
L 171.80496 37.700912 
L 172.20672 38.950954 
L 172.69776 41.274913 
L 173.32272 45.430435 
L 174.0816 52.101739 
L 175.06368 62.900167 
L 176.5368 81.946055 
L 178.81344 111.186929 
L 179.84016 121.557241 
L 180.64368 127.59055 
L 181.26864 130.793498 
L 181.75968 132.320925 
L 182.1168 132.865283 
L 182.38464 132.95621 
L 182.65248 132.774413 
L 182.96496 132.219088 
L 183.36672 130.969046 
L 183.85776 128.645087 
L 184.48272 124.489565 
L 185.2416 117.818261 
L 186.22368 107.019833 
L 187.6968 87.973945 
L 189.97344 58.733071 
L 191.00016 48.362759 
L 191.80368 42.32945 
L 192.42864 39.126502 
L 192.91968 37.599075 
L 193.2768 37.054717 
L 193.54464 36.96379 
L 193.81248 37.145587 
L 194.12496 37.700912 
L 194.52672 38.950954 
L 195.01776 41.274913 
L 195.64272 45.430435 
L 196.4016 52.101739 
L 197.38368 62.900167 
L 198.8568 81.946055 
L 201.13344 111.186929 
L 202.16016 121.557241 
L 202.96368 127.59055 
L 203.58864 130.793498 
L 204.07968 132.320925 
L 204.4368 132.865283 
L 204.70464 132.95621 
L 204.97248 132.774413 
L 205.28496 132.219088 
L 205.68672 130.969046 
L 206.17776 128.645087 
L 206.80272 124.489565 
L 207.5616 117.818261 
L 208.54368 107.019833 
L 210.0168 87.973945 
L 212.29344 58.733071 
L 213.32016 48.362759 
L 214.12368 42.32945 
L 214.74864 39.126502 
L 215.23968 37.599075 
L 215.5968 37.054717 
L 215.86464 36.96379 
L 216.13248 37.145587 
L 216.44496 37.700912 
L 216.84672 38.950954 
L 217.33776 41.274913 
L 217.96272 45.430435 
L 218.7216 52.101739 
L 219.70368 62.900167 
L 221.1768 81.946055 
L 223.45344 111.186929 
L 224.48016 121.557241 
L 225.28368 127.59055 
L 225.90864 130.793498 
L 226.39968 132.320925 
L 226.7568 132.865283 
L 227.02464 132.95621 
L 227.29248 132.774413 
L 227.60496 132.219088 
L 228.00672 130.969046 
L 228.49776 128.645087 
L 229.12272 124.489565 
L 229.8816 117.818261 
L 230.86368 107.019833 
L 232.3368 87.973945 
L 234.61344 58.733071 
L 235.64016 48.362759 
L 236.44368 42.32945 
L 237.06864 39.126502 
L 237.55968 37.599075 
L 237.9168 37.054717 
L 238.18464 36.96379 
L 238.45248 37.145587 
L 238.76496 37.700912 
L 239.16672 38.950954 
L 239.65776 41.274913 
L 240.28272 45.430435 
L 241.0416 52.101739 
L 242.02368 62.900167 
L 243.4968 81.946055 
L 245.77344 111.186929 
L 246.80016 121.557241 
L 247.60368 127.59055 
L 248.22864 130.793498 
L 248.71968 132.320925 
L 249.0768 132.865283 
L 249.34464 132.95621 
L 249.61248 132.774413 
L 249.92496 132.219088 
L 250.32672 130.969046 
L 250.81776 128.645087 
L 251.44272 124.489565 
L 252.2016 117.818261 
L 253.18368 107.019833 
L 254.6568 87.973945 
L 256.93344 58.733071 
L 257.96016 48.362759 
L 258.76368 42.32945 
L 259.38864 39.126502 
L 259.87968 37.599075 
L 260.2368 37.054717 
L 260.50464 36.96379 
L 260.77248 37.145587 
L 261.08496 37.700912 
L 261.48672 38.950954 
L 261.97776 41.274913 
L 262.60272 45.430435 
L 263.3616 52.101739 
L 264.34368 62.900167 
L 265.8168 81.946055 
L 268.09344 111.186929 
L 269.12016 121.557241 
L 269.92368 127.59055 
L 270.54864 130.793498 
L 271.03968 132.320925 
L 271.3968 132.865283 
L 271.66464 132.95621 
L 271.93248 132.774413 
L 272.24496 132.219088 
L 272.64672 130.969046 
L 273.13776 128.645087 
L 273.76272 124.489565 
L 274.5216 117.818261 
L 275.50368 107.019833 
L 276.9768 87.973945 
L 279.25344 58.733071 
L 280.28016 48.362759 
L 281.08368 42.32945 
L 281.70864 39.126502 
L 282.19968 37.599075 
L 282.5568 37.054717 
L 282.82464 36.96379 
L 283.09248 37.145587 
L 283.40496 37.700912 
L 283.80672 38.950954 
L 284.29776 41.274913 
L 284.92272 45.430435 
L 285.6816 52.101739 
L 286.66368 62.900167 
L 288.1368 81.946055 
L 290.41344 111.186929 
L 291.44016 121.557241 
L 292.24368 127.59055 
L 292.86864 130.793498 
L 293.35968 132.320925 
L 293.7168 132.865283 
L 293.98464 132.95621 
L 294.25248 132.774413 
L 294.56496 132.219088 
L 294.96672 130.969046 
L 295.45776 128.645087 
L 296.08272 124.489565 
L 296.8416 117.818261 
L 297.82368 107.019833 
L 299.2968 87.973945 
L 301.57344 58.733071 
L 302.60016 48.362759 
L 303.40368 42.32945 
L 304.02864 39.126502 
L 304.51968 37.599075 
L 304.8768 37.054717 
L 305.14464 36.96379 
L 305.41248 37.145587 
L 305.72496 37.700912 
L 306.12672 38.950954 
L 306.61776 41.274913 
L 307.24272 45.430435 
L 308.0016 52.101739 
L 308.98368 62.900167 
L 310.4568 81.946055 
L 312.73344 111.186929 
L 313.76016 121.557241 
L 314.56368 127.59055 
L 315.18864 130.793498 
L 315.67968 132.320925 
L 316.0368 132.865283 
L 316.30464 132.95621 
L 316.57248 132.774413 
L 316.88496 132.219088 
L 317.28672 130.969046 
L 317.77776 128.645087 
L 318.40272 124.489565 
L 319.1616 117.818261 
L 320.14368 107.019833 
L 321.6168 87.973945 
L 323.89344 58.733071 
L 324.92016 48.362759 
L 325.72368 42.32945 
L 326.34864 39.126502 
L 326.83968 37.599075 
L 327.1968 37.054717 
L 327.46464 36.96379 
L 327.73248 37.145587 
L 328.04496 37.700912 
L 328.44672 38.950954 
L 328.93776 41.274913 
L 329.56272 45.430435 
L 330.3216 52.101739 
L 331.30368 62.900167 
L 332.7768 81.946055 
L 335.05344 111.186929 
L 336.08016 121.557241 
L 336.88368 127.59055 
L 337.50864 130.793498 
L 337.99968 132.320925 
L 338.3568 132.865283 
L 338.62464 132.95621 
L 338.89248 132.774413 
L 339.20496 132.219088 
L 339.60672 130.969046 
L 340.09776 128.645087 
L 340.72272 124.489565 
L 341.4816 117.818261 
L 342.46368 107.019833 
L 343.9368 87.973945 
L 346.21344 58.733071 
L 347.24016 48.362759 
L 348.04368 42.32945 
L 348.66864 39.126502 
L 349.15968 37.599075 
L 349.5168 37.054717 
L 349.78464 36.96379 
L 350.05248 37.145587 
L 350.36496 37.700912 
L 350.76672 38.950954 
L 351.25776 41.274913 
L 351.88272 45.430435 
L 352.6416 52.101739 
L 353.62368 62.900167 
L 355.0968 81.946055 
L 357.37344 111.186929 
L 358.40016 121.557241 
L 359.20368 127.59055 
L 359.82864 130.793498 
L 360.31968 132.320925 
L 360.6768 132.865283 
L 360.94464 132.95621 
L 361.21248 132.774413 
L 361.52496 132.219088 
L 361.92672 130.969046 
L 362.41776 128.645087 
L 363.04272 124.489565 
L 363.8016 117.818261 
L 364.78368 107.019833 
L 366.2568 87.973945 
L 368.53344 58.733071 
L 369.56016 48.362759 
L 370.36368 42.32945 
L 370.98864 39.126502 
L 371.47968 37.599075 
L 371.8368 37.054717 
L 372.10464 36.96379 
L 372.37248 37.145587 
L 372.68496 37.700912 
L 373.08672 38.950954 
L 373.57776 41.274913 
L 374.20272 45.430435 
L 374.9616 52.101739 
L 375.94368 62.900167 
L 377.4168 81.946055 
L 379.69344 111.186929 
L 380.72016 121.557241 
L 381.52368 127.59055 
L 382.14864 130.793498 
L 382.63968 132.320925 
L 382.9968 132.865283 
L 383.26464 132.95621 
L 383.53248 132.774413 
L 383.84496 132.219088 
L 384.24672 130.969046 
L 384.73776 128.645087 
L 385.36272 124.489565 
L 386.1216 117.818261 
L 387.10368 107.019833 
L 388.5768 87.973945 
L 388.8 84.96 
L 388.8 84.96 
" clip-path="url(#p46462c9d34)" style="fill: none; stroke: #1f77b4; stroke-width: 1.5; stroke-linecap: square"/>
   </g>
   <g id="patch_3">
    <path d="M 54 135.36 
L 54 34.56 
" style="fill: none"/>
   </g>
   <g id="patch_4">
    <path d="M 388.8 135.36 
L 388.8 34.56 
" style="fill: none"/>
   </g>
   <g id="patch_5">
    <path d="M 54 84.96 
L 388.8 84.96 
" style="fill: none; stroke: #000000; stroke-width: 0.8; stroke-linejoin: miter; stroke-linecap: square"/>
   </g>
   <g id="patch_6">
    <path d="M 54 34.56 
L 388.8 34.56 
" style="fill: none"/>
   </g>
  </g>
  <g id="axes_2">
   <g id="patch_7">
    <path d="M 54 256.32 
L 388.8 256.32 
L 388.8 155.52 
L 54 155.52 
z
" style="fill: #ffffff"/>
   </g>
   <g id="matplotlib.axis_3">
    <g id="xtick_17">
     <g id="line2d_40">
      <path d="M 54 256.32 
L 54 155.52 
" clip-path="url(#pef8a8a1471)" style="fill: none; stroke: #b0b0b0; stroke-width: 0.8; stroke-linecap: square"/>
     </g>
     <g id="line2d_41">
      <g>
       <use xlink:href="#m6d10fbc8a6" x="54" y="256.32" style="stroke: #000000; stroke-width: 0.8"/>
      </g>
     </g>
     <g id="text_5">
      <!-- 0 -->
      <g transform="translate(50.81875 270.918437) scale(0.1 -0.1)">
       <use xlink:href="#DejaVuSans-30"/>
      </g>
     </g>
    </g>
    <g id="xtick_18">
     <g id="line2d_42">
      <path d="M 76.32 256.32 
L 76.32 155.52 
" clip-path="url(#pef8a8a1471)" style="fill: none; stroke: #b0b0b0; stroke-width: 0.8; stroke-linecap: square"/>
     </g>
     <g id="line2d_43">
      <g>
       <use xlink:href="#m6d10fbc8a6" x="76.32" y="256.32" style="stroke: #000000; stroke-width: 0.8"/>
      </g>
     </g>
     <g id="text_6">
      <!-- 1 -->
      <g transform="translate(73.13875 270.918437) scale(0.1 -0.1)">
       <use xlink:href="#DejaVuSans-31"/>
      </g>
     </g>
    </g>
    <g id="xtick_19">
     <g id="line2d_44">
      <path d="M 98.64 256.32 
L 98.64 155.52 
" clip-path="url(#pef8a8a1471)" style="fill: none; stroke: #b0b0b0; stroke-width: 0.8; stroke-linecap: square"/>
     </g>
     <g id="line2d_45">
      <g>
       <use xlink:href="#m6d10fbc8a6" x="98.64" y="256.32" style="stroke: #000000; stroke-width: 0.8"/>
      </g>
     </g>
     <g id="text_7">
      <!-- 2 -->
      <g transform="translate(95.45875 270.918437) scale(0.1 -0.1)">
       <defs>
        <path id="DejaVuSans-32" d="M 1228 531 
L 3431 531 
L 3431 0 
L 469 0 
L 469 531 
Q 828 903 1448 1529 
Q 2069 2156 2228 2338 
Q 2531 2678 2651 2914 
Q 2772 3150 2772 3378 
Q 2772 3750 2511 3984 
Q 2250 4219 1831 4219 
Q 1534 4219 1204 4116 
Q 875 4013 500 3803 
L 500 4441 
Q 881 4594 1212 4672 
Q 1544 4750 1819 4750 
Q 2544 4750 2975 4387 
Q 3406 4025 3406 3419 
Q 3406 3131 3298 2873 
Q 3191 2616 2906 2266 
Q 2828 2175 2409 1742 
Q 1991 1309 1228 531 
z
" transform="scale(0.015625)"/>
       </defs>
       <use xlink:href="#DejaVuSans-32"/>
      </g>
     </g>
    </g>
    <g id="xtick_20">
     <g id="line2d_46">
      <path d="M 120.96 256.32 
L 120.96 155.52 
" clip-path="url(#pef8a8a1471)" style="fill: none; stroke: #b0b0b0; stroke-width: 0.8; stroke-linecap: square"/>
     </g>
     <g id="line2d_47">
      <g>
       <use xlink:href="#m6d10fbc8a6" x="120.96" y="256.32" style="stroke: #000000; stroke-width: 0.8"/>
      </g>
     </g>
     <g id="text_8">
      <!-- 3 -->
      <g transform="translate(117.77875 270.918437) scale(0.1 -0.1)">
       <defs>
        <path id="DejaVuSans-33" d="M 2597 2516 
Q 3050 2419 3304 2112 
Q 3559 1806 3559 1356 
Q 3559 666 3084 287 
Q 2609 -91 1734 -91 
Q 1441 -91 1130 -33 
Q 819 25 488 141 
L 488 750 
Q 750 597 1062 519 
Q 1375 441 1716 441 
Q 2309 441 2620 675 
Q 2931 909 2931 1356 
Q 2931 1769 2642 2001 
Q 2353 2234 1838 2234 
L 1294 2234 
L 1294 2753 
L 1863 2753 
Q 2328 2753 2575 2939 
Q 2822 3125 2822 3475 
Q 2822 3834 2567 4026 
Q 2313 4219 1838 4219 
Q 1578 4219 1281 4162 
Q 984 4106 628 3988 
L 628 4550 
Q 988 4650 1302 4700 
Q 1616 4750 1894 4750 
Q 2613 4750 3031 4423 
Q 3450 4097 3450 3541 
Q 3450 3153 3228 2886 
Q 3006 2619 2597 2516 
z
" transform="scale(0.015625)"/>
       </defs>
       <use xlink:href="#DejaVuSans-33"/>
      </g>
     </g>
    </g>
    <g id="xtick_21">
     <g id="line2d_48">
      <path d="M 143.28 256.32 
L 143.28 155.52 
" clip-path="url(#pef8a8a1471)" style="fill: none; stroke: #b0b0b0; stroke-width: 0.8; stroke-linecap: square"/>
     </g>
     <g id="line2d_49">
      <g>
       <use xlink:href="#m6d10fbc8a6" x="143.28" y="256.32" style="stroke: #000000; stroke-width: 0.8"/>
      </g>
     </g>
     <g id="text_9">
      <!-- 4 -->
      <g transform="translate(140.09875 270.918437) scale(0.1 -0.1)">
       <defs>
        <path id="DejaVuSans-34" d="M 2419 4116 
L 825 1625 
L 2419 1625 
L 2419 4116 
z
M 2253 4666 
L 3047 4666 
L 3047 1625 
L 3713 1625 
L 3713 1100 
L 3047 1100 
L 3047 0 
L 2419 0 
L 2419 1100 
L 313 1100 
L 313 1709 
L 2253 4666 
z
" transform="scale(0.015625)"/>
       </defs>
       <use xlink:href="#DejaVuSans-34"/>
      </g>
     </g>
    </g>
    <g id="xtick_22">
     <g id="line2d_50">
      <path d="M 165.6 256.32 
L 165.6 155.52 
" clip-path="url(#pef8a8a1471)" style="fill: none; stroke: #b0b0b0; stroke-width: 0.8; stroke-linecap: square"/>
     </g>
     <g id="line2d_51">
      <g>
       <use xlink:href="#m6d10fbc8a6" x="165.6" y="256.32" style="stroke: #000000; stroke-width: 0.8"/>
      </g>
     </g>
     <g id="text_10">
      <!-- 5 -->
      <g transform="translate(162.41875 270.918437) scale(0.1 -0.1)">
       <defs>
        <path id="DejaVuSans-35" d="M 691 4666 
L 3169 4666 
L 3169 4134 
L 1269 4134 
L 1269 2991 
Q 1406 3038 1543 3061 
Q 1681 3084 1819 3084 
Q 2600 3084 3056 2656 
Q 3513 2228 3513 1497 
Q 3513 744 3044 326 
Q 2575 -91 1722 -91 
Q 1428 -91 1123 -41 
Q 819 9 494 109 
L 494 744 
Q 775 591 1075 516 
Q 1375 441 1709 441 
Q 2250 441 2565 725 
Q 2881 1009 2881 1497 
Q 2881 1984 2565 2268 
Q 2250 2553 1709 2553 
Q 1456 2553 1204 2497 
Q 953 2441 691 2322 
L 691 4666 
z
" transform="scale(0.015625)"/>
       </defs>
       <use xlink:href="#DejaVuSans-35"/>
      </g>
     </g>
    </g>
    <g id="xtick_23">
     <g id="line2d_52">
      <path d="M 187.92 256.32 
L 187.92 155.52 
" clip-path="url(#pef8a8a1471)" style="fill: none; stroke: #b0b0b0; stroke-width: 0.8; stroke-linecap: square"/>
     </g>
     <g id="line2d_53">
      <g>
       <use xlink:href="#m6d10fbc8a6" x="187.92" y="256.32" style="stroke: #000000; stroke-width: 0.8"/>
      </g>
     </g>
     <g id="text_11">
      <!-- 6 -->
      <g transform="translate(184.73875 270.918437) scale(0.1 -0.1)">
       <defs>
        <path id="DejaVuSans-36" d="M 2113 2584 
Q 1688 2584 1439 2293 
Q 1191 2003 1191 1497 
Q 1191 994 1439 701 
Q 1688 409 2113 409 
Q 2538 409 2786 701 
Q 3034 994 3034 1497 
Q 3034 2003 2786 2293 
Q 2538 2584 2113 2584 
z
M 3366 4563 
L 3366 3988 
Q 3128 4100 2886 4159 
Q 2644 4219 2406 4219 
Q 1781 4219 1451 3797 
Q 1122 3375 1075 2522 
Q 1259 2794 1537 2939 
Q 1816 3084 2150 3084 
Q 2853 3084 3261 2657 
Q 3669 2231 3669 1497 
Q 3669 778 3244 343 
Q 2819 -91 2113 -91 
Q 1303 -91 875 529 
Q 447 1150 447 2328 
Q 447 3434 972 4092 
Q 1497 4750 2381 4750 
Q 2619 4750 2861 4703 
Q 3103 4656 3366 4563 
z
" transform="scale(0.015625)"/>
       </defs>
       <use xlink:href="#DejaVuSans-36"/>
      </g>
     </g>
    </g>
    <g id="xtick_24">
     <g id="line2d_54">
      <path d="M 210.24 256.32 
L 210.24 155.52 
" clip-path="url(#pef8a8a1471)" style="fill: none; stroke: #b0b0b0; stroke-width: 0.8; stroke-linecap: square"/>
     </g>
     <g id="line2d_55">
      <g>
       <use xlink:href="#m6d10fbc8a6" x="210.24" y="256.32" style="stroke: #000000; stroke-width: 0.8"/>
      </g>
     </g>
     <g id="text_12">
      <!-- 7 -->
      <g transform="translate(207.05875 270.918437) scale(0.1 -0.1)">
       <defs>
        <path id="DejaVuSans-37" d="M 525 4666 
L 3525 4666 
L 3525 4397 
L 1831 0 
L 1172 0 
L 2766 4134 
L 525 4134 
L 525 4666 
z
" transform="scale(0.015625)"/>
       </defs>
       <use xlink:href="#DejaVuSans-37"/>
      </g>
     </g>
    </g>
    <g id="xtick_25">
     <g id="line2d_56">
      <path d="M 232.56 256.32 
L 232.56 155.52 
" clip-path="url(#pef8a8a1471)" style="fill: none; stroke: #b0b0b0; stroke-width: 0.8; stroke-linecap: square"/>
     </g>
     <g id="line2d_57">
      <g>
       <use xlink:href="#m6d10fbc8a6" x="232.56" y="256.32" style="stroke: #000000; stroke-width: 0.8"/>
      </g>
     </g>
     <g id="text_13">
      <!-- 8 -->
      <g transform="translate(229.37875 270.918437) scale(0.1 -0.1)">
       <defs>
        <path id="DejaVuSans-38" d="M 2034 2216 
Q 1584 2216 1326 1975 
Q 1069 1734 1069 1313 
Q 1069 891 1326 650 
Q 1584 409 2034 409 
Q 2484 409 2743 651 
Q 3003 894 3003 1313 
Q 3003 1734 2745 1975 
Q 2488 2216 2034 2216 
z
M 1403 2484 
Q 997 2584 770 2862 
Q 544 3141 544 3541 
Q 544 4100 942 4425 
Q 1341 4750 2034 4750 
Q 2731 4750 3128 4425 
Q 3525 4100 3525 3541 
Q 3525 3141 3298 2862 
Q 3072 2584 2669 2484 
Q 3125 2378 3379 2068 
Q 3634 1759 3634 1313 
Q 3634 634 3220 271 
Q 2806 -91 2034 -91 
Q 1263 -91 848 271 
Q 434 634 434 1313 
Q 434 1759 690 2068 
Q 947 2378 1403 2484 
z
M 1172 3481 
Q 1172 3119 1398 2916 
Q 1625 2713 2034 2713 
Q 2441 2713 2670 2916 
Q 2900 3119 2900 3481 
Q 2900 3844 2670 4047 
Q 2441 4250 2034 4250 
Q 1625 4250 1398 4047 
Q 1172 3844 1172 3481 
z
" transform="scale(0.015625)"/>
       </defs>
       <use xlink:href="#DejaVuSans-38"/>
      </g>
     </g>
    </g>
    <g id="xtick_26">
     <g id="line2d_58">
      <path d="M 254.88 256.32 
L 254.88 155.52 
" clip-path="url(#pef8a8a1471)" style="fill: none; stroke: #b0b0b0; stroke-width: 0.8; stroke-linecap: square"/>
     </g>
     <g id="line2d_59">
      <g>
       <use xlink:href="#m6d10fbc8a6" x="254.88" y="256.32" style="stroke: #000000; stroke-width: 0.8"/>
      </g>
     </g>
     <g id="text_14">
      <!-- 9 -->
      <g transform="translate(251.69875 270.918437) scale(0.1 -0.1)">
       <defs>
        <path id="DejaVuSans-39" d="M 703 97 
L 703 672 
Q 941 559 1184 500 
Q 1428 441 1663 441 
Q 2288 441 2617 861 
Q 2947 1281 2994 2138 
Q 2813 1869 2534 1725 
Q 2256 1581 1919 1581 
Q 1219 1581 811 2004 
Q 403 2428 403 3163 
Q 403 3881 828 4315 
Q 1253 4750 1959 4750 
Q 2769 4750 3195 4129 
Q 3622 3509 3622 2328 
Q 3622 1225 3098 567 
Q 2575 -91 1691 -91 
Q 1453 -91 1209 -44 
Q 966 3 703 97 
z
M 1959 2075 
Q 2384 2075 2632 2365 
Q 2881 2656 2881 3163 
Q 2881 3666 2632 3958 
Q 2384 4250 1959 4250 
Q 1534 4250 1286 3958 
Q 1038 3666 1038 3163 
Q 1038 2656 1286 2365 
Q 1534 2075 1959 2075 
z
" transform="scale(0.015625)"/>
       </defs>
       <use xlink:href="#DejaVuSans-39"/>
      </g>
     </g>
    </g>
    <g id="xtick_27">
     <g id="line2d_60">
      <path d="M 277.2 256.32 
L 277.2 155.52 
" clip-path="url(#pef8a8a1471)" style="fill: none; stroke: #b0b0b0; stroke-width: 0.8; stroke-linecap: square"/>
     </g>
     <g id="line2d_61">
      <g>
       <use xlink:href="#m6d10fbc8a6" x="277.2" y="256.32" style="stroke: #000000; stroke-width: 0.8"/>
      </g>
     </g>
     <g id="text_15">
      <!-- 10 -->
      <g transform="translate(270.8375 270.918437) scale(0.1 -0.1)">
       <use xlink:href="#DejaVuSans-31"/>
       <use xlink:href="#DejaVuSans-30" transform="translate(63.623047 0)"/>
      </g>
     </g>
    </g>
    <g id="xtick_28">
     <g id="line2d_62">
      <path d="M 299.52 256.32 
L 299.52 155.52 
" clip-path="url(#pef8a8a1471)" style="fill: none; stroke: #b0b0b0; stroke-width: 0.8; stroke-linecap: square"/>
     </g>
     <g id="line2d_63">
      <g>
       <use xlink:href="#m6d10fbc8a6" x="299.52" y="256.32" style="stroke: #000000; stroke-width: 0.8"/>
      </g>
     </g>
     <g id="text_16">
      <!-- 11 -->
      <g transform="translate(293.1575 270.918437) scale(0.1 -0.1)">
       <use xlink:href="#DejaVuSans-31"/>
       <use xlink:href="#DejaVuSans-31" transform="translate(63.623047 0)"/>
      </g>
     </g>
    </g>
    <g id="xtick_29">
     <g id="line2d_64">
      <path d="M 321.84 256.32 
L 321.84 155.52 
" clip-path="url(#pef8a8a1471)" style="fill: none; stroke: #b0b0b0; stroke-width: 0.8; stroke-linecap: square"/>
     </g>
     <g id="line2d_65">
      <g>
       <use xlink:href="#m6d10fbc8a6" x="321.84" y="256.32" style="stroke: #000000; stroke-width: 0.8"/>
      </g>
     </g>
     <g id="text_17">
      <!-- 12 -->
      <g transform="translate(315.4775 270.918437) scale(0.1 -0.1)">
       <use xlink:href="#DejaVuSans-31"/>
       <use xlink:href="#DejaVuSans-32" transform="translate(63.623047 0)"/>
      </g>
     </g>
    </g>
    <g id="xtick_30">
     <g id="line2d_66">
      <path d="M 344.16 256.32 
L 344.16 155.52 
" clip-path="url(#pef8a8a1471)" style="fill: none; stroke: #b0b0b0; stroke-width: 0.8; stroke-linecap: square"/>
     </g>
     <g id="line2d_67">
      <g>
       <use xlink:href="#m6d10fbc8a6" x="344.16" y="256.32" style="stroke: #000000; stroke-width: 0.8"/>
      </g>
     </g>
     <g id="text_18">
      <!-- 13 -->
      <g transform="translate(337.7975 270.918437) scale(0.1 -0.1)">
       <use xlink:href="#DejaVuSans-31"/>
       <use xlink:href="#DejaVuSans-33" transform="translate(63.623047 0)"/>
      </g>
     </g>
    </g>
    <g id="xtick_31">
     <g id="line2d_68">
      <path d="M 366.48 256.32 
L 366.48 155.52 
" clip-path="url(#pef8a8a1471)" style="fill: none; stroke: #b0b0b0; stroke-width: 0.8; stroke-linecap: square"/>
     </g>
     <g id="line2d_69">
      <g>
       <use xlink:href="#m6d10fbc8a6" x="366.48" y="256.32" style="stroke: #000000; stroke-width: 0.8"/>
      </g>
     </g>
     <g id="text_19">
      <!-- 14 -->
      <g transform="translate(360.1175 270.918437) scale(0.1 -0.1)">
       <use xlink:href="#DejaVuSans-31"/>
       <use xlink:href="#DejaVuSans-34" transform="translate(63.623047 0)"/>
      </g>
     </g>
    </g>
    <g id="xtick_32">
     <g id="line2d_70">
      <path d="M 388.8 256.32 
L 388.8 155.52 
" clip-path="url(#pef8a8a1471)" style="fill: none; stroke: #b0b0b0; stroke-width: 0.8; stroke-linecap: square"/>
     </g>
     <g id="line2d_71">
      <g>
       <use xlink:href="#m6d10fbc8a6" x="388.8" y="256.32" style="stroke: #000000; stroke-width: 0.8"/>
      </g>
     </g>
     <g id="text_20">
      <!-- 15 -->
      <g transform="translate(382.4375 270.918437) scale(0.1 -0.1)">
       <use xlink:href="#DejaVuSans-31"/>
       <use xlink:href="#DejaVuSans-35" transform="translate(63.623047 0)"/>
      </g>
     </g>
    </g>
    <g id="text_21">
     <!-- Time -->
     <g transform="translate(209.166406 284.596563) scale(0.1 -0.1)">
      <defs>
       <path id="DejaVuSans-54" d="M -19 4666 
L 3928 4666 
L 3928 4134 
L 2272 4134 
L 2272 0 
L 1638 0 
L 1638 4134 
L -19 4134 
L -19 4666 
z
" transform="scale(0.015625)"/>
       <path id="DejaVuSans-6d" d="M 3328 2828 
Q 3544 3216 3844 3400 
Q 4144 3584 4550 3584 
Q 5097 3584 5394 3201 
Q 5691 2819 5691 2113 
L 5691 0 
L 5113 0 
L 5113 2094 
Q 5113 2597 4934 2840 
Q 4756 3084 4391 3084 
Q 3944 3084 3684 2787 
Q 3425 2491 3425 1978 
L 3425 0 
L 2847 0 
L 2847 2094 
Q 2847 2600 2669 2842 
Q 2491 3084 2119 3084 
Q 1678 3084 1418 2786 
Q 1159 2488 1159 1978 
L 1159 0 
L 581 0 
L 581 3500 
L 1159 3500 
L 1159 2956 
Q 1356 3278 1631 3431 
Q 1906 3584 2284 3584 
Q 2666 3584 2933 3390 
Q 3200 3197 3328 2828 
z
" transform="scale(0.015625)"/>
       <path id="DejaVuSans-65" d="M 3597 1894 
L 3597 1613 
L 953 1613 
Q 991 1019 1311 708 
Q 1631 397 2203 397 
Q 2534 397 2845 478 
Q 3156 559 3463 722 
L 3463 178 
Q 3153 47 2828 -22 
Q 2503 -91 2169 -91 
Q 1331 -91 842 396 
Q 353 884 353 1716 
Q 353 2575 817 3079 
Q 1281 3584 2069 3584 
Q 2775 3584 3186 3129 
Q 3597 2675 3597 1894 
z
M 3022 2063 
Q 3016 2534 2758 2815 
Q 2500 3097 2075 3097 
Q 1594 3097 1305 2825 
Q 1016 2553 972 2059 
L 3022 2063 
z
" transform="scale(0.015625)"/>
      </defs>
      <use xlink:href="#DejaVuSans-54"/>
      <use xlink:href="#DejaVuSans-69" transform="translate(57.958984 0)"/>
      <use xlink:href="#DejaVuSans-6d" transform="translate(85.742188 0)"/>
      <use xlink:href="#DejaVuSans-65" transform="translate(183.154297 0)"/>
     </g>
    </g>
   </g>
   <g id="matplotlib.axis_4">
    <g id="ytick_4">
     <g id="line2d_72">
      <path d="M 54 243.010397 
L 388.8 243.010397 
" clip-path="url(#pef8a8a1471)" style="fill: none; stroke: #b0b0b0; stroke-width: 0.8; stroke-linecap: square"/>
     </g>
     <g id="line2d_73">
      <g>
       <use xlink:href="#mba68d462a0" x="54" y="243.010397" style="stroke: #000000; stroke-width: 0.8"/>
      </g>
     </g>
     <g id="text_22">
      <!-- −0.02 -->
      <g transform="translate(16.354687 246.809616) scale(0.1 -0.1)">
       <defs>
        <path id="DejaVuSans-2e" d="M 684 794 
L 1344 794 
L 1344 0 
L 684 0 
L 684 794 
z
" transform="scale(0.015625)"/>
       </defs>
       <use xlink:href="#DejaVuSans-2212"/>
       <use xlink:href="#DejaVuSans-30" transform="translate(83.789062 0)"/>
       <use xlink:href="#DejaVuSans-2e" transform="translate(147.412109 0)"/>
       <use xlink:href="#DejaVuSans-30" transform="translate(179.199219 0)"/>
       <use xlink:href="#DejaVuSans-32" transform="translate(242.822266 0)"/>
      </g>
     </g>
    </g>
    <g id="ytick_5">
     <g id="line2d_74">
      <path d="M 54 205.92 
L 388.8 205.92 
" clip-path="url(#pef8a8a1471)" style="fill: none; stroke: #b0b0b0; stroke-width: 0.8; stroke-linecap: square"/>
     </g>
     <g id="line2d_75">
      <g>
       <use xlink:href="#mba68d462a0" x="54" y="205.92" style="stroke: #000000; stroke-width: 0.8"/>
      </g>
     </g>
     <g id="text_23">
      <!-- 0.00 -->
      <g transform="translate(24.734375 209.719219) scale(0.1 -0.1)">
       <use xlink:href="#DejaVuSans-30"/>
       <use xlink:href="#DejaVuSans-2e" transform="translate(63.623047 0)"/>
       <use xlink:href="#DejaVuSans-30" transform="translate(95.410156 0)"/>
       <use xlink:href="#DejaVuSans-30" transform="translate(159.033203 0)"/>
      </g>
     </g>
    </g>
    <g id="ytick_6">
     <g id="line2d_76">
      <path d="M 54 168.829603 
L 388.8 168.829603 
" clip-path="url(#pef8a8a1471)" style="fill: none; stroke: #b0b0b0; stroke-width: 0.8; stroke-linecap: square"/>
     </g>
     <g id="line2d_77">
      <g>
       <use xlink:href="#mba68d462a0" x="54" y="168.829603" style="stroke: #000000; stroke-width: 0.8"/>
      </g>
     </g>
     <g id="text_24">
      <!-- 0.02 -->
      <g transform="translate(24.734375 172.628822) scale(0.1 -0.1)">
       <use xlink:href="#DejaVuSans-30"/>
       <use xlink:href="#DejaVuSans-2e" transform="translate(63.623047 0)"/>
       <use xlink:href="#DejaVuSans-30" transform="translate(95.410156 0)"/>
       <use xlink:href="#DejaVuSans-32" transform="translate(159.033203 0)"/>
      </g>
     </g>
    </g>
    <g id="text_25">
     <!-- Position -->
     <g transform="translate(10.275 225.384062) rotate(-90) scale(0.1 -0.1)">
      <defs>
       <path id="DejaVuSans-50" d="M 1259 4147 
L 1259 2394 
L 2053 2394 
Q 2494 2394 2734 2622 
Q 2975 2850 2975 3272 
Q 2975 3691 2734 3919 
Q 2494 4147 2053 4147 
L 1259 4147 
z
M 628 4666 
L 2053 4666 
Q 2838 4666 3239 4311 
Q 3641 3956 3641 3272 
Q 3641 2581 3239 2228 
Q 2838 1875 2053 1875 
L 1259 1875 
L 1259 0 
L 628 0 
L 628 4666 
z
" transform="scale(0.015625)"/>
       <path id="DejaVuSans-73" d="M 2834 3397 
L 2834 2853 
Q 2591 2978 2328 3040 
Q 2066 3103 1784 3103 
Q 1356 3103 1142 2972 
Q 928 2841 928 2578 
Q 928 2378 1081 2264 
Q 1234 2150 1697 2047 
L 1894 2003 
Q 2506 1872 2764 1633 
Q 3022 1394 3022 966 
Q 3022 478 2636 193 
Q 2250 -91 1575 -91 
Q 1294 -91 989 -36 
Q 684 19 347 128 
L 347 722 
Q 666 556 975 473 
Q 1284 391 1588 391 
Q 1994 391 2212 530 
Q 2431 669 2431 922 
Q 2431 1156 2273 1281 
Q 2116 1406 1581 1522 
L 1381 1569 
Q 847 1681 609 1914 
Q 372 2147 372 2553 
Q 372 3047 722 3315 
Q 1072 3584 1716 3584 
Q 2034 3584 2315 3537 
Q 2597 3491 2834 3397 
z
" transform="scale(0.015625)"/>
      </defs>
      <use xlink:href="#DejaVuSans-50"/>
      <use xlink:href="#DejaVuSans-6f" transform="translate(56.677734 0)"/>
      <use xlink:href="#DejaVuSans-73" transform="translate(117.859375 0)"/>
      <use xlink:href="#DejaVuSans-69" transform="translate(169.958984 0)"/>
      <use xlink:href="#DejaVuSans-74" transform="translate(197.742188 0)"/>
      <use xlink:href="#DejaVuSans-69" transform="translate(236.951172 0)"/>
      <use xlink:href="#DejaVuSans-6f" transform="translate(264.734375 0)"/>
      <use xlink:href="#DejaVuSans-6e" transform="translate(325.916016 0)"/>
     </g>
    </g>
   </g>
   <g id="line2d_78">
    <path d="M 54 205.92 
L 54.84816 205.814705 
L 55.3392 205.512169 
L 55.7856 204.973072 
L 56.27664 204.014184 
L 56.81232 202.469032 
L 57.43728 199.973761 
L 58.2408 195.741782 
L 59.40144 188.23458 
L 60.96384 178.366036 
L 61.63344 175.404105 
L 62.12448 174.073835 
L 62.4816 173.643619 
L 62.74944 173.647814 
L 63.01728 173.948463 
L 63.32976 174.688463 
L 63.73152 176.27219 
L 64.22256 179.180287 
L 64.84752 184.378638 
L 65.6064 192.70705 
L 66.67776 207.222889 
L 69.08832 240.731584 
L 69.8472 248.082339 
L 70.42752 251.828766 
L 70.87392 253.45149 
L 71.1864 253.898505 
L 71.36496 253.894037 
L 71.58816 253.62137 
L 71.90064 252.743335 
L 72.3024 250.779959 
L 72.79344 247.165067 
L 73.4184 240.817357 
L 74.26656 229.680459 
L 75.73968 206.674429 
L 77.2128 184.891947 
L 78.06096 175.314828 
L 78.73056 169.980761 
L 79.26624 167.292277 
L 79.668 166.222454 
L 79.93584 165.955663 
L 80.15904 165.999736 
L 80.42688 166.362263 
L 80.784 167.346107 
L 81.2304 169.316916 
L 81.81072 172.944441 
L 82.61424 179.475462 
L 84.44448 196.884049 
L 85.60512 206.652393 
L 86.45328 212.104721 
L 87.16752 215.402099 
L 87.79248 217.343593 
L 88.3728 218.452136 
L 88.86384 218.964389 
L 89.35488 219.185237 
L 89.97984 219.204259 
L 91.40832 219.156223 
L 91.944 219.4003 
L 92.52432 219.930099 
L 93.19392 220.892896 
L 94.08672 222.628393 
L 95.55984 225.521909 
L 96.09552 226.135041 
L 96.49728 226.298021 
L 96.80976 226.207047 
L 97.16688 225.835157 
L 97.56864 225.037291 
L 98.05968 223.466957 
L 98.64 220.717202 
L 99.3096 216.331732 
L 100.11312 209.488579 
L 101.22912 197.854493 
L 103.50576 173.658888 
L 104.26464 167.989209 
L 104.84496 165.1517 
L 105.24672 164.072142 
L 105.5592 163.770568 
L 105.7824 163.853182 
L 106.05024 164.285506 
L 106.40736 165.430062 
L 106.85376 167.763437 
L 107.38944 171.832276 
L 108.10368 179.196385 
L 109.04112 191.500483 
L 112.43376 238.705301 
L 113.148 244.678321 
L 113.68368 247.563758 
L 114.08544 248.774642 
L 114.39792 249.143515 
L 114.62112 249.102034 
L 114.84432 248.810451 
L 115.1568 247.992896 
L 115.55856 246.271782 
L 116.09424 242.902597 
L 116.80848 236.795303 
L 117.8352 225.773598 
L 120.46896 196.549102 
L 121.31712 189.796608 
L 122.03136 185.71807 
L 122.61168 183.522372 
L 123.10272 182.415023 
L 123.50448 181.980946 
L 123.81696 181.909352 
L 124.12944 182.046276 
L 124.5312 182.489411 
L 125.06688 183.458863 
L 125.8704 185.455815 
L 128.59344 192.620848 
L 129.79872 194.895131 
L 131.27184 197.681102 
L 132.03072 199.636423 
L 132.7896 202.242747 
L 133.59312 205.872681 
L 134.48592 210.993614 
L 135.6912 219.343825 
L 137.78928 234.005393 
L 138.54816 237.747419 
L 139.08384 239.445271 
L 139.4856 240.104408 
L 139.75344 240.223361 
L 139.97664 240.116607 
L 140.24448 239.733646 
L 140.6016 238.780582 
L 141.048 236.869989 
L 141.58368 233.536007 
L 142.25328 227.866059 
L 143.10144 218.641474 
L 144.396 201.771831 
L 146.22624 178.287867 
L 147.0744 170.074527 
L 147.744 165.579185 
L 148.23504 163.577476 
L 148.59216 162.853693 
L 148.86 162.723784 
L 149.0832 162.886469 
L 149.35104 163.404204 
L 149.70816 164.630807 
L 150.1992 167.273925 
L 150.82416 172.095897 
L 151.62768 180.273917 
L 152.83296 195.167046 
L 154.8864 220.465271 
L 155.7792 228.804067 
L 156.49344 233.622395 
L 157.07376 236.204862 
L 157.52016 237.368927 
L 157.87728 237.798817 
L 158.14512 237.840854 
L 158.41296 237.654284 
L 158.77008 237.072071 
L 159.21648 235.857983 
L 159.7968 233.592159 
L 160.64496 229.244763 
L 162.34128 218.991986 
L 163.8144 210.738693 
L 164.97504 205.480549 
L 166.13568 201.236968 
L 171.93888 182.28616 
L 172.60848 180.858967 
L 173.09952 180.26116 
L 173.45664 180.119106 
L 173.76912 180.22332 
L 174.12624 180.627047 
L 174.528 181.470206 
L 175.01904 183.092254 
L 175.59936 185.875564 
L 176.26896 190.241461 
L 177.11712 197.391244 
L 178.27776 209.361551 
L 180.73296 235.308835 
L 181.53648 241.358678 
L 182.16144 244.517658 
L 182.60784 245.815107 
L 182.92032 246.21504 
L 183.14352 246.237103 
L 183.36672 246.037027 
L 183.6792 245.383024 
L 184.08096 243.907699 
L 184.572 241.167157 
L 185.19696 236.299504 
L 186.00048 228.11751 
L 187.16112 213.737256 
L 189.43776 185.249394 
L 190.33056 176.983809 
L 191.00016 172.594517 
L 191.53584 170.330937 
L 191.9376 169.384864 
L 192.25008 169.092996 
L 192.47328 169.118101 
L 192.74112 169.398457 
L 193.09824 170.18053 
L 193.54464 171.772061 
L 194.12496 174.748996 
L 194.88384 179.896955 
L 196.04448 189.50594 
L 198.4104 209.293962 
L 199.43712 215.897364 
L 200.28528 220.038865 
L 201.04416 222.753597 
L 201.7584 224.546224 
L 202.428 225.664946 
L 203.05296 226.316469 
L 203.67792 226.672364 
L 204.34752 226.7978 
L 205.01712 226.703485 
L 205.73136 226.368638 
L 206.40096 225.800597 
L 207.07056 224.91821 
L 207.74016 223.630941 
L 208.40976 221.839446 
L 209.124 219.269964 
L 209.92752 215.472629 
L 210.82032 210.099259 
L 211.93632 201.888473 
L 215.28432 176.045074 
L 215.99856 172.663289 
L 216.53424 171.1094 
L 216.89136 170.602125 
L 217.1592 170.516704 
L 217.42704 170.692491 
L 217.73952 171.23416 
L 218.14128 172.467928 
L 218.63232 174.789379 
L 219.25728 178.982143 
L 220.01616 185.740241 
L 221.04288 197.108309 
L 224.21232 233.861967 
L 224.9712 239.661836 
L 225.59616 242.865775 
L 226.04256 244.204285 
L 226.39968 244.686981 
L 226.66752 244.704845 
L 226.93536 244.430759 
L 227.24784 243.749675 
L 227.69424 242.128411 
L 228.22992 239.248923 
L 228.94416 234.037878 
L 229.92624 224.966245 
L 233.4528 190.576615 
L 234.30096 185.140776 
L 235.0152 181.92599 
L 235.59552 180.2415 
L 236.08656 179.439088 
L 236.48832 179.179861 
L 236.84544 179.226817 
L 237.20256 179.512864 
L 237.64896 180.17192 
L 238.22928 181.458248 
L 238.98816 183.718918 
L 240.05952 187.670507 
L 241.75584 194.891598 
L 243.80928 204.583937 
L 245.7288 214.764288 
L 248.45184 229.311174 
L 249.34464 232.835499 
L 249.9696 234.520372 
L 250.46064 235.27624 
L 250.81776 235.470088 
L 251.13024 235.374414 
L 251.44272 235.018584 
L 251.84448 234.164327 
L 252.33552 232.49875 
L 252.91584 229.64645 
L 253.63008 224.87408 
L 254.52288 217.1878 
L 255.7728 204.1966 
L 258.04944 180.371423 
L 258.8976 173.78707 
L 259.5672 170.150129 
L 260.05824 168.499204 
L 260.46 167.83289 
L 260.72784 167.740112 
L 260.95104 167.879123 
L 261.26352 168.402912 
L 261.66528 169.631527 
L 262.15632 171.948195 
L 262.78128 176.089848 
L 263.5848 183.075789 
L 264.74544 195.413011 
L 267.24528 222.551348 
L 268.18272 230.105279 
L 268.89696 234.241787 
L 269.47728 236.46723 
L 269.96832 237.539049 
L 270.32544 237.858746 
L 270.59328 237.852186 
L 270.90576 237.587953 
L 271.26288 236.964575 
L 271.75392 235.591123 
L 272.37888 233.085351 
L 273.1824 228.871652 
L 274.38768 221.226732 
L 277.51248 200.921031 
L 278.80704 194.160855 
L 279.96768 189.199496 
L 281.03904 185.551802 
L 281.93184 183.241944 
L 282.64608 181.938783 
L 283.2264 181.292642 
L 283.6728 181.081105 
L 284.07456 181.125459 
L 284.47632 181.411109 
L 284.92272 182.032762 
L 285.41376 183.111258 
L 285.99408 184.948678 
L 286.66368 187.852035 
L 287.4672 192.434859 
L 288.40464 199.163264 
L 289.6992 210.244426 
L 292.10976 231.122403 
L 292.95792 236.571611 
L 293.62752 239.571869 
L 294.11856 240.907555 
L 294.47568 241.379464 
L 294.74352 241.446127 
L 295.01136 241.26178 
L 295.32384 240.726933 
L 295.7256 239.534894 
L 296.21664 237.324486 
L 296.8416 233.38135 
L 297.64512 226.681772 
L 298.71648 215.639864 
L 301.79664 182.693094 
L 302.6448 176.492578 
L 303.3144 173.14335 
L 303.80544 171.634692 
L 304.2072 171.012913 
L 304.47504 170.904185 
L 304.74288 171.036563 
L 305.05536 171.48863 
L 305.45712 172.522536 
L 305.9928 174.639476 
L 306.6624 178.331863 
L 307.5552 184.68043 
L 308.98368 196.763074 
L 311.03712 213.832753 
L 312.10848 220.928085 
L 313.00128 225.456213 
L 313.76016 228.248028 
L 314.42976 229.913412 
L 314.96544 230.729691 
L 315.45648 231.096368 
L 315.85824 231.139116 
L 316.26 230.961993 
L 316.7064 230.519837 
L 317.24208 229.66564 
L 317.91168 228.127857 
L 318.67056 225.785606 
L 319.56336 222.250729 
L 320.59008 217.192406 
L 321.79536 210.023364 
L 323.44704 198.65075 
L 325.67904 183.444096 
L 326.61648 178.534436 
L 327.33072 175.88854 
L 327.8664 174.672434 
L 328.26816 174.244293 
L 328.58064 174.216308 
L 328.89312 174.46492 
L 329.25024 175.095183 
L 329.69664 176.407406 
L 330.23232 178.744171 
L 330.90192 182.782381 
L 331.70544 189.090147 
L 332.82144 199.852334 
L 335.94624 231.22877 
L 336.74976 236.754288 
L 337.37472 239.735177 
L 337.86576 241.177547 
L 338.26752 241.741406 
L 338.53536 241.804938 
L 338.8032 241.619076 
L 339.11568 241.090831 
L 339.51744 239.931596 
L 340.05312 237.588979 
L 340.72272 233.504496 
L 341.57088 226.819119 
L 342.86544 214.560272 
L 345.14208 192.94991 
L 346.12416 185.725895 
L 346.92768 181.332333 
L 347.59728 178.825901 
L 348.13296 177.593227 
L 348.57936 177.081749 
L 348.93648 176.998702 
L 349.24896 177.154003 
L 349.65072 177.65047 
L 350.14176 178.679424 
L 350.76672 180.591219 
L 351.5256 183.681848 
L 352.55232 188.895262 
L 354.02544 197.674363 
L 358.17696 223.040849 
L 359.29296 228.303663 
L 360.14112 231.343703 
L 360.81072 232.996831 
L 361.3464 233.766032 
L 361.74816 233.987118 
L 362.06064 233.934858 
L 362.41776 233.624613 
L 362.81952 232.945945 
L 363.31056 231.631368 
L 363.89088 229.384983 
L 364.60512 225.614563 
L 365.45328 219.814072 
L 366.56928 210.437408 
L 370.14048 178.925472 
L 370.89936 174.61106 
L 371.47968 172.382519 
L 371.92608 171.36955 
L 372.2832 171.020757 
L 372.55104 171.034268 
L 372.81888 171.285153 
L 373.176 171.987497 
L 373.6224 173.445867 
L 374.15808 176.010305 
L 374.82768 180.356501 
L 375.72048 187.787719 
L 377.05968 201.150325 
L 379.2024 222.471989 
L 380.18448 230.014678 
L 380.94336 234.261834 
L 381.56832 236.582763 
L 382.05936 237.627847 
L 382.41648 237.956211 
L 382.72896 237.949905 
L 383.04144 237.67643 
L 383.4432 236.947127 
L 383.93424 235.513022 
L 384.5592 232.908669 
L 385.36272 228.485048 
L 386.47872 220.906958 
L 388.8 203.366186 
L 388.8 203.366186 
" clip-path="url(#pef8a8a1471)" style="fill: none; stroke: #1f77b4; stroke-width: 1.5; stroke-linecap: square"/>
   </g>
   <g id="patch_8">
    <path d="M 54 256.32 
L 54 155.52 
" style="fill: none"/>
   </g>
   <g id="patch_9">
    <path d="M 388.8 256.32 
L 388.8 155.52 
" style="fill: none"/>
   </g>
   <g id="patch_10">
    <path d="M 54 256.32 
L 388.8 256.32 
" style="fill: none; stroke: #000000; stroke-width: 0.8; stroke-linejoin: miter; stroke-linecap: square"/>
   </g>
   <g id="patch_11">
    <path d="M 54 205.92 
L 388.8 205.92 
" style="fill: none; stroke: #000000; stroke-width: 0.8; stroke-linejoin: miter; stroke-linecap: square"/>
   </g>
  </g>
 </g>
 <defs>
  <clipPath id="p46462c9d34">
   <rect x="54" y="34.56" width="334.8" height="100.8"/>
  </clipPath>
  <clipPath id="pef8a8a1471">
   <rect x="54" y="155.52" width="334.8" height="100.8"/>
  </clipPath>
 </defs>
</svg>
