<?xml version="1.0" encoding="utf-8" standalone="no"?>
<!DOCTYPE svg PUBLIC "-//W3C//DTD SVG 1.1//EN"
  "http://www.w3.org/Graphics/SVG/1.1/DTD/svg11.dtd">
<svg xmlns:xlink="http://www.w3.org/1999/xlink" width="419.610937pt" height="267.915469pt" viewBox="0 0 419.610937 267.915469" xmlns="http://www.w3.org/2000/svg" version="1.1">
 <metadata>
  <rdf:RDF xmlns:dc="http://purl.org/dc/elements/1.1/" xmlns:cc="http://creativecommons.org/ns#" xmlns:rdf="http://www.w3.org/1999/02/22-rdf-syntax-ns#">
   <cc:Work>
    <dc:type rdf:resource="http://purl.org/dc/dcmitype/StillImage"/>
    <dc:date>2025-07-09T15:00:03.996200</dc:date>
    <dc:format>image/svg+xml</dc:format>
    <dc:creator>
     <cc:Agent>
      <dc:title>Matplotlib v3.10.3, https://matplotlib.org/</dc:title>
     </cc:Agent>
    </dc:creator>
   </cc:Work>
  </rdf:RDF>
 </metadata>
 <defs>
  <style type="text/css">*{stroke-linejoin: round; stroke-linecap: butt}</style>
 </defs>
 <g id="figure_1">
  <g id="patch_1">
   <path d="M 0 267.915469 
L 419.610938 267.915469 
L 419.610938 0 
L 0 0 
z
" style="fill: #ffffff"/>
  </g>
  <g id="axes_1">
   <g id="patch_2">
    <path d="M 71.248438 109.399219 
L 406.048438 109.399219 
L 406.048438 8.599219 
L 71.248438 8.599219 
z
" style="fill: #ffffff"/>
   </g>
   <g id="matplotlib.axis_1">
    <g id="xtick_1">
     <g id="line2d_1">
      <path d="M 71.248438 109.399219 
L 71.248438 8.599219 
" clip-path="url(#p5eaa8bb64b)" style="fill: none; stroke: #b0b0b0; stroke-width: 0.8; stroke-linecap: square"/>
     </g>
     <g id="line2d_2">
      <defs>
       <path id="m4f020b74c1" d="M 0 0 
L 0 3.5 
" style="stroke: #000000; stroke-width: 0.8"/>
      </defs>
      <g>
       <use xlink:href="#m4f020b74c1" x="71.248438" y="58.999219" style="stroke: #000000; stroke-width: 0.8"/>
      </g>
     </g>
    </g>
    <g id="xtick_2">
     <g id="line2d_3">
      <path d="M 93.568438 109.399219 
L 93.568438 8.599219 
" clip-path="url(#p5eaa8bb64b)" style="fill: none; stroke: #b0b0b0; stroke-width: 0.8; stroke-linecap: square"/>
     </g>
     <g id="line2d_4">
      <g>
       <use xlink:href="#m4f020b74c1" x="93.568438" y="58.999219" style="stroke: #000000; stroke-width: 0.8"/>
      </g>
     </g>
    </g>
    <g id="xtick_3">
     <g id="line2d_5">
      <path d="M 115.888438 109.399219 
L 115.888438 8.599219 
" clip-path="url(#p5eaa8bb64b)" style="fill: none; stroke: #b0b0b0; stroke-width: 0.8; stroke-linecap: square"/>
     </g>
     <g id="line2d_6">
      <g>
       <use xlink:href="#m4f020b74c1" x="115.888438" y="58.999219" style="stroke: #000000; stroke-width: 0.8"/>
      </g>
     </g>
    </g>
    <g id="xtick_4">
     <g id="line2d_7">
      <path d="M 138.208438 109.399219 
L 138.208438 8.599219 
" clip-path="url(#p5eaa8bb64b)" style="fill: none; stroke: #b0b0b0; stroke-width: 0.8; stroke-linecap: square"/>
     </g>
     <g id="line2d_8">
      <g>
       <use xlink:href="#m4f020b74c1" x="138.208438" y="58.999219" style="stroke: #000000; stroke-width: 0.8"/>
      </g>
     </g>
    </g>
    <g id="xtick_5">
     <g id="line2d_9">
      <path d="M 160.528437 109.399219 
L 160.528437 8.599219 
" clip-path="url(#p5eaa8bb64b)" style="fill: none; stroke: #b0b0b0; stroke-width: 0.8; stroke-linecap: square"/>
     </g>
     <g id="line2d_10">
      <g>
       <use xlink:href="#m4f020b74c1" x="160.528437" y="58.999219" style="stroke: #000000; stroke-width: 0.8"/>
      </g>
     </g>
    </g>
    <g id="xtick_6">
     <g id="line2d_11">
      <path d="M 182.848437 109.399219 
L 182.848437 8.599219 
" clip-path="url(#p5eaa8bb64b)" style="fill: none; stroke: #b0b0b0; stroke-width: 0.8; stroke-linecap: square"/>
     </g>
     <g id="line2d_12">
      <g>
       <use xlink:href="#m4f020b74c1" x="182.848437" y="58.999219" style="stroke: #000000; stroke-width: 0.8"/>
      </g>
     </g>
    </g>
    <g id="xtick_7">
     <g id="line2d_13">
      <path d="M 205.168438 109.399219 
L 205.168438 8.599219 
" clip-path="url(#p5eaa8bb64b)" style="fill: none; stroke: #b0b0b0; stroke-width: 0.8; stroke-linecap: square"/>
     </g>
     <g id="line2d_14">
      <g>
       <use xlink:href="#m4f020b74c1" x="205.168438" y="58.999219" style="stroke: #000000; stroke-width: 0.8"/>
      </g>
     </g>
    </g>
    <g id="xtick_8">
     <g id="line2d_15">
      <path d="M 227.488438 109.399219 
L 227.488438 8.599219 
" clip-path="url(#p5eaa8bb64b)" style="fill: none; stroke: #b0b0b0; stroke-width: 0.8; stroke-linecap: square"/>
     </g>
     <g id="line2d_16">
      <g>
       <use xlink:href="#m4f020b74c1" x="227.488438" y="58.999219" style="stroke: #000000; stroke-width: 0.8"/>
      </g>
     </g>
    </g>
    <g id="xtick_9">
     <g id="line2d_17">
      <path d="M 249.808438 109.399219 
L 249.808438 8.599219 
" clip-path="url(#p5eaa8bb64b)" style="fill: none; stroke: #b0b0b0; stroke-width: 0.8; stroke-linecap: square"/>
     </g>
     <g id="line2d_18">
      <g>
       <use xlink:href="#m4f020b74c1" x="249.808438" y="58.999219" style="stroke: #000000; stroke-width: 0.8"/>
      </g>
     </g>
    </g>
    <g id="xtick_10">
     <g id="line2d_19">
      <path d="M 272.128438 109.399219 
L 272.128438 8.599219 
" clip-path="url(#p5eaa8bb64b)" style="fill: none; stroke: #b0b0b0; stroke-width: 0.8; stroke-linecap: square"/>
     </g>
     <g id="line2d_20">
      <g>
       <use xlink:href="#m4f020b74c1" x="272.128438" y="58.999219" style="stroke: #000000; stroke-width: 0.8"/>
      </g>
     </g>
    </g>
    <g id="xtick_11">
     <g id="line2d_21">
      <path d="M 294.448438 109.399219 
L 294.448438 8.599219 
" clip-path="url(#p5eaa8bb64b)" style="fill: none; stroke: #b0b0b0; stroke-width: 0.8; stroke-linecap: square"/>
     </g>
     <g id="line2d_22">
      <g>
       <use xlink:href="#m4f020b74c1" x="294.448438" y="58.999219" style="stroke: #000000; stroke-width: 0.8"/>
      </g>
     </g>
    </g>
    <g id="xtick_12">
     <g id="line2d_23">
      <path d="M 316.768438 109.399219 
L 316.768438 8.599219 
" clip-path="url(#p5eaa8bb64b)" style="fill: none; stroke: #b0b0b0; stroke-width: 0.8; stroke-linecap: square"/>
     </g>
     <g id="line2d_24">
      <g>
       <use xlink:href="#m4f020b74c1" x="316.768438" y="58.999219" style="stroke: #000000; stroke-width: 0.8"/>
      </g>
     </g>
    </g>
    <g id="xtick_13">
     <g id="line2d_25">
      <path d="M 339.088438 109.399219 
L 339.088438 8.599219 
" clip-path="url(#p5eaa8bb64b)" style="fill: none; stroke: #b0b0b0; stroke-width: 0.8; stroke-linecap: square"/>
     </g>
     <g id="line2d_26">
      <g>
       <use xlink:href="#m4f020b74c1" x="339.088438" y="58.999219" style="stroke: #000000; stroke-width: 0.8"/>
      </g>
     </g>
    </g>
    <g id="xtick_14">
     <g id="line2d_27">
      <path d="M 361.408438 109.399219 
L 361.408438 8.599219 
" clip-path="url(#p5eaa8bb64b)" style="fill: none; stroke: #b0b0b0; stroke-width: 0.8; stroke-linecap: square"/>
     </g>
     <g id="line2d_28">
      <g>
       <use xlink:href="#m4f020b74c1" x="361.408438" y="58.999219" style="stroke: #000000; stroke-width: 0.8"/>
      </g>
     </g>
    </g>
    <g id="xtick_15">
     <g id="line2d_29">
      <path d="M 383.728438 109.399219 
L 383.728438 8.599219 
" clip-path="url(#p5eaa8bb64b)" style="fill: none; stroke: #b0b0b0; stroke-width: 0.8; stroke-linecap: square"/>
     </g>
     <g id="line2d_30">
      <g>
       <use xlink:href="#m4f020b74c1" x="383.728438" y="58.999219" style="stroke: #000000; stroke-width: 0.8"/>
      </g>
     </g>
    </g>
    <g id="xtick_16">
     <g id="line2d_31">
      <path d="M 406.048438 109.399219 
L 406.048438 8.599219 
" clip-path="url(#p5eaa8bb64b)" style="fill: none; stroke: #b0b0b0; stroke-width: 0.8; stroke-linecap: square"/>
     </g>
     <g id="line2d_32">
      <g>
       <use xlink:href="#m4f020b74c1" x="406.048438" y="58.999219" style="stroke: #000000; stroke-width: 0.8"/>
      </g>
     </g>
    </g>
   </g>
   <g id="matplotlib.axis_2">
    <g id="ytick_1">
     <g id="line2d_33">
      <path d="M 71.248438 106.999219 
L 406.048438 106.999219 
" clip-path="url(#p5eaa8bb64b)" style="fill: none; stroke: #b0b0b0; stroke-width: 0.8; stroke-linecap: square"/>
     </g>
     <g id="line2d_34">
      <defs>
       <path id="meb3e409453" d="M 0 0 
L -3.5 0 
" style="stroke: #000000; stroke-width: 0.8"/>
      </defs>
      <g>
       <use xlink:href="#meb3e409453" x="71.248438" y="106.999219" style="stroke: #000000; stroke-width: 0.8"/>
      </g>
     </g>
     <g id="text_1">
      <!-- −1 -->
      <g transform="translate(49.50625 110.798437) scale(0.1 -0.1)">
       <defs>
        <path id="DejaVuSans-2212" d="M 678 2272 
L 4684 2272 
L 4684 1741 
L 678 1741 
L 678 2272 
z
" transform="scale(0.015625)"/>
        <path id="DejaVuSans-31" d="M 794 531 
L 1825 531 
L 1825 4091 
L 703 3866 
L 703 4441 
L 1819 4666 
L 2450 4666 
L 2450 531 
L 3481 531 
L 3481 0 
L 794 0 
L 794 531 
z
" transform="scale(0.015625)"/>
       </defs>
       <use xlink:href="#DejaVuSans-2212"/>
       <use xlink:href="#DejaVuSans-31" transform="translate(83.789062 0)"/>
      </g>
     </g>
    </g>
    <g id="ytick_2">
     <g id="line2d_35">
      <path d="M 71.248438 58.999219 
L 406.048438 58.999219 
" clip-path="url(#p5eaa8bb64b)" style="fill: none; stroke: #b0b0b0; stroke-width: 0.8; stroke-linecap: square"/>
     </g>
     <g id="line2d_36">
      <g>
       <use xlink:href="#meb3e409453" x="71.248438" y="58.999219" style="stroke: #000000; stroke-width: 0.8"/>
      </g>
     </g>
     <g id="text_2">
      <!-- 0 -->
      <g transform="translate(57.885938 62.798437) scale(0.1 -0.1)">
       <defs>
        <path id="DejaVuSans-30" d="M 2034 4250 
Q 1547 4250 1301 3770 
Q 1056 3291 1056 2328 
Q 1056 1369 1301 889 
Q 1547 409 2034 409 
Q 2525 409 2770 889 
Q 3016 1369 3016 2328 
Q 3016 3291 2770 3770 
Q 2525 4250 2034 4250 
z
M 2034 4750 
Q 2819 4750 3233 4129 
Q 3647 3509 3647 2328 
Q 3647 1150 3233 529 
Q 2819 -91 2034 -91 
Q 1250 -91 836 529 
Q 422 1150 422 2328 
Q 422 3509 836 4129 
Q 1250 4750 2034 4750 
z
" transform="scale(0.015625)"/>
       </defs>
       <use xlink:href="#DejaVuSans-30"/>
      </g>
     </g>
    </g>
    <g id="ytick_3">
     <g id="line2d_37">
      <path d="M 71.248438 10.999219 
L 406.048438 10.999219 
" clip-path="url(#p5eaa8bb64b)" style="fill: none; stroke: #b0b0b0; stroke-width: 0.8; stroke-linecap: square"/>
     </g>
     <g id="line2d_38">
      <g>
       <use xlink:href="#meb3e409453" x="71.248438" y="10.999219" style="stroke: #000000; stroke-width: 0.8"/>
      </g>
     </g>
     <g id="text_3">
      <!-- 1 -->
      <g transform="translate(57.885938 14.798438) scale(0.1 -0.1)">
       <use xlink:href="#DejaVuSans-31"/>
      </g>
     </g>
    </g>
    <g id="text_4">
     <!-- Forcing Function -->
     <g transform="translate(14.798438 100.03125) rotate(-90) scale(0.1 -0.1)">
      <defs>
       <path id="DejaVuSans-46" d="M 628 4666 
L 3309 4666 
L 3309 4134 
L 1259 4134 
L 1259 2759 
L 3109 2759 
L 3109 2228 
L 1259 2228 
L 1259 0 
L 628 0 
L 628 4666 
z
" transform="scale(0.015625)"/>
       <path id="DejaVuSans-6f" d="M 1959 3097 
Q 1497 3097 1228 2736 
Q 959 2375 959 1747 
Q 959 1119 1226 758 
Q 1494 397 1959 397 
Q 2419 397 2687 759 
Q 2956 1122 2956 1747 
Q 2956 2369 2687 2733 
Q 2419 3097 1959 3097 
z
M 1959 3584 
Q 2709 3584 3137 3096 
Q 3566 2609 3566 1747 
Q 3566 888 3137 398 
Q 2709 -91 1959 -91 
Q 1206 -91 779 398 
Q 353 888 353 1747 
Q 353 2609 779 3096 
Q 1206 3584 1959 3584 
z
" transform="scale(0.015625)"/>
       <path id="DejaVuSans-72" d="M 2631 2963 
Q 2534 3019 2420 3045 
Q 2306 3072 2169 3072 
Q 1681 3072 1420 2755 
Q 1159 2438 1159 1844 
L 1159 0 
L 581 0 
L 581 3500 
L 1159 3500 
L 1159 2956 
Q 1341 3275 1631 3429 
Q 1922 3584 2338 3584 
Q 2397 3584 2469 3576 
Q 2541 3569 2628 3553 
L 2631 2963 
z
" transform="scale(0.015625)"/>
       <path id="DejaVuSans-63" d="M 3122 3366 
L 3122 2828 
Q 2878 2963 2633 3030 
Q 2388 3097 2138 3097 
Q 1578 3097 1268 2742 
Q 959 2388 959 1747 
Q 959 1106 1268 751 
Q 1578 397 2138 397 
Q 2388 397 2633 464 
Q 2878 531 3122 666 
L 3122 134 
Q 2881 22 2623 -34 
Q 2366 -91 2075 -91 
Q 1284 -91 818 406 
Q 353 903 353 1747 
Q 353 2603 823 3093 
Q 1294 3584 2113 3584 
Q 2378 3584 2631 3529 
Q 2884 3475 3122 3366 
z
" transform="scale(0.015625)"/>
       <path id="DejaVuSans-69" d="M 603 3500 
L 1178 3500 
L 1178 0 
L 603 0 
L 603 3500 
z
M 603 4863 
L 1178 4863 
L 1178 4134 
L 603 4134 
L 603 4863 
z
" transform="scale(0.015625)"/>
       <path id="DejaVuSans-6e" d="M 3513 2113 
L 3513 0 
L 2938 0 
L 2938 2094 
Q 2938 2591 2744 2837 
Q 2550 3084 2163 3084 
Q 1697 3084 1428 2787 
Q 1159 2491 1159 1978 
L 1159 0 
L 581 0 
L 581 3500 
L 1159 3500 
L 1159 2956 
Q 1366 3272 1645 3428 
Q 1925 3584 2291 3584 
Q 2894 3584 3203 3211 
Q 3513 2838 3513 2113 
z
" transform="scale(0.015625)"/>
       <path id="DejaVuSans-67" d="M 2906 1791 
Q 2906 2416 2648 2759 
Q 2391 3103 1925 3103 
Q 1463 3103 1205 2759 
Q 947 2416 947 1791 
Q 947 1169 1205 825 
Q 1463 481 1925 481 
Q 2391 481 2648 825 
Q 2906 1169 2906 1791 
z
M 3481 434 
Q 3481 -459 3084 -895 
Q 2688 -1331 1869 -1331 
Q 1566 -1331 1297 -1286 
Q 1028 -1241 775 -1147 
L 775 -588 
Q 1028 -725 1275 -790 
Q 1522 -856 1778 -856 
Q 2344 -856 2625 -561 
Q 2906 -266 2906 331 
L 2906 616 
Q 2728 306 2450 153 
Q 2172 0 1784 0 
Q 1141 0 747 490 
Q 353 981 353 1791 
Q 353 2603 747 3093 
Q 1141 3584 1784 3584 
Q 2172 3584 2450 3431 
Q 2728 3278 2906 2969 
L 2906 3500 
L 3481 3500 
L 3481 434 
z
" transform="scale(0.015625)"/>
       <path id="DejaVuSans-20" transform="scale(0.015625)"/>
       <path id="DejaVuSans-75" d="M 544 1381 
L 544 3500 
L 1119 3500 
L 1119 1403 
Q 1119 906 1312 657 
Q 1506 409 1894 409 
Q 2359 409 2629 706 
Q 2900 1003 2900 1516 
L 2900 3500 
L 3475 3500 
L 3475 0 
L 2900 0 
L 2900 538 
Q 2691 219 2414 64 
Q 2138 -91 1772 -91 
Q 1169 -91 856 284 
Q 544 659 544 1381 
z
M 1991 3584 
L 1991 3584 
z
" transform="scale(0.015625)"/>
       <path id="DejaVuSans-74" d="M 1172 4494 
L 1172 3500 
L 2356 3500 
L 2356 3053 
L 1172 3053 
L 1172 1153 
Q 1172 725 1289 603 
Q 1406 481 1766 481 
L 2356 481 
L 2356 0 
L 1766 0 
Q 1100 0 847 248 
Q 594 497 594 1153 
L 594 3053 
L 172 3053 
L 172 3500 
L 594 3500 
L 594 4494 
L 1172 4494 
z
" transform="scale(0.015625)"/>
      </defs>
      <use xlink:href="#DejaVuSans-46"/>
      <use xlink:href="#DejaVuSans-6f" transform="translate(53.894531 0)"/>
      <use xlink:href="#DejaVuSans-72" transform="translate(115.076172 0)"/>
      <use xlink:href="#DejaVuSans-63" transform="translate(153.939453 0)"/>
      <use xlink:href="#DejaVuSans-69" transform="translate(208.919922 0)"/>
      <use xlink:href="#DejaVuSans-6e" transform="translate(236.703125 0)"/>
      <use xlink:href="#DejaVuSans-67" transform="translate(300.082031 0)"/>
      <use xlink:href="#DejaVuSans-20" transform="translate(363.558594 0)"/>
      <use xlink:href="#DejaVuSans-46" transform="translate(395.345703 0)"/>
      <use xlink:href="#DejaVuSans-75" transform="translate(447.365234 0)"/>
      <use xlink:href="#DejaVuSans-6e" transform="translate(510.744141 0)"/>
      <use xlink:href="#DejaVuSans-63" transform="translate(574.123047 0)"/>
      <use xlink:href="#DejaVuSans-74" transform="translate(629.103516 0)"/>
      <use xlink:href="#DejaVuSans-69" transform="translate(668.3125 0)"/>
      <use xlink:href="#DejaVuSans-6f" transform="translate(696.095703 0)"/>
      <use xlink:href="#DejaVuSans-6e" transform="translate(757.277344 0)"/>
     </g>
    </g>
   </g>
   <g id="line2d_39">
    <path d="M 71.248438 58.999219 
L 73.257238 33.279533 
L 74.283958 22.795152 
L 75.087478 16.64924 
L 75.712438 13.348506 
L 76.203478 11.740131 
L 76.605238 11.093936 
L 76.873078 11.003009 
L 77.140918 11.184806 
L 77.453398 11.740131 
L 77.855158 12.990173 
L 78.346198 15.314132 
L 78.971158 19.469654 
L 79.730038 26.140958 
L 80.712118 36.939385 
L 82.185238 55.985274 
L 84.461878 85.226147 
L 85.488598 95.596459 
L 86.292118 101.629768 
L 86.917078 104.832717 
L 87.408118 106.360144 
L 87.765238 106.904502 
L 88.033078 106.995429 
L 88.300918 106.813632 
L 88.613398 106.258307 
L 89.015158 105.008265 
L 89.506198 102.684305 
L 90.131158 98.528783 
L 90.890038 91.85748 
L 91.872118 81.059052 
L 93.345238 62.013164 
L 95.621878 32.77229 
L 96.648598 22.401978 
L 97.452118 16.368669 
L 98.077078 13.165721 
L 98.568117 11.638293 
L 98.925238 11.093936 
L 99.193078 11.003009 
L 99.460918 11.184806 
L 99.773398 11.740131 
L 100.175158 12.990173 
L 100.666198 15.314132 
L 101.291158 19.469654 
L 102.050038 26.140958 
L 103.032118 36.939385 
L 104.505238 55.985274 
L 106.781878 85.226147 
L 107.808598 95.596459 
L 108.612118 101.629768 
L 109.237077 104.832717 
L 109.728118 106.360144 
L 110.085238 106.904502 
L 110.353078 106.995429 
L 110.620918 106.813632 
L 110.933398 106.258307 
L 111.335158 105.008265 
L 111.826198 102.684305 
L 112.451158 98.528783 
L 113.210038 91.85748 
L 114.192118 81.059052 
L 115.665238 62.013164 
L 117.941878 32.77229 
L 118.968598 22.401978 
L 119.772118 16.368669 
L 120.397078 13.165721 
L 120.888118 11.638293 
L 121.245238 11.093936 
L 121.513078 11.003009 
L 121.780918 11.184806 
L 122.093398 11.740131 
L 122.495158 12.990173 
L 122.986198 15.314132 
L 123.611158 19.469654 
L 124.370038 26.140958 
L 125.352118 36.939385 
L 126.825238 55.985274 
L 129.101878 85.226147 
L 130.128598 95.596459 
L 130.932118 101.629768 
L 131.557077 104.832717 
L 132.048118 106.360144 
L 132.405237 106.904502 
L 132.673078 106.995429 
L 132.940918 106.813632 
L 133.253398 106.258307 
L 133.655158 105.008265 
L 134.146198 102.684305 
L 134.771158 98.528783 
L 135.530037 91.85748 
L 136.512117 81.059052 
L 137.985238 62.013164 
L 140.261878 32.77229 
L 141.288598 22.401978 
L 142.092118 16.368669 
L 142.717078 13.165721 
L 143.208118 11.638293 
L 143.565238 11.093936 
L 143.833078 11.003009 
L 144.100918 11.184806 
L 144.413398 11.740131 
L 144.815157 12.990173 
L 145.306197 15.314132 
L 145.931158 19.469654 
L 146.690038 26.140958 
L 147.672118 36.939385 
L 149.145238 55.985274 
L 151.421877 85.226147 
L 152.448598 95.596459 
L 153.252117 101.629768 
L 153.877078 104.832717 
L 154.368118 106.360144 
L 154.725238 106.904502 
L 154.993078 106.995429 
L 155.260918 106.813632 
L 155.573397 106.258307 
L 155.975158 105.008265 
L 156.466198 102.684305 
L 157.091158 98.528783 
L 157.850038 91.85748 
L 158.832118 81.059052 
L 160.305238 62.013164 
L 162.581878 32.77229 
L 163.608598 22.401978 
L 164.412118 16.368669 
L 165.037078 13.165721 
L 165.528118 11.638293 
L 165.885238 11.093936 
L 166.153077 11.003009 
L 166.420918 11.184806 
L 166.733398 11.740131 
L 167.135158 12.990173 
L 167.626198 15.314132 
L 168.251158 19.469654 
L 169.010038 26.140958 
L 169.992118 36.939385 
L 171.465238 55.985274 
L 173.741878 85.226147 
L 174.768597 95.596459 
L 175.572118 101.629768 
L 176.197078 104.832717 
L 176.688118 106.360144 
L 177.045238 106.904502 
L 177.313078 106.995429 
L 177.580917 106.813632 
L 177.893398 106.258307 
L 178.295158 105.008265 
L 178.786198 102.684305 
L 179.411158 98.528783 
L 180.170038 91.85748 
L 181.152118 81.059052 
L 182.625238 62.013164 
L 184.901878 32.77229 
L 185.928598 22.401978 
L 186.732118 16.368669 
L 187.357078 13.165721 
L 187.848118 11.638293 
L 188.205238 11.093936 
L 188.473077 11.003009 
L 188.740918 11.184806 
L 189.053398 11.740131 
L 189.455158 12.990173 
L 189.946198 15.314132 
L 190.571158 19.469654 
L 191.330038 26.140958 
L 192.312117 36.939385 
L 193.785237 55.985274 
L 196.061878 85.226147 
L 197.088597 95.596459 
L 197.892118 101.629768 
L 198.517078 104.832717 
L 199.008118 106.360144 
L 199.365238 106.904502 
L 199.633078 106.995429 
L 199.900917 106.813632 
L 200.213398 106.258307 
L 200.615158 105.008265 
L 201.106198 102.684305 
L 201.731157 98.528783 
L 202.490038 91.85748 
L 203.472118 81.059052 
L 204.945238 62.013164 
L 207.221878 32.77229 
L 208.248598 22.401978 
L 209.052118 16.368669 
L 209.677077 13.165721 
L 210.168117 11.638293 
L 210.525238 11.093936 
L 210.793077 11.003009 
L 211.060918 11.184806 
L 211.373398 11.740131 
L 211.775158 12.990173 
L 212.266198 15.314132 
L 212.891158 19.469654 
L 213.650037 26.140958 
L 214.632117 36.939385 
L 216.105237 55.985274 
L 218.381878 85.226147 
L 219.408597 95.596459 
L 220.212118 101.629768 
L 220.837078 104.832717 
L 221.328118 106.360144 
L 221.685238 106.904502 
L 221.953078 106.995429 
L 222.220918 106.813632 
L 222.533398 106.258307 
L 222.935158 105.008265 
L 223.426198 102.684305 
L 224.051157 98.528783 
L 224.810038 91.85748 
L 225.792118 81.059052 
L 227.265238 62.013164 
L 229.541877 32.77229 
L 230.568598 22.401978 
L 231.372118 16.368669 
L 231.997077 13.165721 
L 232.488117 11.638293 
L 232.845237 11.093936 
L 233.113078 11.003009 
L 233.380918 11.184806 
L 233.693398 11.740131 
L 234.095158 12.990173 
L 234.586198 15.314132 
L 235.211158 19.469654 
L 235.970037 26.140958 
L 236.952118 36.939385 
L 238.425238 55.985274 
L 240.701878 85.226147 
L 241.728598 95.596459 
L 242.532118 101.629768 
L 243.157078 104.832717 
L 243.648118 106.360144 
L 244.005238 106.904502 
L 244.273077 106.995429 
L 244.540918 106.813632 
L 244.853398 106.258307 
L 245.255157 105.008265 
L 245.746197 102.684305 
L 246.371158 98.528783 
L 247.130038 91.85748 
L 248.112118 81.059052 
L 249.585238 62.013164 
L 251.861878 32.77229 
L 252.888598 22.401978 
L 253.692117 16.368669 
L 254.317077 13.165721 
L 254.808118 11.638293 
L 255.165237 11.093936 
L 255.433078 11.003009 
L 255.700918 11.184806 
L 256.013397 11.740131 
L 256.415158 12.990173 
L 256.906198 15.314132 
L 257.531158 19.469654 
L 258.290038 26.140958 
L 259.272117 36.939385 
L 260.745238 55.985274 
L 263.021878 85.226147 
L 264.048598 95.596459 
L 264.852118 101.629768 
L 265.477078 104.832717 
L 265.968118 106.360144 
L 266.325238 106.904502 
L 266.593078 106.995429 
L 266.860917 106.813632 
L 267.173398 106.258307 
L 267.575157 105.008265 
L 268.066197 102.684305 
L 268.691158 98.528783 
L 269.450038 91.85748 
L 270.432118 81.059052 
L 271.905237 62.013164 
L 274.181878 32.77229 
L 275.208597 22.401978 
L 276.012117 16.368669 
L 276.637078 13.165721 
L 277.128118 11.638293 
L 277.485238 11.093936 
L 277.753078 11.003009 
L 278.020917 11.184806 
L 278.333398 11.740131 
L 278.735158 12.990173 
L 279.226198 15.314132 
L 279.851157 19.469654 
L 280.610038 26.140958 
L 281.592117 36.939385 
L 283.065238 55.985274 
L 285.341878 85.226147 
L 286.368598 95.596459 
L 287.172118 101.629768 
L 287.797078 104.832717 
L 288.288117 106.360144 
L 288.645238 106.904502 
L 288.913078 106.995429 
L 289.180918 106.813632 
L 289.493398 106.258307 
L 289.895157 105.008265 
L 290.386197 102.684305 
L 291.011158 98.528783 
L 291.770038 91.85748 
L 292.752117 81.059052 
L 294.225237 62.013164 
L 296.501878 32.77229 
L 297.528597 22.401978 
L 298.332117 16.368669 
L 298.957078 13.165721 
L 299.448118 11.638293 
L 299.805238 11.093936 
L 300.073078 11.003009 
L 300.340917 11.184806 
L 300.653398 11.740131 
L 301.055158 12.990173 
L 301.546198 15.314132 
L 302.171157 19.469654 
L 302.930038 26.140958 
L 303.912118 36.939385 
L 305.385238 55.985274 
L 307.661878 85.226147 
L 308.688598 95.596459 
L 309.492118 101.629768 
L 310.117077 104.832717 
L 310.608117 106.360144 
L 310.965238 106.904502 
L 311.233078 106.995429 
L 311.500918 106.813632 
L 311.813398 106.258307 
L 312.215157 105.008265 
L 312.706198 102.684305 
L 313.331158 98.528783 
L 314.090038 91.85748 
L 315.072117 81.059052 
L 316.545238 62.013164 
L 318.821878 32.77229 
L 319.848597 22.401978 
L 320.652117 16.368669 
L 321.277078 13.165721 
L 321.768118 11.638293 
L 322.125238 11.093936 
L 322.393078 11.003009 
L 322.660917 11.184806 
L 322.973398 11.740131 
L 323.375158 12.990173 
L 323.866197 15.314132 
L 324.491157 19.469654 
L 325.250038 26.140958 
L 326.232118 36.939385 
L 327.705238 55.985274 
L 329.981878 85.226147 
L 331.008598 95.596459 
L 331.812117 101.629768 
L 332.437078 104.832717 
L 332.928118 106.360144 
L 333.285238 106.904502 
L 333.553078 106.995429 
L 333.820918 106.813632 
L 334.133398 106.258307 
L 334.535158 105.008265 
L 335.026198 102.684305 
L 335.651158 98.528783 
L 336.410038 91.85748 
L 337.392118 81.059052 
L 338.865238 62.013164 
L 341.141878 32.77229 
L 342.168598 22.401978 
L 342.972118 16.368669 
L 343.597078 13.165721 
L 344.088118 11.638293 
L 344.445238 11.093936 
L 344.713078 11.003009 
L 344.980918 11.184806 
L 345.293398 11.740131 
L 345.695157 12.990173 
L 346.186197 15.314132 
L 346.811158 19.469654 
L 347.570038 26.140958 
L 348.552118 36.939385 
L 350.025238 55.985274 
L 352.301878 85.226147 
L 353.328598 95.596459 
L 354.132117 101.629768 
L 354.757078 104.832717 
L 355.248118 106.360144 
L 355.605238 106.904502 
L 355.873078 106.995429 
L 356.140918 106.813632 
L 356.453398 106.258307 
L 356.855158 105.008265 
L 357.346198 102.684305 
L 357.971158 98.528783 
L 358.730038 91.85748 
L 359.712118 81.059052 
L 361.185238 62.013164 
L 363.461878 32.77229 
L 364.488598 22.401978 
L 365.292118 16.368669 
L 365.917078 13.165721 
L 366.408118 11.638293 
L 366.765238 11.093936 
L 367.033078 11.003009 
L 367.300918 11.184806 
L 367.613398 11.740131 
L 368.015158 12.990173 
L 368.506198 15.314132 
L 369.131158 19.469654 
L 369.890038 26.140958 
L 370.872118 36.939385 
L 372.345238 55.985274 
L 374.621878 85.226147 
L 375.648598 95.596459 
L 376.452118 101.629768 
L 377.077078 104.832717 
L 377.568118 106.360144 
L 377.925238 106.904502 
L 378.193078 106.995429 
L 378.460918 106.813632 
L 378.773398 106.258307 
L 379.175158 105.008265 
L 379.666198 102.684305 
L 380.291158 98.528783 
L 381.050038 91.85748 
L 382.032118 81.059052 
L 383.505238 62.013164 
L 385.781878 32.77229 
L 386.808598 22.401978 
L 387.612118 16.368669 
L 388.237077 13.165721 
L 388.728118 11.638293 
L 389.085238 11.093936 
L 389.353078 11.003009 
L 389.620918 11.184806 
L 389.933398 11.740131 
L 390.335158 12.990173 
L 390.826198 15.314132 
L 391.451158 19.469654 
L 392.210038 26.140958 
L 393.192117 36.939385 
L 394.665238 55.985274 
L 396.941878 85.226147 
L 397.968598 95.596459 
L 398.772118 101.629768 
L 399.397078 104.832717 
L 399.888118 106.360144 
L 400.245238 106.904502 
L 400.513078 106.995429 
L 400.780918 106.813632 
L 401.093398 106.258307 
L 401.495158 105.008265 
L 401.986198 102.684305 
L 402.611158 98.528783 
L 403.370038 91.85748 
L 404.352118 81.059052 
L 405.825238 62.013164 
L 406.048438 58.999219 
L 406.048438 58.999219 
" clip-path="url(#p5eaa8bb64b)" style="fill: none; stroke: #1f77b4; stroke-width: 1.5; stroke-linecap: square"/>
   </g>
   <g id="patch_3">
    <path d="M 71.248438 109.399219 
L 71.248438 8.599219 
" style="fill: none"/>
   </g>
   <g id="patch_4">
    <path d="M 406.048438 109.399219 
L 406.048438 8.599219 
" style="fill: none"/>
   </g>
   <g id="patch_5">
    <path d="M 71.248438 58.999219 
L 406.048438 58.999219 
" style="fill: none; stroke: #000000; stroke-width: 0.8; stroke-linejoin: miter; stroke-linecap: square"/>
   </g>
   <g id="patch_6">
    <path d="M 71.248438 8.599219 
L 406.048438 8.599219 
" style="fill: none"/>
   </g>
  </g>
  <g id="axes_2">
   <g id="patch_7">
    <path d="M 71.248438 230.359219 
L 406.048438 230.359219 
L 406.048438 129.559219 
L 71.248438 129.559219 
z
" style="fill: #ffffff"/>
   </g>
   <g id="matplotlib.axis_3">
    <g id="xtick_17">
     <g id="line2d_40">
      <path d="M 71.248438 230.359219 
L 71.248438 129.559219 
" clip-path="url(#p06cee89108)" style="fill: none; stroke: #b0b0b0; stroke-width: 0.8; stroke-linecap: square"/>
     </g>
     <g id="line2d_41">
      <g>
       <use xlink:href="#m4f020b74c1" x="71.248438" y="230.359219" style="stroke: #000000; stroke-width: 0.8"/>
      </g>
     </g>
     <g id="text_5">
      <!-- 0 -->
      <g transform="translate(68.067188 244.957656) scale(0.1 -0.1)">
       <use xlink:href="#DejaVuSans-30"/>
      </g>
     </g>
    </g>
    <g id="xtick_18">
     <g id="line2d_42">
      <path d="M 93.568438 230.359219 
L 93.568438 129.559219 
" clip-path="url(#p06cee89108)" style="fill: none; stroke: #b0b0b0; stroke-width: 0.8; stroke-linecap: square"/>
     </g>
     <g id="line2d_43">
      <g>
       <use xlink:href="#m4f020b74c1" x="93.568438" y="230.359219" style="stroke: #000000; stroke-width: 0.8"/>
      </g>
     </g>
     <g id="text_6">
      <!-- 1 -->
      <g transform="translate(90.387188 244.957656) scale(0.1 -0.1)">
       <use xlink:href="#DejaVuSans-31"/>
      </g>
     </g>
    </g>
    <g id="xtick_19">
     <g id="line2d_44">
      <path d="M 115.888438 230.359219 
L 115.888438 129.559219 
" clip-path="url(#p06cee89108)" style="fill: none; stroke: #b0b0b0; stroke-width: 0.8; stroke-linecap: square"/>
     </g>
     <g id="line2d_45">
      <g>
       <use xlink:href="#m4f020b74c1" x="115.888438" y="230.359219" style="stroke: #000000; stroke-width: 0.8"/>
      </g>
     </g>
     <g id="text_7">
      <!-- 2 -->
      <g transform="translate(112.707188 244.957656) scale(0.1 -0.1)">
       <defs>
        <path id="DejaVuSans-32" d="M 1228 531 
L 3431 531 
L 3431 0 
L 469 0 
L 469 531 
Q 828 903 1448 1529 
Q 2069 2156 2228 2338 
Q 2531 2678 2651 2914 
Q 2772 3150 2772 3378 
Q 2772 3750 2511 3984 
Q 2250 4219 1831 4219 
Q 1534 4219 1204 4116 
Q 875 4013 500 3803 
L 500 4441 
Q 881 4594 1212 4672 
Q 1544 4750 1819 4750 
Q 2544 4750 2975 4387 
Q 3406 4025 3406 3419 
Q 3406 3131 3298 2873 
Q 3191 2616 2906 2266 
Q 2828 2175 2409 1742 
Q 1991 1309 1228 531 
z
" transform="scale(0.015625)"/>
       </defs>
       <use xlink:href="#DejaVuSans-32"/>
      </g>
     </g>
    </g>
    <g id="xtick_20">
     <g id="line2d_46">
      <path d="M 138.208438 230.359219 
L 138.208438 129.559219 
" clip-path="url(#p06cee89108)" style="fill: none; stroke: #b0b0b0; stroke-width: 0.8; stroke-linecap: square"/>
     </g>
     <g id="line2d_47">
      <g>
       <use xlink:href="#m4f020b74c1" x="138.208438" y="230.359219" style="stroke: #000000; stroke-width: 0.8"/>
      </g>
     </g>
     <g id="text_8">
      <!-- 3 -->
      <g transform="translate(135.027187 244.957656) scale(0.1 -0.1)">
       <defs>
        <path id="DejaVuSans-33" d="M 2597 2516 
Q 3050 2419 3304 2112 
Q 3559 1806 3559 1356 
Q 3559 666 3084 287 
Q 2609 -91 1734 -91 
Q 1441 -91 1130 -33 
Q 819 25 488 141 
L 488 750 
Q 750 597 1062 519 
Q 1375 441 1716 441 
Q 2309 441 2620 675 
Q 2931 909 2931 1356 
Q 2931 1769 2642 2001 
Q 2353 2234 1838 2234 
L 1294 2234 
L 1294 2753 
L 1863 2753 
Q 2328 2753 2575 2939 
Q 2822 3125 2822 3475 
Q 2822 3834 2567 4026 
Q 2313 4219 1838 4219 
Q 1578 4219 1281 4162 
Q 984 4106 628 3988 
L 628 4550 
Q 988 4650 1302 4700 
Q 1616 4750 1894 4750 
Q 2613 4750 3031 4423 
Q 3450 4097 3450 3541 
Q 3450 3153 3228 2886 
Q 3006 2619 2597 2516 
z
" transform="scale(0.015625)"/>
       </defs>
       <use xlink:href="#DejaVuSans-33"/>
      </g>
     </g>
    </g>
    <g id="xtick_21">
     <g id="line2d_48">
      <path d="M 160.528437 230.359219 
L 160.528437 129.559219 
" clip-path="url(#p06cee89108)" style="fill: none; stroke: #b0b0b0; stroke-width: 0.8; stroke-linecap: square"/>
     </g>
     <g id="line2d_49">
      <g>
       <use xlink:href="#m4f020b74c1" x="160.528437" y="230.359219" style="stroke: #000000; stroke-width: 0.8"/>
      </g>
     </g>
     <g id="text_9">
      <!-- 4 -->
      <g transform="translate(157.347187 244.957656) scale(0.1 -0.1)">
       <defs>
        <path id="DejaVuSans-34" d="M 2419 4116 
L 825 1625 
L 2419 1625 
L 2419 4116 
z
M 2253 4666 
L 3047 4666 
L 3047 1625 
L 3713 1625 
L 3713 1100 
L 3047 1100 
L 3047 0 
L 2419 0 
L 2419 1100 
L 313 1100 
L 313 1709 
L 2253 4666 
z
" transform="scale(0.015625)"/>
       </defs>
       <use xlink:href="#DejaVuSans-34"/>
      </g>
     </g>
    </g>
    <g id="xtick_22">
     <g id="line2d_50">
      <path d="M 182.848437 230.359219 
L 182.848437 129.559219 
" clip-path="url(#p06cee89108)" style="fill: none; stroke: #b0b0b0; stroke-width: 0.8; stroke-linecap: square"/>
     </g>
     <g id="line2d_51">
      <g>
       <use xlink:href="#m4f020b74c1" x="182.848437" y="230.359219" style="stroke: #000000; stroke-width: 0.8"/>
      </g>
     </g>
     <g id="text_10">
      <!-- 5 -->
      <g transform="translate(179.667187 244.957656) scale(0.1 -0.1)">
       <defs>
        <path id="DejaVuSans-35" d="M 691 4666 
L 3169 4666 
L 3169 4134 
L 1269 4134 
L 1269 2991 
Q 1406 3038 1543 3061 
Q 1681 3084 1819 3084 
Q 2600 3084 3056 2656 
Q 3513 2228 3513 1497 
Q 3513 744 3044 326 
Q 2575 -91 1722 -91 
Q 1428 -91 1123 -41 
Q 819 9 494 109 
L 494 744 
Q 775 591 1075 516 
Q 1375 441 1709 441 
Q 2250 441 2565 725 
Q 2881 1009 2881 1497 
Q 2881 1984 2565 2268 
Q 2250 2553 1709 2553 
Q 1456 2553 1204 2497 
Q 953 2441 691 2322 
L 691 4666 
z
" transform="scale(0.015625)"/>
       </defs>
       <use xlink:href="#DejaVuSans-35"/>
      </g>
     </g>
    </g>
    <g id="xtick_23">
     <g id="line2d_52">
      <path d="M 205.168438 230.359219 
L 205.168438 129.559219 
" clip-path="url(#p06cee89108)" style="fill: none; stroke: #b0b0b0; stroke-width: 0.8; stroke-linecap: square"/>
     </g>
     <g id="line2d_53">
      <g>
       <use xlink:href="#m4f020b74c1" x="205.168438" y="230.359219" style="stroke: #000000; stroke-width: 0.8"/>
      </g>
     </g>
     <g id="text_11">
      <!-- 6 -->
      <g transform="translate(201.987188 244.957656) scale(0.1 -0.1)">
       <defs>
        <path id="DejaVuSans-36" d="M 2113 2584 
Q 1688 2584 1439 2293 
Q 1191 2003 1191 1497 
Q 1191 994 1439 701 
Q 1688 409 2113 409 
Q 2538 409 2786 701 
Q 3034 994 3034 1497 
Q 3034 2003 2786 2293 
Q 2538 2584 2113 2584 
z
M 3366 4563 
L 3366 3988 
Q 3128 4100 2886 4159 
Q 2644 4219 2406 4219 
Q 1781 4219 1451 3797 
Q 1122 3375 1075 2522 
Q 1259 2794 1537 2939 
Q 1816 3084 2150 3084 
Q 2853 3084 3261 2657 
Q 3669 2231 3669 1497 
Q 3669 778 3244 343 
Q 2819 -91 2113 -91 
Q 1303 -91 875 529 
Q 447 1150 447 2328 
Q 447 3434 972 4092 
Q 1497 4750 2381 4750 
Q 2619 4750 2861 4703 
Q 3103 4656 3366 4563 
z
" transform="scale(0.015625)"/>
       </defs>
       <use xlink:href="#DejaVuSans-36"/>
      </g>
     </g>
    </g>
    <g id="xtick_24">
     <g id="line2d_54">
      <path d="M 227.488438 230.359219 
L 227.488438 129.559219 
" clip-path="url(#p06cee89108)" style="fill: none; stroke: #b0b0b0; stroke-width: 0.8; stroke-linecap: square"/>
     </g>
     <g id="line2d_55">
      <g>
       <use xlink:href="#m4f020b74c1" x="227.488438" y="230.359219" style="stroke: #000000; stroke-width: 0.8"/>
      </g>
     </g>
     <g id="text_12">
      <!-- 7 -->
      <g transform="translate(224.307188 244.957656) scale(0.1 -0.1)">
       <defs>
        <path id="DejaVuSans-37" d="M 525 4666 
L 3525 4666 
L 3525 4397 
L 1831 0 
L 1172 0 
L 2766 4134 
L 525 4134 
L 525 4666 
z
" transform="scale(0.015625)"/>
       </defs>
       <use xlink:href="#DejaVuSans-37"/>
      </g>
     </g>
    </g>
    <g id="xtick_25">
     <g id="line2d_56">
      <path d="M 249.808438 230.359219 
L 249.808438 129.559219 
" clip-path="url(#p06cee89108)" style="fill: none; stroke: #b0b0b0; stroke-width: 0.8; stroke-linecap: square"/>
     </g>
     <g id="line2d_57">
      <g>
       <use xlink:href="#m4f020b74c1" x="249.808438" y="230.359219" style="stroke: #000000; stroke-width: 0.8"/>
      </g>
     </g>
     <g id="text_13">
      <!-- 8 -->
      <g transform="translate(246.627188 244.957656) scale(0.1 -0.1)">
       <defs>
        <path id="DejaVuSans-38" d="M 2034 2216 
Q 1584 2216 1326 1975 
Q 1069 1734 1069 1313 
Q 1069 891 1326 650 
Q 1584 409 2034 409 
Q 2484 409 2743 651 
Q 3003 894 3003 1313 
Q 3003 1734 2745 1975 
Q 2488 2216 2034 2216 
z
M 1403 2484 
Q 997 2584 770 2862 
Q 544 3141 544 3541 
Q 544 4100 942 4425 
Q 1341 4750 2034 4750 
Q 2731 4750 3128 4425 
Q 3525 4100 3525 3541 
Q 3525 3141 3298 2862 
Q 3072 2584 2669 2484 
Q 3125 2378 3379 2068 
Q 3634 1759 3634 1313 
Q 3634 634 3220 271 
Q 2806 -91 2034 -91 
Q 1263 -91 848 271 
Q 434 634 434 1313 
Q 434 1759 690 2068 
Q 947 2378 1403 2484 
z
M 1172 3481 
Q 1172 3119 1398 2916 
Q 1625 2713 2034 2713 
Q 2441 2713 2670 2916 
Q 2900 3119 2900 3481 
Q 2900 3844 2670 4047 
Q 2441 4250 2034 4250 
Q 1625 4250 1398 4047 
Q 1172 3844 1172 3481 
z
" transform="scale(0.015625)"/>
       </defs>
       <use xlink:href="#DejaVuSans-38"/>
      </g>
     </g>
    </g>
    <g id="xtick_26">
     <g id="line2d_58">
      <path d="M 272.128438 230.359219 
L 272.128438 129.559219 
" clip-path="url(#p06cee89108)" style="fill: none; stroke: #b0b0b0; stroke-width: 0.8; stroke-linecap: square"/>
     </g>
     <g id="line2d_59">
      <g>
       <use xlink:href="#m4f020b74c1" x="272.128438" y="230.359219" style="stroke: #000000; stroke-width: 0.8"/>
      </g>
     </g>
     <g id="text_14">
      <!-- 9 -->
      <g transform="translate(268.947188 244.957656) scale(0.1 -0.1)">
       <defs>
        <path id="DejaVuSans-39" d="M 703 97 
L 703 672 
Q 941 559 1184 500 
Q 1428 441 1663 441 
Q 2288 441 2617 861 
Q 2947 1281 2994 2138 
Q 2813 1869 2534 1725 
Q 2256 1581 1919 1581 
Q 1219 1581 811 2004 
Q 403 2428 403 3163 
Q 403 3881 828 4315 
Q 1253 4750 1959 4750 
Q 2769 4750 3195 4129 
Q 3622 3509 3622 2328 
Q 3622 1225 3098 567 
Q 2575 -91 1691 -91 
Q 1453 -91 1209 -44 
Q 966 3 703 97 
z
M 1959 2075 
Q 2384 2075 2632 2365 
Q 2881 2656 2881 3163 
Q 2881 3666 2632 3958 
Q 2384 4250 1959 4250 
Q 1534 4250 1286 3958 
Q 1038 3666 1038 3163 
Q 1038 2656 1286 2365 
Q 1534 2075 1959 2075 
z
" transform="scale(0.015625)"/>
       </defs>
       <use xlink:href="#DejaVuSans-39"/>
      </g>
     </g>
    </g>
    <g id="xtick_27">
     <g id="line2d_60">
      <path d="M 294.448438 230.359219 
L 294.448438 129.559219 
" clip-path="url(#p06cee89108)" style="fill: none; stroke: #b0b0b0; stroke-width: 0.8; stroke-linecap: square"/>
     </g>
     <g id="line2d_61">
      <g>
       <use xlink:href="#m4f020b74c1" x="294.448438" y="230.359219" style="stroke: #000000; stroke-width: 0.8"/>
      </g>
     </g>
     <g id="text_15">
      <!-- 10 -->
      <g transform="translate(288.085938 244.957656) scale(0.1 -0.1)">
       <use xlink:href="#DejaVuSans-31"/>
       <use xlink:href="#DejaVuSans-30" transform="translate(63.623047 0)"/>
      </g>
     </g>
    </g>
    <g id="xtick_28">
     <g id="line2d_62">
      <path d="M 316.768438 230.359219 
L 316.768438 129.559219 
" clip-path="url(#p06cee89108)" style="fill: none; stroke: #b0b0b0; stroke-width: 0.8; stroke-linecap: square"/>
     </g>
     <g id="line2d_63">
      <g>
       <use xlink:href="#m4f020b74c1" x="316.768438" y="230.359219" style="stroke: #000000; stroke-width: 0.8"/>
      </g>
     </g>
     <g id="text_16">
      <!-- 11 -->
      <g transform="translate(310.405937 244.957656) scale(0.1 -0.1)">
       <use xlink:href="#DejaVuSans-31"/>
       <use xlink:href="#DejaVuSans-31" transform="translate(63.623047 0)"/>
      </g>
     </g>
    </g>
    <g id="xtick_29">
     <g id="line2d_64">
      <path d="M 339.088438 230.359219 
L 339.088438 129.559219 
" clip-path="url(#p06cee89108)" style="fill: none; stroke: #b0b0b0; stroke-width: 0.8; stroke-linecap: square"/>
     </g>
     <g id="line2d_65">
      <g>
       <use xlink:href="#m4f020b74c1" x="339.088438" y="230.359219" style="stroke: #000000; stroke-width: 0.8"/>
      </g>
     </g>
     <g id="text_17">
      <!-- 12 -->
      <g transform="translate(332.725938 244.957656) scale(0.1 -0.1)">
       <use xlink:href="#DejaVuSans-31"/>
       <use xlink:href="#DejaVuSans-32" transform="translate(63.623047 0)"/>
      </g>
     </g>
    </g>
    <g id="xtick_30">
     <g id="line2d_66">
      <path d="M 361.408438 230.359219 
L 361.408438 129.559219 
" clip-path="url(#p06cee89108)" style="fill: none; stroke: #b0b0b0; stroke-width: 0.8; stroke-linecap: square"/>
     </g>
     <g id="line2d_67">
      <g>
       <use xlink:href="#m4f020b74c1" x="361.408438" y="230.359219" style="stroke: #000000; stroke-width: 0.8"/>
      </g>
     </g>
     <g id="text_18">
      <!-- 13 -->
      <g transform="translate(355.045938 244.957656) scale(0.1 -0.1)">
       <use xlink:href="#DejaVuSans-31"/>
       <use xlink:href="#DejaVuSans-33" transform="translate(63.623047 0)"/>
      </g>
     </g>
    </g>
    <g id="xtick_31">
     <g id="line2d_68">
      <path d="M 383.728438 230.359219 
L 383.728438 129.559219 
" clip-path="url(#p06cee89108)" style="fill: none; stroke: #b0b0b0; stroke-width: 0.8; stroke-linecap: square"/>
     </g>
     <g id="line2d_69">
      <g>
       <use xlink:href="#m4f020b74c1" x="383.728438" y="230.359219" style="stroke: #000000; stroke-width: 0.8"/>
      </g>
     </g>
     <g id="text_19">
      <!-- 14 -->
      <g transform="translate(377.365938 244.957656) scale(0.1 -0.1)">
       <use xlink:href="#DejaVuSans-31"/>
       <use xlink:href="#DejaVuSans-34" transform="translate(63.623047 0)"/>
      </g>
     </g>
    </g>
    <g id="xtick_32">
     <g id="line2d_70">
      <path d="M 406.048438 230.359219 
L 406.048438 129.559219 
" clip-path="url(#p06cee89108)" style="fill: none; stroke: #b0b0b0; stroke-width: 0.8; stroke-linecap: square"/>
     </g>
     <g id="line2d_71">
      <g>
       <use xlink:href="#m4f020b74c1" x="406.048438" y="230.359219" style="stroke: #000000; stroke-width: 0.8"/>
      </g>
     </g>
     <g id="text_20">
      <!-- 15 -->
      <g transform="translate(399.685938 244.957656) scale(0.1 -0.1)">
       <use xlink:href="#DejaVuSans-31"/>
       <use xlink:href="#DejaVuSans-35" transform="translate(63.623047 0)"/>
      </g>
     </g>
    </g>
    <g id="text_21">
     <!-- Time -->
     <g transform="translate(226.414844 258.635781) scale(0.1 -0.1)">
      <defs>
       <path id="DejaVuSans-54" d="M -19 4666 
L 3928 4666 
L 3928 4134 
L 2272 4134 
L 2272 0 
L 1638 0 
L 1638 4134 
L -19 4134 
L -19 4666 
z
" transform="scale(0.015625)"/>
       <path id="DejaVuSans-6d" d="M 3328 2828 
Q 3544 3216 3844 3400 
Q 4144 3584 4550 3584 
Q 5097 3584 5394 3201 
Q 5691 2819 5691 2113 
L 5691 0 
L 5113 0 
L 5113 2094 
Q 5113 2597 4934 2840 
Q 4756 3084 4391 3084 
Q 3944 3084 3684 2787 
Q 3425 2491 3425 1978 
L 3425 0 
L 2847 0 
L 2847 2094 
Q 2847 2600 2669 2842 
Q 2491 3084 2119 3084 
Q 1678 3084 1418 2786 
Q 1159 2488 1159 1978 
L 1159 0 
L 581 0 
L 581 3500 
L 1159 3500 
L 1159 2956 
Q 1356 3278 1631 3431 
Q 1906 3584 2284 3584 
Q 2666 3584 2933 3390 
Q 3200 3197 3328 2828 
z
" transform="scale(0.015625)"/>
       <path id="DejaVuSans-65" d="M 3597 1894 
L 3597 1613 
L 953 1613 
Q 991 1019 1311 708 
Q 1631 397 2203 397 
Q 2534 397 2845 478 
Q 3156 559 3463 722 
L 3463 178 
Q 3153 47 2828 -22 
Q 2503 -91 2169 -91 
Q 1331 -91 842 396 
Q 353 884 353 1716 
Q 353 2575 817 3079 
Q 1281 3584 2069 3584 
Q 2775 3584 3186 3129 
Q 3597 2675 3597 1894 
z
M 3022 2063 
Q 3016 2534 2758 2815 
Q 2500 3097 2075 3097 
Q 1594 3097 1305 2825 
Q 1016 2553 972 2059 
L 3022 2063 
z
" transform="scale(0.015625)"/>
      </defs>
      <use xlink:href="#DejaVuSans-54"/>
      <use xlink:href="#DejaVuSans-69" transform="translate(57.958984 0)"/>
      <use xlink:href="#DejaVuSans-6d" transform="translate(85.742188 0)"/>
      <use xlink:href="#DejaVuSans-65" transform="translate(183.154297 0)"/>
     </g>
    </g>
   </g>
   <g id="matplotlib.axis_4">
    <g id="ytick_4">
     <g id="line2d_72">
      <path d="M 71.248438 223.649992 
L 406.048438 223.649992 
" clip-path="url(#p06cee89108)" style="fill: none; stroke: #b0b0b0; stroke-width: 0.8; stroke-linecap: square"/>
     </g>
     <g id="line2d_73">
      <g>
       <use xlink:href="#meb3e409453" x="71.248438" y="223.649992" style="stroke: #000000; stroke-width: 0.8"/>
      </g>
     </g>
     <g id="text_22">
      <!-- −0.0050 -->
      <g transform="translate(20.878125 227.44921) scale(0.1 -0.1)">
       <defs>
        <path id="DejaVuSans-2e" d="M 684 794 
L 1344 794 
L 1344 0 
L 684 0 
L 684 794 
z
" transform="scale(0.015625)"/>
       </defs>
       <use xlink:href="#DejaVuSans-2212"/>
       <use xlink:href="#DejaVuSans-30" transform="translate(83.789062 0)"/>
       <use xlink:href="#DejaVuSans-2e" transform="translate(147.412109 0)"/>
       <use xlink:href="#DejaVuSans-30" transform="translate(179.199219 0)"/>
       <use xlink:href="#DejaVuSans-30" transform="translate(242.822266 0)"/>
       <use xlink:href="#DejaVuSans-35" transform="translate(306.445312 0)"/>
       <use xlink:href="#DejaVuSans-30" transform="translate(370.068359 0)"/>
      </g>
     </g>
    </g>
    <g id="ytick_5">
     <g id="line2d_74">
      <path d="M 71.248438 201.804605 
L 406.048438 201.804605 
" clip-path="url(#p06cee89108)" style="fill: none; stroke: #b0b0b0; stroke-width: 0.8; stroke-linecap: square"/>
     </g>
     <g id="line2d_75">
      <g>
       <use xlink:href="#meb3e409453" x="71.248438" y="201.804605" style="stroke: #000000; stroke-width: 0.8"/>
      </g>
     </g>
     <g id="text_23">
      <!-- −0.0025 -->
      <g transform="translate(20.878125 205.603824) scale(0.1 -0.1)">
       <use xlink:href="#DejaVuSans-2212"/>
       <use xlink:href="#DejaVuSans-30" transform="translate(83.789062 0)"/>
       <use xlink:href="#DejaVuSans-2e" transform="translate(147.412109 0)"/>
       <use xlink:href="#DejaVuSans-30" transform="translate(179.199219 0)"/>
       <use xlink:href="#DejaVuSans-30" transform="translate(242.822266 0)"/>
       <use xlink:href="#DejaVuSans-32" transform="translate(306.445312 0)"/>
       <use xlink:href="#DejaVuSans-35" transform="translate(370.068359 0)"/>
      </g>
     </g>
    </g>
    <g id="ytick_6">
     <g id="line2d_76">
      <path d="M 71.248438 179.959219 
L 406.048438 179.959219 
" clip-path="url(#p06cee89108)" style="fill: none; stroke: #b0b0b0; stroke-width: 0.8; stroke-linecap: square"/>
     </g>
     <g id="line2d_77">
      <g>
       <use xlink:href="#meb3e409453" x="71.248438" y="179.959219" style="stroke: #000000; stroke-width: 0.8"/>
      </g>
     </g>
     <g id="text_24">
      <!-- 0.0000 -->
      <g transform="translate(29.257813 183.758437) scale(0.1 -0.1)">
       <use xlink:href="#DejaVuSans-30"/>
       <use xlink:href="#DejaVuSans-2e" transform="translate(63.623047 0)"/>
       <use xlink:href="#DejaVuSans-30" transform="translate(95.410156 0)"/>
       <use xlink:href="#DejaVuSans-30" transform="translate(159.033203 0)"/>
       <use xlink:href="#DejaVuSans-30" transform="translate(222.65625 0)"/>
       <use xlink:href="#DejaVuSans-30" transform="translate(286.279297 0)"/>
      </g>
     </g>
    </g>
    <g id="ytick_7">
     <g id="line2d_78">
      <path d="M 71.248438 158.113832 
L 406.048438 158.113832 
" clip-path="url(#p06cee89108)" style="fill: none; stroke: #b0b0b0; stroke-width: 0.8; stroke-linecap: square"/>
     </g>
     <g id="line2d_79">
      <g>
       <use xlink:href="#meb3e409453" x="71.248438" y="158.113832" style="stroke: #000000; stroke-width: 0.8"/>
      </g>
     </g>
     <g id="text_25">
      <!-- 0.0025 -->
      <g transform="translate(29.257813 161.913051) scale(0.1 -0.1)">
       <use xlink:href="#DejaVuSans-30"/>
       <use xlink:href="#DejaVuSans-2e" transform="translate(63.623047 0)"/>
       <use xlink:href="#DejaVuSans-30" transform="translate(95.410156 0)"/>
       <use xlink:href="#DejaVuSans-30" transform="translate(159.033203 0)"/>
       <use xlink:href="#DejaVuSans-32" transform="translate(222.65625 0)"/>
       <use xlink:href="#DejaVuSans-35" transform="translate(286.279297 0)"/>
      </g>
     </g>
    </g>
    <g id="ytick_8">
     <g id="line2d_80">
      <path d="M 71.248438 136.268446 
L 406.048438 136.268446 
" clip-path="url(#p06cee89108)" style="fill: none; stroke: #b0b0b0; stroke-width: 0.8; stroke-linecap: square"/>
     </g>
     <g id="line2d_81">
      <g>
       <use xlink:href="#meb3e409453" x="71.248438" y="136.268446" style="stroke: #000000; stroke-width: 0.8"/>
      </g>
     </g>
     <g id="text_26">
      <!-- 0.0050 -->
      <g transform="translate(29.257813 140.067665) scale(0.1 -0.1)">
       <use xlink:href="#DejaVuSans-30"/>
       <use xlink:href="#DejaVuSans-2e" transform="translate(63.623047 0)"/>
       <use xlink:href="#DejaVuSans-30" transform="translate(95.410156 0)"/>
       <use xlink:href="#DejaVuSans-30" transform="translate(159.033203 0)"/>
       <use xlink:href="#DejaVuSans-35" transform="translate(222.65625 0)"/>
       <use xlink:href="#DejaVuSans-30" transform="translate(286.279297 0)"/>
      </g>
     </g>
    </g>
    <g id="text_27">
     <!-- Position -->
     <g transform="translate(14.798438 199.423281) rotate(-90) scale(0.1 -0.1)">
      <defs>
       <path id="DejaVuSans-50" d="M 1259 4147 
L 1259 2394 
L 2053 2394 
Q 2494 2394 2734 2622 
Q 2975 2850 2975 3272 
Q 2975 3691 2734 3919 
Q 2494 4147 2053 4147 
L 1259 4147 
z
M 628 4666 
L 2053 4666 
Q 2838 4666 3239 4311 
Q 3641 3956 3641 3272 
Q 3641 2581 3239 2228 
Q 2838 1875 2053 1875 
L 1259 1875 
L 1259 0 
L 628 0 
L 628 4666 
z
" transform="scale(0.015625)"/>
       <path id="DejaVuSans-73" d="M 2834 3397 
L 2834 2853 
Q 2591 2978 2328 3040 
Q 2066 3103 1784 3103 
Q 1356 3103 1142 2972 
Q 928 2841 928 2578 
Q 928 2378 1081 2264 
Q 1234 2150 1697 2047 
L 1894 2003 
Q 2506 1872 2764 1633 
Q 3022 1394 3022 966 
Q 3022 478 2636 193 
Q 2250 -91 1575 -91 
Q 1294 -91 989 -36 
Q 684 19 347 128 
L 347 722 
Q 666 556 975 473 
Q 1284 391 1588 391 
Q 1994 391 2212 530 
Q 2431 669 2431 922 
Q 2431 1156 2273 1281 
Q 2116 1406 1581 1522 
L 1381 1569 
Q 847 1681 609 1914 
Q 372 2147 372 2553 
Q 372 3047 722 3315 
Q 1072 3584 1716 3584 
Q 2034 3584 2315 3537 
Q 2597 3491 2834 3397 
z
" transform="scale(0.015625)"/>
      </defs>
      <use xlink:href="#DejaVuSans-50"/>
      <use xlink:href="#DejaVuSans-6f" transform="translate(56.677734 0)"/>
      <use xlink:href="#DejaVuSans-73" transform="translate(117.859375 0)"/>
      <use xlink:href="#DejaVuSans-69" transform="translate(169.958984 0)"/>
      <use xlink:href="#DejaVuSans-74" transform="translate(197.742188 0)"/>
      <use xlink:href="#DejaVuSans-69" transform="translate(236.951172 0)"/>
      <use xlink:href="#DejaVuSans-6f" transform="translate(264.734375 0)"/>
      <use xlink:href="#DejaVuSans-6e" transform="translate(325.916016 0)"/>
     </g>
    </g>
   </g>
   <g id="line2d_82">
    <path d="M 71.248438 179.959219 
L 72.632278 179.851122 
L 73.391158 179.562746 
L 74.060758 179.076099 
L 74.730358 178.314755 
L 75.444598 177.151501 
L 76.203478 175.479501 
L 77.051638 173.056216 
L 78.033718 169.534076 
L 79.194358 164.493285 
L 80.801398 156.418065 
L 83.702998 141.742989 
L 84.818998 137.272603 
L 85.711798 134.556321 
L 86.426038 133.04089 
L 87.006358 132.281792 
L 87.497398 131.986274 
L 87.899158 131.986202 
L 88.300918 132.205159 
L 88.747318 132.704169 
L 89.282998 133.652045 
L 89.952598 135.35175 
L 90.756118 138.091138 
L 91.738198 142.338739 
L 92.988118 148.832461 
L 95.621878 164.11118 
L 97.273558 172.909652 
L 98.478838 178.208306 
L 99.505558 181.768057 
L 100.398358 184.104492 
L 101.201878 185.618948 
L 101.916118 186.535656 
L 102.630358 187.101342 
L 103.344598 187.382145 
L 104.148118 187.454442 
L 107.094358 187.481121 
L 107.763958 187.850414 
L 108.433558 188.479658 
L 109.147798 189.482273 
L 109.906678 190.95665 
L 110.754838 193.119721 
L 111.736918 196.279181 
L 112.942198 200.980143 
L 114.772438 209.172048 
L 116.870518 218.334471 
L 117.986518 222.256127 
L 118.834678 224.495786 
L 119.504278 225.714881 
L 120.039958 226.303554 
L 120.486358 226.5162 
L 120.888118 226.484585 
L 121.289878 226.238129 
L 121.780918 225.643472 
L 122.361238 224.527774 
L 123.030838 222.700368 
L 123.834358 219.790453 
L 124.816438 215.294336 
L 126.066358 208.399783 
L 128.164438 195.304786 
L 130.262518 182.70091 
L 131.557077 176.226529 
L 132.628438 171.95738 
L 133.521238 169.232997 
L 134.324758 167.431683 
L 135.038998 166.320967 
L 135.708597 165.659483 
L 136.333558 165.330193 
L 137.003158 165.230545 
L 137.762038 165.351556 
L 139.011957 165.820921 
L 140.261878 166.207698 
L 141.020758 166.211273 
L 141.690358 165.985562 
L 142.315317 165.538748 
L 142.984917 164.775522 
L 143.699158 163.615831 
L 144.502678 161.879605 
L 145.440118 159.308336 
L 146.645398 155.284466 
L 148.743478 147.300741 
L 150.350518 141.585218 
L 151.377238 138.704943 
L 152.136118 137.159523 
L 152.761077 136.334626 
L 153.252117 136.000386 
L 153.698518 135.951208 
L 154.100278 136.122045 
L 154.546678 136.556325 
L 155.082358 137.420779 
L 155.707318 138.900499 
L 156.421558 141.19539 
L 157.269718 144.702485 
L 158.296438 149.940784 
L 159.635638 158.012071 
L 164.501397 188.515081 
L 165.617398 193.557111 
L 166.554838 196.834289 
L 167.358358 198.918842 
L 168.072598 200.222833 
L 168.742198 201.005493 
L 169.322518 201.371482 
L 169.902838 201.483028 
L 170.527798 201.364337 
L 171.286677 200.965828 
L 172.402678 200.088052 
L 174.009718 198.84926 
L 174.813238 198.504134 
L 175.482838 198.453229 
L 176.107798 198.639849 
L 176.732757 199.076651 
L 177.402357 199.836144 
L 178.161238 201.061311 
L 179.054037 202.966447 
L 180.170038 205.930984 
L 182.089558 211.821707 
L 183.696597 216.438754 
L 184.634038 218.520514 
L 185.348277 219.640346 
L 185.928598 220.191331 
L 186.419638 220.377078 
L 186.866038 220.306799 
L 187.312438 219.997981 
L 187.803478 219.374026 
L 188.383798 218.245815 
L 189.053398 216.418082 
L 189.856918 213.50223 
L 190.794357 209.177572 
L 191.954998 202.655131 
L 193.517398 192.467822 
L 196.999318 169.375005 
L 198.249238 162.74131 
L 199.275958 158.428104 
L 200.168758 155.605092 
L 200.927638 153.899272 
L 201.597238 152.909079 
L 202.177558 152.418593 
L 202.713237 152.24431 
L 203.248918 152.30991 
L 203.829238 152.615488 
L 204.543477 153.262171 
L 205.525557 154.482356 
L 208.159318 157.90378 
L 208.962838 158.525898 
L 209.632438 158.775506 
L 210.212758 158.768115 
L 210.793077 158.541094 
L 211.418038 158.048314 
L 212.132278 157.180671 
L 212.980438 155.770296 
L 214.096438 153.425495 
L 217.578358 145.719506 
L 218.337238 144.697602 
L 218.962198 144.207468 
L 219.453238 144.080327 
L 219.899638 144.180747 
L 220.390678 144.544376 
L 220.926357 145.258093 
L 221.506678 146.41661 
L 222.176278 148.257382 
L 222.979798 151.167791 
L 223.917237 155.472705 
L 225.033238 161.70558 
L 226.550997 171.578085 
L 230.434678 197.497324 
L 231.639958 203.763221 
L 232.622038 207.762603 
L 233.470197 210.330158 
L 234.184438 211.83766 
L 234.809398 212.673965 
L 235.345078 213.047708 
L 235.836118 213.129167 
L 236.327157 212.980185 
L 236.862838 212.581102 
L 237.532438 211.784391 
L 238.380598 210.405979 
L 239.764437 207.658105 
L 241.639318 204.026219 
L 242.576758 202.665891 
L 243.335638 201.915533 
L 244.005238 201.551991 
L 244.585557 201.47471 
L 245.165878 201.61784 
L 245.790838 202.007681 
L 246.505078 202.723872 
L 247.397877 203.949932 
L 248.826358 206.353168 
L 250.433398 208.947602 
L 251.281558 209.922944 
L 251.951158 210.368319 
L 252.486838 210.468887 
L 252.977877 210.33354 
L 253.468918 209.960436 
L 254.004598 209.263875 
L 254.629557 208.05052 
L 255.343797 206.120614 
L 256.147318 203.258385 
L 257.084758 199.037877 
L 258.200758 192.922559 
L 259.673878 183.500726 
L 263.825398 156.171055 
L 264.986038 150.369499 
L 265.923477 146.74031 
L 266.726998 144.46179 
L 267.396598 143.169146 
L 267.976918 142.491577 
L 268.467958 142.229755 
L 268.914357 142.228462 
L 269.405397 142.472079 
L 269.941078 143.007395 
L 270.610678 144.025902 
L 271.458838 145.771121 
L 272.664118 148.836928 
L 275.565718 156.435024 
L 276.547798 158.331198 
L 277.351317 159.449521 
L 278.065558 160.084495 
L 278.690517 160.359271 
L 279.270838 160.388556 
L 279.895798 160.196609 
L 280.610038 159.733018 
L 281.547478 158.830376 
L 284.404438 155.854729 
L 285.074038 155.546119 
L 285.654358 155.517959 
L 286.190038 155.725986 
L 286.725718 156.186769 
L 287.306038 156.996977 
L 287.975638 158.360109 
L 288.689878 160.339243 
L 289.538037 163.396014 
L 290.520118 167.848942 
L 291.680758 174.214143 
L 293.287798 184.422304 
L 296.725077 206.619075 
L 297.930358 212.78689 
L 298.867797 216.542634 
L 299.671317 218.929995 
L 300.340917 220.2986 
L 300.921238 221.021705 
L 301.412278 221.301713 
L 301.858678 221.29968 
L 302.305078 221.063153 
L 302.840757 220.487567 
L 303.465717 219.447909 
L 304.224598 217.722848 
L 305.206678 214.900626 
L 306.769077 209.628534 
L 308.911797 202.513728 
L 310.027798 199.538066 
L 310.965238 197.637787 
L 311.768757 196.493184 
L 312.482998 195.853599 
L 313.107957 195.570112 
L 313.732918 195.518376 
L 314.447158 195.697553 
L 315.339958 196.180222 
L 317.929078 197.75995 
L 318.598678 197.839413 
L 319.178998 197.689272 
L 319.759318 197.294366 
L 320.339638 196.62126 
L 320.964598 195.554869 
L 321.678838 193.874001 
L 322.482358 191.37528 
L 323.419798 187.658534 
L 324.491157 182.441203 
L 325.874998 174.485221 
L 330.696118 145.580164 
L 331.722838 141.274876 
L 332.570998 138.627767 
L 333.240598 137.174812 
L 333.820918 136.387398 
L 334.311958 136.065634 
L 334.758358 136.044008 
L 335.204758 136.273989 
L 335.695798 136.806342 
L 336.276118 137.790526 
L 336.990358 139.48058 
L 337.883158 142.2223 
L 339.088438 146.731078 
L 343.284598 163.133304 
L 344.311318 165.968037 
L 345.204118 167.811679 
L 345.962998 168.913512 
L 346.677238 169.578619 
L 347.346838 169.907553 
L 348.016438 169.995953 
L 348.819958 169.862626 
L 350.159158 169.356652 
L 351.275158 169.025763 
L 351.989397 169.027248 
L 352.614358 169.2439 
L 353.239318 169.713473 
L 353.864278 170.477793 
L 354.533878 171.660845 
L 355.292758 173.489767 
L 356.140918 176.165467 
L 357.122997 180.074284 
L 358.283637 185.690236 
L 359.846038 194.480423 
L 363.238678 213.894169 
L 364.354678 218.888869 
L 365.247478 221.971118 
L 366.006358 223.847717 
L 366.631318 224.840538 
L 367.122358 225.259007 
L 367.568758 225.36119 
L 367.970518 225.228194 
L 368.416918 224.835176 
L 368.952598 224.034198 
L 369.577558 222.671245 
L 370.336438 220.454017 
L 371.273878 216.996677 
L 372.568438 211.287562 
L 376.586038 192.930808 
L 377.702038 189.158657 
L 378.639478 186.729853 
L 379.442998 185.205677 
L 380.201878 184.219602 
L 380.916118 183.655115 
L 381.585718 183.398084 
L 382.344598 183.353525 
L 383.371318 183.54676 
L 384.978358 183.856471 
L 385.737238 183.758234 
L 386.406838 183.43242 
L 387.031798 182.873294 
L 387.701398 181.957171 
L 388.415638 180.581339 
L 389.219158 178.5139 
L 390.111958 175.568928 
L 391.183318 171.196125 
L 392.522518 164.689991 
L 397.209718 140.930095 
L 398.147158 137.713736 
L 398.906038 135.822496 
L 399.530998 134.796357 
L 400.066678 134.319667 
L 400.513078 134.213312 
L 400.914838 134.345022 
L 401.361238 134.742358 
L 401.896918 135.560822 
L 402.521878 136.96766 
L 403.280757 139.282315 
L 404.218198 142.942104 
L 405.423477 148.647812 
L 406.048438 151.904006 
L 406.048438 151.904006 
" clip-path="url(#p06cee89108)" style="fill: none; stroke: #1f77b4; stroke-width: 1.5; stroke-linecap: square"/>
   </g>
   <g id="patch_8">
    <path d="M 71.248438 230.359219 
L 71.248438 129.559219 
" style="fill: none"/>
   </g>
   <g id="patch_9">
    <path d="M 406.048438 230.359219 
L 406.048438 129.559219 
" style="fill: none"/>
   </g>
   <g id="patch_10">
    <path d="M 71.248438 230.359219 
L 406.048438 230.359219 
" style="fill: none; stroke: #000000; stroke-width: 0.8; stroke-linejoin: miter; stroke-linecap: square"/>
   </g>
   <g id="patch_11">
    <path d="M 71.248438 179.959219 
L 406.048438 179.959219 
" style="fill: none; stroke: #000000; stroke-width: 0.8; stroke-linejoin: miter; stroke-linecap: square"/>
   </g>
  </g>
 </g>
 <defs>
  <clipPath id="p5eaa8bb64b">
   <rect x="71.248438" y="8.599219" width="334.8" height="100.8"/>
  </clipPath>
  <clipPath id="p06cee89108">
   <rect x="71.248438" y="129.559219" width="334.8" height="100.8"/>
  </clipPath>
 </defs>
</svg>
