<?xml version="1.0" encoding="utf-8" standalone="no"?>
<!DOCTYPE svg PUBLIC "-//W3C//DTD SVG 1.1//EN"
  "http://www.w3.org/Graphics/SVG/1.1/DTD/svg11.dtd">
<svg xmlns:xlink="http://www.w3.org/1999/xlink" width="432pt" height="288pt" viewBox="0 0 432 288" xmlns="http://www.w3.org/2000/svg" version="1.1">
 <metadata>
  <rdf:RDF xmlns:dc="http://purl.org/dc/elements/1.1/" xmlns:cc="http://creativecommons.org/ns#" xmlns:rdf="http://www.w3.org/1999/02/22-rdf-syntax-ns#">
   <cc:Work>
    <dc:type rdf:resource="http://purl.org/dc/dcmitype/StillImage"/>
    <dc:date>2025-07-09T14:47:57.505251</dc:date>
    <dc:format>image/svg+xml</dc:format>
    <dc:creator>
     <cc:Agent>
      <dc:title>Matplotlib v3.10.3, https://matplotlib.org/</dc:title>
     </cc:Agent>
    </dc:creator>
   </cc:Work>
  </rdf:RDF>
 </metadata>
 <defs>
  <style type="text/css">*{stroke-linejoin: round; stroke-linecap: butt}</style>
 </defs>
 <g id="figure_1">
  <g id="patch_1">
   <path d="M 0 288 
L 432 288 
L 432 0 
L 0 0 
z
" style="fill: #ffffff"/>
  </g>
  <g id="axes_1">
   <g id="patch_2">
    <path d="M 54 135.36 
L 388.8 135.36 
L 388.8 34.56 
L 54 34.56 
z
" style="fill: #ffffff"/>
   </g>
   <g id="matplotlib.axis_1">
    <g id="xtick_1">
     <g id="line2d_1">
      <path d="M 54 135.36 
L 54 34.56 
" clip-path="url(#p6729c18690)" style="fill: none; stroke: #b0b0b0; stroke-width: 0.8; stroke-linecap: square"/>
     </g>
     <g id="line2d_2">
      <defs>
       <path id="m444b8cb9af" d="M 0 0 
L 0 3.5 
" style="stroke: #000000; stroke-width: 0.8"/>
      </defs>
      <g>
       <use xlink:href="#m444b8cb9af" x="54" y="84.96" style="stroke: #000000; stroke-width: 0.8"/>
      </g>
     </g>
    </g>
    <g id="xtick_2">
     <g id="line2d_3">
      <path d="M 76.32 135.36 
L 76.32 34.56 
" clip-path="url(#p6729c18690)" style="fill: none; stroke: #b0b0b0; stroke-width: 0.8; stroke-linecap: square"/>
     </g>
     <g id="line2d_4">
      <g>
       <use xlink:href="#m444b8cb9af" x="76.32" y="84.96" style="stroke: #000000; stroke-width: 0.8"/>
      </g>
     </g>
    </g>
    <g id="xtick_3">
     <g id="line2d_5">
      <path d="M 98.64 135.36 
L 98.64 34.56 
" clip-path="url(#p6729c18690)" style="fill: none; stroke: #b0b0b0; stroke-width: 0.8; stroke-linecap: square"/>
     </g>
     <g id="line2d_6">
      <g>
       <use xlink:href="#m444b8cb9af" x="98.64" y="84.96" style="stroke: #000000; stroke-width: 0.8"/>
      </g>
     </g>
    </g>
    <g id="xtick_4">
     <g id="line2d_7">
      <path d="M 120.96 135.36 
L 120.96 34.56 
" clip-path="url(#p6729c18690)" style="fill: none; stroke: #b0b0b0; stroke-width: 0.8; stroke-linecap: square"/>
     </g>
     <g id="line2d_8">
      <g>
       <use xlink:href="#m444b8cb9af" x="120.96" y="84.96" style="stroke: #000000; stroke-width: 0.8"/>
      </g>
     </g>
    </g>
    <g id="xtick_5">
     <g id="line2d_9">
      <path d="M 143.28 135.36 
L 143.28 34.56 
" clip-path="url(#p6729c18690)" style="fill: none; stroke: #b0b0b0; stroke-width: 0.8; stroke-linecap: square"/>
     </g>
     <g id="line2d_10">
      <g>
       <use xlink:href="#m444b8cb9af" x="143.28" y="84.96" style="stroke: #000000; stroke-width: 0.8"/>
      </g>
     </g>
    </g>
    <g id="xtick_6">
     <g id="line2d_11">
      <path d="M 165.6 135.36 
L 165.6 34.56 
" clip-path="url(#p6729c18690)" style="fill: none; stroke: #b0b0b0; stroke-width: 0.8; stroke-linecap: square"/>
     </g>
     <g id="line2d_12">
      <g>
       <use xlink:href="#m444b8cb9af" x="165.6" y="84.96" style="stroke: #000000; stroke-width: 0.8"/>
      </g>
     </g>
    </g>
    <g id="xtick_7">
     <g id="line2d_13">
      <path d="M 187.92 135.36 
L 187.92 34.56 
" clip-path="url(#p6729c18690)" style="fill: none; stroke: #b0b0b0; stroke-width: 0.8; stroke-linecap: square"/>
     </g>
     <g id="line2d_14">
      <g>
       <use xlink:href="#m444b8cb9af" x="187.92" y="84.96" style="stroke: #000000; stroke-width: 0.8"/>
      </g>
     </g>
    </g>
    <g id="xtick_8">
     <g id="line2d_15">
      <path d="M 210.24 135.36 
L 210.24 34.56 
" clip-path="url(#p6729c18690)" style="fill: none; stroke: #b0b0b0; stroke-width: 0.8; stroke-linecap: square"/>
     </g>
     <g id="line2d_16">
      <g>
       <use xlink:href="#m444b8cb9af" x="210.24" y="84.96" style="stroke: #000000; stroke-width: 0.8"/>
      </g>
     </g>
    </g>
    <g id="xtick_9">
     <g id="line2d_17">
      <path d="M 232.56 135.36 
L 232.56 34.56 
" clip-path="url(#p6729c18690)" style="fill: none; stroke: #b0b0b0; stroke-width: 0.8; stroke-linecap: square"/>
     </g>
     <g id="line2d_18">
      <g>
       <use xlink:href="#m444b8cb9af" x="232.56" y="84.96" style="stroke: #000000; stroke-width: 0.8"/>
      </g>
     </g>
    </g>
    <g id="xtick_10">
     <g id="line2d_19">
      <path d="M 254.88 135.36 
L 254.88 34.56 
" clip-path="url(#p6729c18690)" style="fill: none; stroke: #b0b0b0; stroke-width: 0.8; stroke-linecap: square"/>
     </g>
     <g id="line2d_20">
      <g>
       <use xlink:href="#m444b8cb9af" x="254.88" y="84.96" style="stroke: #000000; stroke-width: 0.8"/>
      </g>
     </g>
    </g>
    <g id="xtick_11">
     <g id="line2d_21">
      <path d="M 277.2 135.36 
L 277.2 34.56 
" clip-path="url(#p6729c18690)" style="fill: none; stroke: #b0b0b0; stroke-width: 0.8; stroke-linecap: square"/>
     </g>
     <g id="line2d_22">
      <g>
       <use xlink:href="#m444b8cb9af" x="277.2" y="84.96" style="stroke: #000000; stroke-width: 0.8"/>
      </g>
     </g>
    </g>
    <g id="xtick_12">
     <g id="line2d_23">
      <path d="M 299.52 135.36 
L 299.52 34.56 
" clip-path="url(#p6729c18690)" style="fill: none; stroke: #b0b0b0; stroke-width: 0.8; stroke-linecap: square"/>
     </g>
     <g id="line2d_24">
      <g>
       <use xlink:href="#m444b8cb9af" x="299.52" y="84.96" style="stroke: #000000; stroke-width: 0.8"/>
      </g>
     </g>
    </g>
    <g id="xtick_13">
     <g id="line2d_25">
      <path d="M 321.84 135.36 
L 321.84 34.56 
" clip-path="url(#p6729c18690)" style="fill: none; stroke: #b0b0b0; stroke-width: 0.8; stroke-linecap: square"/>
     </g>
     <g id="line2d_26">
      <g>
       <use xlink:href="#m444b8cb9af" x="321.84" y="84.96" style="stroke: #000000; stroke-width: 0.8"/>
      </g>
     </g>
    </g>
    <g id="xtick_14">
     <g id="line2d_27">
      <path d="M 344.16 135.36 
L 344.16 34.56 
" clip-path="url(#p6729c18690)" style="fill: none; stroke: #b0b0b0; stroke-width: 0.8; stroke-linecap: square"/>
     </g>
     <g id="line2d_28">
      <g>
       <use xlink:href="#m444b8cb9af" x="344.16" y="84.96" style="stroke: #000000; stroke-width: 0.8"/>
      </g>
     </g>
    </g>
    <g id="xtick_15">
     <g id="line2d_29">
      <path d="M 366.48 135.36 
L 366.48 34.56 
" clip-path="url(#p6729c18690)" style="fill: none; stroke: #b0b0b0; stroke-width: 0.8; stroke-linecap: square"/>
     </g>
     <g id="line2d_30">
      <g>
       <use xlink:href="#m444b8cb9af" x="366.48" y="84.96" style="stroke: #000000; stroke-width: 0.8"/>
      </g>
     </g>
    </g>
    <g id="xtick_16">
     <g id="line2d_31">
      <path d="M 388.8 135.36 
L 388.8 34.56 
" clip-path="url(#p6729c18690)" style="fill: none; stroke: #b0b0b0; stroke-width: 0.8; stroke-linecap: square"/>
     </g>
     <g id="line2d_32">
      <g>
       <use xlink:href="#m444b8cb9af" x="388.8" y="84.96" style="stroke: #000000; stroke-width: 0.8"/>
      </g>
     </g>
    </g>
   </g>
   <g id="matplotlib.axis_2">
    <g id="ytick_1">
     <g id="line2d_33">
      <path d="M 54 132.96 
L 388.8 132.96 
" clip-path="url(#p6729c18690)" style="fill: none; stroke: #b0b0b0; stroke-width: 0.8; stroke-linecap: square"/>
     </g>
     <g id="line2d_34">
      <defs>
       <path id="mdd675115cc" d="M 0 0 
L -3.5 0 
" style="stroke: #000000; stroke-width: 0.8"/>
      </defs>
      <g>
       <use xlink:href="#mdd675115cc" x="54" y="132.96" style="stroke: #000000; stroke-width: 0.8"/>
      </g>
     </g>
     <g id="text_1">
      <!-- −1 -->
      <g transform="translate(32.257812 136.759219) scale(0.1 -0.1)">
       <defs>
        <path id="DejaVuSans-2212" d="M 678 2272 
L 4684 2272 
L 4684 1741 
L 678 1741 
L 678 2272 
z
" transform="scale(0.015625)"/>
        <path id="DejaVuSans-31" d="M 794 531 
L 1825 531 
L 1825 4091 
L 703 3866 
L 703 4441 
L 1819 4666 
L 2450 4666 
L 2450 531 
L 3481 531 
L 3481 0 
L 794 0 
L 794 531 
z
" transform="scale(0.015625)"/>
       </defs>
       <use xlink:href="#DejaVuSans-2212"/>
       <use xlink:href="#DejaVuSans-31" transform="translate(83.789062 0)"/>
      </g>
     </g>
    </g>
    <g id="ytick_2">
     <g id="line2d_35">
      <path d="M 54 84.96 
L 388.8 84.96 
" clip-path="url(#p6729c18690)" style="fill: none; stroke: #b0b0b0; stroke-width: 0.8; stroke-linecap: square"/>
     </g>
     <g id="line2d_36">
      <g>
       <use xlink:href="#mdd675115cc" x="54" y="84.96" style="stroke: #000000; stroke-width: 0.8"/>
      </g>
     </g>
     <g id="text_2">
      <!-- 0 -->
      <g transform="translate(40.6375 88.759219) scale(0.1 -0.1)">
       <defs>
        <path id="DejaVuSans-30" d="M 2034 4250 
Q 1547 4250 1301 3770 
Q 1056 3291 1056 2328 
Q 1056 1369 1301 889 
Q 1547 409 2034 409 
Q 2525 409 2770 889 
Q 3016 1369 3016 2328 
Q 3016 3291 2770 3770 
Q 2525 4250 2034 4250 
z
M 2034 4750 
Q 2819 4750 3233 4129 
Q 3647 3509 3647 2328 
Q 3647 1150 3233 529 
Q 2819 -91 2034 -91 
Q 1250 -91 836 529 
Q 422 1150 422 2328 
Q 422 3509 836 4129 
Q 1250 4750 2034 4750 
z
" transform="scale(0.015625)"/>
       </defs>
       <use xlink:href="#DejaVuSans-30"/>
      </g>
     </g>
    </g>
    <g id="ytick_3">
     <g id="line2d_37">
      <path d="M 54 36.96 
L 388.8 36.96 
" clip-path="url(#p6729c18690)" style="fill: none; stroke: #b0b0b0; stroke-width: 0.8; stroke-linecap: square"/>
     </g>
     <g id="line2d_38">
      <g>
       <use xlink:href="#mdd675115cc" x="54" y="36.96" style="stroke: #000000; stroke-width: 0.8"/>
      </g>
     </g>
     <g id="text_3">
      <!-- 1 -->
      <g transform="translate(40.6375 40.759219) scale(0.1 -0.1)">
       <use xlink:href="#DejaVuSans-31"/>
      </g>
     </g>
    </g>
    <g id="text_4">
     <!-- Forcing Function -->
     <g transform="translate(10.275 125.992031) rotate(-90) scale(0.1 -0.1)">
      <defs>
       <path id="DejaVuSans-46" d="M 628 4666 
L 3309 4666 
L 3309 4134 
L 1259 4134 
L 1259 2759 
L 3109 2759 
L 3109 2228 
L 1259 2228 
L 1259 0 
L 628 0 
L 628 4666 
z
" transform="scale(0.015625)"/>
       <path id="DejaVuSans-6f" d="M 1959 3097 
Q 1497 3097 1228 2736 
Q 959 2375 959 1747 
Q 959 1119 1226 758 
Q 1494 397 1959 397 
Q 2419 397 2687 759 
Q 2956 1122 2956 1747 
Q 2956 2369 2687 2733 
Q 2419 3097 1959 3097 
z
M 1959 3584 
Q 2709 3584 3137 3096 
Q 3566 2609 3566 1747 
Q 3566 888 3137 398 
Q 2709 -91 1959 -91 
Q 1206 -91 779 398 
Q 353 888 353 1747 
Q 353 2609 779 3096 
Q 1206 3584 1959 3584 
z
" transform="scale(0.015625)"/>
       <path id="DejaVuSans-72" d="M 2631 2963 
Q 2534 3019 2420 3045 
Q 2306 3072 2169 3072 
Q 1681 3072 1420 2755 
Q 1159 2438 1159 1844 
L 1159 0 
L 581 0 
L 581 3500 
L 1159 3500 
L 1159 2956 
Q 1341 3275 1631 3429 
Q 1922 3584 2338 3584 
Q 2397 3584 2469 3576 
Q 2541 3569 2628 3553 
L 2631 2963 
z
" transform="scale(0.015625)"/>
       <path id="DejaVuSans-63" d="M 3122 3366 
L 3122 2828 
Q 2878 2963 2633 3030 
Q 2388 3097 2138 3097 
Q 1578 3097 1268 2742 
Q 959 2388 959 1747 
Q 959 1106 1268 751 
Q 1578 397 2138 397 
Q 2388 397 2633 464 
Q 2878 531 3122 666 
L 3122 134 
Q 2881 22 2623 -34 
Q 2366 -91 2075 -91 
Q 1284 -91 818 406 
Q 353 903 353 1747 
Q 353 2603 823 3093 
Q 1294 3584 2113 3584 
Q 2378 3584 2631 3529 
Q 2884 3475 3122 3366 
z
" transform="scale(0.015625)"/>
       <path id="DejaVuSans-69" d="M 603 3500 
L 1178 3500 
L 1178 0 
L 603 0 
L 603 3500 
z
M 603 4863 
L 1178 4863 
L 1178 4134 
L 603 4134 
L 603 4863 
z
" transform="scale(0.015625)"/>
       <path id="DejaVuSans-6e" d="M 3513 2113 
L 3513 0 
L 2938 0 
L 2938 2094 
Q 2938 2591 2744 2837 
Q 2550 3084 2163 3084 
Q 1697 3084 1428 2787 
Q 1159 2491 1159 1978 
L 1159 0 
L 581 0 
L 581 3500 
L 1159 3500 
L 1159 2956 
Q 1366 3272 1645 3428 
Q 1925 3584 2291 3584 
Q 2894 3584 3203 3211 
Q 3513 2838 3513 2113 
z
" transform="scale(0.015625)"/>
       <path id="DejaVuSans-67" d="M 2906 1791 
Q 2906 2416 2648 2759 
Q 2391 3103 1925 3103 
Q 1463 3103 1205 2759 
Q 947 2416 947 1791 
Q 947 1169 1205 825 
Q 1463 481 1925 481 
Q 2391 481 2648 825 
Q 2906 1169 2906 1791 
z
M 3481 434 
Q 3481 -459 3084 -895 
Q 2688 -1331 1869 -1331 
Q 1566 -1331 1297 -1286 
Q 1028 -1241 775 -1147 
L 775 -588 
Q 1028 -725 1275 -790 
Q 1522 -856 1778 -856 
Q 2344 -856 2625 -561 
Q 2906 -266 2906 331 
L 2906 616 
Q 2728 306 2450 153 
Q 2172 0 1784 0 
Q 1141 0 747 490 
Q 353 981 353 1791 
Q 353 2603 747 3093 
Q 1141 3584 1784 3584 
Q 2172 3584 2450 3431 
Q 2728 3278 2906 2969 
L 2906 3500 
L 3481 3500 
L 3481 434 
z
" transform="scale(0.015625)"/>
       <path id="DejaVuSans-20" transform="scale(0.015625)"/>
       <path id="DejaVuSans-75" d="M 544 1381 
L 544 3500 
L 1119 3500 
L 1119 1403 
Q 1119 906 1312 657 
Q 1506 409 1894 409 
Q 2359 409 2629 706 
Q 2900 1003 2900 1516 
L 2900 3500 
L 3475 3500 
L 3475 0 
L 2900 0 
L 2900 538 
Q 2691 219 2414 64 
Q 2138 -91 1772 -91 
Q 1169 -91 856 284 
Q 544 659 544 1381 
z
M 1991 3584 
L 1991 3584 
z
" transform="scale(0.015625)"/>
       <path id="DejaVuSans-74" d="M 1172 4494 
L 1172 3500 
L 2356 3500 
L 2356 3053 
L 1172 3053 
L 1172 1153 
Q 1172 725 1289 603 
Q 1406 481 1766 481 
L 2356 481 
L 2356 0 
L 1766 0 
Q 1100 0 847 248 
Q 594 497 594 1153 
L 594 3053 
L 172 3053 
L 172 3500 
L 594 3500 
L 594 4494 
L 1172 4494 
z
" transform="scale(0.015625)"/>
      </defs>
      <use xlink:href="#DejaVuSans-46"/>
      <use xlink:href="#DejaVuSans-6f" transform="translate(53.894531 0)"/>
      <use xlink:href="#DejaVuSans-72" transform="translate(115.076172 0)"/>
      <use xlink:href="#DejaVuSans-63" transform="translate(153.939453 0)"/>
      <use xlink:href="#DejaVuSans-69" transform="translate(208.919922 0)"/>
      <use xlink:href="#DejaVuSans-6e" transform="translate(236.703125 0)"/>
      <use xlink:href="#DejaVuSans-67" transform="translate(300.082031 0)"/>
      <use xlink:href="#DejaVuSans-20" transform="translate(363.558594 0)"/>
      <use xlink:href="#DejaVuSans-46" transform="translate(395.345703 0)"/>
      <use xlink:href="#DejaVuSans-75" transform="translate(447.365234 0)"/>
      <use xlink:href="#DejaVuSans-6e" transform="translate(510.744141 0)"/>
      <use xlink:href="#DejaVuSans-63" transform="translate(574.123047 0)"/>
      <use xlink:href="#DejaVuSans-74" transform="translate(629.103516 0)"/>
      <use xlink:href="#DejaVuSans-69" transform="translate(668.3125 0)"/>
      <use xlink:href="#DejaVuSans-6f" transform="translate(696.095703 0)"/>
      <use xlink:href="#DejaVuSans-6e" transform="translate(757.277344 0)"/>
     </g>
    </g>
   </g>
   <g id="line2d_39">
    <path d="M 54 84.96 
L 56.0088 59.240314 
L 57.03552 48.755934 
L 57.83904 42.610021 
L 58.464 39.309287 
L 58.95504 37.700912 
L 59.3568 37.054717 
L 59.62464 36.96379 
L 59.89248 37.145587 
L 60.20496 37.700912 
L 60.60672 38.950954 
L 61.09776 41.274913 
L 61.72272 45.430435 
L 62.4816 52.101739 
L 63.46368 62.900167 
L 64.9368 81.946055 
L 67.21344 111.186929 
L 68.24016 121.557241 
L 69.04368 127.59055 
L 69.66864 130.793498 
L 70.15968 132.320925 
L 70.5168 132.865283 
L 70.78464 132.95621 
L 71.05248 132.774413 
L 71.36496 132.219088 
L 71.76672 130.969046 
L 72.25776 128.645087 
L 72.88272 124.489565 
L 73.6416 117.818261 
L 74.62368 107.019833 
L 76.0968 87.973945 
L 78.37344 58.733071 
L 79.40016 48.362759 
L 80.20368 42.32945 
L 80.82864 39.126502 
L 81.31968 37.599075 
L 81.6768 37.054717 
L 81.94464 36.96379 
L 82.21248 37.145587 
L 82.52496 37.700912 
L 82.92672 38.950954 
L 83.41776 41.274913 
L 84.04272 45.430435 
L 84.8016 52.101739 
L 85.78368 62.900167 
L 87.2568 81.946055 
L 89.53344 111.186929 
L 90.56016 121.557241 
L 91.36368 127.59055 
L 91.98864 130.793498 
L 92.47968 132.320925 
L 92.8368 132.865283 
L 93.10464 132.95621 
L 93.37248 132.774413 
L 93.68496 132.219088 
L 94.08672 130.969046 
L 94.57776 128.645087 
L 95.20272 124.489565 
L 95.9616 117.818261 
L 96.94368 107.019833 
L 98.4168 87.973945 
L 100.69344 58.733071 
L 101.72016 48.362759 
L 102.52368 42.32945 
L 103.14864 39.126502 
L 103.63968 37.599075 
L 103.9968 37.054717 
L 104.26464 36.96379 
L 104.53248 37.145587 
L 104.84496 37.700912 
L 105.24672 38.950954 
L 105.73776 41.274913 
L 106.36272 45.430435 
L 107.1216 52.101739 
L 108.10368 62.900167 
L 109.5768 81.946055 
L 111.85344 111.186929 
L 112.88016 121.557241 
L 113.68368 127.59055 
L 114.30864 130.793498 
L 114.79968 132.320925 
L 115.1568 132.865283 
L 115.42464 132.95621 
L 115.69248 132.774413 
L 116.00496 132.219088 
L 116.40672 130.969046 
L 116.89776 128.645087 
L 117.52272 124.489565 
L 118.2816 117.818261 
L 119.26368 107.019833 
L 120.7368 87.973945 
L 123.01344 58.733071 
L 124.04016 48.362759 
L 124.84368 42.32945 
L 125.46864 39.126502 
L 125.95968 37.599075 
L 126.3168 37.054717 
L 126.58464 36.96379 
L 126.85248 37.145587 
L 127.16496 37.700912 
L 127.56672 38.950954 
L 128.05776 41.274913 
L 128.68272 45.430435 
L 129.4416 52.101739 
L 130.42368 62.900167 
L 131.8968 81.946055 
L 134.17344 111.186929 
L 135.20016 121.557241 
L 136.00368 127.59055 
L 136.62864 130.793498 
L 137.11968 132.320925 
L 137.4768 132.865283 
L 137.74464 132.95621 
L 138.01248 132.774413 
L 138.32496 132.219088 
L 138.72672 130.969046 
L 139.21776 128.645087 
L 139.84272 124.489565 
L 140.6016 117.818261 
L 141.58368 107.019833 
L 143.0568 87.973945 
L 145.33344 58.733071 
L 146.36016 48.362759 
L 147.16368 42.32945 
L 147.78864 39.126502 
L 148.27968 37.599075 
L 148.6368 37.054717 
L 148.90464 36.96379 
L 149.17248 37.145587 
L 149.48496 37.700912 
L 149.88672 38.950954 
L 150.37776 41.274913 
L 151.00272 45.430435 
L 151.7616 52.101739 
L 152.74368 62.900167 
L 154.2168 81.946055 
L 156.49344 111.186929 
L 157.52016 121.557241 
L 158.32368 127.59055 
L 158.94864 130.793498 
L 159.43968 132.320925 
L 159.7968 132.865283 
L 160.06464 132.95621 
L 160.33248 132.774413 
L 160.64496 132.219088 
L 161.04672 130.969046 
L 161.53776 128.645087 
L 162.16272 124.489565 
L 162.9216 117.818261 
L 163.90368 107.019833 
L 165.3768 87.973945 
L 167.65344 58.733071 
L 168.68016 48.362759 
L 169.48368 42.32945 
L 170.10864 39.126502 
L 170.59968 37.599075 
L 170.9568 37.054717 
L 171.22464 36.96379 
L 171.49248 37.145587 
L 171.80496 37.700912 
L 172.20672 38.950954 
L 172.69776 41.274913 
L 173.32272 45.430435 
L 174.0816 52.101739 
L 175.06368 62.900167 
L 176.5368 81.946055 
L 178.81344 111.186929 
L 179.84016 121.557241 
L 180.64368 127.59055 
L 181.26864 130.793498 
L 181.75968 132.320925 
L 182.1168 132.865283 
L 182.38464 132.95621 
L 182.65248 132.774413 
L 182.96496 132.219088 
L 183.36672 130.969046 
L 183.85776 128.645087 
L 184.48272 124.489565 
L 185.2416 117.818261 
L 186.22368 107.019833 
L 187.6968 87.973945 
L 189.97344 58.733071 
L 191.00016 48.362759 
L 191.80368 42.32945 
L 192.42864 39.126502 
L 192.91968 37.599075 
L 193.2768 37.054717 
L 193.54464 36.96379 
L 193.81248 37.145587 
L 194.12496 37.700912 
L 194.52672 38.950954 
L 195.01776 41.274913 
L 195.64272 45.430435 
L 196.4016 52.101739 
L 197.38368 62.900167 
L 198.8568 81.946055 
L 201.13344 111.186929 
L 202.16016 121.557241 
L 202.96368 127.59055 
L 203.58864 130.793498 
L 204.07968 132.320925 
L 204.4368 132.865283 
L 204.70464 132.95621 
L 204.97248 132.774413 
L 205.28496 132.219088 
L 205.68672 130.969046 
L 206.17776 128.645087 
L 206.80272 124.489565 
L 207.5616 117.818261 
L 208.54368 107.019833 
L 210.0168 87.973945 
L 212.29344 58.733071 
L 213.32016 48.362759 
L 214.12368 42.32945 
L 214.74864 39.126502 
L 215.23968 37.599075 
L 215.5968 37.054717 
L 215.86464 36.96379 
L 216.13248 37.145587 
L 216.44496 37.700912 
L 216.84672 38.950954 
L 217.33776 41.274913 
L 217.96272 45.430435 
L 218.7216 52.101739 
L 219.70368 62.900167 
L 221.1768 81.946055 
L 223.45344 111.186929 
L 224.48016 121.557241 
L 225.28368 127.59055 
L 225.90864 130.793498 
L 226.39968 132.320925 
L 226.7568 132.865283 
L 227.02464 132.95621 
L 227.29248 132.774413 
L 227.60496 132.219088 
L 228.00672 130.969046 
L 228.49776 128.645087 
L 229.12272 124.489565 
L 229.8816 117.818261 
L 230.86368 107.019833 
L 232.3368 87.973945 
L 234.61344 58.733071 
L 235.64016 48.362759 
L 236.44368 42.32945 
L 237.06864 39.126502 
L 237.55968 37.599075 
L 237.9168 37.054717 
L 238.18464 36.96379 
L 238.45248 37.145587 
L 238.76496 37.700912 
L 239.16672 38.950954 
L 239.65776 41.274913 
L 240.28272 45.430435 
L 241.0416 52.101739 
L 242.02368 62.900167 
L 243.4968 81.946055 
L 245.77344 111.186929 
L 246.80016 121.557241 
L 247.60368 127.59055 
L 248.22864 130.793498 
L 248.71968 132.320925 
L 249.0768 132.865283 
L 249.34464 132.95621 
L 249.61248 132.774413 
L 249.92496 132.219088 
L 250.32672 130.969046 
L 250.81776 128.645087 
L 251.44272 124.489565 
L 252.2016 117.818261 
L 253.18368 107.019833 
L 254.6568 87.973945 
L 256.93344 58.733071 
L 257.96016 48.362759 
L 258.76368 42.32945 
L 259.38864 39.126502 
L 259.87968 37.599075 
L 260.2368 37.054717 
L 260.50464 36.96379 
L 260.77248 37.145587 
L 261.08496 37.700912 
L 261.48672 38.950954 
L 261.97776 41.274913 
L 262.60272 45.430435 
L 263.3616 52.101739 
L 264.34368 62.900167 
L 265.8168 81.946055 
L 268.09344 111.186929 
L 269.12016 121.557241 
L 269.92368 127.59055 
L 270.54864 130.793498 
L 271.03968 132.320925 
L 271.3968 132.865283 
L 271.66464 132.95621 
L 271.93248 132.774413 
L 272.24496 132.219088 
L 272.64672 130.969046 
L 273.13776 128.645087 
L 273.76272 124.489565 
L 274.5216 117.818261 
L 275.50368 107.019833 
L 276.9768 87.973945 
L 279.25344 58.733071 
L 280.28016 48.362759 
L 281.08368 42.32945 
L 281.70864 39.126502 
L 282.19968 37.599075 
L 282.5568 37.054717 
L 282.82464 36.96379 
L 283.09248 37.145587 
L 283.40496 37.700912 
L 283.80672 38.950954 
L 284.29776 41.274913 
L 284.92272 45.430435 
L 285.6816 52.101739 
L 286.66368 62.900167 
L 288.1368 81.946055 
L 290.41344 111.186929 
L 291.44016 121.557241 
L 292.24368 127.59055 
L 292.86864 130.793498 
L 293.35968 132.320925 
L 293.7168 132.865283 
L 293.98464 132.95621 
L 294.25248 132.774413 
L 294.56496 132.219088 
L 294.96672 130.969046 
L 295.45776 128.645087 
L 296.08272 124.489565 
L 296.8416 117.818261 
L 297.82368 107.019833 
L 299.2968 87.973945 
L 301.57344 58.733071 
L 302.60016 48.362759 
L 303.40368 42.32945 
L 304.02864 39.126502 
L 304.51968 37.599075 
L 304.8768 37.054717 
L 305.14464 36.96379 
L 305.41248 37.145587 
L 305.72496 37.700912 
L 306.12672 38.950954 
L 306.61776 41.274913 
L 307.24272 45.430435 
L 308.0016 52.101739 
L 308.98368 62.900167 
L 310.4568 81.946055 
L 312.73344 111.186929 
L 313.76016 121.557241 
L 314.56368 127.59055 
L 315.18864 130.793498 
L 315.67968 132.320925 
L 316.0368 132.865283 
L 316.30464 132.95621 
L 316.57248 132.774413 
L 316.88496 132.219088 
L 317.28672 130.969046 
L 317.77776 128.645087 
L 318.40272 124.489565 
L 319.1616 117.818261 
L 320.14368 107.019833 
L 321.6168 87.973945 
L 323.89344 58.733071 
L 324.92016 48.362759 
L 325.72368 42.32945 
L 326.34864 39.126502 
L 326.83968 37.599075 
L 327.1968 37.054717 
L 327.46464 36.96379 
L 327.73248 37.145587 
L 328.04496 37.700912 
L 328.44672 38.950954 
L 328.93776 41.274913 
L 329.56272 45.430435 
L 330.3216 52.101739 
L 331.30368 62.900167 
L 332.7768 81.946055 
L 335.05344 111.186929 
L 336.08016 121.557241 
L 336.88368 127.59055 
L 337.50864 130.793498 
L 337.99968 132.320925 
L 338.3568 132.865283 
L 338.62464 132.95621 
L 338.89248 132.774413 
L 339.20496 132.219088 
L 339.60672 130.969046 
L 340.09776 128.645087 
L 340.72272 124.489565 
L 341.4816 117.818261 
L 342.46368 107.019833 
L 343.9368 87.973945 
L 346.21344 58.733071 
L 347.24016 48.362759 
L 348.04368 42.32945 
L 348.66864 39.126502 
L 349.15968 37.599075 
L 349.5168 37.054717 
L 349.78464 36.96379 
L 350.05248 37.145587 
L 350.36496 37.700912 
L 350.76672 38.950954 
L 351.25776 41.274913 
L 351.88272 45.430435 
L 352.6416 52.101739 
L 353.62368 62.900167 
L 355.0968 81.946055 
L 357.37344 111.186929 
L 358.40016 121.557241 
L 359.20368 127.59055 
L 359.82864 130.793498 
L 360.31968 132.320925 
L 360.6768 132.865283 
L 360.94464 132.95621 
L 361.21248 132.774413 
L 361.52496 132.219088 
L 361.92672 130.969046 
L 362.41776 128.645087 
L 363.04272 124.489565 
L 363.8016 117.818261 
L 364.78368 107.019833 
L 366.2568 87.973945 
L 368.53344 58.733071 
L 369.56016 48.362759 
L 370.36368 42.32945 
L 370.98864 39.126502 
L 371.47968 37.599075 
L 371.8368 37.054717 
L 372.10464 36.96379 
L 372.37248 37.145587 
L 372.68496 37.700912 
L 373.08672 38.950954 
L 373.57776 41.274913 
L 374.20272 45.430435 
L 374.9616 52.101739 
L 375.94368 62.900167 
L 377.4168 81.946055 
L 379.69344 111.186929 
L 380.72016 121.557241 
L 381.52368 127.59055 
L 382.14864 130.793498 
L 382.63968 132.320925 
L 382.9968 132.865283 
L 383.26464 132.95621 
L 383.53248 132.774413 
L 383.84496 132.219088 
L 384.24672 130.969046 
L 384.73776 128.645087 
L 385.36272 124.489565 
L 386.1216 117.818261 
L 387.10368 107.019833 
L 388.5768 87.973945 
L 388.8 84.96 
L 388.8 84.96 
" clip-path="url(#p6729c18690)" style="fill: none; stroke: #1f77b4; stroke-width: 1.5; stroke-linecap: square"/>
   </g>
   <g id="patch_3">
    <path d="M 54 135.36 
L 54 34.56 
" style="fill: none"/>
   </g>
   <g id="patch_4">
    <path d="M 388.8 135.36 
L 388.8 34.56 
" style="fill: none"/>
   </g>
   <g id="patch_5">
    <path d="M 54 84.96 
L 388.8 84.96 
" style="fill: none; stroke: #000000; stroke-width: 0.8; stroke-linejoin: miter; stroke-linecap: square"/>
   </g>
   <g id="patch_6">
    <path d="M 54 34.56 
L 388.8 34.56 
" style="fill: none"/>
   </g>
  </g>
  <g id="axes_2">
   <g id="patch_7">
    <path d="M 54 256.32 
L 388.8 256.32 
L 388.8 155.52 
L 54 155.52 
z
" style="fill: #ffffff"/>
   </g>
   <g id="matplotlib.axis_3">
    <g id="xtick_17">
     <g id="line2d_40">
      <path d="M 54 256.32 
L 54 155.52 
" clip-path="url(#p57c0338528)" style="fill: none; stroke: #b0b0b0; stroke-width: 0.8; stroke-linecap: square"/>
     </g>
     <g id="line2d_41">
      <g>
       <use xlink:href="#m444b8cb9af" x="54" y="256.32" style="stroke: #000000; stroke-width: 0.8"/>
      </g>
     </g>
     <g id="text_5">
      <!-- 0 -->
      <g transform="translate(50.81875 270.918437) scale(0.1 -0.1)">
       <use xlink:href="#DejaVuSans-30"/>
      </g>
     </g>
    </g>
    <g id="xtick_18">
     <g id="line2d_42">
      <path d="M 76.32 256.32 
L 76.32 155.52 
" clip-path="url(#p57c0338528)" style="fill: none; stroke: #b0b0b0; stroke-width: 0.8; stroke-linecap: square"/>
     </g>
     <g id="line2d_43">
      <g>
       <use xlink:href="#m444b8cb9af" x="76.32" y="256.32" style="stroke: #000000; stroke-width: 0.8"/>
      </g>
     </g>
     <g id="text_6">
      <!-- 1 -->
      <g transform="translate(73.13875 270.918437) scale(0.1 -0.1)">
       <use xlink:href="#DejaVuSans-31"/>
      </g>
     </g>
    </g>
    <g id="xtick_19">
     <g id="line2d_44">
      <path d="M 98.64 256.32 
L 98.64 155.52 
" clip-path="url(#p57c0338528)" style="fill: none; stroke: #b0b0b0; stroke-width: 0.8; stroke-linecap: square"/>
     </g>
     <g id="line2d_45">
      <g>
       <use xlink:href="#m444b8cb9af" x="98.64" y="256.32" style="stroke: #000000; stroke-width: 0.8"/>
      </g>
     </g>
     <g id="text_7">
      <!-- 2 -->
      <g transform="translate(95.45875 270.918437) scale(0.1 -0.1)">
       <defs>
        <path id="DejaVuSans-32" d="M 1228 531 
L 3431 531 
L 3431 0 
L 469 0 
L 469 531 
Q 828 903 1448 1529 
Q 2069 2156 2228 2338 
Q 2531 2678 2651 2914 
Q 2772 3150 2772 3378 
Q 2772 3750 2511 3984 
Q 2250 4219 1831 4219 
Q 1534 4219 1204 4116 
Q 875 4013 500 3803 
L 500 4441 
Q 881 4594 1212 4672 
Q 1544 4750 1819 4750 
Q 2544 4750 2975 4387 
Q 3406 4025 3406 3419 
Q 3406 3131 3298 2873 
Q 3191 2616 2906 2266 
Q 2828 2175 2409 1742 
Q 1991 1309 1228 531 
z
" transform="scale(0.015625)"/>
       </defs>
       <use xlink:href="#DejaVuSans-32"/>
      </g>
     </g>
    </g>
    <g id="xtick_20">
     <g id="line2d_46">
      <path d="M 120.96 256.32 
L 120.96 155.52 
" clip-path="url(#p57c0338528)" style="fill: none; stroke: #b0b0b0; stroke-width: 0.8; stroke-linecap: square"/>
     </g>
     <g id="line2d_47">
      <g>
       <use xlink:href="#m444b8cb9af" x="120.96" y="256.32" style="stroke: #000000; stroke-width: 0.8"/>
      </g>
     </g>
     <g id="text_8">
      <!-- 3 -->
      <g transform="translate(117.77875 270.918437) scale(0.1 -0.1)">
       <defs>
        <path id="DejaVuSans-33" d="M 2597 2516 
Q 3050 2419 3304 2112 
Q 3559 1806 3559 1356 
Q 3559 666 3084 287 
Q 2609 -91 1734 -91 
Q 1441 -91 1130 -33 
Q 819 25 488 141 
L 488 750 
Q 750 597 1062 519 
Q 1375 441 1716 441 
Q 2309 441 2620 675 
Q 2931 909 2931 1356 
Q 2931 1769 2642 2001 
Q 2353 2234 1838 2234 
L 1294 2234 
L 1294 2753 
L 1863 2753 
Q 2328 2753 2575 2939 
Q 2822 3125 2822 3475 
Q 2822 3834 2567 4026 
Q 2313 4219 1838 4219 
Q 1578 4219 1281 4162 
Q 984 4106 628 3988 
L 628 4550 
Q 988 4650 1302 4700 
Q 1616 4750 1894 4750 
Q 2613 4750 3031 4423 
Q 3450 4097 3450 3541 
Q 3450 3153 3228 2886 
Q 3006 2619 2597 2516 
z
" transform="scale(0.015625)"/>
       </defs>
       <use xlink:href="#DejaVuSans-33"/>
      </g>
     </g>
    </g>
    <g id="xtick_21">
     <g id="line2d_48">
      <path d="M 143.28 256.32 
L 143.28 155.52 
" clip-path="url(#p57c0338528)" style="fill: none; stroke: #b0b0b0; stroke-width: 0.8; stroke-linecap: square"/>
     </g>
     <g id="line2d_49">
      <g>
       <use xlink:href="#m444b8cb9af" x="143.28" y="256.32" style="stroke: #000000; stroke-width: 0.8"/>
      </g>
     </g>
     <g id="text_9">
      <!-- 4 -->
      <g transform="translate(140.09875 270.918437) scale(0.1 -0.1)">
       <defs>
        <path id="DejaVuSans-34" d="M 2419 4116 
L 825 1625 
L 2419 1625 
L 2419 4116 
z
M 2253 4666 
L 3047 4666 
L 3047 1625 
L 3713 1625 
L 3713 1100 
L 3047 1100 
L 3047 0 
L 2419 0 
L 2419 1100 
L 313 1100 
L 313 1709 
L 2253 4666 
z
" transform="scale(0.015625)"/>
       </defs>
       <use xlink:href="#DejaVuSans-34"/>
      </g>
     </g>
    </g>
    <g id="xtick_22">
     <g id="line2d_50">
      <path d="M 165.6 256.32 
L 165.6 155.52 
" clip-path="url(#p57c0338528)" style="fill: none; stroke: #b0b0b0; stroke-width: 0.8; stroke-linecap: square"/>
     </g>
     <g id="line2d_51">
      <g>
       <use xlink:href="#m444b8cb9af" x="165.6" y="256.32" style="stroke: #000000; stroke-width: 0.8"/>
      </g>
     </g>
     <g id="text_10">
      <!-- 5 -->
      <g transform="translate(162.41875 270.918437) scale(0.1 -0.1)">
       <defs>
        <path id="DejaVuSans-35" d="M 691 4666 
L 3169 4666 
L 3169 4134 
L 1269 4134 
L 1269 2991 
Q 1406 3038 1543 3061 
Q 1681 3084 1819 3084 
Q 2600 3084 3056 2656 
Q 3513 2228 3513 1497 
Q 3513 744 3044 326 
Q 2575 -91 1722 -91 
Q 1428 -91 1123 -41 
Q 819 9 494 109 
L 494 744 
Q 775 591 1075 516 
Q 1375 441 1709 441 
Q 2250 441 2565 725 
Q 2881 1009 2881 1497 
Q 2881 1984 2565 2268 
Q 2250 2553 1709 2553 
Q 1456 2553 1204 2497 
Q 953 2441 691 2322 
L 691 4666 
z
" transform="scale(0.015625)"/>
       </defs>
       <use xlink:href="#DejaVuSans-35"/>
      </g>
     </g>
    </g>
    <g id="xtick_23">
     <g id="line2d_52">
      <path d="M 187.92 256.32 
L 187.92 155.52 
" clip-path="url(#p57c0338528)" style="fill: none; stroke: #b0b0b0; stroke-width: 0.8; stroke-linecap: square"/>
     </g>
     <g id="line2d_53">
      <g>
       <use xlink:href="#m444b8cb9af" x="187.92" y="256.32" style="stroke: #000000; stroke-width: 0.8"/>
      </g>
     </g>
     <g id="text_11">
      <!-- 6 -->
      <g transform="translate(184.73875 270.918437) scale(0.1 -0.1)">
       <defs>
        <path id="DejaVuSans-36" d="M 2113 2584 
Q 1688 2584 1439 2293 
Q 1191 2003 1191 1497 
Q 1191 994 1439 701 
Q 1688 409 2113 409 
Q 2538 409 2786 701 
Q 3034 994 3034 1497 
Q 3034 2003 2786 2293 
Q 2538 2584 2113 2584 
z
M 3366 4563 
L 3366 3988 
Q 3128 4100 2886 4159 
Q 2644 4219 2406 4219 
Q 1781 4219 1451 3797 
Q 1122 3375 1075 2522 
Q 1259 2794 1537 2939 
Q 1816 3084 2150 3084 
Q 2853 3084 3261 2657 
Q 3669 2231 3669 1497 
Q 3669 778 3244 343 
Q 2819 -91 2113 -91 
Q 1303 -91 875 529 
Q 447 1150 447 2328 
Q 447 3434 972 4092 
Q 1497 4750 2381 4750 
Q 2619 4750 2861 4703 
Q 3103 4656 3366 4563 
z
" transform="scale(0.015625)"/>
       </defs>
       <use xlink:href="#DejaVuSans-36"/>
      </g>
     </g>
    </g>
    <g id="xtick_24">
     <g id="line2d_54">
      <path d="M 210.24 256.32 
L 210.24 155.52 
" clip-path="url(#p57c0338528)" style="fill: none; stroke: #b0b0b0; stroke-width: 0.8; stroke-linecap: square"/>
     </g>
     <g id="line2d_55">
      <g>
       <use xlink:href="#m444b8cb9af" x="210.24" y="256.32" style="stroke: #000000; stroke-width: 0.8"/>
      </g>
     </g>
     <g id="text_12">
      <!-- 7 -->
      <g transform="translate(207.05875 270.918437) scale(0.1 -0.1)">
       <defs>
        <path id="DejaVuSans-37" d="M 525 4666 
L 3525 4666 
L 3525 4397 
L 1831 0 
L 1172 0 
L 2766 4134 
L 525 4134 
L 525 4666 
z
" transform="scale(0.015625)"/>
       </defs>
       <use xlink:href="#DejaVuSans-37"/>
      </g>
     </g>
    </g>
    <g id="xtick_25">
     <g id="line2d_56">
      <path d="M 232.56 256.32 
L 232.56 155.52 
" clip-path="url(#p57c0338528)" style="fill: none; stroke: #b0b0b0; stroke-width: 0.8; stroke-linecap: square"/>
     </g>
     <g id="line2d_57">
      <g>
       <use xlink:href="#m444b8cb9af" x="232.56" y="256.32" style="stroke: #000000; stroke-width: 0.8"/>
      </g>
     </g>
     <g id="text_13">
      <!-- 8 -->
      <g transform="translate(229.37875 270.918437) scale(0.1 -0.1)">
       <defs>
        <path id="DejaVuSans-38" d="M 2034 2216 
Q 1584 2216 1326 1975 
Q 1069 1734 1069 1313 
Q 1069 891 1326 650 
Q 1584 409 2034 409 
Q 2484 409 2743 651 
Q 3003 894 3003 1313 
Q 3003 1734 2745 1975 
Q 2488 2216 2034 2216 
z
M 1403 2484 
Q 997 2584 770 2862 
Q 544 3141 544 3541 
Q 544 4100 942 4425 
Q 1341 4750 2034 4750 
Q 2731 4750 3128 4425 
Q 3525 4100 3525 3541 
Q 3525 3141 3298 2862 
Q 3072 2584 2669 2484 
Q 3125 2378 3379 2068 
Q 3634 1759 3634 1313 
Q 3634 634 3220 271 
Q 2806 -91 2034 -91 
Q 1263 -91 848 271 
Q 434 634 434 1313 
Q 434 1759 690 2068 
Q 947 2378 1403 2484 
z
M 1172 3481 
Q 1172 3119 1398 2916 
Q 1625 2713 2034 2713 
Q 2441 2713 2670 2916 
Q 2900 3119 2900 3481 
Q 2900 3844 2670 4047 
Q 2441 4250 2034 4250 
Q 1625 4250 1398 4047 
Q 1172 3844 1172 3481 
z
" transform="scale(0.015625)"/>
       </defs>
       <use xlink:href="#DejaVuSans-38"/>
      </g>
     </g>
    </g>
    <g id="xtick_26">
     <g id="line2d_58">
      <path d="M 254.88 256.32 
L 254.88 155.52 
" clip-path="url(#p57c0338528)" style="fill: none; stroke: #b0b0b0; stroke-width: 0.8; stroke-linecap: square"/>
     </g>
     <g id="line2d_59">
      <g>
       <use xlink:href="#m444b8cb9af" x="254.88" y="256.32" style="stroke: #000000; stroke-width: 0.8"/>
      </g>
     </g>
     <g id="text_14">
      <!-- 9 -->
      <g transform="translate(251.69875 270.918437) scale(0.1 -0.1)">
       <defs>
        <path id="DejaVuSans-39" d="M 703 97 
L 703 672 
Q 941 559 1184 500 
Q 1428 441 1663 441 
Q 2288 441 2617 861 
Q 2947 1281 2994 2138 
Q 2813 1869 2534 1725 
Q 2256 1581 1919 1581 
Q 1219 1581 811 2004 
Q 403 2428 403 3163 
Q 403 3881 828 4315 
Q 1253 4750 1959 4750 
Q 2769 4750 3195 4129 
Q 3622 3509 3622 2328 
Q 3622 1225 3098 567 
Q 2575 -91 1691 -91 
Q 1453 -91 1209 -44 
Q 966 3 703 97 
z
M 1959 2075 
Q 2384 2075 2632 2365 
Q 2881 2656 2881 3163 
Q 2881 3666 2632 3958 
Q 2384 4250 1959 4250 
Q 1534 4250 1286 3958 
Q 1038 3666 1038 3163 
Q 1038 2656 1286 2365 
Q 1534 2075 1959 2075 
z
" transform="scale(0.015625)"/>
       </defs>
       <use xlink:href="#DejaVuSans-39"/>
      </g>
     </g>
    </g>
    <g id="xtick_27">
     <g id="line2d_60">
      <path d="M 277.2 256.32 
L 277.2 155.52 
" clip-path="url(#p57c0338528)" style="fill: none; stroke: #b0b0b0; stroke-width: 0.8; stroke-linecap: square"/>
     </g>
     <g id="line2d_61">
      <g>
       <use xlink:href="#m444b8cb9af" x="277.2" y="256.32" style="stroke: #000000; stroke-width: 0.8"/>
      </g>
     </g>
     <g id="text_15">
      <!-- 10 -->
      <g transform="translate(270.8375 270.918437) scale(0.1 -0.1)">
       <use xlink:href="#DejaVuSans-31"/>
       <use xlink:href="#DejaVuSans-30" transform="translate(63.623047 0)"/>
      </g>
     </g>
    </g>
    <g id="xtick_28">
     <g id="line2d_62">
      <path d="M 299.52 256.32 
L 299.52 155.52 
" clip-path="url(#p57c0338528)" style="fill: none; stroke: #b0b0b0; stroke-width: 0.8; stroke-linecap: square"/>
     </g>
     <g id="line2d_63">
      <g>
       <use xlink:href="#m444b8cb9af" x="299.52" y="256.32" style="stroke: #000000; stroke-width: 0.8"/>
      </g>
     </g>
     <g id="text_16">
      <!-- 11 -->
      <g transform="translate(293.1575 270.918437) scale(0.1 -0.1)">
       <use xlink:href="#DejaVuSans-31"/>
       <use xlink:href="#DejaVuSans-31" transform="translate(63.623047 0)"/>
      </g>
     </g>
    </g>
    <g id="xtick_29">
     <g id="line2d_64">
      <path d="M 321.84 256.32 
L 321.84 155.52 
" clip-path="url(#p57c0338528)" style="fill: none; stroke: #b0b0b0; stroke-width: 0.8; stroke-linecap: square"/>
     </g>
     <g id="line2d_65">
      <g>
       <use xlink:href="#m444b8cb9af" x="321.84" y="256.32" style="stroke: #000000; stroke-width: 0.8"/>
      </g>
     </g>
     <g id="text_17">
      <!-- 12 -->
      <g transform="translate(315.4775 270.918437) scale(0.1 -0.1)">
       <use xlink:href="#DejaVuSans-31"/>
       <use xlink:href="#DejaVuSans-32" transform="translate(63.623047 0)"/>
      </g>
     </g>
    </g>
    <g id="xtick_30">
     <g id="line2d_66">
      <path d="M 344.16 256.32 
L 344.16 155.52 
" clip-path="url(#p57c0338528)" style="fill: none; stroke: #b0b0b0; stroke-width: 0.8; stroke-linecap: square"/>
     </g>
     <g id="line2d_67">
      <g>
       <use xlink:href="#m444b8cb9af" x="344.16" y="256.32" style="stroke: #000000; stroke-width: 0.8"/>
      </g>
     </g>
     <g id="text_18">
      <!-- 13 -->
      <g transform="translate(337.7975 270.918437) scale(0.1 -0.1)">
       <use xlink:href="#DejaVuSans-31"/>
       <use xlink:href="#DejaVuSans-33" transform="translate(63.623047 0)"/>
      </g>
     </g>
    </g>
    <g id="xtick_31">
     <g id="line2d_68">
      <path d="M 366.48 256.32 
L 366.48 155.52 
" clip-path="url(#p57c0338528)" style="fill: none; stroke: #b0b0b0; stroke-width: 0.8; stroke-linecap: square"/>
     </g>
     <g id="line2d_69">
      <g>
       <use xlink:href="#m444b8cb9af" x="366.48" y="256.32" style="stroke: #000000; stroke-width: 0.8"/>
      </g>
     </g>
     <g id="text_19">
      <!-- 14 -->
      <g transform="translate(360.1175 270.918437) scale(0.1 -0.1)">
       <use xlink:href="#DejaVuSans-31"/>
       <use xlink:href="#DejaVuSans-34" transform="translate(63.623047 0)"/>
      </g>
     </g>
    </g>
    <g id="xtick_32">
     <g id="line2d_70">
      <path d="M 388.8 256.32 
L 388.8 155.52 
" clip-path="url(#p57c0338528)" style="fill: none; stroke: #b0b0b0; stroke-width: 0.8; stroke-linecap: square"/>
     </g>
     <g id="line2d_71">
      <g>
       <use xlink:href="#m444b8cb9af" x="388.8" y="256.32" style="stroke: #000000; stroke-width: 0.8"/>
      </g>
     </g>
     <g id="text_20">
      <!-- 15 -->
      <g transform="translate(382.4375 270.918437) scale(0.1 -0.1)">
       <use xlink:href="#DejaVuSans-31"/>
       <use xlink:href="#DejaVuSans-35" transform="translate(63.623047 0)"/>
      </g>
     </g>
    </g>
    <g id="text_21">
     <!-- Time -->
     <g transform="translate(209.166406 284.596563) scale(0.1 -0.1)">
      <defs>
       <path id="DejaVuSans-54" d="M -19 4666 
L 3928 4666 
L 3928 4134 
L 2272 4134 
L 2272 0 
L 1638 0 
L 1638 4134 
L -19 4134 
L -19 4666 
z
" transform="scale(0.015625)"/>
       <path id="DejaVuSans-6d" d="M 3328 2828 
Q 3544 3216 3844 3400 
Q 4144 3584 4550 3584 
Q 5097 3584 5394 3201 
Q 5691 2819 5691 2113 
L 5691 0 
L 5113 0 
L 5113 2094 
Q 5113 2597 4934 2840 
Q 4756 3084 4391 3084 
Q 3944 3084 3684 2787 
Q 3425 2491 3425 1978 
L 3425 0 
L 2847 0 
L 2847 2094 
Q 2847 2600 2669 2842 
Q 2491 3084 2119 3084 
Q 1678 3084 1418 2786 
Q 1159 2488 1159 1978 
L 1159 0 
L 581 0 
L 581 3500 
L 1159 3500 
L 1159 2956 
Q 1356 3278 1631 3431 
Q 1906 3584 2284 3584 
Q 2666 3584 2933 3390 
Q 3200 3197 3328 2828 
z
" transform="scale(0.015625)"/>
       <path id="DejaVuSans-65" d="M 3597 1894 
L 3597 1613 
L 953 1613 
Q 991 1019 1311 708 
Q 1631 397 2203 397 
Q 2534 397 2845 478 
Q 3156 559 3463 722 
L 3463 178 
Q 3153 47 2828 -22 
Q 2503 -91 2169 -91 
Q 1331 -91 842 396 
Q 353 884 353 1716 
Q 353 2575 817 3079 
Q 1281 3584 2069 3584 
Q 2775 3584 3186 3129 
Q 3597 2675 3597 1894 
z
M 3022 2063 
Q 3016 2534 2758 2815 
Q 2500 3097 2075 3097 
Q 1594 3097 1305 2825 
Q 1016 2553 972 2059 
L 3022 2063 
z
" transform="scale(0.015625)"/>
      </defs>
      <use xlink:href="#DejaVuSans-54"/>
      <use xlink:href="#DejaVuSans-69" transform="translate(57.958984 0)"/>
      <use xlink:href="#DejaVuSans-6d" transform="translate(85.742188 0)"/>
      <use xlink:href="#DejaVuSans-65" transform="translate(183.154297 0)"/>
     </g>
    </g>
   </g>
   <g id="matplotlib.axis_4">
    <g id="ytick_4">
     <g id="line2d_72">
      <path d="M 54 235.179121 
L 388.8 235.179121 
" clip-path="url(#p57c0338528)" style="fill: none; stroke: #b0b0b0; stroke-width: 0.8; stroke-linecap: square"/>
     </g>
     <g id="line2d_73">
      <g>
       <use xlink:href="#mdd675115cc" x="54" y="235.179121" style="stroke: #000000; stroke-width: 0.8"/>
      </g>
     </g>
     <g id="text_22">
      <!-- −0.05 -->
      <g transform="translate(16.354687 238.97834) scale(0.1 -0.1)">
       <defs>
        <path id="DejaVuSans-2e" d="M 684 794 
L 1344 794 
L 1344 0 
L 684 0 
L 684 794 
z
" transform="scale(0.015625)"/>
       </defs>
       <use xlink:href="#DejaVuSans-2212"/>
       <use xlink:href="#DejaVuSans-30" transform="translate(83.789062 0)"/>
       <use xlink:href="#DejaVuSans-2e" transform="translate(147.412109 0)"/>
       <use xlink:href="#DejaVuSans-30" transform="translate(179.199219 0)"/>
       <use xlink:href="#DejaVuSans-35" transform="translate(242.822266 0)"/>
      </g>
     </g>
    </g>
    <g id="ytick_5">
     <g id="line2d_74">
      <path d="M 54 205.92 
L 388.8 205.92 
" clip-path="url(#p57c0338528)" style="fill: none; stroke: #b0b0b0; stroke-width: 0.8; stroke-linecap: square"/>
     </g>
     <g id="line2d_75">
      <g>
       <use xlink:href="#mdd675115cc" x="54" y="205.92" style="stroke: #000000; stroke-width: 0.8"/>
      </g>
     </g>
     <g id="text_23">
      <!-- 0.00 -->
      <g transform="translate(24.734375 209.719219) scale(0.1 -0.1)">
       <use xlink:href="#DejaVuSans-30"/>
       <use xlink:href="#DejaVuSans-2e" transform="translate(63.623047 0)"/>
       <use xlink:href="#DejaVuSans-30" transform="translate(95.410156 0)"/>
       <use xlink:href="#DejaVuSans-30" transform="translate(159.033203 0)"/>
      </g>
     </g>
    </g>
    <g id="ytick_6">
     <g id="line2d_76">
      <path d="M 54 176.660879 
L 388.8 176.660879 
" clip-path="url(#p57c0338528)" style="fill: none; stroke: #b0b0b0; stroke-width: 0.8; stroke-linecap: square"/>
     </g>
     <g id="line2d_77">
      <g>
       <use xlink:href="#mdd675115cc" x="54" y="176.660879" style="stroke: #000000; stroke-width: 0.8"/>
      </g>
     </g>
     <g id="text_24">
      <!-- 0.05 -->
      <g transform="translate(24.734375 180.460097) scale(0.1 -0.1)">
       <use xlink:href="#DejaVuSans-30"/>
       <use xlink:href="#DejaVuSans-2e" transform="translate(63.623047 0)"/>
       <use xlink:href="#DejaVuSans-30" transform="translate(95.410156 0)"/>
       <use xlink:href="#DejaVuSans-35" transform="translate(159.033203 0)"/>
      </g>
     </g>
    </g>
    <g id="text_25">
     <!-- Position -->
     <g transform="translate(10.275 225.384062) rotate(-90) scale(0.1 -0.1)">
      <defs>
       <path id="DejaVuSans-50" d="M 1259 4147 
L 1259 2394 
L 2053 2394 
Q 2494 2394 2734 2622 
Q 2975 2850 2975 3272 
Q 2975 3691 2734 3919 
Q 2494 4147 2053 4147 
L 1259 4147 
z
M 628 4666 
L 2053 4666 
Q 2838 4666 3239 4311 
Q 3641 3956 3641 3272 
Q 3641 2581 3239 2228 
Q 2838 1875 2053 1875 
L 1259 1875 
L 1259 0 
L 628 0 
L 628 4666 
z
" transform="scale(0.015625)"/>
       <path id="DejaVuSans-73" d="M 2834 3397 
L 2834 2853 
Q 2591 2978 2328 3040 
Q 2066 3103 1784 3103 
Q 1356 3103 1142 2972 
Q 928 2841 928 2578 
Q 928 2378 1081 2264 
Q 1234 2150 1697 2047 
L 1894 2003 
Q 2506 1872 2764 1633 
Q 3022 1394 3022 966 
Q 3022 478 2636 193 
Q 2250 -91 1575 -91 
Q 1294 -91 989 -36 
Q 684 19 347 128 
L 347 722 
Q 666 556 975 473 
Q 1284 391 1588 391 
Q 1994 391 2212 530 
Q 2431 669 2431 922 
Q 2431 1156 2273 1281 
Q 2116 1406 1581 1522 
L 1381 1569 
Q 847 1681 609 1914 
Q 372 2147 372 2553 
Q 372 3047 722 3315 
Q 1072 3584 1716 3584 
Q 2034 3584 2315 3537 
Q 2597 3491 2834 3397 
z
" transform="scale(0.015625)"/>
      </defs>
      <use xlink:href="#DejaVuSans-50"/>
      <use xlink:href="#DejaVuSans-6f" transform="translate(56.677734 0)"/>
      <use xlink:href="#DejaVuSans-73" transform="translate(117.859375 0)"/>
      <use xlink:href="#DejaVuSans-69" transform="translate(169.958984 0)"/>
      <use xlink:href="#DejaVuSans-74" transform="translate(197.742188 0)"/>
      <use xlink:href="#DejaVuSans-69" transform="translate(236.951172 0)"/>
      <use xlink:href="#DejaVuSans-6f" transform="translate(264.734375 0)"/>
      <use xlink:href="#DejaVuSans-6e" transform="translate(325.916016 0)"/>
     </g>
    </g>
   </g>
   <g id="line2d_78">
    <path d="M 54 205.92 
L 55.5624 205.81737 
L 56.4552 205.53489 
L 57.30336 205.023995 
L 58.15152 204.244807 
L 59.1336 203.019159 
L 60.4728 200.940427 
L 62.52624 197.750452 
L 63.3744 196.837557 
L 64.044 196.43034 
L 64.57968 196.350595 
L 65.07072 196.494428 
L 65.6064 196.90667 
L 66.18672 197.66794 
L 66.85632 198.958333 
L 67.6152 200.936247 
L 68.55264 204.050627 
L 69.8472 209.228208 
L 72.43632 219.74092 
L 73.32912 222.3775 
L 73.99872 223.730419 
L 74.5344 224.353924 
L 74.93616 224.528084 
L 75.29328 224.460541 
L 75.69504 224.126795 
L 76.14144 223.430861 
L 76.67712 222.144722 
L 77.30208 220.040085 
L 78.06096 216.674393 
L 79.04304 211.210202 
L 80.51616 201.541861 
L 82.5696 188.270635 
L 83.50704 183.592086 
L 84.22128 181.022813 
L 84.8016 179.694939 
L 85.248 179.182395 
L 85.56048 179.099885 
L 85.87296 179.250492 
L 86.23008 179.711333 
L 86.67648 180.720735 
L 87.21216 182.557078 
L 87.88176 185.766165 
L 88.68528 190.822581 
L 89.712 198.810305 
L 91.63152 215.959011 
L 93.10464 228.16052 
L 94.04208 234.194055 
L 94.75632 237.468077 
L 95.292 239.043909 
L 95.7384 239.733486 
L 96.05088 239.865511 
L 96.31872 239.744589 
L 96.6312 239.328567 
L 97.03296 238.359592 
L 97.524 236.522987 
L 98.14896 233.191911 
L 98.90784 227.783258 
L 99.88992 218.954462 
L 101.36304 203.344389 
L 103.41648 181.933771 
L 104.39856 173.97973 
L 105.15744 169.540648 
L 105.73776 167.33706 
L 106.18416 166.404809 
L 106.49664 166.162347 
L 106.76448 166.227826 
L 107.03232 166.546943 
L 107.38944 167.365998 
L 107.83584 169.013568 
L 108.41616 172.15466 
L 109.1304 177.455906 
L 110.0232 185.98579 
L 111.22848 199.875336 
L 114.13008 234.205507 
L 115.06752 242.331167 
L 115.78176 246.732605 
L 116.31744 248.863824 
L 116.76384 249.820051 
L 117.07632 250.032195 
L 117.29952 249.95047 
L 117.56736 249.595287 
L 117.92448 248.687671 
L 118.37088 246.86749 
L 118.9512 243.407467 
L 119.66544 237.586617 
L 120.55824 228.254861 
L 121.80816 212.532707 
L 124.57584 176.987082 
L 125.51328 168.01958 
L 126.22752 163.077264 
L 126.80784 160.453122 
L 127.25424 159.344265 
L 127.56672 159.053435 
L 127.78992 159.093075 
L 128.05776 159.413106 
L 128.41488 160.299393 
L 128.86128 162.132558 
L 129.39696 165.354624 
L 130.06656 170.833064 
L 130.91472 179.76561 
L 132.07536 194.614242 
L 135.28944 237.23942 
L 136.18224 245.665983 
L 136.89648 250.438397 
L 137.43216 252.719086 
L 137.83392 253.656469 
L 138.1464 253.916567 
L 138.3696 253.84934 
L 138.63744 253.490693 
L 138.99456 252.544842 
L 139.44096 250.626938 
L 140.02128 246.966766 
L 140.73552 240.807169 
L 141.62832 230.951845 
L 142.87824 214.413231 
L 145.60128 177.794878 
L 146.53872 168.336604 
L 147.2976 162.79193 
L 147.87792 160.020769 
L 148.32432 158.814039 
L 148.6368 158.460695 
L 148.86 158.457971 
L 149.12784 158.729007 
L 149.44032 159.420457 
L 149.84208 160.892318 
L 150.37776 163.836206 
L 151.04736 168.978154 
L 151.85088 177.007024 
L 152.96688 190.664891 
L 156.58272 236.925618 
L 157.43088 244.25095 
L 158.10048 248.311416 
L 158.63616 250.350852 
L 159.03792 251.143609 
L 159.30576 251.315848 
L 159.52896 251.24128 
L 159.7968 250.891396 
L 160.15392 249.988569 
L 160.60032 248.17726 
L 161.18064 244.746769 
L 161.89488 239.012734 
L 162.78768 229.900772 
L 164.08224 214.158377 
L 166.62672 182.934833 
L 167.6088 173.744141 
L 168.36768 168.547526 
L 168.99264 165.708633 
L 169.43904 164.529649 
L 169.79616 164.108279 
L 170.064 164.098027 
L 170.33184 164.34854 
L 170.68896 165.082809 
L 171.13536 166.626823 
L 171.67104 169.352546 
L 172.34064 173.981414 
L 173.1888 181.491931 
L 174.39408 194.38204 
L 177.38496 227.272906 
L 178.3224 234.87043 
L 179.08128 239.321954 
L 179.6616 241.565731 
L 180.108 242.570172 
L 180.46512 242.913899 
L 180.73296 242.903324 
L 181.0008 242.664633 
L 181.35792 241.997379 
L 181.80432 240.61945 
L 182.38464 237.975752 
L 183.09888 233.531898 
L 183.99168 226.45913 
L 185.33088 213.807 
L 187.78608 190.422529 
L 188.76816 183.157026 
L 189.57168 178.742085 
L 190.19664 176.40493 
L 190.68768 175.284057 
L 191.08944 174.844819 
L 191.40192 174.800401 
L 191.7144 175.013024 
L 192.07152 175.564186 
L 192.51792 176.699023 
L 193.09824 178.869442 
L 193.81248 182.504689 
L 194.74992 188.583933 
L 196.13376 199.245624 
L 198.45504 217.107239 
L 199.48176 223.296068 
L 200.28528 226.916781 
L 200.95488 228.991559 
L 201.49056 229.99899 
L 201.89232 230.368383 
L 202.24944 230.420685 
L 202.60656 230.218031 
L 203.00832 229.694619 
L 203.49936 228.650747 
L 204.12432 226.730702 
L 204.8832 223.627035 
L 205.90992 218.396353 
L 207.82944 207.132344 
L 209.43648 198.300138 
L 210.4632 193.791224 
L 211.31136 191.001534 
L 211.98096 189.471154 
L 212.56128 188.644526 
L 213.05232 188.307993 
L 213.45408 188.275147 
L 213.85584 188.453271 
L 214.34688 188.943626 
L 214.9272 189.881489 
L 215.64144 191.507109 
L 216.53424 194.134616 
L 217.8288 198.726458 
L 221.08752 210.581772 
L 222.20352 213.684259 
L 223.14096 215.666054 
L 223.94448 216.871512 
L 224.65872 217.554343 
L 225.28368 217.85713 
L 225.864 217.90131 
L 226.44432 217.728993 
L 227.11392 217.279197 
L 227.8728 216.473215 
L 228.7656 215.170624 
L 229.83696 213.185424 
L 231.2208 210.105155 
L 233.31888 204.808002 
L 235.908 198.389424 
L 237.15792 195.862676 
L 238.09536 194.417379 
L 238.85424 193.610957 
L 239.4792 193.231256 
L 240.05952 193.132859 
L 240.5952 193.274394 
L 241.13088 193.649334 
L 241.75584 194.38979 
L 242.42544 195.547234 
L 243.22896 197.419952 
L 244.1664 200.217761 
L 245.32704 204.42689 
L 247.55904 213.601651 
L 249.03216 219.127934 
L 249.9696 221.859606 
L 250.68384 223.345062 
L 251.26416 224.101174 
L 251.7552 224.393317 
L 252.15696 224.381766 
L 252.55872 224.137366 
L 253.00512 223.588283 
L 253.5408 222.543412 
L 254.16576 220.803781 
L 254.92464 217.982795 
L 255.86208 213.562706 
L 257.15664 206.231281 
L 260.14752 188.872604 
L 261.08496 184.910862 
L 261.7992 182.784014 
L 262.33488 181.779636 
L 262.78128 181.361795 
L 263.1384 181.313642 
L 263.49552 181.525485 
L 263.89728 182.077321 
L 264.38832 183.200527 
L 264.96864 185.148396 
L 265.68288 188.412872 
L 266.57568 193.673028 
L 267.73632 201.979054 
L 271.1736 227.545298 
L 272.02176 231.922205 
L 272.69136 234.355673 
L 273.22704 235.564621 
L 273.6288 236.011783 
L 273.94128 236.078307 
L 274.25376 235.895069 
L 274.61088 235.378524 
L 275.05728 234.275258 
L 275.59296 232.296586 
L 276.26256 228.874527 
L 277.06608 223.527697 
L 278.13744 214.744405 
L 280.3248 194.315814 
L 281.664 183.03029 
L 282.60144 176.907049 
L 283.31568 173.5978 
L 283.85136 172.002824 
L 284.29776 171.296327 
L 284.61024 171.149737 
L 284.87808 171.255358 
L 285.19056 171.649306 
L 285.59232 172.581829 
L 286.08336 174.359504 
L 286.70832 177.590172 
L 287.4672 182.837843 
L 288.44928 191.403581 
L 289.9224 206.567182 
L 292.02048 227.942949 
L 293.00256 235.808072 
L 293.76144 240.298338 
L 294.3864 242.761724 
L 294.8328 243.779235 
L 295.18992 244.130028 
L 295.45776 244.118565 
L 295.7256 243.870697 
L 296.08272 243.173793 
L 296.52912 241.722526 
L 297.0648 239.159589 
L 297.7344 234.782244 
L 298.58256 227.607598 
L 299.69856 216.08944 
L 303.26976 177.641181 
L 304.11792 171.421735 
L 304.78752 167.974748 
L 305.3232 166.255316 
L 305.72496 165.603985 
L 306.03744 165.484139 
L 306.30528 165.652511 
L 306.61776 166.164425 
L 307.01952 167.3158 
L 307.51056 169.455477 
L 308.13552 173.278179 
L 308.8944 179.401841 
L 309.87648 189.264842 
L 311.48352 208.058538 
L 313.31376 228.799929 
L 314.29584 237.629268 
L 315.05472 242.700339 
L 315.67968 245.523245 
L 316.17072 246.812615 
L 316.52784 247.218306 
L 316.79568 247.224837 
L 317.06352 246.975907 
L 317.42064 246.249443 
L 317.86704 244.719315 
L 318.40272 242.007157 
L 319.07232 237.373977 
L 319.92048 229.795367 
L 321.08112 217.157433 
L 324.47376 178.82074 
L 325.36656 171.785105 
L 326.03616 168.029576 
L 326.57184 166.07563 
L 327.01824 165.198726 
L 327.33072 164.999991 
L 327.59856 165.103066 
L 327.91104 165.540899 
L 328.3128 166.599293 
L 328.80384 168.626899 
L 329.4288 172.30608 
L 330.18768 178.249265 
L 331.16976 187.86362 
L 332.7768 206.226147 
L 334.65168 226.984494 
L 335.63376 235.592309 
L 336.39264 240.556962 
L 337.0176 243.352175 
L 337.50864 244.665699 
L 337.86576 245.117263 
L 338.1336 245.174852 
L 338.40144 244.991807 
L 338.71392 244.476715 
L 339.11568 243.346244 
L 339.65136 241.050565 
L 340.27632 237.312879 
L 341.07984 231.042622 
L 342.1512 220.720632 
L 346.1688 179.871563 
L 346.97232 174.599752 
L 347.64192 171.548104 
L 348.1776 170.061838 
L 348.57936 169.524516 
L 348.89184 169.452165 
L 349.15968 169.630106 
L 349.47216 170.114593 
L 349.87392 171.166396 
L 350.4096 173.288771 
L 351.0792 177.011088 
L 351.88272 182.834312 
L 352.99872 192.755075 
L 356.74848 227.757727 
L 357.59664 233.125932 
L 358.31088 236.321545 
L 358.84656 237.845428 
L 359.29296 238.520489 
L 359.60544 238.667634 
L 359.87328 238.58101 
L 360.18576 238.234375 
L 360.58752 237.408123 
L 361.07856 235.838935 
L 361.70352 233.012886 
L 362.4624 228.481398 
L 363.48912 220.846932 
L 365.27472 205.471291 
L 366.97104 191.594178 
L 367.99776 184.930223 
L 368.80128 181.072375 
L 369.42624 179.022994 
L 369.91728 178.033796 
L 370.31904 177.640006 
L 370.63152 177.592774 
L 370.944 177.770135 
L 371.30112 178.242873 
L 371.74752 179.226068 
L 372.32784 181.11952 
L 373.04208 184.311809 
L 373.93488 189.411868 
L 375.22944 198.280075 
L 378.0864 218.222504 
L 379.06848 223.439618 
L 379.872 226.616518 
L 380.5416 228.409986 
L 381.07728 229.254075 
L 381.47904 229.536897 
L 381.83616 229.537252 
L 382.19328 229.304973 
L 382.63968 228.696586 
L 383.17536 227.52202 
L 383.84496 225.426936 
L 384.64848 222.117301 
L 385.71984 216.675708 
L 387.81792 204.518955 
L 388.8 199.072164 
L 388.8 199.072164 
" clip-path="url(#p57c0338528)" style="fill: none; stroke: #1f77b4; stroke-width: 1.5; stroke-linecap: square"/>
   </g>
   <g id="patch_8">
    <path d="M 54 256.32 
L 54 155.52 
" style="fill: none"/>
   </g>
   <g id="patch_9">
    <path d="M 388.8 256.32 
L 388.8 155.52 
" style="fill: none"/>
   </g>
   <g id="patch_10">
    <path d="M 54 256.32 
L 388.8 256.32 
" style="fill: none; stroke: #000000; stroke-width: 0.8; stroke-linejoin: miter; stroke-linecap: square"/>
   </g>
   <g id="patch_11">
    <path d="M 54 205.92 
L 388.8 205.92 
" style="fill: none; stroke: #000000; stroke-width: 0.8; stroke-linejoin: miter; stroke-linecap: square"/>
   </g>
  </g>
 </g>
 <defs>
  <clipPath id="p6729c18690">
   <rect x="54" y="34.56" width="334.8" height="100.8"/>
  </clipPath>
  <clipPath id="p57c0338528">
   <rect x="54" y="155.52" width="334.8" height="100.8"/>
  </clipPath>
 </defs>
</svg>
