<?xml version="1.0" encoding="utf-8" standalone="no"?>
<!DOCTYPE svg PUBLIC "-//W3C//DTD SVG 1.1//EN"
  "http://www.w3.org/Graphics/SVG/1.1/DTD/svg11.dtd">
<svg xmlns:xlink="http://www.w3.org/1999/xlink" width="406.885937pt" height="267.915469pt" viewBox="0 0 406.885937 267.915469" xmlns="http://www.w3.org/2000/svg" version="1.1">
 <metadata>
  <rdf:RDF xmlns:dc="http://purl.org/dc/elements/1.1/" xmlns:cc="http://creativecommons.org/ns#" xmlns:rdf="http://www.w3.org/1999/02/22-rdf-syntax-ns#">
   <cc:Work>
    <dc:type rdf:resource="http://purl.org/dc/dcmitype/StillImage"/>
    <dc:date>2025-07-09T15:00:03.436754</dc:date>
    <dc:format>image/svg+xml</dc:format>
    <dc:creator>
     <cc:Agent>
      <dc:title>Matplotlib v3.10.3, https://matplotlib.org/</dc:title>
     </cc:Agent>
    </dc:creator>
   </cc:Work>
  </rdf:RDF>
 </metadata>
 <defs>
  <style type="text/css">*{stroke-linejoin: round; stroke-linecap: butt}</style>
 </defs>
 <g id="figure_1">
  <g id="patch_1">
   <path d="M 0 267.915469 
L 406.885937 267.915469 
L 406.885937 0 
L 0 0 
z
" style="fill: #ffffff"/>
  </g>
  <g id="axes_1">
   <g id="patch_2">
    <path d="M 58.523438 109.399219 
L 393.323438 109.399219 
L 393.323438 8.599219 
L 58.523438 8.599219 
z
" style="fill: #ffffff"/>
   </g>
   <g id="matplotlib.axis_1">
    <g id="xtick_1">
     <g id="line2d_1">
      <path d="M 58.523438 109.399219 
L 58.523438 8.599219 
" clip-path="url(#pce862344f7)" style="fill: none; stroke: #b0b0b0; stroke-width: 0.8; stroke-linecap: square"/>
     </g>
     <g id="line2d_2">
      <defs>
       <path id="m05dc7836e4" d="M 0 0 
L 0 3.5 
" style="stroke: #000000; stroke-width: 0.8"/>
      </defs>
      <g>
       <use xlink:href="#m05dc7836e4" x="58.523438" y="58.999219" style="stroke: #000000; stroke-width: 0.8"/>
      </g>
     </g>
    </g>
    <g id="xtick_2">
     <g id="line2d_3">
      <path d="M 80.843438 109.399219 
L 80.843438 8.599219 
" clip-path="url(#pce862344f7)" style="fill: none; stroke: #b0b0b0; stroke-width: 0.8; stroke-linecap: square"/>
     </g>
     <g id="line2d_4">
      <g>
       <use xlink:href="#m05dc7836e4" x="80.843438" y="58.999219" style="stroke: #000000; stroke-width: 0.8"/>
      </g>
     </g>
    </g>
    <g id="xtick_3">
     <g id="line2d_5">
      <path d="M 103.163438 109.399219 
L 103.163438 8.599219 
" clip-path="url(#pce862344f7)" style="fill: none; stroke: #b0b0b0; stroke-width: 0.8; stroke-linecap: square"/>
     </g>
     <g id="line2d_6">
      <g>
       <use xlink:href="#m05dc7836e4" x="103.163438" y="58.999219" style="stroke: #000000; stroke-width: 0.8"/>
      </g>
     </g>
    </g>
    <g id="xtick_4">
     <g id="line2d_7">
      <path d="M 125.483438 109.399219 
L 125.483438 8.599219 
" clip-path="url(#pce862344f7)" style="fill: none; stroke: #b0b0b0; stroke-width: 0.8; stroke-linecap: square"/>
     </g>
     <g id="line2d_8">
      <g>
       <use xlink:href="#m05dc7836e4" x="125.483438" y="58.999219" style="stroke: #000000; stroke-width: 0.8"/>
      </g>
     </g>
    </g>
    <g id="xtick_5">
     <g id="line2d_9">
      <path d="M 147.803438 109.399219 
L 147.803438 8.599219 
" clip-path="url(#pce862344f7)" style="fill: none; stroke: #b0b0b0; stroke-width: 0.8; stroke-linecap: square"/>
     </g>
     <g id="line2d_10">
      <g>
       <use xlink:href="#m05dc7836e4" x="147.803438" y="58.999219" style="stroke: #000000; stroke-width: 0.8"/>
      </g>
     </g>
    </g>
    <g id="xtick_6">
     <g id="line2d_11">
      <path d="M 170.123437 109.399219 
L 170.123437 8.599219 
" clip-path="url(#pce862344f7)" style="fill: none; stroke: #b0b0b0; stroke-width: 0.8; stroke-linecap: square"/>
     </g>
     <g id="line2d_12">
      <g>
       <use xlink:href="#m05dc7836e4" x="170.123437" y="58.999219" style="stroke: #000000; stroke-width: 0.8"/>
      </g>
     </g>
    </g>
    <g id="xtick_7">
     <g id="line2d_13">
      <path d="M 192.443438 109.399219 
L 192.443438 8.599219 
" clip-path="url(#pce862344f7)" style="fill: none; stroke: #b0b0b0; stroke-width: 0.8; stroke-linecap: square"/>
     </g>
     <g id="line2d_14">
      <g>
       <use xlink:href="#m05dc7836e4" x="192.443438" y="58.999219" style="stroke: #000000; stroke-width: 0.8"/>
      </g>
     </g>
    </g>
    <g id="xtick_8">
     <g id="line2d_15">
      <path d="M 214.763438 109.399219 
L 214.763438 8.599219 
" clip-path="url(#pce862344f7)" style="fill: none; stroke: #b0b0b0; stroke-width: 0.8; stroke-linecap: square"/>
     </g>
     <g id="line2d_16">
      <g>
       <use xlink:href="#m05dc7836e4" x="214.763438" y="58.999219" style="stroke: #000000; stroke-width: 0.8"/>
      </g>
     </g>
    </g>
    <g id="xtick_9">
     <g id="line2d_17">
      <path d="M 237.083438 109.399219 
L 237.083438 8.599219 
" clip-path="url(#pce862344f7)" style="fill: none; stroke: #b0b0b0; stroke-width: 0.8; stroke-linecap: square"/>
     </g>
     <g id="line2d_18">
      <g>
       <use xlink:href="#m05dc7836e4" x="237.083438" y="58.999219" style="stroke: #000000; stroke-width: 0.8"/>
      </g>
     </g>
    </g>
    <g id="xtick_10">
     <g id="line2d_19">
      <path d="M 259.403437 109.399219 
L 259.403437 8.599219 
" clip-path="url(#pce862344f7)" style="fill: none; stroke: #b0b0b0; stroke-width: 0.8; stroke-linecap: square"/>
     </g>
     <g id="line2d_20">
      <g>
       <use xlink:href="#m05dc7836e4" x="259.403437" y="58.999219" style="stroke: #000000; stroke-width: 0.8"/>
      </g>
     </g>
    </g>
    <g id="xtick_11">
     <g id="line2d_21">
      <path d="M 281.723437 109.399219 
L 281.723437 8.599219 
" clip-path="url(#pce862344f7)" style="fill: none; stroke: #b0b0b0; stroke-width: 0.8; stroke-linecap: square"/>
     </g>
     <g id="line2d_22">
      <g>
       <use xlink:href="#m05dc7836e4" x="281.723437" y="58.999219" style="stroke: #000000; stroke-width: 0.8"/>
      </g>
     </g>
    </g>
    <g id="xtick_12">
     <g id="line2d_23">
      <path d="M 304.043438 109.399219 
L 304.043438 8.599219 
" clip-path="url(#pce862344f7)" style="fill: none; stroke: #b0b0b0; stroke-width: 0.8; stroke-linecap: square"/>
     </g>
     <g id="line2d_24">
      <g>
       <use xlink:href="#m05dc7836e4" x="304.043438" y="58.999219" style="stroke: #000000; stroke-width: 0.8"/>
      </g>
     </g>
    </g>
    <g id="xtick_13">
     <g id="line2d_25">
      <path d="M 326.363438 109.399219 
L 326.363438 8.599219 
" clip-path="url(#pce862344f7)" style="fill: none; stroke: #b0b0b0; stroke-width: 0.8; stroke-linecap: square"/>
     </g>
     <g id="line2d_26">
      <g>
       <use xlink:href="#m05dc7836e4" x="326.363438" y="58.999219" style="stroke: #000000; stroke-width: 0.8"/>
      </g>
     </g>
    </g>
    <g id="xtick_14">
     <g id="line2d_27">
      <path d="M 348.683438 109.399219 
L 348.683438 8.599219 
" clip-path="url(#pce862344f7)" style="fill: none; stroke: #b0b0b0; stroke-width: 0.8; stroke-linecap: square"/>
     </g>
     <g id="line2d_28">
      <g>
       <use xlink:href="#m05dc7836e4" x="348.683438" y="58.999219" style="stroke: #000000; stroke-width: 0.8"/>
      </g>
     </g>
    </g>
    <g id="xtick_15">
     <g id="line2d_29">
      <path d="M 371.003438 109.399219 
L 371.003438 8.599219 
" clip-path="url(#pce862344f7)" style="fill: none; stroke: #b0b0b0; stroke-width: 0.8; stroke-linecap: square"/>
     </g>
     <g id="line2d_30">
      <g>
       <use xlink:href="#m05dc7836e4" x="371.003438" y="58.999219" style="stroke: #000000; stroke-width: 0.8"/>
      </g>
     </g>
    </g>
    <g id="xtick_16">
     <g id="line2d_31">
      <path d="M 393.323438 109.399219 
L 393.323438 8.599219 
" clip-path="url(#pce862344f7)" style="fill: none; stroke: #b0b0b0; stroke-width: 0.8; stroke-linecap: square"/>
     </g>
     <g id="line2d_32">
      <g>
       <use xlink:href="#m05dc7836e4" x="393.323438" y="58.999219" style="stroke: #000000; stroke-width: 0.8"/>
      </g>
     </g>
    </g>
   </g>
   <g id="matplotlib.axis_2">
    <g id="ytick_1">
     <g id="line2d_33">
      <path d="M 58.523438 106.999219 
L 393.323438 106.999219 
" clip-path="url(#pce862344f7)" style="fill: none; stroke: #b0b0b0; stroke-width: 0.8; stroke-linecap: square"/>
     </g>
     <g id="line2d_34">
      <defs>
       <path id="m8c19bdc536" d="M 0 0 
L -3.5 0 
" style="stroke: #000000; stroke-width: 0.8"/>
      </defs>
      <g>
       <use xlink:href="#m8c19bdc536" x="58.523438" y="106.999219" style="stroke: #000000; stroke-width: 0.8"/>
      </g>
     </g>
     <g id="text_1">
      <!-- −1 -->
      <g transform="translate(36.78125 110.798437) scale(0.1 -0.1)">
       <defs>
        <path id="DejaVuSans-2212" d="M 678 2272 
L 4684 2272 
L 4684 1741 
L 678 1741 
L 678 2272 
z
" transform="scale(0.015625)"/>
        <path id="DejaVuSans-31" d="M 794 531 
L 1825 531 
L 1825 4091 
L 703 3866 
L 703 4441 
L 1819 4666 
L 2450 4666 
L 2450 531 
L 3481 531 
L 3481 0 
L 794 0 
L 794 531 
z
" transform="scale(0.015625)"/>
       </defs>
       <use xlink:href="#DejaVuSans-2212"/>
       <use xlink:href="#DejaVuSans-31" transform="translate(83.789062 0)"/>
      </g>
     </g>
    </g>
    <g id="ytick_2">
     <g id="line2d_35">
      <path d="M 58.523438 58.999219 
L 393.323438 58.999219 
" clip-path="url(#pce862344f7)" style="fill: none; stroke: #b0b0b0; stroke-width: 0.8; stroke-linecap: square"/>
     </g>
     <g id="line2d_36">
      <g>
       <use xlink:href="#m8c19bdc536" x="58.523438" y="58.999219" style="stroke: #000000; stroke-width: 0.8"/>
      </g>
     </g>
     <g id="text_2">
      <!-- 0 -->
      <g transform="translate(45.160938 62.798437) scale(0.1 -0.1)">
       <defs>
        <path id="DejaVuSans-30" d="M 2034 4250 
Q 1547 4250 1301 3770 
Q 1056 3291 1056 2328 
Q 1056 1369 1301 889 
Q 1547 409 2034 409 
Q 2525 409 2770 889 
Q 3016 1369 3016 2328 
Q 3016 3291 2770 3770 
Q 2525 4250 2034 4250 
z
M 2034 4750 
Q 2819 4750 3233 4129 
Q 3647 3509 3647 2328 
Q 3647 1150 3233 529 
Q 2819 -91 2034 -91 
Q 1250 -91 836 529 
Q 422 1150 422 2328 
Q 422 3509 836 4129 
Q 1250 4750 2034 4750 
z
" transform="scale(0.015625)"/>
       </defs>
       <use xlink:href="#DejaVuSans-30"/>
      </g>
     </g>
    </g>
    <g id="ytick_3">
     <g id="line2d_37">
      <path d="M 58.523438 10.999219 
L 393.323438 10.999219 
" clip-path="url(#pce862344f7)" style="fill: none; stroke: #b0b0b0; stroke-width: 0.8; stroke-linecap: square"/>
     </g>
     <g id="line2d_38">
      <g>
       <use xlink:href="#m8c19bdc536" x="58.523438" y="10.999219" style="stroke: #000000; stroke-width: 0.8"/>
      </g>
     </g>
     <g id="text_3">
      <!-- 1 -->
      <g transform="translate(45.160938 14.798438) scale(0.1 -0.1)">
       <use xlink:href="#DejaVuSans-31"/>
      </g>
     </g>
    </g>
    <g id="text_4">
     <!-- Forcing Function -->
     <g transform="translate(14.798438 100.03125) rotate(-90) scale(0.1 -0.1)">
      <defs>
       <path id="DejaVuSans-46" d="M 628 4666 
L 3309 4666 
L 3309 4134 
L 1259 4134 
L 1259 2759 
L 3109 2759 
L 3109 2228 
L 1259 2228 
L 1259 0 
L 628 0 
L 628 4666 
z
" transform="scale(0.015625)"/>
       <path id="DejaVuSans-6f" d="M 1959 3097 
Q 1497 3097 1228 2736 
Q 959 2375 959 1747 
Q 959 1119 1226 758 
Q 1494 397 1959 397 
Q 2419 397 2687 759 
Q 2956 1122 2956 1747 
Q 2956 2369 2687 2733 
Q 2419 3097 1959 3097 
z
M 1959 3584 
Q 2709 3584 3137 3096 
Q 3566 2609 3566 1747 
Q 3566 888 3137 398 
Q 2709 -91 1959 -91 
Q 1206 -91 779 398 
Q 353 888 353 1747 
Q 353 2609 779 3096 
Q 1206 3584 1959 3584 
z
" transform="scale(0.015625)"/>
       <path id="DejaVuSans-72" d="M 2631 2963 
Q 2534 3019 2420 3045 
Q 2306 3072 2169 3072 
Q 1681 3072 1420 2755 
Q 1159 2438 1159 1844 
L 1159 0 
L 581 0 
L 581 3500 
L 1159 3500 
L 1159 2956 
Q 1341 3275 1631 3429 
Q 1922 3584 2338 3584 
Q 2397 3584 2469 3576 
Q 2541 3569 2628 3553 
L 2631 2963 
z
" transform="scale(0.015625)"/>
       <path id="DejaVuSans-63" d="M 3122 3366 
L 3122 2828 
Q 2878 2963 2633 3030 
Q 2388 3097 2138 3097 
Q 1578 3097 1268 2742 
Q 959 2388 959 1747 
Q 959 1106 1268 751 
Q 1578 397 2138 397 
Q 2388 397 2633 464 
Q 2878 531 3122 666 
L 3122 134 
Q 2881 22 2623 -34 
Q 2366 -91 2075 -91 
Q 1284 -91 818 406 
Q 353 903 353 1747 
Q 353 2603 823 3093 
Q 1294 3584 2113 3584 
Q 2378 3584 2631 3529 
Q 2884 3475 3122 3366 
z
" transform="scale(0.015625)"/>
       <path id="DejaVuSans-69" d="M 603 3500 
L 1178 3500 
L 1178 0 
L 603 0 
L 603 3500 
z
M 603 4863 
L 1178 4863 
L 1178 4134 
L 603 4134 
L 603 4863 
z
" transform="scale(0.015625)"/>
       <path id="DejaVuSans-6e" d="M 3513 2113 
L 3513 0 
L 2938 0 
L 2938 2094 
Q 2938 2591 2744 2837 
Q 2550 3084 2163 3084 
Q 1697 3084 1428 2787 
Q 1159 2491 1159 1978 
L 1159 0 
L 581 0 
L 581 3500 
L 1159 3500 
L 1159 2956 
Q 1366 3272 1645 3428 
Q 1925 3584 2291 3584 
Q 2894 3584 3203 3211 
Q 3513 2838 3513 2113 
z
" transform="scale(0.015625)"/>
       <path id="DejaVuSans-67" d="M 2906 1791 
Q 2906 2416 2648 2759 
Q 2391 3103 1925 3103 
Q 1463 3103 1205 2759 
Q 947 2416 947 1791 
Q 947 1169 1205 825 
Q 1463 481 1925 481 
Q 2391 481 2648 825 
Q 2906 1169 2906 1791 
z
M 3481 434 
Q 3481 -459 3084 -895 
Q 2688 -1331 1869 -1331 
Q 1566 -1331 1297 -1286 
Q 1028 -1241 775 -1147 
L 775 -588 
Q 1028 -725 1275 -790 
Q 1522 -856 1778 -856 
Q 2344 -856 2625 -561 
Q 2906 -266 2906 331 
L 2906 616 
Q 2728 306 2450 153 
Q 2172 0 1784 0 
Q 1141 0 747 490 
Q 353 981 353 1791 
Q 353 2603 747 3093 
Q 1141 3584 1784 3584 
Q 2172 3584 2450 3431 
Q 2728 3278 2906 2969 
L 2906 3500 
L 3481 3500 
L 3481 434 
z
" transform="scale(0.015625)"/>
       <path id="DejaVuSans-20" transform="scale(0.015625)"/>
       <path id="DejaVuSans-75" d="M 544 1381 
L 544 3500 
L 1119 3500 
L 1119 1403 
Q 1119 906 1312 657 
Q 1506 409 1894 409 
Q 2359 409 2629 706 
Q 2900 1003 2900 1516 
L 2900 3500 
L 3475 3500 
L 3475 0 
L 2900 0 
L 2900 538 
Q 2691 219 2414 64 
Q 2138 -91 1772 -91 
Q 1169 -91 856 284 
Q 544 659 544 1381 
z
M 1991 3584 
L 1991 3584 
z
" transform="scale(0.015625)"/>
       <path id="DejaVuSans-74" d="M 1172 4494 
L 1172 3500 
L 2356 3500 
L 2356 3053 
L 1172 3053 
L 1172 1153 
Q 1172 725 1289 603 
Q 1406 481 1766 481 
L 2356 481 
L 2356 0 
L 1766 0 
Q 1100 0 847 248 
Q 594 497 594 1153 
L 594 3053 
L 172 3053 
L 172 3500 
L 594 3500 
L 594 4494 
L 1172 4494 
z
" transform="scale(0.015625)"/>
      </defs>
      <use xlink:href="#DejaVuSans-46"/>
      <use xlink:href="#DejaVuSans-6f" transform="translate(53.894531 0)"/>
      <use xlink:href="#DejaVuSans-72" transform="translate(115.076172 0)"/>
      <use xlink:href="#DejaVuSans-63" transform="translate(153.939453 0)"/>
      <use xlink:href="#DejaVuSans-69" transform="translate(208.919922 0)"/>
      <use xlink:href="#DejaVuSans-6e" transform="translate(236.703125 0)"/>
      <use xlink:href="#DejaVuSans-67" transform="translate(300.082031 0)"/>
      <use xlink:href="#DejaVuSans-20" transform="translate(363.558594 0)"/>
      <use xlink:href="#DejaVuSans-46" transform="translate(395.345703 0)"/>
      <use xlink:href="#DejaVuSans-75" transform="translate(447.365234 0)"/>
      <use xlink:href="#DejaVuSans-6e" transform="translate(510.744141 0)"/>
      <use xlink:href="#DejaVuSans-63" transform="translate(574.123047 0)"/>
      <use xlink:href="#DejaVuSans-74" transform="translate(629.103516 0)"/>
      <use xlink:href="#DejaVuSans-69" transform="translate(668.3125 0)"/>
      <use xlink:href="#DejaVuSans-6f" transform="translate(696.095703 0)"/>
      <use xlink:href="#DejaVuSans-6e" transform="translate(757.277344 0)"/>
     </g>
    </g>
   </g>
   <g id="line2d_39">
    <path d="M 58.523438 58.999219 
L 60.532238 33.279533 
L 61.558958 22.795152 
L 62.362478 16.64924 
L 62.987438 13.348506 
L 63.478478 11.740131 
L 63.880238 11.093936 
L 64.148078 11.003009 
L 64.415918 11.184806 
L 64.728398 11.740131 
L 65.130158 12.990173 
L 65.621198 15.314132 
L 66.246158 19.469654 
L 67.005038 26.140958 
L 67.987118 36.939385 
L 69.460238 55.985274 
L 71.736878 85.226147 
L 72.763598 95.596459 
L 73.567118 101.629768 
L 74.192078 104.832717 
L 74.683118 106.360144 
L 75.040238 106.904502 
L 75.308078 106.995429 
L 75.575918 106.813632 
L 75.888398 106.258307 
L 76.290158 105.008265 
L 76.781198 102.684305 
L 77.406158 98.528783 
L 78.165038 91.85748 
L 79.147118 81.059052 
L 80.620238 62.013164 
L 82.896878 32.77229 
L 83.923598 22.401978 
L 84.727118 16.368669 
L 85.352078 13.165721 
L 85.843118 11.638293 
L 86.200238 11.093936 
L 86.468078 11.003009 
L 86.735917 11.184806 
L 87.048398 11.740131 
L 87.450158 12.990173 
L 87.941198 15.314132 
L 88.566158 19.469654 
L 89.325038 26.140958 
L 90.307118 36.939385 
L 91.780237 55.985274 
L 94.056878 85.226147 
L 95.083598 95.596459 
L 95.887118 101.629768 
L 96.512078 104.832717 
L 97.003118 106.360144 
L 97.360238 106.904502 
L 97.628078 106.995429 
L 97.895918 106.813632 
L 98.208398 106.258307 
L 98.610158 105.008265 
L 99.101198 102.684305 
L 99.726157 98.528783 
L 100.485038 91.85748 
L 101.467118 81.059052 
L 102.940238 62.013164 
L 105.216878 32.77229 
L 106.243598 22.401978 
L 107.047118 16.368669 
L 107.672078 13.165721 
L 108.163118 11.638293 
L 108.520238 11.093936 
L 108.788078 11.003009 
L 109.055918 11.184806 
L 109.368398 11.740131 
L 109.770158 12.990173 
L 110.261198 15.314132 
L 110.886158 19.469654 
L 111.645038 26.140958 
L 112.627117 36.939385 
L 114.100238 55.985274 
L 116.376878 85.226147 
L 117.403598 95.596459 
L 118.207118 101.629768 
L 118.832077 104.832717 
L 119.323118 106.360144 
L 119.680238 106.904502 
L 119.948078 106.995429 
L 120.215918 106.813632 
L 120.528398 106.258307 
L 120.930158 105.008265 
L 121.421198 102.684305 
L 122.046158 98.528783 
L 122.805037 91.85748 
L 123.787117 81.059052 
L 125.260238 62.013164 
L 127.536878 32.77229 
L 128.563598 22.401978 
L 129.367118 16.368669 
L 129.992077 13.165721 
L 130.483118 11.638293 
L 130.840238 11.093936 
L 131.108078 11.003009 
L 131.375918 11.184806 
L 131.688398 11.740131 
L 132.090158 12.990173 
L 132.581198 15.314132 
L 133.206158 19.469654 
L 133.965037 26.140958 
L 134.947118 36.939385 
L 136.420238 55.985274 
L 138.696877 85.226147 
L 139.723598 95.596459 
L 140.527118 101.629768 
L 141.152078 104.832717 
L 141.643118 106.360144 
L 142.000238 106.904502 
L 142.268078 106.995429 
L 142.535918 106.813632 
L 142.848398 106.258307 
L 143.250158 105.008265 
L 143.741197 102.684305 
L 144.366158 98.528783 
L 145.125038 91.85748 
L 146.107118 81.059052 
L 147.580238 62.013164 
L 149.856878 32.77229 
L 150.883598 22.401978 
L 151.687118 16.368669 
L 152.312078 13.165721 
L 152.803118 11.638293 
L 153.160238 11.093936 
L 153.428078 11.003009 
L 153.695918 11.184806 
L 154.008398 11.740131 
L 154.410158 12.990173 
L 154.901198 15.314132 
L 155.526158 19.469654 
L 156.285038 26.140958 
L 157.267118 36.939385 
L 158.740238 55.985274 
L 161.016878 85.226147 
L 162.043598 95.596459 
L 162.847118 101.629768 
L 163.472078 104.832717 
L 163.963118 106.360144 
L 164.320238 106.904502 
L 164.588077 106.995429 
L 164.855918 106.813632 
L 165.168398 106.258307 
L 165.570158 105.008265 
L 166.061198 102.684305 
L 166.686158 98.528783 
L 167.445038 91.85748 
L 168.427118 81.059052 
L 169.900238 62.013164 
L 172.176878 32.77229 
L 173.203598 22.401978 
L 174.007118 16.368669 
L 174.632078 13.165721 
L 175.123118 11.638293 
L 175.480238 11.093936 
L 175.748077 11.003009 
L 176.015918 11.184806 
L 176.328398 11.740131 
L 176.730158 12.990173 
L 177.221198 15.314132 
L 177.846158 19.469654 
L 178.605038 26.140958 
L 179.587118 36.939385 
L 181.060237 55.985274 
L 183.336878 85.226147 
L 184.363597 95.596459 
L 185.167118 101.629768 
L 185.792078 104.832717 
L 186.283118 106.360144 
L 186.640238 106.904502 
L 186.908077 106.995429 
L 187.175917 106.813632 
L 187.488398 106.258307 
L 187.890158 105.008265 
L 188.381198 102.684305 
L 189.006158 98.528783 
L 189.765038 91.85748 
L 190.747118 81.059052 
L 192.220237 62.013164 
L 194.496878 32.77229 
L 195.523597 22.401978 
L 196.327118 16.368669 
L 196.952078 13.165721 
L 197.443117 11.638293 
L 197.800238 11.093936 
L 198.068077 11.003009 
L 198.335917 11.184806 
L 198.648398 11.740131 
L 199.050158 12.990173 
L 199.541198 15.314132 
L 200.166157 19.469654 
L 200.925038 26.140958 
L 201.907117 36.939385 
L 203.380237 55.985274 
L 205.656878 85.226147 
L 206.683597 95.596459 
L 207.487118 101.629768 
L 208.112077 104.832717 
L 208.603117 106.360144 
L 208.960238 106.904502 
L 209.228077 106.995429 
L 209.495918 106.813632 
L 209.808398 106.258307 
L 210.210158 105.008265 
L 210.701198 102.684305 
L 211.326157 98.528783 
L 212.085037 91.85748 
L 213.067118 81.059052 
L 214.540238 62.013164 
L 216.816878 32.77229 
L 217.843597 22.401978 
L 218.647118 16.368669 
L 219.272077 13.165721 
L 219.763117 11.638293 
L 220.120238 11.093936 
L 220.388078 11.003009 
L 220.655918 11.184806 
L 220.968398 11.740131 
L 221.370158 12.990173 
L 221.861198 15.314132 
L 222.486157 19.469654 
L 223.245037 26.140958 
L 224.227118 36.939385 
L 225.700238 55.985274 
L 227.976878 85.226147 
L 229.003598 95.596459 
L 229.807118 101.629768 
L 230.432077 104.832717 
L 230.923118 106.360144 
L 231.280237 106.904502 
L 231.548078 106.995429 
L 231.815918 106.813632 
L 232.128398 106.258307 
L 232.530158 105.008265 
L 233.021197 102.684305 
L 233.646158 98.528783 
L 234.405037 91.85748 
L 235.387118 81.059052 
L 236.860238 62.013164 
L 239.136878 32.77229 
L 240.163598 22.401978 
L 240.967118 16.368669 
L 241.592077 13.165721 
L 242.083118 11.638293 
L 242.440237 11.093936 
L 242.708078 11.003009 
L 242.975917 11.184806 
L 243.288398 11.740131 
L 243.690157 12.990173 
L 244.181197 15.314132 
L 244.806158 19.469654 
L 245.565038 26.140958 
L 246.547117 36.939385 
L 248.020238 55.985274 
L 250.296878 85.226147 
L 251.323598 95.596459 
L 252.127117 101.629768 
L 252.752078 104.832717 
L 253.243118 106.360144 
L 253.600238 106.904502 
L 253.868078 106.995429 
L 254.135917 106.813632 
L 254.448398 106.258307 
L 254.850157 105.008265 
L 255.341197 102.684305 
L 255.966158 98.528783 
L 256.725038 91.85748 
L 257.707117 81.059052 
L 259.180238 62.013164 
L 261.456878 32.77229 
L 262.483598 22.401978 
L 263.287118 16.368669 
L 263.912078 13.165721 
L 264.403118 11.638293 
L 264.760238 11.093936 
L 265.028078 11.003009 
L 265.295918 11.184806 
L 265.608398 11.740131 
L 266.010157 12.990173 
L 266.501197 15.314132 
L 267.126158 19.469654 
L 267.885038 26.140958 
L 268.867118 36.939385 
L 270.340238 55.985274 
L 272.616878 85.226147 
L 273.643597 95.596459 
L 274.447117 101.629768 
L 275.072078 104.832717 
L 275.563118 106.360144 
L 275.920238 106.904502 
L 276.188078 106.995429 
L 276.455917 106.813632 
L 276.768398 106.258307 
L 277.170158 105.008265 
L 277.661198 102.684305 
L 278.286158 98.528783 
L 279.045038 91.85748 
L 280.027118 81.059052 
L 281.500238 62.013164 
L 283.776878 32.77229 
L 284.803598 22.401978 
L 285.607118 16.368669 
L 286.232078 13.165721 
L 286.723118 11.638293 
L 287.080238 11.093936 
L 287.348078 11.003009 
L 287.615918 11.184806 
L 287.928398 11.740131 
L 288.330157 12.990173 
L 288.821197 15.314132 
L 289.446158 19.469654 
L 290.205038 26.140958 
L 291.187117 36.939385 
L 292.660237 55.985274 
L 294.936878 85.226147 
L 295.963597 95.596459 
L 296.767117 101.629768 
L 297.392078 104.832717 
L 297.883118 106.360144 
L 298.240238 106.904502 
L 298.508078 106.995429 
L 298.775917 106.813632 
L 299.088398 106.258307 
L 299.490158 105.008265 
L 299.981198 102.684305 
L 300.606157 98.528783 
L 301.365038 91.85748 
L 302.347118 81.059052 
L 303.820238 62.013164 
L 306.096878 32.77229 
L 307.123598 22.401978 
L 307.927118 16.368669 
L 308.552077 13.165721 
L 309.043117 11.638293 
L 309.400238 11.093936 
L 309.668078 11.003009 
L 309.935918 11.184806 
L 310.248398 11.740131 
L 310.650157 12.990173 
L 311.141198 15.314132 
L 311.766158 19.469654 
L 312.525038 26.140958 
L 313.507117 36.939385 
L 314.980237 55.985274 
L 317.256878 85.226147 
L 318.283597 95.596459 
L 319.087117 101.629768 
L 319.712078 104.832717 
L 320.203118 106.360144 
L 320.560238 106.904502 
L 320.828078 106.995429 
L 321.095918 106.813632 
L 321.408398 106.258307 
L 321.810158 105.008265 
L 322.301198 102.684305 
L 322.926157 98.528783 
L 323.685038 91.85748 
L 324.667118 81.059052 
L 326.140238 62.013164 
L 328.416877 32.77229 
L 329.443598 22.401978 
L 330.247118 16.368669 
L 330.872077 13.165721 
L 331.363117 11.638293 
L 331.720237 11.093936 
L 331.988078 11.003009 
L 332.255918 11.184806 
L 332.568398 11.740131 
L 332.970157 12.990173 
L 333.461197 15.314132 
L 334.086158 19.469654 
L 334.845038 26.140958 
L 335.827117 36.939385 
L 337.300237 55.985274 
L 339.576878 85.226147 
L 340.603597 95.596459 
L 341.407117 101.629768 
L 342.032078 104.832717 
L 342.523118 106.360144 
L 342.880238 106.904502 
L 343.148077 106.995429 
L 343.415918 106.813632 
L 343.728398 106.258307 
L 344.130158 105.008265 
L 344.621197 102.684305 
L 345.246157 98.528783 
L 346.005038 91.85748 
L 346.987118 81.059052 
L 348.460238 62.013164 
L 350.736877 32.77229 
L 351.763598 22.401978 
L 352.567117 16.368669 
L 353.192077 13.165721 
L 353.683117 11.638293 
L 354.040237 11.093936 
L 354.308078 11.003009 
L 354.575918 11.184806 
L 354.888397 11.740131 
L 355.290158 12.990173 
L 355.781198 15.314132 
L 356.406158 19.469654 
L 357.165038 26.140958 
L 358.147117 36.939385 
L 359.620238 55.985274 
L 361.896878 85.226147 
L 362.923598 95.596459 
L 363.727118 101.629768 
L 364.352078 104.832717 
L 364.843118 106.360144 
L 365.200238 106.904502 
L 365.468077 106.995429 
L 365.735918 106.813632 
L 366.048398 106.258307 
L 366.450158 105.008265 
L 366.941197 102.684305 
L 367.566158 98.528783 
L 368.325038 91.85748 
L 369.307118 81.059052 
L 370.780237 62.013164 
L 373.056878 32.77229 
L 374.083597 22.401978 
L 374.887117 16.368669 
L 375.512077 13.165721 
L 376.003118 11.638293 
L 376.360237 11.093936 
L 376.628078 11.003009 
L 376.895918 11.184806 
L 377.208397 11.740131 
L 377.610158 12.990173 
L 378.101198 15.314132 
L 378.726157 19.469654 
L 379.485038 26.140958 
L 380.467117 36.939385 
L 381.940238 55.985274 
L 384.216878 85.226147 
L 385.243598 95.596459 
L 386.047118 101.629768 
L 386.672078 104.832717 
L 387.163117 106.360144 
L 387.520238 106.904502 
L 387.788078 106.995429 
L 388.055918 106.813632 
L 388.368398 106.258307 
L 388.770158 105.008265 
L 389.261197 102.684305 
L 389.886158 98.528783 
L 390.645038 91.85748 
L 391.627117 81.059052 
L 393.100237 62.013164 
L 393.323438 58.999219 
L 393.323438 58.999219 
" clip-path="url(#pce862344f7)" style="fill: none; stroke: #1f77b4; stroke-width: 1.5; stroke-linecap: square"/>
   </g>
   <g id="patch_3">
    <path d="M 58.523438 109.399219 
L 58.523438 8.599219 
" style="fill: none"/>
   </g>
   <g id="patch_4">
    <path d="M 393.323438 109.399219 
L 393.323438 8.599219 
" style="fill: none"/>
   </g>
   <g id="patch_5">
    <path d="M 58.523438 58.999219 
L 393.323438 58.999219 
" style="fill: none; stroke: #000000; stroke-width: 0.8; stroke-linejoin: miter; stroke-linecap: square"/>
   </g>
   <g id="patch_6">
    <path d="M 58.523438 8.599219 
L 393.323438 8.599219 
" style="fill: none"/>
   </g>
  </g>
  <g id="axes_2">
   <g id="patch_7">
    <path d="M 58.523438 230.359219 
L 393.323438 230.359219 
L 393.323438 129.559219 
L 58.523438 129.559219 
z
" style="fill: #ffffff"/>
   </g>
   <g id="matplotlib.axis_3">
    <g id="xtick_17">
     <g id="line2d_40">
      <path d="M 58.523438 230.359219 
L 58.523438 129.559219 
" clip-path="url(#pb47f8b8aab)" style="fill: none; stroke: #b0b0b0; stroke-width: 0.8; stroke-linecap: square"/>
     </g>
     <g id="line2d_41">
      <g>
       <use xlink:href="#m05dc7836e4" x="58.523438" y="230.359219" style="stroke: #000000; stroke-width: 0.8"/>
      </g>
     </g>
     <g id="text_5">
      <!-- 0 -->
      <g transform="translate(55.342188 244.957656) scale(0.1 -0.1)">
       <use xlink:href="#DejaVuSans-30"/>
      </g>
     </g>
    </g>
    <g id="xtick_18">
     <g id="line2d_42">
      <path d="M 80.843438 230.359219 
L 80.843438 129.559219 
" clip-path="url(#pb47f8b8aab)" style="fill: none; stroke: #b0b0b0; stroke-width: 0.8; stroke-linecap: square"/>
     </g>
     <g id="line2d_43">
      <g>
       <use xlink:href="#m05dc7836e4" x="80.843438" y="230.359219" style="stroke: #000000; stroke-width: 0.8"/>
      </g>
     </g>
     <g id="text_6">
      <!-- 1 -->
      <g transform="translate(77.662188 244.957656) scale(0.1 -0.1)">
       <use xlink:href="#DejaVuSans-31"/>
      </g>
     </g>
    </g>
    <g id="xtick_19">
     <g id="line2d_44">
      <path d="M 103.163438 230.359219 
L 103.163438 129.559219 
" clip-path="url(#pb47f8b8aab)" style="fill: none; stroke: #b0b0b0; stroke-width: 0.8; stroke-linecap: square"/>
     </g>
     <g id="line2d_45">
      <g>
       <use xlink:href="#m05dc7836e4" x="103.163438" y="230.359219" style="stroke: #000000; stroke-width: 0.8"/>
      </g>
     </g>
     <g id="text_7">
      <!-- 2 -->
      <g transform="translate(99.982188 244.957656) scale(0.1 -0.1)">
       <defs>
        <path id="DejaVuSans-32" d="M 1228 531 
L 3431 531 
L 3431 0 
L 469 0 
L 469 531 
Q 828 903 1448 1529 
Q 2069 2156 2228 2338 
Q 2531 2678 2651 2914 
Q 2772 3150 2772 3378 
Q 2772 3750 2511 3984 
Q 2250 4219 1831 4219 
Q 1534 4219 1204 4116 
Q 875 4013 500 3803 
L 500 4441 
Q 881 4594 1212 4672 
Q 1544 4750 1819 4750 
Q 2544 4750 2975 4387 
Q 3406 4025 3406 3419 
Q 3406 3131 3298 2873 
Q 3191 2616 2906 2266 
Q 2828 2175 2409 1742 
Q 1991 1309 1228 531 
z
" transform="scale(0.015625)"/>
       </defs>
       <use xlink:href="#DejaVuSans-32"/>
      </g>
     </g>
    </g>
    <g id="xtick_20">
     <g id="line2d_46">
      <path d="M 125.483438 230.359219 
L 125.483438 129.559219 
" clip-path="url(#pb47f8b8aab)" style="fill: none; stroke: #b0b0b0; stroke-width: 0.8; stroke-linecap: square"/>
     </g>
     <g id="line2d_47">
      <g>
       <use xlink:href="#m05dc7836e4" x="125.483438" y="230.359219" style="stroke: #000000; stroke-width: 0.8"/>
      </g>
     </g>
     <g id="text_8">
      <!-- 3 -->
      <g transform="translate(122.302188 244.957656) scale(0.1 -0.1)">
       <defs>
        <path id="DejaVuSans-33" d="M 2597 2516 
Q 3050 2419 3304 2112 
Q 3559 1806 3559 1356 
Q 3559 666 3084 287 
Q 2609 -91 1734 -91 
Q 1441 -91 1130 -33 
Q 819 25 488 141 
L 488 750 
Q 750 597 1062 519 
Q 1375 441 1716 441 
Q 2309 441 2620 675 
Q 2931 909 2931 1356 
Q 2931 1769 2642 2001 
Q 2353 2234 1838 2234 
L 1294 2234 
L 1294 2753 
L 1863 2753 
Q 2328 2753 2575 2939 
Q 2822 3125 2822 3475 
Q 2822 3834 2567 4026 
Q 2313 4219 1838 4219 
Q 1578 4219 1281 4162 
Q 984 4106 628 3988 
L 628 4550 
Q 988 4650 1302 4700 
Q 1616 4750 1894 4750 
Q 2613 4750 3031 4423 
Q 3450 4097 3450 3541 
Q 3450 3153 3228 2886 
Q 3006 2619 2597 2516 
z
" transform="scale(0.015625)"/>
       </defs>
       <use xlink:href="#DejaVuSans-33"/>
      </g>
     </g>
    </g>
    <g id="xtick_21">
     <g id="line2d_48">
      <path d="M 147.803438 230.359219 
L 147.803438 129.559219 
" clip-path="url(#pb47f8b8aab)" style="fill: none; stroke: #b0b0b0; stroke-width: 0.8; stroke-linecap: square"/>
     </g>
     <g id="line2d_49">
      <g>
       <use xlink:href="#m05dc7836e4" x="147.803438" y="230.359219" style="stroke: #000000; stroke-width: 0.8"/>
      </g>
     </g>
     <g id="text_9">
      <!-- 4 -->
      <g transform="translate(144.622187 244.957656) scale(0.1 -0.1)">
       <defs>
        <path id="DejaVuSans-34" d="M 2419 4116 
L 825 1625 
L 2419 1625 
L 2419 4116 
z
M 2253 4666 
L 3047 4666 
L 3047 1625 
L 3713 1625 
L 3713 1100 
L 3047 1100 
L 3047 0 
L 2419 0 
L 2419 1100 
L 313 1100 
L 313 1709 
L 2253 4666 
z
" transform="scale(0.015625)"/>
       </defs>
       <use xlink:href="#DejaVuSans-34"/>
      </g>
     </g>
    </g>
    <g id="xtick_22">
     <g id="line2d_50">
      <path d="M 170.123437 230.359219 
L 170.123437 129.559219 
" clip-path="url(#pb47f8b8aab)" style="fill: none; stroke: #b0b0b0; stroke-width: 0.8; stroke-linecap: square"/>
     </g>
     <g id="line2d_51">
      <g>
       <use xlink:href="#m05dc7836e4" x="170.123437" y="230.359219" style="stroke: #000000; stroke-width: 0.8"/>
      </g>
     </g>
     <g id="text_10">
      <!-- 5 -->
      <g transform="translate(166.942187 244.957656) scale(0.1 -0.1)">
       <defs>
        <path id="DejaVuSans-35" d="M 691 4666 
L 3169 4666 
L 3169 4134 
L 1269 4134 
L 1269 2991 
Q 1406 3038 1543 3061 
Q 1681 3084 1819 3084 
Q 2600 3084 3056 2656 
Q 3513 2228 3513 1497 
Q 3513 744 3044 326 
Q 2575 -91 1722 -91 
Q 1428 -91 1123 -41 
Q 819 9 494 109 
L 494 744 
Q 775 591 1075 516 
Q 1375 441 1709 441 
Q 2250 441 2565 725 
Q 2881 1009 2881 1497 
Q 2881 1984 2565 2268 
Q 2250 2553 1709 2553 
Q 1456 2553 1204 2497 
Q 953 2441 691 2322 
L 691 4666 
z
" transform="scale(0.015625)"/>
       </defs>
       <use xlink:href="#DejaVuSans-35"/>
      </g>
     </g>
    </g>
    <g id="xtick_23">
     <g id="line2d_52">
      <path d="M 192.443438 230.359219 
L 192.443438 129.559219 
" clip-path="url(#pb47f8b8aab)" style="fill: none; stroke: #b0b0b0; stroke-width: 0.8; stroke-linecap: square"/>
     </g>
     <g id="line2d_53">
      <g>
       <use xlink:href="#m05dc7836e4" x="192.443438" y="230.359219" style="stroke: #000000; stroke-width: 0.8"/>
      </g>
     </g>
     <g id="text_11">
      <!-- 6 -->
      <g transform="translate(189.262188 244.957656) scale(0.1 -0.1)">
       <defs>
        <path id="DejaVuSans-36" d="M 2113 2584 
Q 1688 2584 1439 2293 
Q 1191 2003 1191 1497 
Q 1191 994 1439 701 
Q 1688 409 2113 409 
Q 2538 409 2786 701 
Q 3034 994 3034 1497 
Q 3034 2003 2786 2293 
Q 2538 2584 2113 2584 
z
M 3366 4563 
L 3366 3988 
Q 3128 4100 2886 4159 
Q 2644 4219 2406 4219 
Q 1781 4219 1451 3797 
Q 1122 3375 1075 2522 
Q 1259 2794 1537 2939 
Q 1816 3084 2150 3084 
Q 2853 3084 3261 2657 
Q 3669 2231 3669 1497 
Q 3669 778 3244 343 
Q 2819 -91 2113 -91 
Q 1303 -91 875 529 
Q 447 1150 447 2328 
Q 447 3434 972 4092 
Q 1497 4750 2381 4750 
Q 2619 4750 2861 4703 
Q 3103 4656 3366 4563 
z
" transform="scale(0.015625)"/>
       </defs>
       <use xlink:href="#DejaVuSans-36"/>
      </g>
     </g>
    </g>
    <g id="xtick_24">
     <g id="line2d_54">
      <path d="M 214.763438 230.359219 
L 214.763438 129.559219 
" clip-path="url(#pb47f8b8aab)" style="fill: none; stroke: #b0b0b0; stroke-width: 0.8; stroke-linecap: square"/>
     </g>
     <g id="line2d_55">
      <g>
       <use xlink:href="#m05dc7836e4" x="214.763438" y="230.359219" style="stroke: #000000; stroke-width: 0.8"/>
      </g>
     </g>
     <g id="text_12">
      <!-- 7 -->
      <g transform="translate(211.582188 244.957656) scale(0.1 -0.1)">
       <defs>
        <path id="DejaVuSans-37" d="M 525 4666 
L 3525 4666 
L 3525 4397 
L 1831 0 
L 1172 0 
L 2766 4134 
L 525 4134 
L 525 4666 
z
" transform="scale(0.015625)"/>
       </defs>
       <use xlink:href="#DejaVuSans-37"/>
      </g>
     </g>
    </g>
    <g id="xtick_25">
     <g id="line2d_56">
      <path d="M 237.083438 230.359219 
L 237.083438 129.559219 
" clip-path="url(#pb47f8b8aab)" style="fill: none; stroke: #b0b0b0; stroke-width: 0.8; stroke-linecap: square"/>
     </g>
     <g id="line2d_57">
      <g>
       <use xlink:href="#m05dc7836e4" x="237.083438" y="230.359219" style="stroke: #000000; stroke-width: 0.8"/>
      </g>
     </g>
     <g id="text_13">
      <!-- 8 -->
      <g transform="translate(233.902187 244.957656) scale(0.1 -0.1)">
       <defs>
        <path id="DejaVuSans-38" d="M 2034 2216 
Q 1584 2216 1326 1975 
Q 1069 1734 1069 1313 
Q 1069 891 1326 650 
Q 1584 409 2034 409 
Q 2484 409 2743 651 
Q 3003 894 3003 1313 
Q 3003 1734 2745 1975 
Q 2488 2216 2034 2216 
z
M 1403 2484 
Q 997 2584 770 2862 
Q 544 3141 544 3541 
Q 544 4100 942 4425 
Q 1341 4750 2034 4750 
Q 2731 4750 3128 4425 
Q 3525 4100 3525 3541 
Q 3525 3141 3298 2862 
Q 3072 2584 2669 2484 
Q 3125 2378 3379 2068 
Q 3634 1759 3634 1313 
Q 3634 634 3220 271 
Q 2806 -91 2034 -91 
Q 1263 -91 848 271 
Q 434 634 434 1313 
Q 434 1759 690 2068 
Q 947 2378 1403 2484 
z
M 1172 3481 
Q 1172 3119 1398 2916 
Q 1625 2713 2034 2713 
Q 2441 2713 2670 2916 
Q 2900 3119 2900 3481 
Q 2900 3844 2670 4047 
Q 2441 4250 2034 4250 
Q 1625 4250 1398 4047 
Q 1172 3844 1172 3481 
z
" transform="scale(0.015625)"/>
       </defs>
       <use xlink:href="#DejaVuSans-38"/>
      </g>
     </g>
    </g>
    <g id="xtick_26">
     <g id="line2d_58">
      <path d="M 259.403437 230.359219 
L 259.403437 129.559219 
" clip-path="url(#pb47f8b8aab)" style="fill: none; stroke: #b0b0b0; stroke-width: 0.8; stroke-linecap: square"/>
     </g>
     <g id="line2d_59">
      <g>
       <use xlink:href="#m05dc7836e4" x="259.403437" y="230.359219" style="stroke: #000000; stroke-width: 0.8"/>
      </g>
     </g>
     <g id="text_14">
      <!-- 9 -->
      <g transform="translate(256.222188 244.957656) scale(0.1 -0.1)">
       <defs>
        <path id="DejaVuSans-39" d="M 703 97 
L 703 672 
Q 941 559 1184 500 
Q 1428 441 1663 441 
Q 2288 441 2617 861 
Q 2947 1281 2994 2138 
Q 2813 1869 2534 1725 
Q 2256 1581 1919 1581 
Q 1219 1581 811 2004 
Q 403 2428 403 3163 
Q 403 3881 828 4315 
Q 1253 4750 1959 4750 
Q 2769 4750 3195 4129 
Q 3622 3509 3622 2328 
Q 3622 1225 3098 567 
Q 2575 -91 1691 -91 
Q 1453 -91 1209 -44 
Q 966 3 703 97 
z
M 1959 2075 
Q 2384 2075 2632 2365 
Q 2881 2656 2881 3163 
Q 2881 3666 2632 3958 
Q 2384 4250 1959 4250 
Q 1534 4250 1286 3958 
Q 1038 3666 1038 3163 
Q 1038 2656 1286 2365 
Q 1534 2075 1959 2075 
z
" transform="scale(0.015625)"/>
       </defs>
       <use xlink:href="#DejaVuSans-39"/>
      </g>
     </g>
    </g>
    <g id="xtick_27">
     <g id="line2d_60">
      <path d="M 281.723437 230.359219 
L 281.723437 129.559219 
" clip-path="url(#pb47f8b8aab)" style="fill: none; stroke: #b0b0b0; stroke-width: 0.8; stroke-linecap: square"/>
     </g>
     <g id="line2d_61">
      <g>
       <use xlink:href="#m05dc7836e4" x="281.723437" y="230.359219" style="stroke: #000000; stroke-width: 0.8"/>
      </g>
     </g>
     <g id="text_15">
      <!-- 10 -->
      <g transform="translate(275.360937 244.957656) scale(0.1 -0.1)">
       <use xlink:href="#DejaVuSans-31"/>
       <use xlink:href="#DejaVuSans-30" transform="translate(63.623047 0)"/>
      </g>
     </g>
    </g>
    <g id="xtick_28">
     <g id="line2d_62">
      <path d="M 304.043438 230.359219 
L 304.043438 129.559219 
" clip-path="url(#pb47f8b8aab)" style="fill: none; stroke: #b0b0b0; stroke-width: 0.8; stroke-linecap: square"/>
     </g>
     <g id="line2d_63">
      <g>
       <use xlink:href="#m05dc7836e4" x="304.043438" y="230.359219" style="stroke: #000000; stroke-width: 0.8"/>
      </g>
     </g>
     <g id="text_16">
      <!-- 11 -->
      <g transform="translate(297.680938 244.957656) scale(0.1 -0.1)">
       <use xlink:href="#DejaVuSans-31"/>
       <use xlink:href="#DejaVuSans-31" transform="translate(63.623047 0)"/>
      </g>
     </g>
    </g>
    <g id="xtick_29">
     <g id="line2d_64">
      <path d="M 326.363438 230.359219 
L 326.363438 129.559219 
" clip-path="url(#pb47f8b8aab)" style="fill: none; stroke: #b0b0b0; stroke-width: 0.8; stroke-linecap: square"/>
     </g>
     <g id="line2d_65">
      <g>
       <use xlink:href="#m05dc7836e4" x="326.363438" y="230.359219" style="stroke: #000000; stroke-width: 0.8"/>
      </g>
     </g>
     <g id="text_17">
      <!-- 12 -->
      <g transform="translate(320.000938 244.957656) scale(0.1 -0.1)">
       <use xlink:href="#DejaVuSans-31"/>
       <use xlink:href="#DejaVuSans-32" transform="translate(63.623047 0)"/>
      </g>
     </g>
    </g>
    <g id="xtick_30">
     <g id="line2d_66">
      <path d="M 348.683438 230.359219 
L 348.683438 129.559219 
" clip-path="url(#pb47f8b8aab)" style="fill: none; stroke: #b0b0b0; stroke-width: 0.8; stroke-linecap: square"/>
     </g>
     <g id="line2d_67">
      <g>
       <use xlink:href="#m05dc7836e4" x="348.683438" y="230.359219" style="stroke: #000000; stroke-width: 0.8"/>
      </g>
     </g>
     <g id="text_18">
      <!-- 13 -->
      <g transform="translate(342.320938 244.957656) scale(0.1 -0.1)">
       <use xlink:href="#DejaVuSans-31"/>
       <use xlink:href="#DejaVuSans-33" transform="translate(63.623047 0)"/>
      </g>
     </g>
    </g>
    <g id="xtick_31">
     <g id="line2d_68">
      <path d="M 371.003438 230.359219 
L 371.003438 129.559219 
" clip-path="url(#pb47f8b8aab)" style="fill: none; stroke: #b0b0b0; stroke-width: 0.8; stroke-linecap: square"/>
     </g>
     <g id="line2d_69">
      <g>
       <use xlink:href="#m05dc7836e4" x="371.003438" y="230.359219" style="stroke: #000000; stroke-width: 0.8"/>
      </g>
     </g>
     <g id="text_19">
      <!-- 14 -->
      <g transform="translate(364.640938 244.957656) scale(0.1 -0.1)">
       <use xlink:href="#DejaVuSans-31"/>
       <use xlink:href="#DejaVuSans-34" transform="translate(63.623047 0)"/>
      </g>
     </g>
    </g>
    <g id="xtick_32">
     <g id="line2d_70">
      <path d="M 393.323438 230.359219 
L 393.323438 129.559219 
" clip-path="url(#pb47f8b8aab)" style="fill: none; stroke: #b0b0b0; stroke-width: 0.8; stroke-linecap: square"/>
     </g>
     <g id="line2d_71">
      <g>
       <use xlink:href="#m05dc7836e4" x="393.323438" y="230.359219" style="stroke: #000000; stroke-width: 0.8"/>
      </g>
     </g>
     <g id="text_20">
      <!-- 15 -->
      <g transform="translate(386.960938 244.957656) scale(0.1 -0.1)">
       <use xlink:href="#DejaVuSans-31"/>
       <use xlink:href="#DejaVuSans-35" transform="translate(63.623047 0)"/>
      </g>
     </g>
    </g>
    <g id="text_21">
     <!-- Time -->
     <g transform="translate(213.689844 258.635781) scale(0.1 -0.1)">
      <defs>
       <path id="DejaVuSans-54" d="M -19 4666 
L 3928 4666 
L 3928 4134 
L 2272 4134 
L 2272 0 
L 1638 0 
L 1638 4134 
L -19 4134 
L -19 4666 
z
" transform="scale(0.015625)"/>
       <path id="DejaVuSans-6d" d="M 3328 2828 
Q 3544 3216 3844 3400 
Q 4144 3584 4550 3584 
Q 5097 3584 5394 3201 
Q 5691 2819 5691 2113 
L 5691 0 
L 5113 0 
L 5113 2094 
Q 5113 2597 4934 2840 
Q 4756 3084 4391 3084 
Q 3944 3084 3684 2787 
Q 3425 2491 3425 1978 
L 3425 0 
L 2847 0 
L 2847 2094 
Q 2847 2600 2669 2842 
Q 2491 3084 2119 3084 
Q 1678 3084 1418 2786 
Q 1159 2488 1159 1978 
L 1159 0 
L 581 0 
L 581 3500 
L 1159 3500 
L 1159 2956 
Q 1356 3278 1631 3431 
Q 1906 3584 2284 3584 
Q 2666 3584 2933 3390 
Q 3200 3197 3328 2828 
z
" transform="scale(0.015625)"/>
       <path id="DejaVuSans-65" d="M 3597 1894 
L 3597 1613 
L 953 1613 
Q 991 1019 1311 708 
Q 1631 397 2203 397 
Q 2534 397 2845 478 
Q 3156 559 3463 722 
L 3463 178 
Q 3153 47 2828 -22 
Q 2503 -91 2169 -91 
Q 1331 -91 842 396 
Q 353 884 353 1716 
Q 353 2575 817 3079 
Q 1281 3584 2069 3584 
Q 2775 3584 3186 3129 
Q 3597 2675 3597 1894 
z
M 3022 2063 
Q 3016 2534 2758 2815 
Q 2500 3097 2075 3097 
Q 1594 3097 1305 2825 
Q 1016 2553 972 2059 
L 3022 2063 
z
" transform="scale(0.015625)"/>
      </defs>
      <use xlink:href="#DejaVuSans-54"/>
      <use xlink:href="#DejaVuSans-69" transform="translate(57.958984 0)"/>
      <use xlink:href="#DejaVuSans-6d" transform="translate(85.742188 0)"/>
      <use xlink:href="#DejaVuSans-65" transform="translate(183.154297 0)"/>
     </g>
    </g>
   </g>
   <g id="matplotlib.axis_4">
    <g id="ytick_4">
     <g id="line2d_72">
      <path d="M 58.523438 209.21834 
L 393.323438 209.21834 
" clip-path="url(#pb47f8b8aab)" style="fill: none; stroke: #b0b0b0; stroke-width: 0.8; stroke-linecap: square"/>
     </g>
     <g id="line2d_73">
      <g>
       <use xlink:href="#m8c19bdc536" x="58.523438" y="209.21834" style="stroke: #000000; stroke-width: 0.8"/>
      </g>
     </g>
     <g id="text_22">
      <!-- −0.05 -->
      <g transform="translate(20.878125 213.017559) scale(0.1 -0.1)">
       <defs>
        <path id="DejaVuSans-2e" d="M 684 794 
L 1344 794 
L 1344 0 
L 684 0 
L 684 794 
z
" transform="scale(0.015625)"/>
       </defs>
       <use xlink:href="#DejaVuSans-2212"/>
       <use xlink:href="#DejaVuSans-30" transform="translate(83.789062 0)"/>
       <use xlink:href="#DejaVuSans-2e" transform="translate(147.412109 0)"/>
       <use xlink:href="#DejaVuSans-30" transform="translate(179.199219 0)"/>
       <use xlink:href="#DejaVuSans-35" transform="translate(242.822266 0)"/>
      </g>
     </g>
    </g>
    <g id="ytick_5">
     <g id="line2d_74">
      <path d="M 58.523438 179.959219 
L 393.323438 179.959219 
" clip-path="url(#pb47f8b8aab)" style="fill: none; stroke: #b0b0b0; stroke-width: 0.8; stroke-linecap: square"/>
     </g>
     <g id="line2d_75">
      <g>
       <use xlink:href="#m8c19bdc536" x="58.523438" y="179.959219" style="stroke: #000000; stroke-width: 0.8"/>
      </g>
     </g>
     <g id="text_23">
      <!-- 0.00 -->
      <g transform="translate(29.257813 183.758437) scale(0.1 -0.1)">
       <use xlink:href="#DejaVuSans-30"/>
       <use xlink:href="#DejaVuSans-2e" transform="translate(63.623047 0)"/>
       <use xlink:href="#DejaVuSans-30" transform="translate(95.410156 0)"/>
       <use xlink:href="#DejaVuSans-30" transform="translate(159.033203 0)"/>
      </g>
     </g>
    </g>
    <g id="ytick_6">
     <g id="line2d_76">
      <path d="M 58.523438 150.700097 
L 393.323438 150.700097 
" clip-path="url(#pb47f8b8aab)" style="fill: none; stroke: #b0b0b0; stroke-width: 0.8; stroke-linecap: square"/>
     </g>
     <g id="line2d_77">
      <g>
       <use xlink:href="#m8c19bdc536" x="58.523438" y="150.700097" style="stroke: #000000; stroke-width: 0.8"/>
      </g>
     </g>
     <g id="text_24">
      <!-- 0.05 -->
      <g transform="translate(29.257813 154.499316) scale(0.1 -0.1)">
       <use xlink:href="#DejaVuSans-30"/>
       <use xlink:href="#DejaVuSans-2e" transform="translate(63.623047 0)"/>
       <use xlink:href="#DejaVuSans-30" transform="translate(95.410156 0)"/>
       <use xlink:href="#DejaVuSans-35" transform="translate(159.033203 0)"/>
      </g>
     </g>
    </g>
    <g id="text_25">
     <!-- Position -->
     <g transform="translate(14.798438 199.423281) rotate(-90) scale(0.1 -0.1)">
      <defs>
       <path id="DejaVuSans-50" d="M 1259 4147 
L 1259 2394 
L 2053 2394 
Q 2494 2394 2734 2622 
Q 2975 2850 2975 3272 
Q 2975 3691 2734 3919 
Q 2494 4147 2053 4147 
L 1259 4147 
z
M 628 4666 
L 2053 4666 
Q 2838 4666 3239 4311 
Q 3641 3956 3641 3272 
Q 3641 2581 3239 2228 
Q 2838 1875 2053 1875 
L 1259 1875 
L 1259 0 
L 628 0 
L 628 4666 
z
" transform="scale(0.015625)"/>
       <path id="DejaVuSans-73" d="M 2834 3397 
L 2834 2853 
Q 2591 2978 2328 3040 
Q 2066 3103 1784 3103 
Q 1356 3103 1142 2972 
Q 928 2841 928 2578 
Q 928 2378 1081 2264 
Q 1234 2150 1697 2047 
L 1894 2003 
Q 2506 1872 2764 1633 
Q 3022 1394 3022 966 
Q 3022 478 2636 193 
Q 2250 -91 1575 -91 
Q 1294 -91 989 -36 
Q 684 19 347 128 
L 347 722 
Q 666 556 975 473 
Q 1284 391 1588 391 
Q 1994 391 2212 530 
Q 2431 669 2431 922 
Q 2431 1156 2273 1281 
Q 2116 1406 1581 1522 
L 1381 1569 
Q 847 1681 609 1914 
Q 372 2147 372 2553 
Q 372 3047 722 3315 
Q 1072 3584 1716 3584 
Q 2034 3584 2315 3537 
Q 2597 3491 2834 3397 
z
" transform="scale(0.015625)"/>
      </defs>
      <use xlink:href="#DejaVuSans-50"/>
      <use xlink:href="#DejaVuSans-6f" transform="translate(56.677734 0)"/>
      <use xlink:href="#DejaVuSans-73" transform="translate(117.859375 0)"/>
      <use xlink:href="#DejaVuSans-69" transform="translate(169.958984 0)"/>
      <use xlink:href="#DejaVuSans-74" transform="translate(197.742188 0)"/>
      <use xlink:href="#DejaVuSans-69" transform="translate(236.951172 0)"/>
      <use xlink:href="#DejaVuSans-6f" transform="translate(264.734375 0)"/>
      <use xlink:href="#DejaVuSans-6e" transform="translate(325.916016 0)"/>
     </g>
    </g>
   </g>
   <g id="line2d_78">
    <path d="M 58.523438 179.959219 
L 60.085838 179.856589 
L 60.978638 179.574109 
L 61.826798 179.063214 
L 62.674958 178.284026 
L 63.657038 177.058378 
L 64.996238 174.979646 
L 67.049678 171.789671 
L 67.897838 170.876775 
L 68.567438 170.469559 
L 69.103118 170.389814 
L 69.594158 170.533646 
L 70.129838 170.945889 
L 70.710158 171.707159 
L 71.379758 172.997552 
L 72.138638 174.975466 
L 73.076078 178.089845 
L 74.370638 183.267427 
L 76.959758 193.780139 
L 77.852558 196.416719 
L 78.522158 197.769637 
L 79.057838 198.393143 
L 79.459598 198.567303 
L 79.816718 198.499759 
L 80.218478 198.166014 
L 80.664878 197.47008 
L 81.200558 196.18394 
L 81.825518 194.079304 
L 82.584398 190.713612 
L 83.566478 185.249421 
L 85.039598 175.581079 
L 87.093038 162.309854 
L 88.030478 157.631304 
L 88.744718 155.062032 
L 89.325038 153.734158 
L 89.771438 153.221613 
L 90.083918 153.139104 
L 90.396398 153.289711 
L 90.753518 153.750552 
L 91.199917 154.759953 
L 91.735598 156.596297 
L 92.405198 159.805383 
L 93.208718 164.8618 
L 94.235438 172.849524 
L 96.154958 189.998229 
L 97.628078 202.199739 
L 98.565517 208.233274 
L 99.279758 211.507296 
L 99.815438 213.083127 
L 100.261838 213.772705 
L 100.574318 213.90473 
L 100.842158 213.783808 
L 101.154638 213.367786 
L 101.556398 212.398811 
L 102.047438 210.562206 
L 102.672398 207.23113 
L 103.431278 201.822476 
L 104.413358 192.993681 
L 105.886478 177.383608 
L 107.939918 155.97299 
L 108.921998 148.018949 
L 109.680878 143.579866 
L 110.261198 141.376279 
L 110.707598 140.444028 
L 111.020078 140.201566 
L 111.287918 140.267045 
L 111.555757 140.586161 
L 111.912878 141.405217 
L 112.359278 143.052787 
L 112.939598 146.193879 
L 113.653838 151.495125 
L 114.546638 160.025009 
L 115.751918 173.914554 
L 118.653518 208.244725 
L 119.590958 216.370385 
L 120.305198 220.771824 
L 120.840878 222.903043 
L 121.287278 223.85927 
L 121.599758 224.071414 
L 121.822958 223.989689 
L 122.090798 223.634506 
L 122.447918 222.72689 
L 122.894317 220.906708 
L 123.474638 217.446685 
L 124.188878 211.625836 
L 125.081678 202.29408 
L 126.331598 186.571926 
L 129.099277 151.0263 
L 130.036718 142.058799 
L 130.750958 137.116482 
L 131.331277 134.492341 
L 131.777678 133.383484 
L 132.090158 133.092654 
L 132.313357 133.132294 
L 132.581198 133.452324 
L 132.938318 134.338612 
L 133.384718 136.171777 
L 133.920398 139.393843 
L 134.589998 144.872283 
L 135.438158 153.804828 
L 136.598798 168.653461 
L 139.812878 211.278639 
L 140.705678 219.705202 
L 141.419917 224.477616 
L 141.955598 226.758305 
L 142.357358 227.695688 
L 142.669837 227.955786 
L 142.893038 227.888559 
L 143.160878 227.529911 
L 143.517998 226.584061 
L 143.964398 224.666157 
L 144.544718 221.005985 
L 145.258958 214.846388 
L 146.151758 204.991063 
L 147.401678 188.45245 
L 150.124718 151.834096 
L 151.062158 142.375823 
L 151.821037 136.831149 
L 152.401358 134.059987 
L 152.847758 132.853257 
L 153.160238 132.499914 
L 153.383438 132.49719 
L 153.651278 132.768226 
L 153.963758 133.459676 
L 154.365518 134.931536 
L 154.901198 137.875425 
L 155.570797 143.017373 
L 156.374318 151.046242 
L 157.490318 164.70411 
L 161.106158 210.964837 
L 161.954318 218.290169 
L 162.623918 222.350634 
L 163.159597 224.390071 
L 163.561358 225.182828 
L 163.829198 225.355067 
L 164.052398 225.280499 
L 164.320238 224.930615 
L 164.677357 224.027788 
L 165.123758 222.216479 
L 165.704078 218.785988 
L 166.418318 213.051952 
L 167.311117 203.93999 
L 168.605678 188.197595 
L 171.150158 156.974052 
L 172.132238 147.78336 
L 172.891118 142.586744 
L 173.516078 139.747852 
L 173.962478 138.568868 
L 174.319598 138.147498 
L 174.587438 138.137246 
L 174.855277 138.387759 
L 175.212398 139.122028 
L 175.658798 140.666042 
L 176.194478 143.391764 
L 176.864078 148.020633 
L 177.712238 155.53115 
L 178.917518 168.421258 
L 181.908398 201.312125 
L 182.845838 208.909649 
L 183.604718 213.361173 
L 184.185037 215.604949 
L 184.631438 216.60939 
L 184.988558 216.953118 
L 185.256398 216.942543 
L 185.524238 216.703852 
L 185.881358 216.036598 
L 186.327758 214.658668 
L 186.908077 212.014971 
L 187.622318 207.571116 
L 188.515118 200.498349 
L 189.854318 187.846219 
L 192.309517 164.461748 
L 193.291597 157.196245 
L 194.095117 152.781304 
L 194.720078 150.444149 
L 195.211118 149.323275 
L 195.612877 148.884038 
L 195.925357 148.83962 
L 196.237838 149.052243 
L 196.594957 149.603405 
L 197.041358 150.738242 
L 197.621678 152.908661 
L 198.335917 156.543908 
L 199.273358 162.623152 
L 200.657197 173.284842 
L 202.978478 191.146457 
L 204.005198 197.335287 
L 204.808718 200.956 
L 205.478318 203.030778 
L 206.013998 204.038209 
L 206.415758 204.407602 
L 206.772878 204.459904 
L 207.129998 204.25725 
L 207.531757 203.733837 
L 208.022798 202.689966 
L 208.647758 200.76992 
L 209.406637 197.666253 
L 210.433357 192.435572 
L 212.352878 181.171563 
L 213.959918 172.339356 
L 214.986638 167.830443 
L 215.834798 165.040753 
L 216.504398 163.510373 
L 217.084718 162.683744 
L 217.575758 162.347212 
L 217.977518 162.314366 
L 218.379278 162.49249 
L 218.870317 162.982845 
L 219.450637 163.920708 
L 220.164877 165.546328 
L 221.057678 168.173835 
L 222.352238 172.765677 
L 225.610957 184.62099 
L 226.726958 187.723478 
L 227.664398 189.705273 
L 228.467917 190.910731 
L 229.182157 191.593562 
L 229.807118 191.896349 
L 230.387438 191.940529 
L 230.967758 191.768212 
L 231.637358 191.318416 
L 232.396238 190.512434 
L 233.289038 189.209843 
L 234.360398 187.224642 
L 235.744237 184.144374 
L 237.842318 178.847221 
L 240.431438 172.428643 
L 241.681357 169.901894 
L 242.618797 168.456598 
L 243.377678 167.650176 
L 244.002638 167.270474 
L 244.582958 167.172078 
L 245.118637 167.313613 
L 245.654318 167.688553 
L 246.279278 168.429009 
L 246.948878 169.586453 
L 247.752398 171.459171 
L 248.689837 174.25698 
L 249.850478 178.466109 
L 252.082478 187.64087 
L 253.555598 193.167153 
L 254.493037 195.898825 
L 255.207277 197.38428 
L 255.787598 198.140393 
L 256.278638 198.432536 
L 256.680398 198.420985 
L 257.082158 198.176585 
L 257.528558 197.627501 
L 258.064237 196.58263 
L 258.689198 194.843 
L 259.448078 192.022013 
L 260.385518 187.601924 
L 261.680078 180.2705 
L 264.670958 162.911823 
L 265.608398 158.95008 
L 266.322638 156.823232 
L 266.858317 155.818855 
L 267.304718 155.401014 
L 267.661838 155.35286 
L 268.018958 155.564704 
L 268.420718 156.11654 
L 268.911758 157.239746 
L 269.492077 159.187614 
L 270.206318 162.452091 
L 271.099118 167.712247 
L 272.259758 176.018273 
L 275.697038 201.584517 
L 276.545198 205.961423 
L 277.214798 208.394892 
L 277.750478 209.60384 
L 278.152238 210.051002 
L 278.464718 210.117526 
L 278.777197 209.934288 
L 279.134318 209.417742 
L 279.580717 208.314476 
L 280.116398 206.335805 
L 280.785998 202.913745 
L 281.589517 197.566916 
L 282.660878 188.783624 
L 284.848238 168.355033 
L 286.187438 157.069509 
L 287.124878 150.946267 
L 287.839118 147.637019 
L 288.374797 146.042043 
L 288.821197 145.335546 
L 289.133678 145.188956 
L 289.401518 145.294576 
L 289.713998 145.688524 
L 290.115758 146.621047 
L 290.606798 148.398723 
L 291.231758 151.629391 
L 291.990638 156.877062 
L 292.972717 165.442799 
L 294.445838 180.606401 
L 296.543918 201.982168 
L 297.525998 209.847291 
L 298.284878 214.337557 
L 298.909837 216.800943 
L 299.356238 217.818454 
L 299.713358 218.169247 
L 299.981198 218.157784 
L 300.249038 217.909916 
L 300.606157 217.213012 
L 301.052558 215.761744 
L 301.588238 213.198807 
L 302.257837 208.821463 
L 303.105998 201.646817 
L 304.221998 190.128659 
L 307.793198 151.6804 
L 308.641358 145.460954 
L 309.310958 142.013967 
L 309.846637 140.294535 
L 310.248398 139.643204 
L 310.560878 139.523358 
L 310.828718 139.69173 
L 311.141198 140.203644 
L 311.542957 141.355019 
L 312.033998 143.494696 
L 312.658958 147.317397 
L 313.417838 153.44106 
L 314.399918 163.304061 
L 316.006957 182.097757 
L 317.837198 202.839148 
L 318.819277 211.668487 
L 319.578157 216.739558 
L 320.203118 219.562463 
L 320.694158 220.851834 
L 321.051278 221.257524 
L 321.319118 221.264055 
L 321.586957 221.015126 
L 321.944077 220.288662 
L 322.390478 218.758534 
L 322.926157 216.046376 
L 323.595757 211.413196 
L 324.443917 203.834585 
L 325.604558 191.196651 
L 328.997198 152.859959 
L 329.889997 145.824323 
L 330.559597 142.068795 
L 331.095278 140.114848 
L 331.541678 139.237945 
L 331.854157 139.03921 
L 332.121998 139.142285 
L 332.434478 139.580118 
L 332.836238 140.638512 
L 333.327277 142.666118 
L 333.952238 146.345299 
L 334.711118 152.288484 
L 335.693198 161.902838 
L 337.300237 180.265366 
L 339.175117 201.023713 
L 340.157197 209.631528 
L 340.916078 214.59618 
L 341.541038 217.391393 
L 342.032078 218.704917 
L 342.389198 219.156481 
L 342.657038 219.214071 
L 342.924878 219.031026 
L 343.237358 218.515934 
L 343.639117 217.385463 
L 344.174798 215.089783 
L 344.799757 211.352098 
L 345.603277 205.08184 
L 346.674638 194.759851 
L 350.692237 153.910782 
L 351.495757 148.638971 
L 352.165358 145.587323 
L 352.701037 144.101057 
L 353.102798 143.563735 
L 353.415278 143.491384 
L 353.683117 143.669325 
L 353.995597 144.153812 
L 354.397357 145.205615 
L 354.933038 147.32799 
L 355.602638 151.050307 
L 356.406158 156.87353 
L 357.522158 166.794294 
L 361.271918 201.796946 
L 362.120078 207.165151 
L 362.834317 210.360763 
L 363.369998 211.884647 
L 363.816398 212.559708 
L 364.128877 212.706853 
L 364.396718 212.620228 
L 364.709198 212.273593 
L 365.110958 211.447341 
L 365.601998 209.878154 
L 366.226957 207.052105 
L 366.985838 202.520617 
L 368.012558 194.88615 
L 369.798158 179.51051 
L 371.494478 165.633396 
L 372.521197 158.969442 
L 373.324718 155.111594 
L 373.949678 153.062212 
L 374.440718 152.073015 
L 374.842478 151.679224 
L 375.154958 151.631993 
L 375.467438 151.809354 
L 375.824558 152.282091 
L 376.270958 153.265287 
L 376.851278 155.158738 
L 377.565517 158.351028 
L 378.458318 163.451086 
L 379.752878 172.319294 
L 382.609837 192.261723 
L 383.591918 197.478836 
L 384.395438 200.655736 
L 385.065038 202.449204 
L 385.600718 203.293294 
L 386.002477 203.576116 
L 386.359598 203.576471 
L 386.716718 203.344192 
L 387.163117 202.735805 
L 387.698798 201.561238 
L 388.368398 199.466155 
L 389.171918 196.15652 
L 390.243278 190.714927 
L 392.341358 178.558173 
L 393.323438 173.111383 
L 393.323438 173.111383 
" clip-path="url(#pb47f8b8aab)" style="fill: none; stroke: #1f77b4; stroke-width: 1.5; stroke-linecap: square"/>
   </g>
   <g id="patch_8">
    <path d="M 58.523438 230.359219 
L 58.523438 129.559219 
" style="fill: none"/>
   </g>
   <g id="patch_9">
    <path d="M 393.323438 230.359219 
L 393.323438 129.559219 
" style="fill: none"/>
   </g>
   <g id="patch_10">
    <path d="M 58.523438 230.359219 
L 393.323438 230.359219 
" style="fill: none; stroke: #000000; stroke-width: 0.8; stroke-linejoin: miter; stroke-linecap: square"/>
   </g>
   <g id="patch_11">
    <path d="M 58.523438 179.959219 
L 393.323438 179.959219 
" style="fill: none; stroke: #000000; stroke-width: 0.8; stroke-linejoin: miter; stroke-linecap: square"/>
   </g>
  </g>
 </g>
 <defs>
  <clipPath id="pce862344f7">
   <rect x="58.523438" y="8.599219" width="334.8" height="100.8"/>
  </clipPath>
  <clipPath id="pb47f8b8aab">
   <rect x="58.523438" y="129.559219" width="334.8" height="100.8"/>
  </clipPath>
 </defs>
</svg>
