<?xml version="1.0" encoding="utf-8" standalone="no"?>
<!DOCTYPE svg PUBLIC "-//W3C//DTD SVG 1.1//EN"
  "http://www.w3.org/Graphics/SVG/1.1/DTD/svg11.dtd">
<svg xmlns:xlink="http://www.w3.org/1999/xlink" width="406.885938pt" height="267.915469pt" viewBox="0 0 406.885938 267.915469" xmlns="http://www.w3.org/2000/svg" version="1.1">
 <metadata>
  <rdf:RDF xmlns:dc="http://purl.org/dc/elements/1.1/" xmlns:cc="http://creativecommons.org/ns#" xmlns:rdf="http://www.w3.org/1999/02/22-rdf-syntax-ns#">
   <cc:Work>
    <dc:type rdf:resource="http://purl.org/dc/dcmitype/StillImage"/>
    <dc:date>2025-07-09T15:00:05.345182</dc:date>
    <dc:format>image/svg+xml</dc:format>
    <dc:creator>
     <cc:Agent>
      <dc:title>Matplotlib v3.10.3, https://matplotlib.org/</dc:title>
     </cc:Agent>
    </dc:creator>
   </cc:Work>
  </rdf:RDF>
 </metadata>
 <defs>
  <style type="text/css">*{stroke-linejoin: round; stroke-linecap: butt}</style>
 </defs>
 <g id="figure_1">
  <g id="patch_1">
   <path d="M 0 267.915469 
L 406.885938 267.915469 
L 406.885938 0 
L 0 0 
z
" style="fill: #ffffff"/>
  </g>
  <g id="axes_1">
   <g id="patch_2">
    <path d="M 58.523438 109.399219 
L 393.323438 109.399219 
L 393.323438 8.599219 
L 58.523438 8.599219 
z
" style="fill: #ffffff"/>
   </g>
   <g id="matplotlib.axis_1">
    <g id="xtick_1">
     <g id="line2d_1">
      <path d="M 58.523438 109.399219 
L 58.523438 8.599219 
" clip-path="url(#pc2f7f69a13)" style="fill: none; stroke: #b0b0b0; stroke-width: 0.8; stroke-linecap: square"/>
     </g>
     <g id="line2d_2">
      <defs>
       <path id="mb48e5e0323" d="M 0 0 
L 0 3.5 
" style="stroke: #000000; stroke-width: 0.8"/>
      </defs>
      <g>
       <use xlink:href="#mb48e5e0323" x="58.523438" y="58.999219" style="stroke: #000000; stroke-width: 0.8"/>
      </g>
     </g>
    </g>
    <g id="xtick_2">
     <g id="line2d_3">
      <path d="M 92.003438 109.399219 
L 92.003438 8.599219 
" clip-path="url(#pc2f7f69a13)" style="fill: none; stroke: #b0b0b0; stroke-width: 0.8; stroke-linecap: square"/>
     </g>
     <g id="line2d_4">
      <g>
       <use xlink:href="#mb48e5e0323" x="92.003438" y="58.999219" style="stroke: #000000; stroke-width: 0.8"/>
      </g>
     </g>
    </g>
    <g id="xtick_3">
     <g id="line2d_5">
      <path d="M 125.483438 109.399219 
L 125.483438 8.599219 
" clip-path="url(#pc2f7f69a13)" style="fill: none; stroke: #b0b0b0; stroke-width: 0.8; stroke-linecap: square"/>
     </g>
     <g id="line2d_6">
      <g>
       <use xlink:href="#mb48e5e0323" x="125.483438" y="58.999219" style="stroke: #000000; stroke-width: 0.8"/>
      </g>
     </g>
    </g>
    <g id="xtick_4">
     <g id="line2d_7">
      <path d="M 158.963438 109.399219 
L 158.963438 8.599219 
" clip-path="url(#pc2f7f69a13)" style="fill: none; stroke: #b0b0b0; stroke-width: 0.8; stroke-linecap: square"/>
     </g>
     <g id="line2d_8">
      <g>
       <use xlink:href="#mb48e5e0323" x="158.963438" y="58.999219" style="stroke: #000000; stroke-width: 0.8"/>
      </g>
     </g>
    </g>
    <g id="xtick_5">
     <g id="line2d_9">
      <path d="M 192.443438 109.399219 
L 192.443438 8.599219 
" clip-path="url(#pc2f7f69a13)" style="fill: none; stroke: #b0b0b0; stroke-width: 0.8; stroke-linecap: square"/>
     </g>
     <g id="line2d_10">
      <g>
       <use xlink:href="#mb48e5e0323" x="192.443438" y="58.999219" style="stroke: #000000; stroke-width: 0.8"/>
      </g>
     </g>
    </g>
    <g id="xtick_6">
     <g id="line2d_11">
      <path d="M 225.923438 109.399219 
L 225.923438 8.599219 
" clip-path="url(#pc2f7f69a13)" style="fill: none; stroke: #b0b0b0; stroke-width: 0.8; stroke-linecap: square"/>
     </g>
     <g id="line2d_12">
      <g>
       <use xlink:href="#mb48e5e0323" x="225.923438" y="58.999219" style="stroke: #000000; stroke-width: 0.8"/>
      </g>
     </g>
    </g>
    <g id="xtick_7">
     <g id="line2d_13">
      <path d="M 259.403438 109.399219 
L 259.403438 8.599219 
" clip-path="url(#pc2f7f69a13)" style="fill: none; stroke: #b0b0b0; stroke-width: 0.8; stroke-linecap: square"/>
     </g>
     <g id="line2d_14">
      <g>
       <use xlink:href="#mb48e5e0323" x="259.403438" y="58.999219" style="stroke: #000000; stroke-width: 0.8"/>
      </g>
     </g>
    </g>
    <g id="xtick_8">
     <g id="line2d_15">
      <path d="M 292.883438 109.399219 
L 292.883438 8.599219 
" clip-path="url(#pc2f7f69a13)" style="fill: none; stroke: #b0b0b0; stroke-width: 0.8; stroke-linecap: square"/>
     </g>
     <g id="line2d_16">
      <g>
       <use xlink:href="#mb48e5e0323" x="292.883438" y="58.999219" style="stroke: #000000; stroke-width: 0.8"/>
      </g>
     </g>
    </g>
    <g id="xtick_9">
     <g id="line2d_17">
      <path d="M 326.363438 109.399219 
L 326.363438 8.599219 
" clip-path="url(#pc2f7f69a13)" style="fill: none; stroke: #b0b0b0; stroke-width: 0.8; stroke-linecap: square"/>
     </g>
     <g id="line2d_18">
      <g>
       <use xlink:href="#mb48e5e0323" x="326.363438" y="58.999219" style="stroke: #000000; stroke-width: 0.8"/>
      </g>
     </g>
    </g>
    <g id="xtick_10">
     <g id="line2d_19">
      <path d="M 359.843438 109.399219 
L 359.843438 8.599219 
" clip-path="url(#pc2f7f69a13)" style="fill: none; stroke: #b0b0b0; stroke-width: 0.8; stroke-linecap: square"/>
     </g>
     <g id="line2d_20">
      <g>
       <use xlink:href="#mb48e5e0323" x="359.843438" y="58.999219" style="stroke: #000000; stroke-width: 0.8"/>
      </g>
     </g>
    </g>
    <g id="xtick_11">
     <g id="line2d_21">
      <path d="M 393.323438 109.399219 
L 393.323438 8.599219 
" clip-path="url(#pc2f7f69a13)" style="fill: none; stroke: #b0b0b0; stroke-width: 0.8; stroke-linecap: square"/>
     </g>
     <g id="line2d_22">
      <g>
       <use xlink:href="#mb48e5e0323" x="393.323438" y="58.999219" style="stroke: #000000; stroke-width: 0.8"/>
      </g>
     </g>
    </g>
   </g>
   <g id="matplotlib.axis_2">
    <g id="ytick_1">
     <g id="line2d_23">
      <path d="M 58.523438 106.999219 
L 393.323438 106.999219 
" clip-path="url(#pc2f7f69a13)" style="fill: none; stroke: #b0b0b0; stroke-width: 0.8; stroke-linecap: square"/>
     </g>
     <g id="line2d_24">
      <defs>
       <path id="m563a0828b6" d="M 0 0 
L -3.5 0 
" style="stroke: #000000; stroke-width: 0.8"/>
      </defs>
      <g>
       <use xlink:href="#m563a0828b6" x="58.523438" y="106.999219" style="stroke: #000000; stroke-width: 0.8"/>
      </g>
     </g>
     <g id="text_1">
      <!-- −1 -->
      <g transform="translate(36.78125 110.798437) scale(0.1 -0.1)">
       <defs>
        <path id="DejaVuSans-2212" d="M 678 2272 
L 4684 2272 
L 4684 1741 
L 678 1741 
L 678 2272 
z
" transform="scale(0.015625)"/>
        <path id="DejaVuSans-31" d="M 794 531 
L 1825 531 
L 1825 4091 
L 703 3866 
L 703 4441 
L 1819 4666 
L 2450 4666 
L 2450 531 
L 3481 531 
L 3481 0 
L 794 0 
L 794 531 
z
" transform="scale(0.015625)"/>
       </defs>
       <use xlink:href="#DejaVuSans-2212"/>
       <use xlink:href="#DejaVuSans-31" transform="translate(83.789062 0)"/>
      </g>
     </g>
    </g>
    <g id="ytick_2">
     <g id="line2d_25">
      <path d="M 58.523438 58.999219 
L 393.323438 58.999219 
" clip-path="url(#pc2f7f69a13)" style="fill: none; stroke: #b0b0b0; stroke-width: 0.8; stroke-linecap: square"/>
     </g>
     <g id="line2d_26">
      <g>
       <use xlink:href="#m563a0828b6" x="58.523438" y="58.999219" style="stroke: #000000; stroke-width: 0.8"/>
      </g>
     </g>
     <g id="text_2">
      <!-- 0 -->
      <g transform="translate(45.160938 62.798437) scale(0.1 -0.1)">
       <defs>
        <path id="DejaVuSans-30" d="M 2034 4250 
Q 1547 4250 1301 3770 
Q 1056 3291 1056 2328 
Q 1056 1369 1301 889 
Q 1547 409 2034 409 
Q 2525 409 2770 889 
Q 3016 1369 3016 2328 
Q 3016 3291 2770 3770 
Q 2525 4250 2034 4250 
z
M 2034 4750 
Q 2819 4750 3233 4129 
Q 3647 3509 3647 2328 
Q 3647 1150 3233 529 
Q 2819 -91 2034 -91 
Q 1250 -91 836 529 
Q 422 1150 422 2328 
Q 422 3509 836 4129 
Q 1250 4750 2034 4750 
z
" transform="scale(0.015625)"/>
       </defs>
       <use xlink:href="#DejaVuSans-30"/>
      </g>
     </g>
    </g>
    <g id="ytick_3">
     <g id="line2d_27">
      <path d="M 58.523438 10.999219 
L 393.323438 10.999219 
" clip-path="url(#pc2f7f69a13)" style="fill: none; stroke: #b0b0b0; stroke-width: 0.8; stroke-linecap: square"/>
     </g>
     <g id="line2d_28">
      <g>
       <use xlink:href="#m563a0828b6" x="58.523438" y="10.999219" style="stroke: #000000; stroke-width: 0.8"/>
      </g>
     </g>
     <g id="text_3">
      <!-- 1 -->
      <g transform="translate(45.160938 14.798438) scale(0.1 -0.1)">
       <use xlink:href="#DejaVuSans-31"/>
      </g>
     </g>
    </g>
    <g id="text_4">
     <!-- Forcing Function -->
     <g transform="translate(14.798438 100.03125) rotate(-90) scale(0.1 -0.1)">
      <defs>
       <path id="DejaVuSans-46" d="M 628 4666 
L 3309 4666 
L 3309 4134 
L 1259 4134 
L 1259 2759 
L 3109 2759 
L 3109 2228 
L 1259 2228 
L 1259 0 
L 628 0 
L 628 4666 
z
" transform="scale(0.015625)"/>
       <path id="DejaVuSans-6f" d="M 1959 3097 
Q 1497 3097 1228 2736 
Q 959 2375 959 1747 
Q 959 1119 1226 758 
Q 1494 397 1959 397 
Q 2419 397 2687 759 
Q 2956 1122 2956 1747 
Q 2956 2369 2687 2733 
Q 2419 3097 1959 3097 
z
M 1959 3584 
Q 2709 3584 3137 3096 
Q 3566 2609 3566 1747 
Q 3566 888 3137 398 
Q 2709 -91 1959 -91 
Q 1206 -91 779 398 
Q 353 888 353 1747 
Q 353 2609 779 3096 
Q 1206 3584 1959 3584 
z
" transform="scale(0.015625)"/>
       <path id="DejaVuSans-72" d="M 2631 2963 
Q 2534 3019 2420 3045 
Q 2306 3072 2169 3072 
Q 1681 3072 1420 2755 
Q 1159 2438 1159 1844 
L 1159 0 
L 581 0 
L 581 3500 
L 1159 3500 
L 1159 2956 
Q 1341 3275 1631 3429 
Q 1922 3584 2338 3584 
Q 2397 3584 2469 3576 
Q 2541 3569 2628 3553 
L 2631 2963 
z
" transform="scale(0.015625)"/>
       <path id="DejaVuSans-63" d="M 3122 3366 
L 3122 2828 
Q 2878 2963 2633 3030 
Q 2388 3097 2138 3097 
Q 1578 3097 1268 2742 
Q 959 2388 959 1747 
Q 959 1106 1268 751 
Q 1578 397 2138 397 
Q 2388 397 2633 464 
Q 2878 531 3122 666 
L 3122 134 
Q 2881 22 2623 -34 
Q 2366 -91 2075 -91 
Q 1284 -91 818 406 
Q 353 903 353 1747 
Q 353 2603 823 3093 
Q 1294 3584 2113 3584 
Q 2378 3584 2631 3529 
Q 2884 3475 3122 3366 
z
" transform="scale(0.015625)"/>
       <path id="DejaVuSans-69" d="M 603 3500 
L 1178 3500 
L 1178 0 
L 603 0 
L 603 3500 
z
M 603 4863 
L 1178 4863 
L 1178 4134 
L 603 4134 
L 603 4863 
z
" transform="scale(0.015625)"/>
       <path id="DejaVuSans-6e" d="M 3513 2113 
L 3513 0 
L 2938 0 
L 2938 2094 
Q 2938 2591 2744 2837 
Q 2550 3084 2163 3084 
Q 1697 3084 1428 2787 
Q 1159 2491 1159 1978 
L 1159 0 
L 581 0 
L 581 3500 
L 1159 3500 
L 1159 2956 
Q 1366 3272 1645 3428 
Q 1925 3584 2291 3584 
Q 2894 3584 3203 3211 
Q 3513 2838 3513 2113 
z
" transform="scale(0.015625)"/>
       <path id="DejaVuSans-67" d="M 2906 1791 
Q 2906 2416 2648 2759 
Q 2391 3103 1925 3103 
Q 1463 3103 1205 2759 
Q 947 2416 947 1791 
Q 947 1169 1205 825 
Q 1463 481 1925 481 
Q 2391 481 2648 825 
Q 2906 1169 2906 1791 
z
M 3481 434 
Q 3481 -459 3084 -895 
Q 2688 -1331 1869 -1331 
Q 1566 -1331 1297 -1286 
Q 1028 -1241 775 -1147 
L 775 -588 
Q 1028 -725 1275 -790 
Q 1522 -856 1778 -856 
Q 2344 -856 2625 -561 
Q 2906 -266 2906 331 
L 2906 616 
Q 2728 306 2450 153 
Q 2172 0 1784 0 
Q 1141 0 747 490 
Q 353 981 353 1791 
Q 353 2603 747 3093 
Q 1141 3584 1784 3584 
Q 2172 3584 2450 3431 
Q 2728 3278 2906 2969 
L 2906 3500 
L 3481 3500 
L 3481 434 
z
" transform="scale(0.015625)"/>
       <path id="DejaVuSans-20" transform="scale(0.015625)"/>
       <path id="DejaVuSans-75" d="M 544 1381 
L 544 3500 
L 1119 3500 
L 1119 1403 
Q 1119 906 1312 657 
Q 1506 409 1894 409 
Q 2359 409 2629 706 
Q 2900 1003 2900 1516 
L 2900 3500 
L 3475 3500 
L 3475 0 
L 2900 0 
L 2900 538 
Q 2691 219 2414 64 
Q 2138 -91 1772 -91 
Q 1169 -91 856 284 
Q 544 659 544 1381 
z
M 1991 3584 
L 1991 3584 
z
" transform="scale(0.015625)"/>
       <path id="DejaVuSans-74" d="M 1172 4494 
L 1172 3500 
L 2356 3500 
L 2356 3053 
L 1172 3053 
L 1172 1153 
Q 1172 725 1289 603 
Q 1406 481 1766 481 
L 2356 481 
L 2356 0 
L 1766 0 
Q 1100 0 847 248 
Q 594 497 594 1153 
L 594 3053 
L 172 3053 
L 172 3500 
L 594 3500 
L 594 4494 
L 1172 4494 
z
" transform="scale(0.015625)"/>
      </defs>
      <use xlink:href="#DejaVuSans-46"/>
      <use xlink:href="#DejaVuSans-6f" transform="translate(53.894531 0)"/>
      <use xlink:href="#DejaVuSans-72" transform="translate(115.076172 0)"/>
      <use xlink:href="#DejaVuSans-63" transform="translate(153.939453 0)"/>
      <use xlink:href="#DejaVuSans-69" transform="translate(208.919922 0)"/>
      <use xlink:href="#DejaVuSans-6e" transform="translate(236.703125 0)"/>
      <use xlink:href="#DejaVuSans-67" transform="translate(300.082031 0)"/>
      <use xlink:href="#DejaVuSans-20" transform="translate(363.558594 0)"/>
      <use xlink:href="#DejaVuSans-46" transform="translate(395.345703 0)"/>
      <use xlink:href="#DejaVuSans-75" transform="translate(447.365234 0)"/>
      <use xlink:href="#DejaVuSans-6e" transform="translate(510.744141 0)"/>
      <use xlink:href="#DejaVuSans-63" transform="translate(574.123047 0)"/>
      <use xlink:href="#DejaVuSans-74" transform="translate(629.103516 0)"/>
      <use xlink:href="#DejaVuSans-69" transform="translate(668.3125 0)"/>
      <use xlink:href="#DejaVuSans-6f" transform="translate(696.095703 0)"/>
      <use xlink:href="#DejaVuSans-6e" transform="translate(757.277344 0)"/>
     </g>
    </g>
   </g>
   <g id="line2d_29">
    <path d="M 58.523438 58.999219 
L 58.657358 12.211421 
L 58.858238 11.485635 
L 59.193038 11.243 
L 59.929598 11.116366 
L 62.206238 11.047158 
L 72.049358 11.053087 
L 74.392958 11.187094 
L 74.861678 11.404745 
L 75.062558 11.808849 
L 75.129518 12.211421 
L 75.196478 13.402194 
L 75.397358 105.787016 
L 75.598238 106.512803 
L 75.933038 106.755438 
L 76.669598 106.882071 
L 78.946238 106.951279 
L 88.789358 106.945351 
L 91.132958 106.811344 
L 91.601678 106.593692 
L 91.802558 106.189588 
L 91.869518 105.787016 
L 91.936478 104.596243 
L 92.137358 12.211421 
L 92.338238 11.485635 
L 92.673038 11.243 
L 93.409598 11.116366 
L 95.686238 11.047158 
L 105.529358 11.053087 
L 107.872958 11.187094 
L 108.341678 11.404745 
L 108.542558 11.808849 
L 108.609518 12.211421 
L 108.676478 13.402194 
L 108.877358 105.787016 
L 109.078238 106.512803 
L 109.413038 106.755438 
L 110.149598 106.882071 
L 112.426238 106.951279 
L 122.269358 106.945351 
L 124.612958 106.811344 
L 125.081678 106.593692 
L 125.282558 106.189588 
L 125.349518 105.787016 
L 125.416478 104.596243 
L 125.617358 12.211421 
L 125.818238 11.485635 
L 126.153038 11.243 
L 126.889598 11.116366 
L 129.166238 11.047158 
L 139.009358 11.053087 
L 141.352958 11.187094 
L 141.821678 11.404745 
L 142.022558 11.808849 
L 142.089518 12.211421 
L 142.156478 13.402194 
L 142.357358 105.787016 
L 142.558238 106.512803 
L 142.893038 106.755438 
L 143.629598 106.882071 
L 145.906238 106.951279 
L 155.749358 106.945351 
L 158.092958 106.811344 
L 158.561678 106.593692 
L 158.762558 106.189588 
L 158.829518 105.787016 
L 158.896478 104.596243 
L 159.097358 12.211421 
L 159.298238 11.485635 
L 159.633038 11.243 
L 160.369598 11.116366 
L 162.646238 11.047158 
L 172.489358 11.053087 
L 174.832958 11.187094 
L 175.301678 11.404745 
L 175.502558 11.808849 
L 175.569518 12.211421 
L 175.636478 13.402194 
L 175.837358 105.787016 
L 176.038238 106.512803 
L 176.373038 106.755438 
L 177.109598 106.882071 
L 179.386238 106.951279 
L 189.229358 106.945351 
L 191.572958 106.811344 
L 192.041678 106.593692 
L 192.242558 106.189588 
L 192.309518 105.787016 
L 192.376478 104.596243 
L 192.577358 12.211421 
L 192.778238 11.485635 
L 193.113038 11.243 
L 193.849598 11.116366 
L 196.126238 11.047158 
L 205.969358 11.053087 
L 208.312958 11.187094 
L 208.781678 11.404745 
L 208.982558 11.808849 
L 209.049518 12.211421 
L 209.116478 13.402194 
L 209.317358 105.787016 
L 209.518237 106.512803 
L 209.853038 106.755438 
L 210.589598 106.882071 
L 212.866238 106.951279 
L 222.709358 106.945351 
L 225.052958 106.811344 
L 225.521678 106.593692 
L 225.722558 106.189588 
L 225.789518 105.787016 
L 225.856478 104.596243 
L 226.057358 12.211421 
L 226.258238 11.485635 
L 226.593038 11.243 
L 227.329598 11.116366 
L 229.606238 11.047158 
L 239.449358 11.053087 
L 241.792958 11.187094 
L 242.261678 11.404745 
L 242.462558 11.808849 
L 242.529518 12.211421 
L 242.596478 13.402194 
L 242.797358 105.787016 
L 242.998238 106.512803 
L 243.333038 106.755438 
L 244.069598 106.882071 
L 246.346238 106.951279 
L 256.189358 106.945351 
L 258.532958 106.811344 
L 259.001678 106.593692 
L 259.202558 106.189588 
L 259.269518 105.787016 
L 259.336478 104.596243 
L 259.537358 12.211421 
L 259.738238 11.485635 
L 260.073038 11.243 
L 260.809598 11.116366 
L 263.086238 11.047158 
L 272.929358 11.053087 
L 275.272958 11.187094 
L 275.741678 11.404745 
L 275.942558 11.808849 
L 276.009518 12.211421 
L 276.076478 13.402194 
L 276.277358 105.787016 
L 276.478238 106.512803 
L 276.813038 106.755438 
L 277.549598 106.882071 
L 279.826238 106.951279 
L 289.669358 106.945351 
L 292.012958 106.811344 
L 292.481678 106.593692 
L 292.682558 106.189588 
L 292.749518 105.787016 
L 292.816478 104.596243 
L 293.017358 12.211421 
L 293.218238 11.485635 
L 293.553038 11.243 
L 294.289598 11.116366 
L 296.566238 11.047158 
L 306.409358 11.053087 
L 308.752958 11.187094 
L 309.221678 11.404745 
L 309.422558 11.808849 
L 309.489518 12.211421 
L 309.556478 13.402194 
L 309.757358 105.787016 
L 309.958238 106.512803 
L 310.293038 106.755438 
L 311.029598 106.882071 
L 313.306238 106.951279 
L 323.149358 106.945351 
L 325.492958 106.811344 
L 325.961678 106.593692 
L 326.162558 106.189588 
L 326.229518 105.787016 
L 326.296478 104.596243 
L 326.497358 12.211421 
L 326.698238 11.485635 
L 327.033038 11.243 
L 327.769598 11.116366 
L 330.046238 11.047158 
L 339.889358 11.053087 
L 342.232958 11.187094 
L 342.701678 11.404745 
L 342.902558 11.808849 
L 342.969518 12.211421 
L 343.036477 13.402194 
L 343.237358 105.787016 
L 343.438238 106.512803 
L 343.773038 106.755438 
L 344.509598 106.882071 
L 346.786238 106.951279 
L 356.629358 106.945351 
L 358.972958 106.811344 
L 359.441678 106.593692 
L 359.642558 106.189588 
L 359.709518 105.787016 
L 359.776477 104.596243 
L 359.977358 12.211421 
L 360.178238 11.485635 
L 360.513037 11.243 
L 361.249598 11.116366 
L 363.526238 11.047158 
L 373.369358 11.053087 
L 375.712958 11.187094 
L 376.181678 11.404745 
L 376.382558 11.808849 
L 376.449518 12.211421 
L 376.516478 13.402194 
L 376.717358 105.787016 
L 376.918238 106.512803 
L 377.253038 106.755438 
L 377.989598 106.882071 
L 380.266238 106.951279 
L 390.109358 106.945351 
L 392.452958 106.811344 
L 392.921678 106.593692 
L 393.122558 106.189588 
L 393.189518 105.787016 
L 393.256478 104.596243 
L 393.323438 58.999219 
L 393.323438 58.999219 
" clip-path="url(#pc2f7f69a13)" style="fill: none; stroke: #1f77b4; stroke-width: 1.5; stroke-linecap: square"/>
   </g>
   <g id="patch_3">
    <path d="M 58.523438 109.399219 
L 58.523438 8.599219 
" style="fill: none"/>
   </g>
   <g id="patch_4">
    <path d="M 393.323438 109.399219 
L 393.323438 8.599219 
" style="fill: none"/>
   </g>
   <g id="patch_5">
    <path d="M 58.523438 58.999219 
L 393.323438 58.999219 
" style="fill: none; stroke: #000000; stroke-width: 0.8; stroke-linejoin: miter; stroke-linecap: square"/>
   </g>
   <g id="patch_6">
    <path d="M 58.523438 8.599219 
L 393.323438 8.599219 
" style="fill: none"/>
   </g>
  </g>
  <g id="axes_2">
   <g id="patch_7">
    <path d="M 58.523438 230.359219 
L 393.323438 230.359219 
L 393.323438 129.559219 
L 58.523438 129.559219 
z
" style="fill: #ffffff"/>
   </g>
   <g id="matplotlib.axis_3">
    <g id="xtick_12">
     <g id="line2d_30">
      <path d="M 58.523438 230.359219 
L 58.523438 129.559219 
" clip-path="url(#p584294269f)" style="fill: none; stroke: #b0b0b0; stroke-width: 0.8; stroke-linecap: square"/>
     </g>
     <g id="line2d_31">
      <g>
       <use xlink:href="#mb48e5e0323" x="58.523438" y="230.359219" style="stroke: #000000; stroke-width: 0.8"/>
      </g>
     </g>
     <g id="text_5">
      <!-- 0 -->
      <g transform="translate(55.342188 244.957656) scale(0.1 -0.1)">
       <use xlink:href="#DejaVuSans-30"/>
      </g>
     </g>
    </g>
    <g id="xtick_13">
     <g id="line2d_32">
      <path d="M 92.003438 230.359219 
L 92.003438 129.559219 
" clip-path="url(#p584294269f)" style="fill: none; stroke: #b0b0b0; stroke-width: 0.8; stroke-linecap: square"/>
     </g>
     <g id="line2d_33">
      <g>
       <use xlink:href="#mb48e5e0323" x="92.003438" y="230.359219" style="stroke: #000000; stroke-width: 0.8"/>
      </g>
     </g>
     <g id="text_6">
      <!-- 1 -->
      <g transform="translate(88.822188 244.957656) scale(0.1 -0.1)">
       <use xlink:href="#DejaVuSans-31"/>
      </g>
     </g>
    </g>
    <g id="xtick_14">
     <g id="line2d_34">
      <path d="M 125.483438 230.359219 
L 125.483438 129.559219 
" clip-path="url(#p584294269f)" style="fill: none; stroke: #b0b0b0; stroke-width: 0.8; stroke-linecap: square"/>
     </g>
     <g id="line2d_35">
      <g>
       <use xlink:href="#mb48e5e0323" x="125.483438" y="230.359219" style="stroke: #000000; stroke-width: 0.8"/>
      </g>
     </g>
     <g id="text_7">
      <!-- 2 -->
      <g transform="translate(122.302188 244.957656) scale(0.1 -0.1)">
       <defs>
        <path id="DejaVuSans-32" d="M 1228 531 
L 3431 531 
L 3431 0 
L 469 0 
L 469 531 
Q 828 903 1448 1529 
Q 2069 2156 2228 2338 
Q 2531 2678 2651 2914 
Q 2772 3150 2772 3378 
Q 2772 3750 2511 3984 
Q 2250 4219 1831 4219 
Q 1534 4219 1204 4116 
Q 875 4013 500 3803 
L 500 4441 
Q 881 4594 1212 4672 
Q 1544 4750 1819 4750 
Q 2544 4750 2975 4387 
Q 3406 4025 3406 3419 
Q 3406 3131 3298 2873 
Q 3191 2616 2906 2266 
Q 2828 2175 2409 1742 
Q 1991 1309 1228 531 
z
" transform="scale(0.015625)"/>
       </defs>
       <use xlink:href="#DejaVuSans-32"/>
      </g>
     </g>
    </g>
    <g id="xtick_15">
     <g id="line2d_36">
      <path d="M 158.963438 230.359219 
L 158.963438 129.559219 
" clip-path="url(#p584294269f)" style="fill: none; stroke: #b0b0b0; stroke-width: 0.8; stroke-linecap: square"/>
     </g>
     <g id="line2d_37">
      <g>
       <use xlink:href="#mb48e5e0323" x="158.963438" y="230.359219" style="stroke: #000000; stroke-width: 0.8"/>
      </g>
     </g>
     <g id="text_8">
      <!-- 3 -->
      <g transform="translate(155.782188 244.957656) scale(0.1 -0.1)">
       <defs>
        <path id="DejaVuSans-33" d="M 2597 2516 
Q 3050 2419 3304 2112 
Q 3559 1806 3559 1356 
Q 3559 666 3084 287 
Q 2609 -91 1734 -91 
Q 1441 -91 1130 -33 
Q 819 25 488 141 
L 488 750 
Q 750 597 1062 519 
Q 1375 441 1716 441 
Q 2309 441 2620 675 
Q 2931 909 2931 1356 
Q 2931 1769 2642 2001 
Q 2353 2234 1838 2234 
L 1294 2234 
L 1294 2753 
L 1863 2753 
Q 2328 2753 2575 2939 
Q 2822 3125 2822 3475 
Q 2822 3834 2567 4026 
Q 2313 4219 1838 4219 
Q 1578 4219 1281 4162 
Q 984 4106 628 3988 
L 628 4550 
Q 988 4650 1302 4700 
Q 1616 4750 1894 4750 
Q 2613 4750 3031 4423 
Q 3450 4097 3450 3541 
Q 3450 3153 3228 2886 
Q 3006 2619 2597 2516 
z
" transform="scale(0.015625)"/>
       </defs>
       <use xlink:href="#DejaVuSans-33"/>
      </g>
     </g>
    </g>
    <g id="xtick_16">
     <g id="line2d_38">
      <path d="M 192.443438 230.359219 
L 192.443438 129.559219 
" clip-path="url(#p584294269f)" style="fill: none; stroke: #b0b0b0; stroke-width: 0.8; stroke-linecap: square"/>
     </g>
     <g id="line2d_39">
      <g>
       <use xlink:href="#mb48e5e0323" x="192.443438" y="230.359219" style="stroke: #000000; stroke-width: 0.8"/>
      </g>
     </g>
     <g id="text_9">
      <!-- 4 -->
      <g transform="translate(189.262188 244.957656) scale(0.1 -0.1)">
       <defs>
        <path id="DejaVuSans-34" d="M 2419 4116 
L 825 1625 
L 2419 1625 
L 2419 4116 
z
M 2253 4666 
L 3047 4666 
L 3047 1625 
L 3713 1625 
L 3713 1100 
L 3047 1100 
L 3047 0 
L 2419 0 
L 2419 1100 
L 313 1100 
L 313 1709 
L 2253 4666 
z
" transform="scale(0.015625)"/>
       </defs>
       <use xlink:href="#DejaVuSans-34"/>
      </g>
     </g>
    </g>
    <g id="xtick_17">
     <g id="line2d_40">
      <path d="M 225.923438 230.359219 
L 225.923438 129.559219 
" clip-path="url(#p584294269f)" style="fill: none; stroke: #b0b0b0; stroke-width: 0.8; stroke-linecap: square"/>
     </g>
     <g id="line2d_41">
      <g>
       <use xlink:href="#mb48e5e0323" x="225.923438" y="230.359219" style="stroke: #000000; stroke-width: 0.8"/>
      </g>
     </g>
     <g id="text_10">
      <!-- 5 -->
      <g transform="translate(222.742188 244.957656) scale(0.1 -0.1)">
       <defs>
        <path id="DejaVuSans-35" d="M 691 4666 
L 3169 4666 
L 3169 4134 
L 1269 4134 
L 1269 2991 
Q 1406 3038 1543 3061 
Q 1681 3084 1819 3084 
Q 2600 3084 3056 2656 
Q 3513 2228 3513 1497 
Q 3513 744 3044 326 
Q 2575 -91 1722 -91 
Q 1428 -91 1123 -41 
Q 819 9 494 109 
L 494 744 
Q 775 591 1075 516 
Q 1375 441 1709 441 
Q 2250 441 2565 725 
Q 2881 1009 2881 1497 
Q 2881 1984 2565 2268 
Q 2250 2553 1709 2553 
Q 1456 2553 1204 2497 
Q 953 2441 691 2322 
L 691 4666 
z
" transform="scale(0.015625)"/>
       </defs>
       <use xlink:href="#DejaVuSans-35"/>
      </g>
     </g>
    </g>
    <g id="xtick_18">
     <g id="line2d_42">
      <path d="M 259.403438 230.359219 
L 259.403438 129.559219 
" clip-path="url(#p584294269f)" style="fill: none; stroke: #b0b0b0; stroke-width: 0.8; stroke-linecap: square"/>
     </g>
     <g id="line2d_43">
      <g>
       <use xlink:href="#mb48e5e0323" x="259.403438" y="230.359219" style="stroke: #000000; stroke-width: 0.8"/>
      </g>
     </g>
     <g id="text_11">
      <!-- 6 -->
      <g transform="translate(256.222188 244.957656) scale(0.1 -0.1)">
       <defs>
        <path id="DejaVuSans-36" d="M 2113 2584 
Q 1688 2584 1439 2293 
Q 1191 2003 1191 1497 
Q 1191 994 1439 701 
Q 1688 409 2113 409 
Q 2538 409 2786 701 
Q 3034 994 3034 1497 
Q 3034 2003 2786 2293 
Q 2538 2584 2113 2584 
z
M 3366 4563 
L 3366 3988 
Q 3128 4100 2886 4159 
Q 2644 4219 2406 4219 
Q 1781 4219 1451 3797 
Q 1122 3375 1075 2522 
Q 1259 2794 1537 2939 
Q 1816 3084 2150 3084 
Q 2853 3084 3261 2657 
Q 3669 2231 3669 1497 
Q 3669 778 3244 343 
Q 2819 -91 2113 -91 
Q 1303 -91 875 529 
Q 447 1150 447 2328 
Q 447 3434 972 4092 
Q 1497 4750 2381 4750 
Q 2619 4750 2861 4703 
Q 3103 4656 3366 4563 
z
" transform="scale(0.015625)"/>
       </defs>
       <use xlink:href="#DejaVuSans-36"/>
      </g>
     </g>
    </g>
    <g id="xtick_19">
     <g id="line2d_44">
      <path d="M 292.883438 230.359219 
L 292.883438 129.559219 
" clip-path="url(#p584294269f)" style="fill: none; stroke: #b0b0b0; stroke-width: 0.8; stroke-linecap: square"/>
     </g>
     <g id="line2d_45">
      <g>
       <use xlink:href="#mb48e5e0323" x="292.883438" y="230.359219" style="stroke: #000000; stroke-width: 0.8"/>
      </g>
     </g>
     <g id="text_12">
      <!-- 7 -->
      <g transform="translate(289.702188 244.957656) scale(0.1 -0.1)">
       <defs>
        <path id="DejaVuSans-37" d="M 525 4666 
L 3525 4666 
L 3525 4397 
L 1831 0 
L 1172 0 
L 2766 4134 
L 525 4134 
L 525 4666 
z
" transform="scale(0.015625)"/>
       </defs>
       <use xlink:href="#DejaVuSans-37"/>
      </g>
     </g>
    </g>
    <g id="xtick_20">
     <g id="line2d_46">
      <path d="M 326.363438 230.359219 
L 326.363438 129.559219 
" clip-path="url(#p584294269f)" style="fill: none; stroke: #b0b0b0; stroke-width: 0.8; stroke-linecap: square"/>
     </g>
     <g id="line2d_47">
      <g>
       <use xlink:href="#mb48e5e0323" x="326.363438" y="230.359219" style="stroke: #000000; stroke-width: 0.8"/>
      </g>
     </g>
     <g id="text_13">
      <!-- 8 -->
      <g transform="translate(323.182188 244.957656) scale(0.1 -0.1)">
       <defs>
        <path id="DejaVuSans-38" d="M 2034 2216 
Q 1584 2216 1326 1975 
Q 1069 1734 1069 1313 
Q 1069 891 1326 650 
Q 1584 409 2034 409 
Q 2484 409 2743 651 
Q 3003 894 3003 1313 
Q 3003 1734 2745 1975 
Q 2488 2216 2034 2216 
z
M 1403 2484 
Q 997 2584 770 2862 
Q 544 3141 544 3541 
Q 544 4100 942 4425 
Q 1341 4750 2034 4750 
Q 2731 4750 3128 4425 
Q 3525 4100 3525 3541 
Q 3525 3141 3298 2862 
Q 3072 2584 2669 2484 
Q 3125 2378 3379 2068 
Q 3634 1759 3634 1313 
Q 3634 634 3220 271 
Q 2806 -91 2034 -91 
Q 1263 -91 848 271 
Q 434 634 434 1313 
Q 434 1759 690 2068 
Q 947 2378 1403 2484 
z
M 1172 3481 
Q 1172 3119 1398 2916 
Q 1625 2713 2034 2713 
Q 2441 2713 2670 2916 
Q 2900 3119 2900 3481 
Q 2900 3844 2670 4047 
Q 2441 4250 2034 4250 
Q 1625 4250 1398 4047 
Q 1172 3844 1172 3481 
z
" transform="scale(0.015625)"/>
       </defs>
       <use xlink:href="#DejaVuSans-38"/>
      </g>
     </g>
    </g>
    <g id="xtick_21">
     <g id="line2d_48">
      <path d="M 359.843438 230.359219 
L 359.843438 129.559219 
" clip-path="url(#p584294269f)" style="fill: none; stroke: #b0b0b0; stroke-width: 0.8; stroke-linecap: square"/>
     </g>
     <g id="line2d_49">
      <g>
       <use xlink:href="#mb48e5e0323" x="359.843438" y="230.359219" style="stroke: #000000; stroke-width: 0.8"/>
      </g>
     </g>
     <g id="text_14">
      <!-- 9 -->
      <g transform="translate(356.662188 244.957656) scale(0.1 -0.1)">
       <defs>
        <path id="DejaVuSans-39" d="M 703 97 
L 703 672 
Q 941 559 1184 500 
Q 1428 441 1663 441 
Q 2288 441 2617 861 
Q 2947 1281 2994 2138 
Q 2813 1869 2534 1725 
Q 2256 1581 1919 1581 
Q 1219 1581 811 2004 
Q 403 2428 403 3163 
Q 403 3881 828 4315 
Q 1253 4750 1959 4750 
Q 2769 4750 3195 4129 
Q 3622 3509 3622 2328 
Q 3622 1225 3098 567 
Q 2575 -91 1691 -91 
Q 1453 -91 1209 -44 
Q 966 3 703 97 
z
M 1959 2075 
Q 2384 2075 2632 2365 
Q 2881 2656 2881 3163 
Q 2881 3666 2632 3958 
Q 2384 4250 1959 4250 
Q 1534 4250 1286 3958 
Q 1038 3666 1038 3163 
Q 1038 2656 1286 2365 
Q 1534 2075 1959 2075 
z
" transform="scale(0.015625)"/>
       </defs>
       <use xlink:href="#DejaVuSans-39"/>
      </g>
     </g>
    </g>
    <g id="xtick_22">
     <g id="line2d_50">
      <path d="M 393.323438 230.359219 
L 393.323438 129.559219 
" clip-path="url(#p584294269f)" style="fill: none; stroke: #b0b0b0; stroke-width: 0.8; stroke-linecap: square"/>
     </g>
     <g id="line2d_51">
      <g>
       <use xlink:href="#mb48e5e0323" x="393.323438" y="230.359219" style="stroke: #000000; stroke-width: 0.8"/>
      </g>
     </g>
     <g id="text_15">
      <!-- 10 -->
      <g transform="translate(386.960938 244.957656) scale(0.1 -0.1)">
       <use xlink:href="#DejaVuSans-31"/>
       <use xlink:href="#DejaVuSans-30" transform="translate(63.623047 0)"/>
      </g>
     </g>
    </g>
    <g id="text_16">
     <!-- Time -->
     <g transform="translate(213.689844 258.635781) scale(0.1 -0.1)">
      <defs>
       <path id="DejaVuSans-54" d="M -19 4666 
L 3928 4666 
L 3928 4134 
L 2272 4134 
L 2272 0 
L 1638 0 
L 1638 4134 
L -19 4134 
L -19 4666 
z
" transform="scale(0.015625)"/>
       <path id="DejaVuSans-6d" d="M 3328 2828 
Q 3544 3216 3844 3400 
Q 4144 3584 4550 3584 
Q 5097 3584 5394 3201 
Q 5691 2819 5691 2113 
L 5691 0 
L 5113 0 
L 5113 2094 
Q 5113 2597 4934 2840 
Q 4756 3084 4391 3084 
Q 3944 3084 3684 2787 
Q 3425 2491 3425 1978 
L 3425 0 
L 2847 0 
L 2847 2094 
Q 2847 2600 2669 2842 
Q 2491 3084 2119 3084 
Q 1678 3084 1418 2786 
Q 1159 2488 1159 1978 
L 1159 0 
L 581 0 
L 581 3500 
L 1159 3500 
L 1159 2956 
Q 1356 3278 1631 3431 
Q 1906 3584 2284 3584 
Q 2666 3584 2933 3390 
Q 3200 3197 3328 2828 
z
" transform="scale(0.015625)"/>
       <path id="DejaVuSans-65" d="M 3597 1894 
L 3597 1613 
L 953 1613 
Q 991 1019 1311 708 
Q 1631 397 2203 397 
Q 2534 397 2845 478 
Q 3156 559 3463 722 
L 3463 178 
Q 3153 47 2828 -22 
Q 2503 -91 2169 -91 
Q 1331 -91 842 396 
Q 353 884 353 1716 
Q 353 2575 817 3079 
Q 1281 3584 2069 3584 
Q 2775 3584 3186 3129 
Q 3597 2675 3597 1894 
z
M 3022 2063 
Q 3016 2534 2758 2815 
Q 2500 3097 2075 3097 
Q 1594 3097 1305 2825 
Q 1016 2553 972 2059 
L 3022 2063 
z
" transform="scale(0.015625)"/>
      </defs>
      <use xlink:href="#DejaVuSans-54"/>
      <use xlink:href="#DejaVuSans-69" transform="translate(57.958984 0)"/>
      <use xlink:href="#DejaVuSans-6d" transform="translate(85.742188 0)"/>
      <use xlink:href="#DejaVuSans-65" transform="translate(183.154297 0)"/>
     </g>
    </g>
   </g>
   <g id="matplotlib.axis_4">
    <g id="ytick_4">
     <g id="line2d_52">
      <path d="M 58.523438 216.137376 
L 393.323438 216.137376 
" clip-path="url(#p584294269f)" style="fill: none; stroke: #b0b0b0; stroke-width: 0.8; stroke-linecap: square"/>
     </g>
     <g id="line2d_53">
      <g>
       <use xlink:href="#m563a0828b6" x="58.523438" y="216.137376" style="stroke: #000000; stroke-width: 0.8"/>
      </g>
     </g>
     <g id="text_17">
      <!-- −0.01 -->
      <g transform="translate(20.878125 219.936594) scale(0.1 -0.1)">
       <defs>
        <path id="DejaVuSans-2e" d="M 684 794 
L 1344 794 
L 1344 0 
L 684 0 
L 684 794 
z
" transform="scale(0.015625)"/>
       </defs>
       <use xlink:href="#DejaVuSans-2212"/>
       <use xlink:href="#DejaVuSans-30" transform="translate(83.789062 0)"/>
       <use xlink:href="#DejaVuSans-2e" transform="translate(147.412109 0)"/>
       <use xlink:href="#DejaVuSans-30" transform="translate(179.199219 0)"/>
       <use xlink:href="#DejaVuSans-31" transform="translate(242.822266 0)"/>
      </g>
     </g>
    </g>
    <g id="ytick_5">
     <g id="line2d_54">
      <path d="M 58.523438 179.959219 
L 393.323438 179.959219 
" clip-path="url(#p584294269f)" style="fill: none; stroke: #b0b0b0; stroke-width: 0.8; stroke-linecap: square"/>
     </g>
     <g id="line2d_55">
      <g>
       <use xlink:href="#m563a0828b6" x="58.523438" y="179.959219" style="stroke: #000000; stroke-width: 0.8"/>
      </g>
     </g>
     <g id="text_18">
      <!-- 0.00 -->
      <g transform="translate(29.257813 183.758437) scale(0.1 -0.1)">
       <use xlink:href="#DejaVuSans-30"/>
       <use xlink:href="#DejaVuSans-2e" transform="translate(63.623047 0)"/>
       <use xlink:href="#DejaVuSans-30" transform="translate(95.410156 0)"/>
       <use xlink:href="#DejaVuSans-30" transform="translate(159.033203 0)"/>
      </g>
     </g>
    </g>
    <g id="ytick_6">
     <g id="line2d_56">
      <path d="M 58.523438 143.781062 
L 393.323438 143.781062 
" clip-path="url(#p584294269f)" style="fill: none; stroke: #b0b0b0; stroke-width: 0.8; stroke-linecap: square"/>
     </g>
     <g id="line2d_57">
      <g>
       <use xlink:href="#m563a0828b6" x="58.523438" y="143.781062" style="stroke: #000000; stroke-width: 0.8"/>
      </g>
     </g>
     <g id="text_19">
      <!-- 0.01 -->
      <g transform="translate(29.257813 147.580281) scale(0.1 -0.1)">
       <use xlink:href="#DejaVuSans-30"/>
       <use xlink:href="#DejaVuSans-2e" transform="translate(63.623047 0)"/>
       <use xlink:href="#DejaVuSans-30" transform="translate(95.410156 0)"/>
       <use xlink:href="#DejaVuSans-31" transform="translate(159.033203 0)"/>
      </g>
     </g>
    </g>
    <g id="text_20">
     <!-- Position -->
     <g transform="translate(14.798438 199.423281) rotate(-90) scale(0.1 -0.1)">
      <defs>
       <path id="DejaVuSans-50" d="M 1259 4147 
L 1259 2394 
L 2053 2394 
Q 2494 2394 2734 2622 
Q 2975 2850 2975 3272 
Q 2975 3691 2734 3919 
Q 2494 4147 2053 4147 
L 1259 4147 
z
M 628 4666 
L 2053 4666 
Q 2838 4666 3239 4311 
Q 3641 3956 3641 3272 
Q 3641 2581 3239 2228 
Q 2838 1875 2053 1875 
L 1259 1875 
L 1259 0 
L 628 0 
L 628 4666 
z
" transform="scale(0.015625)"/>
       <path id="DejaVuSans-73" d="M 2834 3397 
L 2834 2853 
Q 2591 2978 2328 3040 
Q 2066 3103 1784 3103 
Q 1356 3103 1142 2972 
Q 928 2841 928 2578 
Q 928 2378 1081 2264 
Q 1234 2150 1697 2047 
L 1894 2003 
Q 2506 1872 2764 1633 
Q 3022 1394 3022 966 
Q 3022 478 2636 193 
Q 2250 -91 1575 -91 
Q 1294 -91 989 -36 
Q 684 19 347 128 
L 347 722 
Q 666 556 975 473 
Q 1284 391 1588 391 
Q 1994 391 2212 530 
Q 2431 669 2431 922 
Q 2431 1156 2273 1281 
Q 2116 1406 1581 1522 
L 1381 1569 
Q 847 1681 609 1914 
Q 372 2147 372 2553 
Q 372 3047 722 3315 
Q 1072 3584 1716 3584 
Q 2034 3584 2315 3537 
Q 2597 3491 2834 3397 
z
" transform="scale(0.015625)"/>
      </defs>
      <use xlink:href="#DejaVuSans-50"/>
      <use xlink:href="#DejaVuSans-6f" transform="translate(56.677734 0)"/>
      <use xlink:href="#DejaVuSans-73" transform="translate(117.859375 0)"/>
      <use xlink:href="#DejaVuSans-69" transform="translate(169.958984 0)"/>
      <use xlink:href="#DejaVuSans-74" transform="translate(197.742188 0)"/>
      <use xlink:href="#DejaVuSans-69" transform="translate(236.951172 0)"/>
      <use xlink:href="#DejaVuSans-6f" transform="translate(264.734375 0)"/>
      <use xlink:href="#DejaVuSans-6e" transform="translate(325.916016 0)"/>
     </g>
    </g>
   </g>
   <g id="line2d_58">
    <path d="M 58.523438 179.959219 
L 58.657358 179.852157 
L 58.858238 179.296997 
L 59.193038 177.471515 
L 59.661758 173.48532 
L 60.532238 163.766801 
L 61.871438 149.259303 
L 62.607998 143.571765 
L 63.210638 140.451983 
L 63.746318 138.777013 
L 64.148078 138.116384 
L 64.482878 137.897424 
L 64.817678 137.93075 
L 65.219438 138.237731 
L 65.755118 138.971773 
L 66.826478 140.948409 
L 68.031758 143.015488 
L 68.835278 143.967146 
L 69.571838 144.490588 
L 70.241438 144.708147 
L 71.044958 144.720582 
L 72.116318 144.484415 
L 75.062558 143.728377 
L 75.330398 143.752479 
L 75.464318 144.181592 
L 75.732158 146.231258 
L 76.133918 151.743855 
L 76.736558 163.694639 
L 78.946238 210.831883 
L 79.615838 219.659763 
L 80.151518 224.282238 
L 80.620238 226.698154 
L 81.021998 227.719308 
L 81.289838 227.941187 
L 81.557678 227.851612 
L 81.892478 227.374965 
L 82.361198 226.1903 
L 83.164718 223.357699 
L 84.704798 217.867636 
L 85.441358 216.028763 
L 86.043998 215.024933 
L 86.579678 214.489778 
L 87.115358 214.244334 
L 87.651038 214.230587 
L 88.320638 214.444535 
L 89.458958 215.09917 
L 91.065998 215.985647 
L 92.003438 216.293514 
L 92.137358 216.097725 
L 92.338238 215.010266 
L 92.673038 211.385893 
L 93.141758 203.429453 
L 94.012238 183.972429 
L 95.351438 154.863756 
L 96.087998 143.432995 
L 96.690638 137.154296 
L 97.226318 133.776629 
L 97.628078 132.43935 
L 97.962878 131.991181 
L 98.230718 132.002388 
L 98.498558 132.289992 
L 98.900318 133.135821 
L 99.502958 135.039353 
L 101.846558 143.124712 
L 102.516158 144.495839 
L 103.118798 145.262177 
L 103.654478 145.612713 
L 104.190158 145.708105 
L 104.792798 145.587161 
L 105.663278 145.154548 
L 108.073838 143.828284 
L 108.810398 143.667639 
L 108.944318 144.082644 
L 109.212158 146.109119 
L 109.613918 151.5986 
L 110.216558 163.537191 
L 112.426238 210.754391 
L 113.095838 219.615129 
L 113.631518 224.260392 
L 114.100238 226.692706 
L 114.501998 227.725024 
L 114.769838 227.952854 
L 115.037678 227.868075 
L 115.372478 227.395889 
L 115.841198 226.214878 
L 116.644718 223.382887 
L 118.184798 217.882896 
L 118.921358 216.037947 
L 119.523998 215.029671 
L 120.059678 214.491259 
L 120.595358 214.24332 
L 121.131038 214.22785 
L 121.800638 214.44063 
L 122.938958 215.095192 
L 124.545998 215.983552 
L 125.483438 216.292615 
L 125.617358 216.096975 
L 125.818238 215.009728 
L 126.153038 211.38567 
L 126.621758 203.429589 
L 127.492238 183.972978 
L 128.831438 154.864422 
L 129.567998 143.433559 
L 130.170638 137.154737 
L 130.706318 133.776951 
L 131.108078 132.439585 
L 131.442878 131.991349 
L 131.710718 132.002506 
L 131.978558 132.290066 
L 132.380318 133.135837 
L 132.982958 135.039302 
L 135.326558 143.124611 
L 135.996158 144.495758 
L 136.598798 145.262118 
L 137.134478 145.612673 
L 137.670158 145.708082 
L 138.272798 145.587155 
L 139.143278 145.154557 
L 141.553838 143.8283 
L 142.290398 143.667651 
L 142.424318 144.082655 
L 142.692158 146.109128 
L 143.093918 151.598607 
L 143.696558 163.537195 
L 145.906238 210.754389 
L 146.575838 219.615126 
L 147.111518 224.260389 
L 147.580238 226.692703 
L 147.981998 227.725022 
L 148.249838 227.952852 
L 148.517678 227.868073 
L 148.852478 227.395887 
L 149.321198 226.214877 
L 150.124718 223.382886 
L 151.664798 217.882897 
L 152.401358 216.037948 
L 153.003998 215.029671 
L 153.539678 214.491259 
L 154.075358 214.24332 
L 154.611038 214.22785 
L 155.280638 214.44063 
L 156.418958 215.095192 
L 158.025998 215.983552 
L 158.963438 216.292615 
L 159.097358 216.096975 
L 159.298238 215.009727 
L 159.633038 211.38567 
L 160.101758 203.429589 
L 160.972238 183.972978 
L 162.311438 154.864422 
L 163.047998 143.433559 
L 163.650638 137.154737 
L 164.186318 133.776951 
L 164.588078 132.439585 
L 164.922878 131.991349 
L 165.190718 132.002506 
L 165.458558 132.290066 
L 165.860318 133.135837 
L 166.462958 135.039302 
L 168.806558 143.124611 
L 169.476158 144.495758 
L 170.078798 145.262118 
L 170.614478 145.612673 
L 171.150158 145.708082 
L 171.752798 145.587155 
L 172.623278 145.154557 
L 175.033838 143.8283 
L 175.770398 143.667651 
L 175.904318 144.082655 
L 176.172158 146.109128 
L 176.573918 151.598607 
L 177.176558 163.537195 
L 179.386238 210.754389 
L 180.055838 219.615126 
L 180.591518 224.260389 
L 181.060238 226.692703 
L 181.461998 227.725022 
L 181.729838 227.952852 
L 181.997678 227.868073 
L 182.332478 227.395887 
L 182.801198 226.214877 
L 183.604718 223.382886 
L 185.144798 217.882897 
L 185.881358 216.037948 
L 186.483998 215.029671 
L 187.019678 214.491259 
L 187.555358 214.24332 
L 188.091038 214.22785 
L 188.760638 214.44063 
L 189.898958 215.095192 
L 191.505998 215.983552 
L 192.443438 216.292615 
L 192.577358 216.096975 
L 192.778238 215.009727 
L 193.113038 211.38567 
L 193.581758 203.429589 
L 194.452238 183.972978 
L 195.791438 154.864422 
L 196.527998 143.433559 
L 197.130638 137.154737 
L 197.666318 133.776951 
L 198.068078 132.439585 
L 198.402878 131.991349 
L 198.670718 132.002506 
L 198.938558 132.290066 
L 199.340318 133.135837 
L 199.942958 135.039302 
L 202.286558 143.124611 
L 202.956158 144.495758 
L 203.558798 145.262118 
L 204.094478 145.612673 
L 204.630158 145.708082 
L 205.232798 145.587155 
L 206.103278 145.154557 
L 208.513838 143.8283 
L 209.250398 143.667651 
L 209.384318 144.082655 
L 209.652158 146.109128 
L 210.053918 151.598607 
L 210.656558 163.537195 
L 212.866238 210.754389 
L 213.535838 219.615126 
L 214.071518 224.260389 
L 214.540238 226.692703 
L 214.941998 227.725022 
L 215.209838 227.952852 
L 215.477677 227.868073 
L 215.812478 227.395887 
L 216.281198 226.214877 
L 217.084718 223.382886 
L 218.624798 217.882897 
L 219.361358 216.037948 
L 219.963998 215.029671 
L 220.499678 214.491259 
L 221.035358 214.24332 
L 221.571038 214.22785 
L 222.240638 214.44063 
L 223.378958 215.095192 
L 224.985998 215.983552 
L 225.923438 216.292615 
L 226.057358 216.096975 
L 226.258238 215.009727 
L 226.593038 211.38567 
L 227.061758 203.429589 
L 227.932238 183.972978 
L 229.271438 154.864422 
L 230.007998 143.433559 
L 230.610637 137.154737 
L 231.146318 133.776951 
L 231.548078 132.439585 
L 231.882878 131.991349 
L 232.150718 132.002506 
L 232.418558 132.290066 
L 232.820318 133.135837 
L 233.422958 135.039302 
L 235.766558 143.124611 
L 236.436158 144.495758 
L 237.038798 145.262118 
L 237.574478 145.612673 
L 238.110158 145.708082 
L 238.712798 145.587155 
L 239.583278 145.154557 
L 241.993838 143.8283 
L 242.730398 143.667651 
L 242.864318 144.082655 
L 243.132158 146.109128 
L 243.533918 151.598607 
L 244.136558 163.537195 
L 246.346238 210.754389 
L 247.015838 219.615126 
L 247.551518 224.260389 
L 248.020238 226.692703 
L 248.421998 227.725022 
L 248.689838 227.952852 
L 248.957678 227.868073 
L 249.292478 227.395887 
L 249.761198 226.214877 
L 250.564718 223.382886 
L 252.104798 217.882897 
L 252.841358 216.037948 
L 253.443998 215.029671 
L 253.979678 214.491259 
L 254.515358 214.24332 
L 255.051038 214.22785 
L 255.720638 214.44063 
L 256.858958 215.095192 
L 258.465998 215.983552 
L 259.403438 216.292615 
L 259.537358 216.096975 
L 259.738238 215.009727 
L 260.073038 211.38567 
L 260.541758 203.429589 
L 261.412238 183.972978 
L 262.751438 154.864422 
L 263.487998 143.433559 
L 264.090638 137.154737 
L 264.626318 133.776951 
L 265.028078 132.439585 
L 265.362878 131.991349 
L 265.630718 132.002506 
L 265.898558 132.290066 
L 266.300318 133.135837 
L 266.902958 135.039302 
L 269.246558 143.124611 
L 269.916158 144.495758 
L 270.518798 145.262118 
L 271.054478 145.612673 
L 271.590158 145.708082 
L 272.192798 145.587155 
L 273.063278 145.154557 
L 275.473838 143.8283 
L 276.210398 143.667651 
L 276.344318 144.082655 
L 276.612158 146.109128 
L 277.013918 151.598607 
L 277.616558 163.537195 
L 279.826238 210.754389 
L 280.495838 219.615126 
L 281.031518 224.260389 
L 281.500238 226.692703 
L 281.901998 227.725022 
L 282.169838 227.952852 
L 282.437678 227.868073 
L 282.772478 227.395887 
L 283.241198 226.214877 
L 284.044718 223.382886 
L 285.584798 217.882897 
L 286.321358 216.037948 
L 286.923998 215.029671 
L 287.459678 214.491259 
L 287.995358 214.24332 
L 288.531038 214.22785 
L 289.200638 214.44063 
L 290.338958 215.095192 
L 291.945998 215.983552 
L 292.883438 216.292615 
L 293.017358 216.096975 
L 293.218238 215.009727 
L 293.553038 211.38567 
L 294.021758 203.429589 
L 294.892238 183.972978 
L 296.231438 154.864422 
L 296.967998 143.433559 
L 297.570638 137.154737 
L 298.106318 133.776951 
L 298.508078 132.439585 
L 298.842878 131.991349 
L 299.110718 132.002506 
L 299.378558 132.290066 
L 299.780318 133.135837 
L 300.382958 135.039302 
L 302.726558 143.124611 
L 303.396158 144.495758 
L 303.998798 145.262118 
L 304.534478 145.612673 
L 305.070158 145.708082 
L 305.672798 145.587155 
L 306.543278 145.154557 
L 308.953838 143.8283 
L 309.690398 143.667651 
L 309.824318 144.082655 
L 310.092158 146.109128 
L 310.493918 151.598607 
L 311.096558 163.537195 
L 313.306238 210.754389 
L 313.975838 219.615126 
L 314.511518 224.260389 
L 314.980238 226.692703 
L 315.381998 227.725022 
L 315.649838 227.952852 
L 315.917678 227.868073 
L 316.252478 227.395887 
L 316.721198 226.214877 
L 317.524718 223.382886 
L 319.064798 217.882897 
L 319.801358 216.037948 
L 320.403998 215.029671 
L 320.939678 214.491259 
L 321.475358 214.24332 
L 322.011038 214.22785 
L 322.680638 214.44063 
L 323.818958 215.095192 
L 325.425998 215.983552 
L 326.363438 216.292615 
L 326.497358 216.096975 
L 326.698238 215.009727 
L 327.033038 211.38567 
L 327.501758 203.429589 
L 328.372238 183.972978 
L 329.711438 154.864422 
L 330.447998 143.433559 
L 331.050638 137.154737 
L 331.586318 133.776951 
L 331.988078 132.439585 
L 332.322878 131.991349 
L 332.590718 132.002506 
L 332.858558 132.290066 
L 333.260318 133.135837 
L 333.862958 135.039302 
L 336.206558 143.124611 
L 336.876158 144.495758 
L 337.478798 145.262118 
L 338.014478 145.612673 
L 338.550158 145.708082 
L 339.152798 145.587155 
L 340.023278 145.154557 
L 342.433838 143.8283 
L 343.170398 143.667651 
L 343.304318 144.082655 
L 343.572158 146.109128 
L 343.973918 151.598607 
L 344.576558 163.537195 
L 346.786238 210.754389 
L 347.455838 219.615126 
L 347.991518 224.260389 
L 348.460238 226.692703 
L 348.861998 227.725022 
L 349.129838 227.952852 
L 349.397678 227.868073 
L 349.732478 227.395887 
L 350.201198 226.214877 
L 351.004718 223.382886 
L 352.544798 217.882897 
L 353.281358 216.037948 
L 353.883998 215.029671 
L 354.419678 214.491259 
L 354.955358 214.24332 
L 355.491038 214.22785 
L 356.160638 214.44063 
L 357.298958 215.095192 
L 358.905998 215.983552 
L 359.843438 216.292615 
L 359.977358 216.096975 
L 360.178238 215.009727 
L 360.513037 211.38567 
L 360.981758 203.429589 
L 361.852238 183.972978 
L 363.191438 154.864422 
L 363.927998 143.433559 
L 364.530638 137.154737 
L 365.066318 133.776951 
L 365.468078 132.439585 
L 365.802878 131.991349 
L 366.070718 132.002506 
L 366.338558 132.290066 
L 366.740318 133.135837 
L 367.342958 135.039302 
L 369.686558 143.124611 
L 370.356158 144.495758 
L 370.958798 145.262118 
L 371.494478 145.612673 
L 372.030158 145.708082 
L 372.632798 145.587155 
L 373.503278 145.154557 
L 375.913838 143.8283 
L 376.650398 143.667651 
L 376.784318 144.082655 
L 377.052158 146.109128 
L 377.453918 151.598607 
L 378.056558 163.537195 
L 380.266238 210.754389 
L 380.935838 219.615126 
L 381.471518 224.260389 
L 381.940238 226.692703 
L 382.341998 227.725022 
L 382.609838 227.952852 
L 382.877678 227.868073 
L 383.212478 227.395887 
L 383.681198 226.214877 
L 384.484718 223.382886 
L 386.024798 217.882897 
L 386.761358 216.037948 
L 387.363998 215.029671 
L 387.899678 214.491259 
L 388.435358 214.24332 
L 388.971038 214.22785 
L 389.640638 214.44063 
L 390.778958 215.095192 
L 392.385998 215.983552 
L 393.323438 216.292615 
L 393.323438 216.292615 
" clip-path="url(#p584294269f)" style="fill: none; stroke: #1f77b4; stroke-width: 1.5; stroke-linecap: square"/>
   </g>
   <g id="patch_8">
    <path d="M 58.523438 230.359219 
L 58.523438 129.559219 
" style="fill: none"/>
   </g>
   <g id="patch_9">
    <path d="M 393.323438 230.359219 
L 393.323438 129.559219 
" style="fill: none"/>
   </g>
   <g id="patch_10">
    <path d="M 58.523438 230.359219 
L 393.323438 230.359219 
" style="fill: none; stroke: #000000; stroke-width: 0.8; stroke-linejoin: miter; stroke-linecap: square"/>
   </g>
   <g id="patch_11">
    <path d="M 58.523438 179.959219 
L 393.323438 179.959219 
" style="fill: none; stroke: #000000; stroke-width: 0.8; stroke-linejoin: miter; stroke-linecap: square"/>
   </g>
  </g>
 </g>
 <defs>
  <clipPath id="pc2f7f69a13">
   <rect x="58.523438" y="8.599219" width="334.8" height="100.8"/>
  </clipPath>
  <clipPath id="p584294269f">
   <rect x="58.523438" y="129.559219" width="334.8" height="100.8"/>
  </clipPath>
 </defs>
</svg>
