<?xml version="1.0" encoding="utf-8" standalone="no"?>
<!DOCTYPE svg PUBLIC "-//W3C//DTD SVG 1.1//EN"
  "http://www.w3.org/Graphics/SVG/1.1/DTD/svg11.dtd">
<svg xmlns:xlink="http://www.w3.org/1999/xlink" width="413.248438pt" height="267.915469pt" viewBox="0 0 413.248438 267.915469" xmlns="http://www.w3.org/2000/svg" version="1.1">
 <metadata>
  <rdf:RDF xmlns:dc="http://purl.org/dc/elements/1.1/" xmlns:cc="http://creativecommons.org/ns#" xmlns:rdf="http://www.w3.org/1999/02/22-rdf-syntax-ns#">
   <cc:Work>
    <dc:type rdf:resource="http://purl.org/dc/dcmitype/StillImage"/>
    <dc:date>2025-07-09T15:00:07.283700</dc:date>
    <dc:format>image/svg+xml</dc:format>
    <dc:creator>
     <cc:Agent>
      <dc:title>Matplotlib v3.10.3, https://matplotlib.org/</dc:title>
     </cc:Agent>
    </dc:creator>
   </cc:Work>
  </rdf:RDF>
 </metadata>
 <defs>
  <style type="text/css">*{stroke-linejoin: round; stroke-linecap: butt}</style>
 </defs>
 <g id="figure_1">
  <g id="patch_1">
   <path d="M 0 267.915469 
L 413.248438 267.915469 
L 413.248438 0 
L 0 0 
z
" style="fill: #ffffff"/>
  </g>
  <g id="axes_1">
   <g id="patch_2">
    <path d="M 64.885938 109.399219 
L 399.685938 109.399219 
L 399.685938 8.599219 
L 64.885938 8.599219 
z
" style="fill: #ffffff"/>
   </g>
   <g id="matplotlib.axis_1">
    <g id="xtick_1">
     <g id="line2d_1">
      <path d="M 64.885938 109.399219 
L 64.885938 8.599219 
" clip-path="url(#p3b16109284)" style="fill: none; stroke: #b0b0b0; stroke-width: 0.8; stroke-linecap: square"/>
     </g>
     <g id="line2d_2">
      <defs>
       <path id="mee52c51780" d="M 0 0 
L 0 3.5 
" style="stroke: #000000; stroke-width: 0.8"/>
      </defs>
      <g>
       <use xlink:href="#mee52c51780" x="64.885938" y="58.999219" style="stroke: #000000; stroke-width: 0.8"/>
      </g>
     </g>
    </g>
    <g id="xtick_2">
     <g id="line2d_3">
      <path d="M 98.365938 109.399219 
L 98.365938 8.599219 
" clip-path="url(#p3b16109284)" style="fill: none; stroke: #b0b0b0; stroke-width: 0.8; stroke-linecap: square"/>
     </g>
     <g id="line2d_4">
      <g>
       <use xlink:href="#mee52c51780" x="98.365938" y="58.999219" style="stroke: #000000; stroke-width: 0.8"/>
      </g>
     </g>
    </g>
    <g id="xtick_3">
     <g id="line2d_5">
      <path d="M 131.845938 109.399219 
L 131.845938 8.599219 
" clip-path="url(#p3b16109284)" style="fill: none; stroke: #b0b0b0; stroke-width: 0.8; stroke-linecap: square"/>
     </g>
     <g id="line2d_6">
      <g>
       <use xlink:href="#mee52c51780" x="131.845938" y="58.999219" style="stroke: #000000; stroke-width: 0.8"/>
      </g>
     </g>
    </g>
    <g id="xtick_4">
     <g id="line2d_7">
      <path d="M 165.325938 109.399219 
L 165.325938 8.599219 
" clip-path="url(#p3b16109284)" style="fill: none; stroke: #b0b0b0; stroke-width: 0.8; stroke-linecap: square"/>
     </g>
     <g id="line2d_8">
      <g>
       <use xlink:href="#mee52c51780" x="165.325938" y="58.999219" style="stroke: #000000; stroke-width: 0.8"/>
      </g>
     </g>
    </g>
    <g id="xtick_5">
     <g id="line2d_9">
      <path d="M 198.805938 109.399219 
L 198.805938 8.599219 
" clip-path="url(#p3b16109284)" style="fill: none; stroke: #b0b0b0; stroke-width: 0.8; stroke-linecap: square"/>
     </g>
     <g id="line2d_10">
      <g>
       <use xlink:href="#mee52c51780" x="198.805938" y="58.999219" style="stroke: #000000; stroke-width: 0.8"/>
      </g>
     </g>
    </g>
    <g id="xtick_6">
     <g id="line2d_11">
      <path d="M 232.285938 109.399219 
L 232.285938 8.599219 
" clip-path="url(#p3b16109284)" style="fill: none; stroke: #b0b0b0; stroke-width: 0.8; stroke-linecap: square"/>
     </g>
     <g id="line2d_12">
      <g>
       <use xlink:href="#mee52c51780" x="232.285938" y="58.999219" style="stroke: #000000; stroke-width: 0.8"/>
      </g>
     </g>
    </g>
    <g id="xtick_7">
     <g id="line2d_13">
      <path d="M 265.765938 109.399219 
L 265.765938 8.599219 
" clip-path="url(#p3b16109284)" style="fill: none; stroke: #b0b0b0; stroke-width: 0.8; stroke-linecap: square"/>
     </g>
     <g id="line2d_14">
      <g>
       <use xlink:href="#mee52c51780" x="265.765938" y="58.999219" style="stroke: #000000; stroke-width: 0.8"/>
      </g>
     </g>
    </g>
    <g id="xtick_8">
     <g id="line2d_15">
      <path d="M 299.245938 109.399219 
L 299.245938 8.599219 
" clip-path="url(#p3b16109284)" style="fill: none; stroke: #b0b0b0; stroke-width: 0.8; stroke-linecap: square"/>
     </g>
     <g id="line2d_16">
      <g>
       <use xlink:href="#mee52c51780" x="299.245938" y="58.999219" style="stroke: #000000; stroke-width: 0.8"/>
      </g>
     </g>
    </g>
    <g id="xtick_9">
     <g id="line2d_17">
      <path d="M 332.725938 109.399219 
L 332.725938 8.599219 
" clip-path="url(#p3b16109284)" style="fill: none; stroke: #b0b0b0; stroke-width: 0.8; stroke-linecap: square"/>
     </g>
     <g id="line2d_18">
      <g>
       <use xlink:href="#mee52c51780" x="332.725938" y="58.999219" style="stroke: #000000; stroke-width: 0.8"/>
      </g>
     </g>
    </g>
    <g id="xtick_10">
     <g id="line2d_19">
      <path d="M 366.205938 109.399219 
L 366.205938 8.599219 
" clip-path="url(#p3b16109284)" style="fill: none; stroke: #b0b0b0; stroke-width: 0.8; stroke-linecap: square"/>
     </g>
     <g id="line2d_20">
      <g>
       <use xlink:href="#mee52c51780" x="366.205938" y="58.999219" style="stroke: #000000; stroke-width: 0.8"/>
      </g>
     </g>
    </g>
    <g id="xtick_11">
     <g id="line2d_21">
      <path d="M 399.685938 109.399219 
L 399.685938 8.599219 
" clip-path="url(#p3b16109284)" style="fill: none; stroke: #b0b0b0; stroke-width: 0.8; stroke-linecap: square"/>
     </g>
     <g id="line2d_22">
      <g>
       <use xlink:href="#mee52c51780" x="399.685938" y="58.999219" style="stroke: #000000; stroke-width: 0.8"/>
      </g>
     </g>
    </g>
   </g>
   <g id="matplotlib.axis_2">
    <g id="ytick_1">
     <g id="line2d_23">
      <path d="M 64.885938 106.999219 
L 399.685938 106.999219 
" clip-path="url(#p3b16109284)" style="fill: none; stroke: #b0b0b0; stroke-width: 0.8; stroke-linecap: square"/>
     </g>
     <g id="line2d_24">
      <defs>
       <path id="m9574184ff2" d="M 0 0 
L -3.5 0 
" style="stroke: #000000; stroke-width: 0.8"/>
      </defs>
      <g>
       <use xlink:href="#m9574184ff2" x="64.885938" y="106.999219" style="stroke: #000000; stroke-width: 0.8"/>
      </g>
     </g>
     <g id="text_1">
      <!-- −1 -->
      <g transform="translate(43.14375 110.798437) scale(0.1 -0.1)">
       <defs>
        <path id="DejaVuSans-2212" d="M 678 2272 
L 4684 2272 
L 4684 1741 
L 678 1741 
L 678 2272 
z
" transform="scale(0.015625)"/>
        <path id="DejaVuSans-31" d="M 794 531 
L 1825 531 
L 1825 4091 
L 703 3866 
L 703 4441 
L 1819 4666 
L 2450 4666 
L 2450 531 
L 3481 531 
L 3481 0 
L 794 0 
L 794 531 
z
" transform="scale(0.015625)"/>
       </defs>
       <use xlink:href="#DejaVuSans-2212"/>
       <use xlink:href="#DejaVuSans-31" transform="translate(83.789062 0)"/>
      </g>
     </g>
    </g>
    <g id="ytick_2">
     <g id="line2d_25">
      <path d="M 64.885938 58.999219 
L 399.685938 58.999219 
" clip-path="url(#p3b16109284)" style="fill: none; stroke: #b0b0b0; stroke-width: 0.8; stroke-linecap: square"/>
     </g>
     <g id="line2d_26">
      <g>
       <use xlink:href="#m9574184ff2" x="64.885938" y="58.999219" style="stroke: #000000; stroke-width: 0.8"/>
      </g>
     </g>
     <g id="text_2">
      <!-- 0 -->
      <g transform="translate(51.523438 62.798437) scale(0.1 -0.1)">
       <defs>
        <path id="DejaVuSans-30" d="M 2034 4250 
Q 1547 4250 1301 3770 
Q 1056 3291 1056 2328 
Q 1056 1369 1301 889 
Q 1547 409 2034 409 
Q 2525 409 2770 889 
Q 3016 1369 3016 2328 
Q 3016 3291 2770 3770 
Q 2525 4250 2034 4250 
z
M 2034 4750 
Q 2819 4750 3233 4129 
Q 3647 3509 3647 2328 
Q 3647 1150 3233 529 
Q 2819 -91 2034 -91 
Q 1250 -91 836 529 
Q 422 1150 422 2328 
Q 422 3509 836 4129 
Q 1250 4750 2034 4750 
z
" transform="scale(0.015625)"/>
       </defs>
       <use xlink:href="#DejaVuSans-30"/>
      </g>
     </g>
    </g>
    <g id="ytick_3">
     <g id="line2d_27">
      <path d="M 64.885938 10.999219 
L 399.685938 10.999219 
" clip-path="url(#p3b16109284)" style="fill: none; stroke: #b0b0b0; stroke-width: 0.8; stroke-linecap: square"/>
     </g>
     <g id="line2d_28">
      <g>
       <use xlink:href="#m9574184ff2" x="64.885938" y="10.999219" style="stroke: #000000; stroke-width: 0.8"/>
      </g>
     </g>
     <g id="text_3">
      <!-- 1 -->
      <g transform="translate(51.523438 14.798438) scale(0.1 -0.1)">
       <use xlink:href="#DejaVuSans-31"/>
      </g>
     </g>
    </g>
    <g id="text_4">
     <!-- Forcing Function -->
     <g transform="translate(14.798438 100.03125) rotate(-90) scale(0.1 -0.1)">
      <defs>
       <path id="DejaVuSans-46" d="M 628 4666 
L 3309 4666 
L 3309 4134 
L 1259 4134 
L 1259 2759 
L 3109 2759 
L 3109 2228 
L 1259 2228 
L 1259 0 
L 628 0 
L 628 4666 
z
" transform="scale(0.015625)"/>
       <path id="DejaVuSans-6f" d="M 1959 3097 
Q 1497 3097 1228 2736 
Q 959 2375 959 1747 
Q 959 1119 1226 758 
Q 1494 397 1959 397 
Q 2419 397 2687 759 
Q 2956 1122 2956 1747 
Q 2956 2369 2687 2733 
Q 2419 3097 1959 3097 
z
M 1959 3584 
Q 2709 3584 3137 3096 
Q 3566 2609 3566 1747 
Q 3566 888 3137 398 
Q 2709 -91 1959 -91 
Q 1206 -91 779 398 
Q 353 888 353 1747 
Q 353 2609 779 3096 
Q 1206 3584 1959 3584 
z
" transform="scale(0.015625)"/>
       <path id="DejaVuSans-72" d="M 2631 2963 
Q 2534 3019 2420 3045 
Q 2306 3072 2169 3072 
Q 1681 3072 1420 2755 
Q 1159 2438 1159 1844 
L 1159 0 
L 581 0 
L 581 3500 
L 1159 3500 
L 1159 2956 
Q 1341 3275 1631 3429 
Q 1922 3584 2338 3584 
Q 2397 3584 2469 3576 
Q 2541 3569 2628 3553 
L 2631 2963 
z
" transform="scale(0.015625)"/>
       <path id="DejaVuSans-63" d="M 3122 3366 
L 3122 2828 
Q 2878 2963 2633 3030 
Q 2388 3097 2138 3097 
Q 1578 3097 1268 2742 
Q 959 2388 959 1747 
Q 959 1106 1268 751 
Q 1578 397 2138 397 
Q 2388 397 2633 464 
Q 2878 531 3122 666 
L 3122 134 
Q 2881 22 2623 -34 
Q 2366 -91 2075 -91 
Q 1284 -91 818 406 
Q 353 903 353 1747 
Q 353 2603 823 3093 
Q 1294 3584 2113 3584 
Q 2378 3584 2631 3529 
Q 2884 3475 3122 3366 
z
" transform="scale(0.015625)"/>
       <path id="DejaVuSans-69" d="M 603 3500 
L 1178 3500 
L 1178 0 
L 603 0 
L 603 3500 
z
M 603 4863 
L 1178 4863 
L 1178 4134 
L 603 4134 
L 603 4863 
z
" transform="scale(0.015625)"/>
       <path id="DejaVuSans-6e" d="M 3513 2113 
L 3513 0 
L 2938 0 
L 2938 2094 
Q 2938 2591 2744 2837 
Q 2550 3084 2163 3084 
Q 1697 3084 1428 2787 
Q 1159 2491 1159 1978 
L 1159 0 
L 581 0 
L 581 3500 
L 1159 3500 
L 1159 2956 
Q 1366 3272 1645 3428 
Q 1925 3584 2291 3584 
Q 2894 3584 3203 3211 
Q 3513 2838 3513 2113 
z
" transform="scale(0.015625)"/>
       <path id="DejaVuSans-67" d="M 2906 1791 
Q 2906 2416 2648 2759 
Q 2391 3103 1925 3103 
Q 1463 3103 1205 2759 
Q 947 2416 947 1791 
Q 947 1169 1205 825 
Q 1463 481 1925 481 
Q 2391 481 2648 825 
Q 2906 1169 2906 1791 
z
M 3481 434 
Q 3481 -459 3084 -895 
Q 2688 -1331 1869 -1331 
Q 1566 -1331 1297 -1286 
Q 1028 -1241 775 -1147 
L 775 -588 
Q 1028 -725 1275 -790 
Q 1522 -856 1778 -856 
Q 2344 -856 2625 -561 
Q 2906 -266 2906 331 
L 2906 616 
Q 2728 306 2450 153 
Q 2172 0 1784 0 
Q 1141 0 747 490 
Q 353 981 353 1791 
Q 353 2603 747 3093 
Q 1141 3584 1784 3584 
Q 2172 3584 2450 3431 
Q 2728 3278 2906 2969 
L 2906 3500 
L 3481 3500 
L 3481 434 
z
" transform="scale(0.015625)"/>
       <path id="DejaVuSans-20" transform="scale(0.015625)"/>
       <path id="DejaVuSans-75" d="M 544 1381 
L 544 3500 
L 1119 3500 
L 1119 1403 
Q 1119 906 1312 657 
Q 1506 409 1894 409 
Q 2359 409 2629 706 
Q 2900 1003 2900 1516 
L 2900 3500 
L 3475 3500 
L 3475 0 
L 2900 0 
L 2900 538 
Q 2691 219 2414 64 
Q 2138 -91 1772 -91 
Q 1169 -91 856 284 
Q 544 659 544 1381 
z
M 1991 3584 
L 1991 3584 
z
" transform="scale(0.015625)"/>
       <path id="DejaVuSans-74" d="M 1172 4494 
L 1172 3500 
L 2356 3500 
L 2356 3053 
L 1172 3053 
L 1172 1153 
Q 1172 725 1289 603 
Q 1406 481 1766 481 
L 2356 481 
L 2356 0 
L 1766 0 
Q 1100 0 847 248 
Q 594 497 594 1153 
L 594 3053 
L 172 3053 
L 172 3500 
L 594 3500 
L 594 4494 
L 1172 4494 
z
" transform="scale(0.015625)"/>
      </defs>
      <use xlink:href="#DejaVuSans-46"/>
      <use xlink:href="#DejaVuSans-6f" transform="translate(53.894531 0)"/>
      <use xlink:href="#DejaVuSans-72" transform="translate(115.076172 0)"/>
      <use xlink:href="#DejaVuSans-63" transform="translate(153.939453 0)"/>
      <use xlink:href="#DejaVuSans-69" transform="translate(208.919922 0)"/>
      <use xlink:href="#DejaVuSans-6e" transform="translate(236.703125 0)"/>
      <use xlink:href="#DejaVuSans-67" transform="translate(300.082031 0)"/>
      <use xlink:href="#DejaVuSans-20" transform="translate(363.558594 0)"/>
      <use xlink:href="#DejaVuSans-46" transform="translate(395.345703 0)"/>
      <use xlink:href="#DejaVuSans-75" transform="translate(447.365234 0)"/>
      <use xlink:href="#DejaVuSans-6e" transform="translate(510.744141 0)"/>
      <use xlink:href="#DejaVuSans-63" transform="translate(574.123047 0)"/>
      <use xlink:href="#DejaVuSans-74" transform="translate(629.103516 0)"/>
      <use xlink:href="#DejaVuSans-69" transform="translate(668.3125 0)"/>
      <use xlink:href="#DejaVuSans-6f" transform="translate(696.095703 0)"/>
      <use xlink:href="#DejaVuSans-6e" transform="translate(757.277344 0)"/>
     </g>
    </g>
   </g>
   <g id="line2d_29">
    <path d="M 64.885938 58.999219 
L 65.019858 12.211421 
L 65.220738 11.485635 
L 65.555538 11.243 
L 66.292098 11.116366 
L 68.568738 11.047158 
L 78.411858 11.053087 
L 80.755458 11.187094 
L 81.224178 11.404745 
L 81.425058 11.808849 
L 81.492018 12.211421 
L 81.558978 13.402194 
L 81.759858 105.787016 
L 81.960738 106.512803 
L 82.295538 106.755438 
L 83.032098 106.882071 
L 85.308738 106.951279 
L 95.151858 106.945351 
L 97.495458 106.811344 
L 97.964178 106.593692 
L 98.165058 106.189588 
L 98.232018 105.787016 
L 98.298978 104.596243 
L 98.499858 12.211421 
L 98.700738 11.485635 
L 99.035538 11.243 
L 99.772098 11.116366 
L 102.048738 11.047158 
L 111.891858 11.053087 
L 114.235458 11.187094 
L 114.704178 11.404745 
L 114.905058 11.808849 
L 114.972018 12.211421 
L 115.038978 13.402194 
L 115.239858 105.787016 
L 115.440738 106.512803 
L 115.775538 106.755438 
L 116.512098 106.882071 
L 118.788738 106.951279 
L 128.631858 106.945351 
L 130.975458 106.811344 
L 131.444178 106.593692 
L 131.645058 106.189588 
L 131.712018 105.787016 
L 131.778978 104.596243 
L 131.979858 12.211421 
L 132.180738 11.485635 
L 132.515538 11.243 
L 133.252098 11.116366 
L 135.528738 11.047158 
L 145.371858 11.053087 
L 147.715458 11.187094 
L 148.184178 11.404745 
L 148.385058 11.808849 
L 148.452018 12.211421 
L 148.518978 13.402194 
L 148.719858 105.787016 
L 148.920738 106.512803 
L 149.255538 106.755438 
L 149.992098 106.882071 
L 152.268738 106.951279 
L 162.111858 106.945351 
L 164.455458 106.811344 
L 164.924178 106.593692 
L 165.125058 106.189588 
L 165.192018 105.787016 
L 165.258978 104.596243 
L 165.459858 12.211421 
L 165.660738 11.485635 
L 165.995538 11.243 
L 166.732098 11.116366 
L 169.008738 11.047158 
L 178.851858 11.053087 
L 181.195458 11.187094 
L 181.664178 11.404745 
L 181.865058 11.808849 
L 181.932018 12.211421 
L 181.998978 13.402194 
L 182.199858 105.787016 
L 182.400738 106.512803 
L 182.735538 106.755438 
L 183.472098 106.882071 
L 185.748738 106.951279 
L 195.591858 106.945351 
L 197.935458 106.811344 
L 198.404178 106.593692 
L 198.605058 106.189588 
L 198.672018 105.787016 
L 198.738978 104.596243 
L 198.939858 12.211421 
L 199.140738 11.485635 
L 199.475538 11.243 
L 200.212098 11.116366 
L 202.488738 11.047158 
L 212.331858 11.053087 
L 214.675458 11.187094 
L 215.144178 11.404745 
L 215.345058 11.808849 
L 215.412018 12.211421 
L 215.478978 13.402194 
L 215.679858 105.787016 
L 215.880738 106.512803 
L 216.215538 106.755438 
L 216.952098 106.882071 
L 219.228738 106.951279 
L 229.071858 106.945351 
L 231.415458 106.811344 
L 231.884178 106.593692 
L 232.085058 106.189588 
L 232.152018 105.787016 
L 232.218978 104.596243 
L 232.419858 12.211421 
L 232.620738 11.485635 
L 232.955538 11.243 
L 233.692098 11.116366 
L 235.968738 11.047158 
L 245.811858 11.053087 
L 248.155458 11.187094 
L 248.624178 11.404745 
L 248.825058 11.808849 
L 248.892018 12.211421 
L 248.958978 13.402194 
L 249.159858 105.787016 
L 249.360738 106.512803 
L 249.695538 106.755438 
L 250.432098 106.882071 
L 252.708738 106.951279 
L 262.551858 106.945351 
L 264.895458 106.811344 
L 265.364178 106.593692 
L 265.565058 106.189588 
L 265.632018 105.787016 
L 265.698978 104.596243 
L 265.899858 12.211421 
L 266.100738 11.485635 
L 266.435538 11.243 
L 267.172098 11.116366 
L 269.448738 11.047158 
L 279.291857 11.053087 
L 281.635458 11.187094 
L 282.104178 11.404745 
L 282.305058 11.808849 
L 282.372018 12.211421 
L 282.438978 13.402194 
L 282.639858 105.787016 
L 282.840738 106.512803 
L 283.175538 106.755438 
L 283.912098 106.882071 
L 286.188738 106.951279 
L 296.031858 106.945351 
L 298.375458 106.811344 
L 298.844178 106.593692 
L 299.045058 106.189588 
L 299.112018 105.787016 
L 299.178978 104.596243 
L 299.379858 12.211421 
L 299.580738 11.485635 
L 299.915538 11.243 
L 300.652098 11.116366 
L 302.928738 11.047158 
L 312.771858 11.053087 
L 315.115458 11.187094 
L 315.584178 11.404745 
L 315.785057 11.808849 
L 315.852018 12.211421 
L 315.918978 13.402194 
L 316.119858 105.787016 
L 316.320738 106.512803 
L 316.655538 106.755438 
L 317.392098 106.882071 
L 319.668738 106.951279 
L 329.511858 106.945351 
L 331.855458 106.811344 
L 332.324178 106.593692 
L 332.525058 106.189588 
L 332.592018 105.787016 
L 332.658978 104.596243 
L 332.859858 12.211421 
L 333.060738 11.485635 
L 333.395538 11.243 
L 334.132098 11.116366 
L 336.408738 11.047158 
L 346.251858 11.053087 
L 348.595458 11.187094 
L 349.064178 11.404745 
L 349.265058 11.808849 
L 349.332018 12.211421 
L 349.398978 13.402194 
L 349.599858 105.787016 
L 349.800738 106.512803 
L 350.135538 106.755438 
L 350.872098 106.882071 
L 353.148738 106.951279 
L 362.991858 106.945351 
L 365.335458 106.811344 
L 365.804178 106.593692 
L 366.005058 106.189588 
L 366.072018 105.787016 
L 366.138978 104.596243 
L 366.339858 12.211421 
L 366.540738 11.485635 
L 366.875538 11.243 
L 367.612098 11.116366 
L 369.888738 11.047158 
L 379.731858 11.053087 
L 382.075458 11.187094 
L 382.544178 11.404745 
L 382.745058 11.808849 
L 382.812018 12.211421 
L 382.878978 13.402194 
L 383.079858 105.787016 
L 383.280738 106.512803 
L 383.615538 106.755438 
L 384.352098 106.882071 
L 386.628738 106.951279 
L 396.471858 106.945351 
L 398.815458 106.811344 
L 399.284178 106.593692 
L 399.485058 106.189588 
L 399.552018 105.787016 
L 399.618978 104.596243 
L 399.685938 58.999219 
L 399.685938 58.999219 
" clip-path="url(#p3b16109284)" style="fill: none; stroke: #1f77b4; stroke-width: 1.5; stroke-linecap: square"/>
   </g>
   <g id="patch_3">
    <path d="M 64.885938 109.399219 
L 64.885938 8.599219 
" style="fill: none"/>
   </g>
   <g id="patch_4">
    <path d="M 399.685938 109.399219 
L 399.685938 8.599219 
" style="fill: none"/>
   </g>
   <g id="patch_5">
    <path d="M 64.885938 58.999219 
L 399.685938 58.999219 
" style="fill: none; stroke: #000000; stroke-width: 0.8; stroke-linejoin: miter; stroke-linecap: square"/>
   </g>
   <g id="patch_6">
    <path d="M 64.885938 8.599219 
L 399.685938 8.599219 
" style="fill: none"/>
   </g>
  </g>
  <g id="axes_2">
   <g id="patch_7">
    <path d="M 64.885938 230.359219 
L 399.685938 230.359219 
L 399.685938 129.559219 
L 64.885938 129.559219 
z
" style="fill: #ffffff"/>
   </g>
   <g id="matplotlib.axis_3">
    <g id="xtick_12">
     <g id="line2d_30">
      <path d="M 64.885938 230.359219 
L 64.885938 129.559219 
" clip-path="url(#pa702bae061)" style="fill: none; stroke: #b0b0b0; stroke-width: 0.8; stroke-linecap: square"/>
     </g>
     <g id="line2d_31">
      <g>
       <use xlink:href="#mee52c51780" x="64.885938" y="230.359219" style="stroke: #000000; stroke-width: 0.8"/>
      </g>
     </g>
     <g id="text_5">
      <!-- 0 -->
      <g transform="translate(61.704688 244.957656) scale(0.1 -0.1)">
       <use xlink:href="#DejaVuSans-30"/>
      </g>
     </g>
    </g>
    <g id="xtick_13">
     <g id="line2d_32">
      <path d="M 98.365938 230.359219 
L 98.365938 129.559219 
" clip-path="url(#pa702bae061)" style="fill: none; stroke: #b0b0b0; stroke-width: 0.8; stroke-linecap: square"/>
     </g>
     <g id="line2d_33">
      <g>
       <use xlink:href="#mee52c51780" x="98.365938" y="230.359219" style="stroke: #000000; stroke-width: 0.8"/>
      </g>
     </g>
     <g id="text_6">
      <!-- 1 -->
      <g transform="translate(95.184688 244.957656) scale(0.1 -0.1)">
       <use xlink:href="#DejaVuSans-31"/>
      </g>
     </g>
    </g>
    <g id="xtick_14">
     <g id="line2d_34">
      <path d="M 131.845938 230.359219 
L 131.845938 129.559219 
" clip-path="url(#pa702bae061)" style="fill: none; stroke: #b0b0b0; stroke-width: 0.8; stroke-linecap: square"/>
     </g>
     <g id="line2d_35">
      <g>
       <use xlink:href="#mee52c51780" x="131.845938" y="230.359219" style="stroke: #000000; stroke-width: 0.8"/>
      </g>
     </g>
     <g id="text_7">
      <!-- 2 -->
      <g transform="translate(128.664688 244.957656) scale(0.1 -0.1)">
       <defs>
        <path id="DejaVuSans-32" d="M 1228 531 
L 3431 531 
L 3431 0 
L 469 0 
L 469 531 
Q 828 903 1448 1529 
Q 2069 2156 2228 2338 
Q 2531 2678 2651 2914 
Q 2772 3150 2772 3378 
Q 2772 3750 2511 3984 
Q 2250 4219 1831 4219 
Q 1534 4219 1204 4116 
Q 875 4013 500 3803 
L 500 4441 
Q 881 4594 1212 4672 
Q 1544 4750 1819 4750 
Q 2544 4750 2975 4387 
Q 3406 4025 3406 3419 
Q 3406 3131 3298 2873 
Q 3191 2616 2906 2266 
Q 2828 2175 2409 1742 
Q 1991 1309 1228 531 
z
" transform="scale(0.015625)"/>
       </defs>
       <use xlink:href="#DejaVuSans-32"/>
      </g>
     </g>
    </g>
    <g id="xtick_15">
     <g id="line2d_36">
      <path d="M 165.325938 230.359219 
L 165.325938 129.559219 
" clip-path="url(#pa702bae061)" style="fill: none; stroke: #b0b0b0; stroke-width: 0.8; stroke-linecap: square"/>
     </g>
     <g id="line2d_37">
      <g>
       <use xlink:href="#mee52c51780" x="165.325938" y="230.359219" style="stroke: #000000; stroke-width: 0.8"/>
      </g>
     </g>
     <g id="text_8">
      <!-- 3 -->
      <g transform="translate(162.144688 244.957656) scale(0.1 -0.1)">
       <defs>
        <path id="DejaVuSans-33" d="M 2597 2516 
Q 3050 2419 3304 2112 
Q 3559 1806 3559 1356 
Q 3559 666 3084 287 
Q 2609 -91 1734 -91 
Q 1441 -91 1130 -33 
Q 819 25 488 141 
L 488 750 
Q 750 597 1062 519 
Q 1375 441 1716 441 
Q 2309 441 2620 675 
Q 2931 909 2931 1356 
Q 2931 1769 2642 2001 
Q 2353 2234 1838 2234 
L 1294 2234 
L 1294 2753 
L 1863 2753 
Q 2328 2753 2575 2939 
Q 2822 3125 2822 3475 
Q 2822 3834 2567 4026 
Q 2313 4219 1838 4219 
Q 1578 4219 1281 4162 
Q 984 4106 628 3988 
L 628 4550 
Q 988 4650 1302 4700 
Q 1616 4750 1894 4750 
Q 2613 4750 3031 4423 
Q 3450 4097 3450 3541 
Q 3450 3153 3228 2886 
Q 3006 2619 2597 2516 
z
" transform="scale(0.015625)"/>
       </defs>
       <use xlink:href="#DejaVuSans-33"/>
      </g>
     </g>
    </g>
    <g id="xtick_16">
     <g id="line2d_38">
      <path d="M 198.805938 230.359219 
L 198.805938 129.559219 
" clip-path="url(#pa702bae061)" style="fill: none; stroke: #b0b0b0; stroke-width: 0.8; stroke-linecap: square"/>
     </g>
     <g id="line2d_39">
      <g>
       <use xlink:href="#mee52c51780" x="198.805938" y="230.359219" style="stroke: #000000; stroke-width: 0.8"/>
      </g>
     </g>
     <g id="text_9">
      <!-- 4 -->
      <g transform="translate(195.624688 244.957656) scale(0.1 -0.1)">
       <defs>
        <path id="DejaVuSans-34" d="M 2419 4116 
L 825 1625 
L 2419 1625 
L 2419 4116 
z
M 2253 4666 
L 3047 4666 
L 3047 1625 
L 3713 1625 
L 3713 1100 
L 3047 1100 
L 3047 0 
L 2419 0 
L 2419 1100 
L 313 1100 
L 313 1709 
L 2253 4666 
z
" transform="scale(0.015625)"/>
       </defs>
       <use xlink:href="#DejaVuSans-34"/>
      </g>
     </g>
    </g>
    <g id="xtick_17">
     <g id="line2d_40">
      <path d="M 232.285938 230.359219 
L 232.285938 129.559219 
" clip-path="url(#pa702bae061)" style="fill: none; stroke: #b0b0b0; stroke-width: 0.8; stroke-linecap: square"/>
     </g>
     <g id="line2d_41">
      <g>
       <use xlink:href="#mee52c51780" x="232.285938" y="230.359219" style="stroke: #000000; stroke-width: 0.8"/>
      </g>
     </g>
     <g id="text_10">
      <!-- 5 -->
      <g transform="translate(229.104688 244.957656) scale(0.1 -0.1)">
       <defs>
        <path id="DejaVuSans-35" d="M 691 4666 
L 3169 4666 
L 3169 4134 
L 1269 4134 
L 1269 2991 
Q 1406 3038 1543 3061 
Q 1681 3084 1819 3084 
Q 2600 3084 3056 2656 
Q 3513 2228 3513 1497 
Q 3513 744 3044 326 
Q 2575 -91 1722 -91 
Q 1428 -91 1123 -41 
Q 819 9 494 109 
L 494 744 
Q 775 591 1075 516 
Q 1375 441 1709 441 
Q 2250 441 2565 725 
Q 2881 1009 2881 1497 
Q 2881 1984 2565 2268 
Q 2250 2553 1709 2553 
Q 1456 2553 1204 2497 
Q 953 2441 691 2322 
L 691 4666 
z
" transform="scale(0.015625)"/>
       </defs>
       <use xlink:href="#DejaVuSans-35"/>
      </g>
     </g>
    </g>
    <g id="xtick_18">
     <g id="line2d_42">
      <path d="M 265.765938 230.359219 
L 265.765938 129.559219 
" clip-path="url(#pa702bae061)" style="fill: none; stroke: #b0b0b0; stroke-width: 0.8; stroke-linecap: square"/>
     </g>
     <g id="line2d_43">
      <g>
       <use xlink:href="#mee52c51780" x="265.765938" y="230.359219" style="stroke: #000000; stroke-width: 0.8"/>
      </g>
     </g>
     <g id="text_11">
      <!-- 6 -->
      <g transform="translate(262.584688 244.957656) scale(0.1 -0.1)">
       <defs>
        <path id="DejaVuSans-36" d="M 2113 2584 
Q 1688 2584 1439 2293 
Q 1191 2003 1191 1497 
Q 1191 994 1439 701 
Q 1688 409 2113 409 
Q 2538 409 2786 701 
Q 3034 994 3034 1497 
Q 3034 2003 2786 2293 
Q 2538 2584 2113 2584 
z
M 3366 4563 
L 3366 3988 
Q 3128 4100 2886 4159 
Q 2644 4219 2406 4219 
Q 1781 4219 1451 3797 
Q 1122 3375 1075 2522 
Q 1259 2794 1537 2939 
Q 1816 3084 2150 3084 
Q 2853 3084 3261 2657 
Q 3669 2231 3669 1497 
Q 3669 778 3244 343 
Q 2819 -91 2113 -91 
Q 1303 -91 875 529 
Q 447 1150 447 2328 
Q 447 3434 972 4092 
Q 1497 4750 2381 4750 
Q 2619 4750 2861 4703 
Q 3103 4656 3366 4563 
z
" transform="scale(0.015625)"/>
       </defs>
       <use xlink:href="#DejaVuSans-36"/>
      </g>
     </g>
    </g>
    <g id="xtick_19">
     <g id="line2d_44">
      <path d="M 299.245938 230.359219 
L 299.245938 129.559219 
" clip-path="url(#pa702bae061)" style="fill: none; stroke: #b0b0b0; stroke-width: 0.8; stroke-linecap: square"/>
     </g>
     <g id="line2d_45">
      <g>
       <use xlink:href="#mee52c51780" x="299.245938" y="230.359219" style="stroke: #000000; stroke-width: 0.8"/>
      </g>
     </g>
     <g id="text_12">
      <!-- 7 -->
      <g transform="translate(296.064688 244.957656) scale(0.1 -0.1)">
       <defs>
        <path id="DejaVuSans-37" d="M 525 4666 
L 3525 4666 
L 3525 4397 
L 1831 0 
L 1172 0 
L 2766 4134 
L 525 4134 
L 525 4666 
z
" transform="scale(0.015625)"/>
       </defs>
       <use xlink:href="#DejaVuSans-37"/>
      </g>
     </g>
    </g>
    <g id="xtick_20">
     <g id="line2d_46">
      <path d="M 332.725938 230.359219 
L 332.725938 129.559219 
" clip-path="url(#pa702bae061)" style="fill: none; stroke: #b0b0b0; stroke-width: 0.8; stroke-linecap: square"/>
     </g>
     <g id="line2d_47">
      <g>
       <use xlink:href="#mee52c51780" x="332.725938" y="230.359219" style="stroke: #000000; stroke-width: 0.8"/>
      </g>
     </g>
     <g id="text_13">
      <!-- 8 -->
      <g transform="translate(329.544688 244.957656) scale(0.1 -0.1)">
       <defs>
        <path id="DejaVuSans-38" d="M 2034 2216 
Q 1584 2216 1326 1975 
Q 1069 1734 1069 1313 
Q 1069 891 1326 650 
Q 1584 409 2034 409 
Q 2484 409 2743 651 
Q 3003 894 3003 1313 
Q 3003 1734 2745 1975 
Q 2488 2216 2034 2216 
z
M 1403 2484 
Q 997 2584 770 2862 
Q 544 3141 544 3541 
Q 544 4100 942 4425 
Q 1341 4750 2034 4750 
Q 2731 4750 3128 4425 
Q 3525 4100 3525 3541 
Q 3525 3141 3298 2862 
Q 3072 2584 2669 2484 
Q 3125 2378 3379 2068 
Q 3634 1759 3634 1313 
Q 3634 634 3220 271 
Q 2806 -91 2034 -91 
Q 1263 -91 848 271 
Q 434 634 434 1313 
Q 434 1759 690 2068 
Q 947 2378 1403 2484 
z
M 1172 3481 
Q 1172 3119 1398 2916 
Q 1625 2713 2034 2713 
Q 2441 2713 2670 2916 
Q 2900 3119 2900 3481 
Q 2900 3844 2670 4047 
Q 2441 4250 2034 4250 
Q 1625 4250 1398 4047 
Q 1172 3844 1172 3481 
z
" transform="scale(0.015625)"/>
       </defs>
       <use xlink:href="#DejaVuSans-38"/>
      </g>
     </g>
    </g>
    <g id="xtick_21">
     <g id="line2d_48">
      <path d="M 366.205938 230.359219 
L 366.205938 129.559219 
" clip-path="url(#pa702bae061)" style="fill: none; stroke: #b0b0b0; stroke-width: 0.8; stroke-linecap: square"/>
     </g>
     <g id="line2d_49">
      <g>
       <use xlink:href="#mee52c51780" x="366.205938" y="230.359219" style="stroke: #000000; stroke-width: 0.8"/>
      </g>
     </g>
     <g id="text_14">
      <!-- 9 -->
      <g transform="translate(363.024688 244.957656) scale(0.1 -0.1)">
       <defs>
        <path id="DejaVuSans-39" d="M 703 97 
L 703 672 
Q 941 559 1184 500 
Q 1428 441 1663 441 
Q 2288 441 2617 861 
Q 2947 1281 2994 2138 
Q 2813 1869 2534 1725 
Q 2256 1581 1919 1581 
Q 1219 1581 811 2004 
Q 403 2428 403 3163 
Q 403 3881 828 4315 
Q 1253 4750 1959 4750 
Q 2769 4750 3195 4129 
Q 3622 3509 3622 2328 
Q 3622 1225 3098 567 
Q 2575 -91 1691 -91 
Q 1453 -91 1209 -44 
Q 966 3 703 97 
z
M 1959 2075 
Q 2384 2075 2632 2365 
Q 2881 2656 2881 3163 
Q 2881 3666 2632 3958 
Q 2384 4250 1959 4250 
Q 1534 4250 1286 3958 
Q 1038 3666 1038 3163 
Q 1038 2656 1286 2365 
Q 1534 2075 1959 2075 
z
" transform="scale(0.015625)"/>
       </defs>
       <use xlink:href="#DejaVuSans-39"/>
      </g>
     </g>
    </g>
    <g id="xtick_22">
     <g id="line2d_50">
      <path d="M 399.685938 230.359219 
L 399.685938 129.559219 
" clip-path="url(#pa702bae061)" style="fill: none; stroke: #b0b0b0; stroke-width: 0.8; stroke-linecap: square"/>
     </g>
     <g id="line2d_51">
      <g>
       <use xlink:href="#mee52c51780" x="399.685938" y="230.359219" style="stroke: #000000; stroke-width: 0.8"/>
      </g>
     </g>
     <g id="text_15">
      <!-- 10 -->
      <g transform="translate(393.323438 244.957656) scale(0.1 -0.1)">
       <use xlink:href="#DejaVuSans-31"/>
       <use xlink:href="#DejaVuSans-30" transform="translate(63.623047 0)"/>
      </g>
     </g>
    </g>
    <g id="text_16">
     <!-- Time -->
     <g transform="translate(220.052344 258.635781) scale(0.1 -0.1)">
      <defs>
       <path id="DejaVuSans-54" d="M -19 4666 
L 3928 4666 
L 3928 4134 
L 2272 4134 
L 2272 0 
L 1638 0 
L 1638 4134 
L -19 4134 
L -19 4666 
z
" transform="scale(0.015625)"/>
       <path id="DejaVuSans-6d" d="M 3328 2828 
Q 3544 3216 3844 3400 
Q 4144 3584 4550 3584 
Q 5097 3584 5394 3201 
Q 5691 2819 5691 2113 
L 5691 0 
L 5113 0 
L 5113 2094 
Q 5113 2597 4934 2840 
Q 4756 3084 4391 3084 
Q 3944 3084 3684 2787 
Q 3425 2491 3425 1978 
L 3425 0 
L 2847 0 
L 2847 2094 
Q 2847 2600 2669 2842 
Q 2491 3084 2119 3084 
Q 1678 3084 1418 2786 
Q 1159 2488 1159 1978 
L 1159 0 
L 581 0 
L 581 3500 
L 1159 3500 
L 1159 2956 
Q 1356 3278 1631 3431 
Q 1906 3584 2284 3584 
Q 2666 3584 2933 3390 
Q 3200 3197 3328 2828 
z
" transform="scale(0.015625)"/>
       <path id="DejaVuSans-65" d="M 3597 1894 
L 3597 1613 
L 953 1613 
Q 991 1019 1311 708 
Q 1631 397 2203 397 
Q 2534 397 2845 478 
Q 3156 559 3463 722 
L 3463 178 
Q 3153 47 2828 -22 
Q 2503 -91 2169 -91 
Q 1331 -91 842 396 
Q 353 884 353 1716 
Q 353 2575 817 3079 
Q 1281 3584 2069 3584 
Q 2775 3584 3186 3129 
Q 3597 2675 3597 1894 
z
M 3022 2063 
Q 3016 2534 2758 2815 
Q 2500 3097 2075 3097 
Q 1594 3097 1305 2825 
Q 1016 2553 972 2059 
L 3022 2063 
z
" transform="scale(0.015625)"/>
      </defs>
      <use xlink:href="#DejaVuSans-54"/>
      <use xlink:href="#DejaVuSans-69" transform="translate(57.958984 0)"/>
      <use xlink:href="#DejaVuSans-6d" transform="translate(85.742188 0)"/>
      <use xlink:href="#DejaVuSans-65" transform="translate(183.154297 0)"/>
     </g>
    </g>
   </g>
   <g id="matplotlib.axis_4">
    <g id="ytick_4">
     <g id="line2d_52">
      <path d="M 64.885938 206.744992 
L 399.685938 206.744992 
" clip-path="url(#pa702bae061)" style="fill: none; stroke: #b0b0b0; stroke-width: 0.8; stroke-linecap: square"/>
     </g>
     <g id="line2d_53">
      <g>
       <use xlink:href="#m9574184ff2" x="64.885938" y="206.744992" style="stroke: #000000; stroke-width: 0.8"/>
      </g>
     </g>
     <g id="text_17">
      <!-- −0.005 -->
      <g transform="translate(20.878125 210.544211) scale(0.1 -0.1)">
       <defs>
        <path id="DejaVuSans-2e" d="M 684 794 
L 1344 794 
L 1344 0 
L 684 0 
L 684 794 
z
" transform="scale(0.015625)"/>
       </defs>
       <use xlink:href="#DejaVuSans-2212"/>
       <use xlink:href="#DejaVuSans-30" transform="translate(83.789062 0)"/>
       <use xlink:href="#DejaVuSans-2e" transform="translate(147.412109 0)"/>
       <use xlink:href="#DejaVuSans-30" transform="translate(179.199219 0)"/>
       <use xlink:href="#DejaVuSans-30" transform="translate(242.822266 0)"/>
       <use xlink:href="#DejaVuSans-35" transform="translate(306.445312 0)"/>
      </g>
     </g>
    </g>
    <g id="ytick_5">
     <g id="line2d_54">
      <path d="M 64.885938 179.959219 
L 399.685938 179.959219 
" clip-path="url(#pa702bae061)" style="fill: none; stroke: #b0b0b0; stroke-width: 0.8; stroke-linecap: square"/>
     </g>
     <g id="line2d_55">
      <g>
       <use xlink:href="#m9574184ff2" x="64.885938" y="179.959219" style="stroke: #000000; stroke-width: 0.8"/>
      </g>
     </g>
     <g id="text_18">
      <!-- 0.000 -->
      <g transform="translate(29.257813 183.758437) scale(0.1 -0.1)">
       <use xlink:href="#DejaVuSans-30"/>
       <use xlink:href="#DejaVuSans-2e" transform="translate(63.623047 0)"/>
       <use xlink:href="#DejaVuSans-30" transform="translate(95.410156 0)"/>
       <use xlink:href="#DejaVuSans-30" transform="translate(159.033203 0)"/>
       <use xlink:href="#DejaVuSans-30" transform="translate(222.65625 0)"/>
      </g>
     </g>
    </g>
    <g id="ytick_6">
     <g id="line2d_56">
      <path d="M 64.885938 153.173445 
L 399.685938 153.173445 
" clip-path="url(#pa702bae061)" style="fill: none; stroke: #b0b0b0; stroke-width: 0.8; stroke-linecap: square"/>
     </g>
     <g id="line2d_57">
      <g>
       <use xlink:href="#m9574184ff2" x="64.885938" y="153.173445" style="stroke: #000000; stroke-width: 0.8"/>
      </g>
     </g>
     <g id="text_19">
      <!-- 0.005 -->
      <g transform="translate(29.257813 156.972664) scale(0.1 -0.1)">
       <use xlink:href="#DejaVuSans-30"/>
       <use xlink:href="#DejaVuSans-2e" transform="translate(63.623047 0)"/>
       <use xlink:href="#DejaVuSans-30" transform="translate(95.410156 0)"/>
       <use xlink:href="#DejaVuSans-30" transform="translate(159.033203 0)"/>
       <use xlink:href="#DejaVuSans-35" transform="translate(222.65625 0)"/>
      </g>
     </g>
    </g>
    <g id="text_20">
     <!-- Position -->
     <g transform="translate(14.798438 199.423281) rotate(-90) scale(0.1 -0.1)">
      <defs>
       <path id="DejaVuSans-50" d="M 1259 4147 
L 1259 2394 
L 2053 2394 
Q 2494 2394 2734 2622 
Q 2975 2850 2975 3272 
Q 2975 3691 2734 3919 
Q 2494 4147 2053 4147 
L 1259 4147 
z
M 628 4666 
L 2053 4666 
Q 2838 4666 3239 4311 
Q 3641 3956 3641 3272 
Q 3641 2581 3239 2228 
Q 2838 1875 2053 1875 
L 1259 1875 
L 1259 0 
L 628 0 
L 628 4666 
z
" transform="scale(0.015625)"/>
       <path id="DejaVuSans-73" d="M 2834 3397 
L 2834 2853 
Q 2591 2978 2328 3040 
Q 2066 3103 1784 3103 
Q 1356 3103 1142 2972 
Q 928 2841 928 2578 
Q 928 2378 1081 2264 
Q 1234 2150 1697 2047 
L 1894 2003 
Q 2506 1872 2764 1633 
Q 3022 1394 3022 966 
Q 3022 478 2636 193 
Q 2250 -91 1575 -91 
Q 1294 -91 989 -36 
Q 684 19 347 128 
L 347 722 
Q 666 556 975 473 
Q 1284 391 1588 391 
Q 1994 391 2212 530 
Q 2431 669 2431 922 
Q 2431 1156 2273 1281 
Q 2116 1406 1581 1522 
L 1381 1569 
Q 847 1681 609 1914 
Q 372 2147 372 2553 
Q 372 3047 722 3315 
Q 1072 3584 1716 3584 
Q 2034 3584 2315 3537 
Q 2597 3491 2834 3397 
z
" transform="scale(0.015625)"/>
      </defs>
      <use xlink:href="#DejaVuSans-50"/>
      <use xlink:href="#DejaVuSans-6f" transform="translate(56.677734 0)"/>
      <use xlink:href="#DejaVuSans-73" transform="translate(117.859375 0)"/>
      <use xlink:href="#DejaVuSans-69" transform="translate(169.958984 0)"/>
      <use xlink:href="#DejaVuSans-74" transform="translate(197.742188 0)"/>
      <use xlink:href="#DejaVuSans-69" transform="translate(236.951172 0)"/>
      <use xlink:href="#DejaVuSans-6f" transform="translate(264.734375 0)"/>
      <use xlink:href="#DejaVuSans-6e" transform="translate(325.916016 0)"/>
     </g>
    </g>
   </g>
   <g id="line2d_58">
    <path d="M 64.885938 179.959219 
L 65.756418 179.839833 
L 66.626898 179.481718 
L 67.564338 178.833302 
L 68.568738 177.8428 
L 69.640098 176.458954 
L 70.845378 174.514226 
L 72.184578 171.897249 
L 73.657698 168.503588 
L 75.331698 164.055911 
L 77.273538 158.215814 
L 79.550178 150.623758 
L 83.366898 137.71497 
L 84.371298 135.367549 
L 85.308738 133.726067 
L 86.112258 132.744235 
L 86.848818 132.189629 
L 87.518418 131.971636 
L 88.121058 132.007464 
L 88.723698 132.261672 
L 89.393298 132.79798 
L 90.129858 133.692816 
L 90.933378 135.027299 
L 91.870818 137.046125 
L 92.942178 139.94376 
L 94.080498 143.684056 
L 95.419698 148.908346 
L 96.892818 155.607029 
L 98.633778 164.652403 
L 100.642578 174.824357 
L 102.383538 182.554962 
L 103.923618 188.450717 
L 105.329778 192.999035 
L 106.602018 196.391002 
L 107.740338 198.823114 
L 108.744738 200.485951 
L 109.682178 201.624151 
L 110.485698 202.27997 
L 111.222258 202.621623 
L 111.958818 202.715764 
L 112.628418 202.587815 
L 113.364978 202.214271 
L 114.168498 201.532057 
L 115.038978 200.475082 
L 116.512098 198.581199 
L 117.717378 197.383131 
L 118.855698 196.549521 
L 119.927058 196.032216 
L 120.931458 195.783361 
L 121.935858 195.762225 
L 122.940258 195.966668 
L 123.944658 196.393227 
L 125.016018 197.087662 
L 126.154338 198.088222 
L 127.426578 199.513791 
L 128.832738 201.446017 
L 130.372818 203.959819 
L 133.519938 209.326939 
L 134.323458 210.078914 
L 135.060018 210.481844 
L 135.729618 210.611014 
L 136.399218 210.515527 
L 137.068818 210.197129 
L 137.805378 209.592224 
L 138.608898 208.632534 
L 139.479378 207.246861 
L 140.483778 205.21285 
L 141.622098 202.3645 
L 142.894338 198.531939 
L 144.300498 193.551826 
L 145.907538 186.98993 
L 147.715458 178.636042 
L 150.862578 163.79998 
L 152.268738 158.478983 
L 153.540978 154.481853 
L 154.679298 151.587903 
L 155.683698 149.582278 
L 156.621138 148.180226 
L 157.424658 147.342036 
L 158.161218 146.869062 
L 158.830818 146.683817 
L 159.500418 146.730573 
L 160.170018 147.007664 
L 160.906578 147.575779 
L 161.710098 148.505723 
L 162.580578 149.871435 
L 163.584978 151.898231 
L 164.656338 154.57436 
L 168.807858 165.68482 
L 170.214018 168.541988 
L 171.553218 170.76926 
L 172.758498 172.347243 
L 173.829858 173.403153 
L 174.834258 174.093149 
L 175.771698 174.47412 
L 176.642178 174.600781 
L 177.512658 174.510089 
L 178.383138 174.204326 
L 179.320578 173.638242 
L 180.324978 172.765062 
L 181.396338 171.538442 
L 183.606018 168.847951 
L 184.476498 168.257093 
L 185.280018 167.9761 
L 186.016578 167.940716 
L 186.753138 168.116397 
L 187.556658 168.546274 
L 188.427138 169.288359 
L 189.364578 170.402435 
L 190.368978 171.948619 
L 191.507298 174.125816 
L 192.779538 177.067365 
L 194.185698 180.901808 
L 195.792738 185.967216 
L 197.600658 192.430148 
L 200.881698 204.420057 
L 202.086978 207.689204 
L 203.158338 209.977074 
L 204.095778 211.493918 
L 204.966258 212.493567 
L 205.702818 213.03101 
L 206.372418 213.274511 
L 207.042018 213.285519 
L 207.711618 213.065547 
L 208.381218 212.616716 
L 209.117778 211.861925 
L 209.988258 210.62323 
L 210.925698 208.878938 
L 211.997058 206.380897 
L 213.202338 202.954633 
L 214.541538 198.426702 
L 219.094818 182.116433 
L 220.500978 178.309913 
L 221.773218 175.465853 
L 222.911538 173.421488 
L 223.982898 171.938801 
L 224.920338 170.997126 
L 225.790818 170.421704 
L 226.594338 170.146224 
L 227.397858 170.115287 
L 228.201378 170.327062 
L 229.004898 170.778807 
L 229.875378 171.534753 
L 230.812818 172.652355 
L 231.884178 174.303963 
L 233.959938 177.695329 
L 235.031298 178.939045 
L 236.035698 179.769192 
L 236.973138 180.249161 
L 237.843618 180.440038 
L 238.647138 180.399529 
L 239.517618 180.123041 
L 240.388098 179.607908 
L 241.325538 178.791298 
L 242.329938 177.622588 
L 243.468258 175.943128 
L 244.740498 173.640264 
L 246.146658 170.604496 
L 247.686738 166.737831 
L 251.168658 157.689299 
L 252.173058 155.955868 
L 253.110498 154.771127 
L 253.914018 154.090343 
L 254.650578 153.737898 
L 255.320178 153.642308 
L 255.989778 153.759632 
L 256.726338 154.13253 
L 257.462898 154.757888 
L 258.333378 155.817117 
L 259.270818 157.337187 
L 260.342178 159.541515 
L 261.480498 162.407658 
L 262.752738 166.215904 
L 264.225858 171.366197 
L 265.899858 178.083196 
L 267.506898 184.342072 
L 268.980018 189.219011 
L 270.319218 192.894248 
L 271.524498 195.559027 
L 272.595858 197.403029 
L 273.533298 198.605297 
L 274.403778 199.375454 
L 275.207298 199.789877 
L 275.943858 199.920285 
L 276.680418 199.813405 
L 277.416978 199.471317 
L 278.220498 198.833205 
L 279.090978 197.835246 
L 280.028418 196.411984 
L 281.099778 194.35642 
L 282.305058 191.519661 
L 284.179938 186.96259 
L 285.519138 184.33605 
L 286.724418 182.446726 
L 287.795778 181.154051 
L 288.800178 180.277393 
L 289.737618 179.753736 
L 290.608098 179.522257 
L 291.411618 179.525419 
L 292.282098 179.76176 
L 293.152578 180.237244 
L 294.090018 181.011909 
L 295.094418 182.136782 
L 296.232738 183.768248 
L 297.438018 185.890619 
L 298.777218 188.697536 
L 300.719058 192.846704 
L 301.790418 194.512001 
L 302.727858 195.575522 
L 303.598338 196.232093 
L 304.401858 196.555044 
L 305.138418 196.613103 
L 305.874978 196.445033 
L 306.611538 196.053026 
L 307.415058 195.373406 
L 308.285538 194.345782 
L 309.289938 192.792826 
L 310.361298 190.716982 
L 311.566578 187.887178 
L 312.905778 184.164974 
L 314.445858 179.192426 
L 316.253778 172.538807 
L 317.726898 167.459634 
L 318.999138 163.811516 
L 320.204418 161.01213 
L 321.275778 159.073923 
L 322.213218 157.809195 
L 323.083698 156.997873 
L 323.820258 156.584989 
L 324.556818 156.422426 
L 325.226418 156.490777 
L 325.962978 156.801805 
L 326.699538 157.357167 
L 327.503058 158.237463 
L 328.440498 159.619006 
L 329.444898 161.511175 
L 330.583218 164.151459 
L 331.855458 167.694573 
L 335.605218 178.752138 
L 336.877458 181.549284 
L 338.082738 183.680636 
L 339.154098 185.141322 
L 340.091538 186.079743 
L 340.962018 186.665405 
L 341.765538 186.961537 
L 342.569058 187.023707 
L 343.372578 186.853543 
L 344.176098 186.453546 
L 345.046578 185.764775 
L 345.984018 184.731991 
L 347.055378 183.192454 
L 348.193698 181.152566 
L 349.465938 178.404623 
L 350.738178 175.707208 
L 351.876498 173.790571 
L 352.880898 172.497075 
L 353.818338 171.629962 
L 354.688818 171.120218 
L 355.492338 170.902084 
L 356.295858 170.925146 
L 357.099378 171.187394 
L 357.902898 171.68592 
L 358.773378 172.488207 
L 359.777778 173.745117 
L 360.849138 175.464944 
L 362.054418 177.848087 
L 363.393618 181.021903 
L 364.866738 185.104867 
L 368.750418 196.337021 
L 369.821778 198.459954 
L 370.826178 199.985648 
L 371.696658 200.940495 
L 372.500178 201.517771 
L 373.236738 201.790531 
L 373.973298 201.818953 
L 374.709858 201.604731 
L 375.446418 201.150327 
L 376.249938 200.384484 
L 377.120418 199.242623 
L 378.124818 197.531836 
L 379.196178 195.258234 
L 380.401458 192.17171 
L 381.740658 188.124852 
L 383.481618 182.066628 
L 385.021698 177.152822 
L 386.360898 173.579838 
L 387.566178 170.94658 
L 388.704498 168.981425 
L 389.708898 167.676167 
L 390.579378 166.873238 
L 391.382898 166.403603 
L 392.186418 166.194367 
L 392.922978 166.230251 
L 393.659538 166.482176 
L 394.463058 167.000574 
L 395.333538 167.844417 
L 396.270978 169.074325 
L 397.342338 170.875739 
L 398.480658 173.234277 
L 399.685938 176.205342 
L 399.685938 176.205342 
" clip-path="url(#pa702bae061)" style="fill: none; stroke: #1f77b4; stroke-width: 1.5; stroke-linecap: square"/>
   </g>
   <g id="patch_8">
    <path d="M 64.885938 230.359219 
L 64.885938 129.559219 
" style="fill: none"/>
   </g>
   <g id="patch_9">
    <path d="M 399.685938 230.359219 
L 399.685938 129.559219 
" style="fill: none"/>
   </g>
   <g id="patch_10">
    <path d="M 64.885938 230.359219 
L 399.685938 230.359219 
" style="fill: none; stroke: #000000; stroke-width: 0.8; stroke-linejoin: miter; stroke-linecap: square"/>
   </g>
   <g id="patch_11">
    <path d="M 64.885938 179.959219 
L 399.685938 179.959219 
" style="fill: none; stroke: #000000; stroke-width: 0.8; stroke-linejoin: miter; stroke-linecap: square"/>
   </g>
  </g>
 </g>
 <defs>
  <clipPath id="p3b16109284">
   <rect x="64.885938" y="8.599219" width="334.8" height="100.8"/>
  </clipPath>
  <clipPath id="pa702bae061">
   <rect x="64.885938" y="129.559219" width="334.8" height="100.8"/>
  </clipPath>
 </defs>
</svg>
