<?xml version="1.0" encoding="utf-8" standalone="no"?>
<!DOCTYPE svg PUBLIC "-//W3C//DTD SVG 1.1//EN"
  "http://www.w3.org/Graphics/SVG/1.1/DTD/svg11.dtd">
<svg xmlns:xlink="http://www.w3.org/1999/xlink" width="432pt" height="288pt" viewBox="0 0 432 288" xmlns="http://www.w3.org/2000/svg" version="1.1">
 <metadata>
  <rdf:RDF xmlns:dc="http://purl.org/dc/elements/1.1/" xmlns:cc="http://creativecommons.org/ns#" xmlns:rdf="http://www.w3.org/1999/02/22-rdf-syntax-ns#">
   <cc:Work>
    <dc:type rdf:resource="http://purl.org/dc/dcmitype/StillImage"/>
    <dc:date>2025-07-09T14:48:00.505947</dc:date>
    <dc:format>image/svg+xml</dc:format>
    <dc:creator>
     <cc:Agent>
      <dc:title>Matplotlib v3.10.3, https://matplotlib.org/</dc:title>
     </cc:Agent>
    </dc:creator>
   </cc:Work>
  </rdf:RDF>
 </metadata>
 <defs>
  <style type="text/css">*{stroke-linejoin: round; stroke-linecap: butt}</style>
 </defs>
 <g id="figure_1">
  <g id="patch_1">
   <path d="M 0 288 
L 432 288 
L 432 0 
L 0 0 
z
" style="fill: #ffffff"/>
  </g>
  <g id="axes_1">
   <g id="patch_2">
    <path d="M 54 135.36 
L 388.8 135.36 
L 388.8 34.56 
L 54 34.56 
z
" style="fill: #ffffff"/>
   </g>
   <g id="matplotlib.axis_1">
    <g id="xtick_1">
     <g id="line2d_1">
      <path d="M 54 135.36 
L 54 34.56 
" clip-path="url(#p2c5350f92b)" style="fill: none; stroke: #b0b0b0; stroke-width: 0.8; stroke-linecap: square"/>
     </g>
     <g id="line2d_2">
      <defs>
       <path id="m06fd6730ea" d="M 0 0 
L 0 3.5 
" style="stroke: #000000; stroke-width: 0.8"/>
      </defs>
      <g>
       <use xlink:href="#m06fd6730ea" x="54" y="84.96" style="stroke: #000000; stroke-width: 0.8"/>
      </g>
     </g>
    </g>
    <g id="xtick_2">
     <g id="line2d_3">
      <path d="M 87.48 135.36 
L 87.48 34.56 
" clip-path="url(#p2c5350f92b)" style="fill: none; stroke: #b0b0b0; stroke-width: 0.8; stroke-linecap: square"/>
     </g>
     <g id="line2d_4">
      <g>
       <use xlink:href="#m06fd6730ea" x="87.48" y="84.96" style="stroke: #000000; stroke-width: 0.8"/>
      </g>
     </g>
    </g>
    <g id="xtick_3">
     <g id="line2d_5">
      <path d="M 120.96 135.36 
L 120.96 34.56 
" clip-path="url(#p2c5350f92b)" style="fill: none; stroke: #b0b0b0; stroke-width: 0.8; stroke-linecap: square"/>
     </g>
     <g id="line2d_6">
      <g>
       <use xlink:href="#m06fd6730ea" x="120.96" y="84.96" style="stroke: #000000; stroke-width: 0.8"/>
      </g>
     </g>
    </g>
    <g id="xtick_4">
     <g id="line2d_7">
      <path d="M 154.44 135.36 
L 154.44 34.56 
" clip-path="url(#p2c5350f92b)" style="fill: none; stroke: #b0b0b0; stroke-width: 0.8; stroke-linecap: square"/>
     </g>
     <g id="line2d_8">
      <g>
       <use xlink:href="#m06fd6730ea" x="154.44" y="84.96" style="stroke: #000000; stroke-width: 0.8"/>
      </g>
     </g>
    </g>
    <g id="xtick_5">
     <g id="line2d_9">
      <path d="M 187.92 135.36 
L 187.92 34.56 
" clip-path="url(#p2c5350f92b)" style="fill: none; stroke: #b0b0b0; stroke-width: 0.8; stroke-linecap: square"/>
     </g>
     <g id="line2d_10">
      <g>
       <use xlink:href="#m06fd6730ea" x="187.92" y="84.96" style="stroke: #000000; stroke-width: 0.8"/>
      </g>
     </g>
    </g>
    <g id="xtick_6">
     <g id="line2d_11">
      <path d="M 221.4 135.36 
L 221.4 34.56 
" clip-path="url(#p2c5350f92b)" style="fill: none; stroke: #b0b0b0; stroke-width: 0.8; stroke-linecap: square"/>
     </g>
     <g id="line2d_12">
      <g>
       <use xlink:href="#m06fd6730ea" x="221.4" y="84.96" style="stroke: #000000; stroke-width: 0.8"/>
      </g>
     </g>
    </g>
    <g id="xtick_7">
     <g id="line2d_13">
      <path d="M 254.88 135.36 
L 254.88 34.56 
" clip-path="url(#p2c5350f92b)" style="fill: none; stroke: #b0b0b0; stroke-width: 0.8; stroke-linecap: square"/>
     </g>
     <g id="line2d_14">
      <g>
       <use xlink:href="#m06fd6730ea" x="254.88" y="84.96" style="stroke: #000000; stroke-width: 0.8"/>
      </g>
     </g>
    </g>
    <g id="xtick_8">
     <g id="line2d_15">
      <path d="M 288.36 135.36 
L 288.36 34.56 
" clip-path="url(#p2c5350f92b)" style="fill: none; stroke: #b0b0b0; stroke-width: 0.8; stroke-linecap: square"/>
     </g>
     <g id="line2d_16">
      <g>
       <use xlink:href="#m06fd6730ea" x="288.36" y="84.96" style="stroke: #000000; stroke-width: 0.8"/>
      </g>
     </g>
    </g>
    <g id="xtick_9">
     <g id="line2d_17">
      <path d="M 321.84 135.36 
L 321.84 34.56 
" clip-path="url(#p2c5350f92b)" style="fill: none; stroke: #b0b0b0; stroke-width: 0.8; stroke-linecap: square"/>
     </g>
     <g id="line2d_18">
      <g>
       <use xlink:href="#m06fd6730ea" x="321.84" y="84.96" style="stroke: #000000; stroke-width: 0.8"/>
      </g>
     </g>
    </g>
    <g id="xtick_10">
     <g id="line2d_19">
      <path d="M 355.32 135.36 
L 355.32 34.56 
" clip-path="url(#p2c5350f92b)" style="fill: none; stroke: #b0b0b0; stroke-width: 0.8; stroke-linecap: square"/>
     </g>
     <g id="line2d_20">
      <g>
       <use xlink:href="#m06fd6730ea" x="355.32" y="84.96" style="stroke: #000000; stroke-width: 0.8"/>
      </g>
     </g>
    </g>
    <g id="xtick_11">
     <g id="line2d_21">
      <path d="M 388.8 135.36 
L 388.8 34.56 
" clip-path="url(#p2c5350f92b)" style="fill: none; stroke: #b0b0b0; stroke-width: 0.8; stroke-linecap: square"/>
     </g>
     <g id="line2d_22">
      <g>
       <use xlink:href="#m06fd6730ea" x="388.8" y="84.96" style="stroke: #000000; stroke-width: 0.8"/>
      </g>
     </g>
    </g>
   </g>
   <g id="matplotlib.axis_2">
    <g id="ytick_1">
     <g id="line2d_23">
      <path d="M 54 132.96 
L 388.8 132.96 
" clip-path="url(#p2c5350f92b)" style="fill: none; stroke: #b0b0b0; stroke-width: 0.8; stroke-linecap: square"/>
     </g>
     <g id="line2d_24">
      <defs>
       <path id="m674d0223c4" d="M 0 0 
L -3.5 0 
" style="stroke: #000000; stroke-width: 0.8"/>
      </defs>
      <g>
       <use xlink:href="#m674d0223c4" x="54" y="132.96" style="stroke: #000000; stroke-width: 0.8"/>
      </g>
     </g>
     <g id="text_1">
      <!-- −1 -->
      <g transform="translate(32.257812 136.759219) scale(0.1 -0.1)">
       <defs>
        <path id="DejaVuSans-2212" d="M 678 2272 
L 4684 2272 
L 4684 1741 
L 678 1741 
L 678 2272 
z
" transform="scale(0.015625)"/>
        <path id="DejaVuSans-31" d="M 794 531 
L 1825 531 
L 1825 4091 
L 703 3866 
L 703 4441 
L 1819 4666 
L 2450 4666 
L 2450 531 
L 3481 531 
L 3481 0 
L 794 0 
L 794 531 
z
" transform="scale(0.015625)"/>
       </defs>
       <use xlink:href="#DejaVuSans-2212"/>
       <use xlink:href="#DejaVuSans-31" transform="translate(83.789062 0)"/>
      </g>
     </g>
    </g>
    <g id="ytick_2">
     <g id="line2d_25">
      <path d="M 54 84.96 
L 388.8 84.96 
" clip-path="url(#p2c5350f92b)" style="fill: none; stroke: #b0b0b0; stroke-width: 0.8; stroke-linecap: square"/>
     </g>
     <g id="line2d_26">
      <g>
       <use xlink:href="#m674d0223c4" x="54" y="84.96" style="stroke: #000000; stroke-width: 0.8"/>
      </g>
     </g>
     <g id="text_2">
      <!-- 0 -->
      <g transform="translate(40.6375 88.759219) scale(0.1 -0.1)">
       <defs>
        <path id="DejaVuSans-30" d="M 2034 4250 
Q 1547 4250 1301 3770 
Q 1056 3291 1056 2328 
Q 1056 1369 1301 889 
Q 1547 409 2034 409 
Q 2525 409 2770 889 
Q 3016 1369 3016 2328 
Q 3016 3291 2770 3770 
Q 2525 4250 2034 4250 
z
M 2034 4750 
Q 2819 4750 3233 4129 
Q 3647 3509 3647 2328 
Q 3647 1150 3233 529 
Q 2819 -91 2034 -91 
Q 1250 -91 836 529 
Q 422 1150 422 2328 
Q 422 3509 836 4129 
Q 1250 4750 2034 4750 
z
" transform="scale(0.015625)"/>
       </defs>
       <use xlink:href="#DejaVuSans-30"/>
      </g>
     </g>
    </g>
    <g id="ytick_3">
     <g id="line2d_27">
      <path d="M 54 36.96 
L 388.8 36.96 
" clip-path="url(#p2c5350f92b)" style="fill: none; stroke: #b0b0b0; stroke-width: 0.8; stroke-linecap: square"/>
     </g>
     <g id="line2d_28">
      <g>
       <use xlink:href="#m674d0223c4" x="54" y="36.96" style="stroke: #000000; stroke-width: 0.8"/>
      </g>
     </g>
     <g id="text_3">
      <!-- 1 -->
      <g transform="translate(40.6375 40.759219) scale(0.1 -0.1)">
       <use xlink:href="#DejaVuSans-31"/>
      </g>
     </g>
    </g>
    <g id="text_4">
     <!-- Forcing Function -->
     <g transform="translate(3.9125 125.992031) rotate(-90) scale(0.1 -0.1)">
      <defs>
       <path id="DejaVuSans-46" d="M 628 4666 
L 3309 4666 
L 3309 4134 
L 1259 4134 
L 1259 2759 
L 3109 2759 
L 3109 2228 
L 1259 2228 
L 1259 0 
L 628 0 
L 628 4666 
z
" transform="scale(0.015625)"/>
       <path id="DejaVuSans-6f" d="M 1959 3097 
Q 1497 3097 1228 2736 
Q 959 2375 959 1747 
Q 959 1119 1226 758 
Q 1494 397 1959 397 
Q 2419 397 2687 759 
Q 2956 1122 2956 1747 
Q 2956 2369 2687 2733 
Q 2419 3097 1959 3097 
z
M 1959 3584 
Q 2709 3584 3137 3096 
Q 3566 2609 3566 1747 
Q 3566 888 3137 398 
Q 2709 -91 1959 -91 
Q 1206 -91 779 398 
Q 353 888 353 1747 
Q 353 2609 779 3096 
Q 1206 3584 1959 3584 
z
" transform="scale(0.015625)"/>
       <path id="DejaVuSans-72" d="M 2631 2963 
Q 2534 3019 2420 3045 
Q 2306 3072 2169 3072 
Q 1681 3072 1420 2755 
Q 1159 2438 1159 1844 
L 1159 0 
L 581 0 
L 581 3500 
L 1159 3500 
L 1159 2956 
Q 1341 3275 1631 3429 
Q 1922 3584 2338 3584 
Q 2397 3584 2469 3576 
Q 2541 3569 2628 3553 
L 2631 2963 
z
" transform="scale(0.015625)"/>
       <path id="DejaVuSans-63" d="M 3122 3366 
L 3122 2828 
Q 2878 2963 2633 3030 
Q 2388 3097 2138 3097 
Q 1578 3097 1268 2742 
Q 959 2388 959 1747 
Q 959 1106 1268 751 
Q 1578 397 2138 397 
Q 2388 397 2633 464 
Q 2878 531 3122 666 
L 3122 134 
Q 2881 22 2623 -34 
Q 2366 -91 2075 -91 
Q 1284 -91 818 406 
Q 353 903 353 1747 
Q 353 2603 823 3093 
Q 1294 3584 2113 3584 
Q 2378 3584 2631 3529 
Q 2884 3475 3122 3366 
z
" transform="scale(0.015625)"/>
       <path id="DejaVuSans-69" d="M 603 3500 
L 1178 3500 
L 1178 0 
L 603 0 
L 603 3500 
z
M 603 4863 
L 1178 4863 
L 1178 4134 
L 603 4134 
L 603 4863 
z
" transform="scale(0.015625)"/>
       <path id="DejaVuSans-6e" d="M 3513 2113 
L 3513 0 
L 2938 0 
L 2938 2094 
Q 2938 2591 2744 2837 
Q 2550 3084 2163 3084 
Q 1697 3084 1428 2787 
Q 1159 2491 1159 1978 
L 1159 0 
L 581 0 
L 581 3500 
L 1159 3500 
L 1159 2956 
Q 1366 3272 1645 3428 
Q 1925 3584 2291 3584 
Q 2894 3584 3203 3211 
Q 3513 2838 3513 2113 
z
" transform="scale(0.015625)"/>
       <path id="DejaVuSans-67" d="M 2906 1791 
Q 2906 2416 2648 2759 
Q 2391 3103 1925 3103 
Q 1463 3103 1205 2759 
Q 947 2416 947 1791 
Q 947 1169 1205 825 
Q 1463 481 1925 481 
Q 2391 481 2648 825 
Q 2906 1169 2906 1791 
z
M 3481 434 
Q 3481 -459 3084 -895 
Q 2688 -1331 1869 -1331 
Q 1566 -1331 1297 -1286 
Q 1028 -1241 775 -1147 
L 775 -588 
Q 1028 -725 1275 -790 
Q 1522 -856 1778 -856 
Q 2344 -856 2625 -561 
Q 2906 -266 2906 331 
L 2906 616 
Q 2728 306 2450 153 
Q 2172 0 1784 0 
Q 1141 0 747 490 
Q 353 981 353 1791 
Q 353 2603 747 3093 
Q 1141 3584 1784 3584 
Q 2172 3584 2450 3431 
Q 2728 3278 2906 2969 
L 2906 3500 
L 3481 3500 
L 3481 434 
z
" transform="scale(0.015625)"/>
       <path id="DejaVuSans-20" transform="scale(0.015625)"/>
       <path id="DejaVuSans-75" d="M 544 1381 
L 544 3500 
L 1119 3500 
L 1119 1403 
Q 1119 906 1312 657 
Q 1506 409 1894 409 
Q 2359 409 2629 706 
Q 2900 1003 2900 1516 
L 2900 3500 
L 3475 3500 
L 3475 0 
L 2900 0 
L 2900 538 
Q 2691 219 2414 64 
Q 2138 -91 1772 -91 
Q 1169 -91 856 284 
Q 544 659 544 1381 
z
M 1991 3584 
L 1991 3584 
z
" transform="scale(0.015625)"/>
       <path id="DejaVuSans-74" d="M 1172 4494 
L 1172 3500 
L 2356 3500 
L 2356 3053 
L 1172 3053 
L 1172 1153 
Q 1172 725 1289 603 
Q 1406 481 1766 481 
L 2356 481 
L 2356 0 
L 1766 0 
Q 1100 0 847 248 
Q 594 497 594 1153 
L 594 3053 
L 172 3053 
L 172 3500 
L 594 3500 
L 594 4494 
L 1172 4494 
z
" transform="scale(0.015625)"/>
      </defs>
      <use xlink:href="#DejaVuSans-46"/>
      <use xlink:href="#DejaVuSans-6f" transform="translate(53.894531 0)"/>
      <use xlink:href="#DejaVuSans-72" transform="translate(115.076172 0)"/>
      <use xlink:href="#DejaVuSans-63" transform="translate(153.939453 0)"/>
      <use xlink:href="#DejaVuSans-69" transform="translate(208.919922 0)"/>
      <use xlink:href="#DejaVuSans-6e" transform="translate(236.703125 0)"/>
      <use xlink:href="#DejaVuSans-67" transform="translate(300.082031 0)"/>
      <use xlink:href="#DejaVuSans-20" transform="translate(363.558594 0)"/>
      <use xlink:href="#DejaVuSans-46" transform="translate(395.345703 0)"/>
      <use xlink:href="#DejaVuSans-75" transform="translate(447.365234 0)"/>
      <use xlink:href="#DejaVuSans-6e" transform="translate(510.744141 0)"/>
      <use xlink:href="#DejaVuSans-63" transform="translate(574.123047 0)"/>
      <use xlink:href="#DejaVuSans-74" transform="translate(629.103516 0)"/>
      <use xlink:href="#DejaVuSans-69" transform="translate(668.3125 0)"/>
      <use xlink:href="#DejaVuSans-6f" transform="translate(696.095703 0)"/>
      <use xlink:href="#DejaVuSans-6e" transform="translate(757.277344 0)"/>
     </g>
    </g>
   </g>
   <g id="line2d_29">
    <path d="M 54 84.96 
L 54.13392 38.172202 
L 54.3348 37.446416 
L 54.6696 37.203781 
L 55.40616 37.077147 
L 57.6828 37.007939 
L 67.52592 37.013868 
L 69.86952 37.147875 
L 70.33824 37.365527 
L 70.53912 37.76963 
L 70.60608 38.172202 
L 70.67304 39.362976 
L 70.87392 131.747798 
L 71.0748 132.473584 
L 71.4096 132.716219 
L 72.14616 132.842853 
L 74.4228 132.912061 
L 84.26592 132.906132 
L 86.60952 132.772125 
L 87.07824 132.554473 
L 87.27912 132.15037 
L 87.34608 131.747798 
L 87.41304 130.557024 
L 87.61392 38.172202 
L 87.8148 37.446416 
L 88.1496 37.203781 
L 88.88616 37.077147 
L 91.1628 37.007939 
L 101.00592 37.013868 
L 103.34952 37.147875 
L 103.81824 37.365527 
L 104.01912 37.76963 
L 104.08608 38.172202 
L 104.15304 39.362976 
L 104.35392 131.747798 
L 104.5548 132.473584 
L 104.8896 132.716219 
L 105.62616 132.842853 
L 107.9028 132.912061 
L 117.74592 132.906132 
L 120.08952 132.772125 
L 120.55824 132.554473 
L 120.75912 132.15037 
L 120.82608 131.747798 
L 120.89304 130.557024 
L 121.09392 38.172202 
L 121.2948 37.446416 
L 121.6296 37.203781 
L 122.36616 37.077147 
L 124.6428 37.007939 
L 134.48592 37.013868 
L 136.82952 37.147875 
L 137.29824 37.365527 
L 137.49912 37.76963 
L 137.56608 38.172202 
L 137.63304 39.362976 
L 137.83392 131.747798 
L 138.0348 132.473584 
L 138.3696 132.716219 
L 139.10616 132.842853 
L 141.3828 132.912061 
L 151.22592 132.906132 
L 153.56952 132.772125 
L 154.03824 132.554473 
L 154.23912 132.15037 
L 154.30608 131.747798 
L 154.37304 130.557024 
L 154.57392 38.172202 
L 154.7748 37.446416 
L 155.1096 37.203781 
L 155.84616 37.077147 
L 158.1228 37.007939 
L 167.96592 37.013868 
L 170.30952 37.147875 
L 170.77824 37.365527 
L 170.97912 37.76963 
L 171.04608 38.172202 
L 171.11304 39.362976 
L 171.31392 131.747798 
L 171.5148 132.473584 
L 171.8496 132.716219 
L 172.58616 132.842853 
L 174.8628 132.912061 
L 184.70592 132.906132 
L 187.04952 132.772125 
L 187.51824 132.554473 
L 187.71912 132.15037 
L 187.78608 131.747798 
L 187.85304 130.557024 
L 188.05392 38.172202 
L 188.2548 37.446416 
L 188.5896 37.203781 
L 189.32616 37.077147 
L 191.6028 37.007939 
L 201.44592 37.013868 
L 203.78952 37.147875 
L 204.25824 37.365527 
L 204.45912 37.76963 
L 204.52608 38.172202 
L 204.59304 39.362976 
L 204.79392 131.747798 
L 204.9948 132.473584 
L 205.3296 132.716219 
L 206.06616 132.842853 
L 208.3428 132.912061 
L 218.18592 132.906132 
L 220.52952 132.772125 
L 220.99824 132.554473 
L 221.19912 132.15037 
L 221.26608 131.747798 
L 221.33304 130.557024 
L 221.53392 38.172202 
L 221.7348 37.446416 
L 222.0696 37.203781 
L 222.80616 37.077147 
L 225.0828 37.007939 
L 234.92592 37.013868 
L 237.26952 37.147875 
L 237.73824 37.365527 
L 237.93912 37.76963 
L 238.00608 38.172202 
L 238.07304 39.362976 
L 238.27392 131.747798 
L 238.4748 132.473584 
L 238.8096 132.716219 
L 239.54616 132.842853 
L 241.8228 132.912061 
L 251.66592 132.906132 
L 254.00952 132.772125 
L 254.47824 132.554473 
L 254.67912 132.15037 
L 254.74608 131.747798 
L 254.81304 130.557024 
L 255.01392 38.172202 
L 255.2148 37.446416 
L 255.5496 37.203781 
L 256.28616 37.077147 
L 258.5628 37.007939 
L 268.40592 37.013868 
L 270.74952 37.147875 
L 271.21824 37.365527 
L 271.41912 37.76963 
L 271.48608 38.172202 
L 271.55304 39.362976 
L 271.75392 131.747798 
L 271.9548 132.473584 
L 272.2896 132.716219 
L 273.02616 132.842853 
L 275.3028 132.912061 
L 285.14592 132.906132 
L 287.48952 132.772125 
L 287.95824 132.554473 
L 288.15912 132.15037 
L 288.22608 131.747798 
L 288.29304 130.557024 
L 288.49392 38.172202 
L 288.6948 37.446416 
L 289.0296 37.203781 
L 289.76616 37.077147 
L 292.0428 37.007939 
L 301.88592 37.013868 
L 304.22952 37.147875 
L 304.69824 37.365527 
L 304.89912 37.76963 
L 304.96608 38.172202 
L 305.03304 39.362976 
L 305.23392 131.747798 
L 305.4348 132.473584 
L 305.7696 132.716219 
L 306.50616 132.842853 
L 308.7828 132.912061 
L 318.62592 132.906132 
L 320.96952 132.772125 
L 321.43824 132.554473 
L 321.63912 132.15037 
L 321.70608 131.747798 
L 321.77304 130.557024 
L 321.97392 38.172202 
L 322.1748 37.446416 
L 322.5096 37.203781 
L 323.24616 37.077147 
L 325.5228 37.007939 
L 335.36592 37.013868 
L 337.70952 37.147875 
L 338.17824 37.365527 
L 338.37912 37.76963 
L 338.44608 38.172202 
L 338.51304 39.362976 
L 338.71392 131.747798 
L 338.9148 132.473584 
L 339.2496 132.716219 
L 339.98616 132.842853 
L 342.2628 132.912061 
L 352.10592 132.906132 
L 354.44952 132.772125 
L 354.91824 132.554473 
L 355.11912 132.15037 
L 355.18608 131.747798 
L 355.25304 130.557024 
L 355.45392 38.172202 
L 355.6548 37.446416 
L 355.9896 37.203781 
L 356.72616 37.077147 
L 359.0028 37.007939 
L 368.84592 37.013868 
L 371.18952 37.147875 
L 371.65824 37.365527 
L 371.85912 37.76963 
L 371.92608 38.172202 
L 371.99304 39.362976 
L 372.19392 131.747798 
L 372.3948 132.473584 
L 372.7296 132.716219 
L 373.46616 132.842853 
L 375.7428 132.912061 
L 385.58592 132.906132 
L 387.92952 132.772125 
L 388.39824 132.554473 
L 388.59912 132.15037 
L 388.66608 131.747798 
L 388.73304 130.557024 
L 388.8 84.96 
L 388.8 84.96 
" clip-path="url(#p2c5350f92b)" style="fill: none; stroke: #1f77b4; stroke-width: 1.5; stroke-linecap: square"/>
   </g>
   <g id="patch_3">
    <path d="M 54 135.36 
L 54 34.56 
" style="fill: none"/>
   </g>
   <g id="patch_4">
    <path d="M 388.8 135.36 
L 388.8 34.56 
" style="fill: none"/>
   </g>
   <g id="patch_5">
    <path d="M 54 84.96 
L 388.8 84.96 
" style="fill: none; stroke: #000000; stroke-width: 0.8; stroke-linejoin: miter; stroke-linecap: square"/>
   </g>
   <g id="patch_6">
    <path d="M 54 34.56 
L 388.8 34.56 
" style="fill: none"/>
   </g>
  </g>
  <g id="axes_2">
   <g id="patch_7">
    <path d="M 54 256.32 
L 388.8 256.32 
L 388.8 155.52 
L 54 155.52 
z
" style="fill: #ffffff"/>
   </g>
   <g id="matplotlib.axis_3">
    <g id="xtick_12">
     <g id="line2d_30">
      <path d="M 54 256.32 
L 54 155.52 
" clip-path="url(#p7fbaedf94d)" style="fill: none; stroke: #b0b0b0; stroke-width: 0.8; stroke-linecap: square"/>
     </g>
     <g id="line2d_31">
      <g>
       <use xlink:href="#m06fd6730ea" x="54" y="256.32" style="stroke: #000000; stroke-width: 0.8"/>
      </g>
     </g>
     <g id="text_5">
      <!-- 0 -->
      <g transform="translate(50.81875 270.918437) scale(0.1 -0.1)">
       <use xlink:href="#DejaVuSans-30"/>
      </g>
     </g>
    </g>
    <g id="xtick_13">
     <g id="line2d_32">
      <path d="M 87.48 256.32 
L 87.48 155.52 
" clip-path="url(#p7fbaedf94d)" style="fill: none; stroke: #b0b0b0; stroke-width: 0.8; stroke-linecap: square"/>
     </g>
     <g id="line2d_33">
      <g>
       <use xlink:href="#m06fd6730ea" x="87.48" y="256.32" style="stroke: #000000; stroke-width: 0.8"/>
      </g>
     </g>
     <g id="text_6">
      <!-- 1 -->
      <g transform="translate(84.29875 270.918437) scale(0.1 -0.1)">
       <use xlink:href="#DejaVuSans-31"/>
      </g>
     </g>
    </g>
    <g id="xtick_14">
     <g id="line2d_34">
      <path d="M 120.96 256.32 
L 120.96 155.52 
" clip-path="url(#p7fbaedf94d)" style="fill: none; stroke: #b0b0b0; stroke-width: 0.8; stroke-linecap: square"/>
     </g>
     <g id="line2d_35">
      <g>
       <use xlink:href="#m06fd6730ea" x="120.96" y="256.32" style="stroke: #000000; stroke-width: 0.8"/>
      </g>
     </g>
     <g id="text_7">
      <!-- 2 -->
      <g transform="translate(117.77875 270.918437) scale(0.1 -0.1)">
       <defs>
        <path id="DejaVuSans-32" d="M 1228 531 
L 3431 531 
L 3431 0 
L 469 0 
L 469 531 
Q 828 903 1448 1529 
Q 2069 2156 2228 2338 
Q 2531 2678 2651 2914 
Q 2772 3150 2772 3378 
Q 2772 3750 2511 3984 
Q 2250 4219 1831 4219 
Q 1534 4219 1204 4116 
Q 875 4013 500 3803 
L 500 4441 
Q 881 4594 1212 4672 
Q 1544 4750 1819 4750 
Q 2544 4750 2975 4387 
Q 3406 4025 3406 3419 
Q 3406 3131 3298 2873 
Q 3191 2616 2906 2266 
Q 2828 2175 2409 1742 
Q 1991 1309 1228 531 
z
" transform="scale(0.015625)"/>
       </defs>
       <use xlink:href="#DejaVuSans-32"/>
      </g>
     </g>
    </g>
    <g id="xtick_15">
     <g id="line2d_36">
      <path d="M 154.44 256.32 
L 154.44 155.52 
" clip-path="url(#p7fbaedf94d)" style="fill: none; stroke: #b0b0b0; stroke-width: 0.8; stroke-linecap: square"/>
     </g>
     <g id="line2d_37">
      <g>
       <use xlink:href="#m06fd6730ea" x="154.44" y="256.32" style="stroke: #000000; stroke-width: 0.8"/>
      </g>
     </g>
     <g id="text_8">
      <!-- 3 -->
      <g transform="translate(151.25875 270.918437) scale(0.1 -0.1)">
       <defs>
        <path id="DejaVuSans-33" d="M 2597 2516 
Q 3050 2419 3304 2112 
Q 3559 1806 3559 1356 
Q 3559 666 3084 287 
Q 2609 -91 1734 -91 
Q 1441 -91 1130 -33 
Q 819 25 488 141 
L 488 750 
Q 750 597 1062 519 
Q 1375 441 1716 441 
Q 2309 441 2620 675 
Q 2931 909 2931 1356 
Q 2931 1769 2642 2001 
Q 2353 2234 1838 2234 
L 1294 2234 
L 1294 2753 
L 1863 2753 
Q 2328 2753 2575 2939 
Q 2822 3125 2822 3475 
Q 2822 3834 2567 4026 
Q 2313 4219 1838 4219 
Q 1578 4219 1281 4162 
Q 984 4106 628 3988 
L 628 4550 
Q 988 4650 1302 4700 
Q 1616 4750 1894 4750 
Q 2613 4750 3031 4423 
Q 3450 4097 3450 3541 
Q 3450 3153 3228 2886 
Q 3006 2619 2597 2516 
z
" transform="scale(0.015625)"/>
       </defs>
       <use xlink:href="#DejaVuSans-33"/>
      </g>
     </g>
    </g>
    <g id="xtick_16">
     <g id="line2d_38">
      <path d="M 187.92 256.32 
L 187.92 155.52 
" clip-path="url(#p7fbaedf94d)" style="fill: none; stroke: #b0b0b0; stroke-width: 0.8; stroke-linecap: square"/>
     </g>
     <g id="line2d_39">
      <g>
       <use xlink:href="#m06fd6730ea" x="187.92" y="256.32" style="stroke: #000000; stroke-width: 0.8"/>
      </g>
     </g>
     <g id="text_9">
      <!-- 4 -->
      <g transform="translate(184.73875 270.918437) scale(0.1 -0.1)">
       <defs>
        <path id="DejaVuSans-34" d="M 2419 4116 
L 825 1625 
L 2419 1625 
L 2419 4116 
z
M 2253 4666 
L 3047 4666 
L 3047 1625 
L 3713 1625 
L 3713 1100 
L 3047 1100 
L 3047 0 
L 2419 0 
L 2419 1100 
L 313 1100 
L 313 1709 
L 2253 4666 
z
" transform="scale(0.015625)"/>
       </defs>
       <use xlink:href="#DejaVuSans-34"/>
      </g>
     </g>
    </g>
    <g id="xtick_17">
     <g id="line2d_40">
      <path d="M 221.4 256.32 
L 221.4 155.52 
" clip-path="url(#p7fbaedf94d)" style="fill: none; stroke: #b0b0b0; stroke-width: 0.8; stroke-linecap: square"/>
     </g>
     <g id="line2d_41">
      <g>
       <use xlink:href="#m06fd6730ea" x="221.4" y="256.32" style="stroke: #000000; stroke-width: 0.8"/>
      </g>
     </g>
     <g id="text_10">
      <!-- 5 -->
      <g transform="translate(218.21875 270.918437) scale(0.1 -0.1)">
       <defs>
        <path id="DejaVuSans-35" d="M 691 4666 
L 3169 4666 
L 3169 4134 
L 1269 4134 
L 1269 2991 
Q 1406 3038 1543 3061 
Q 1681 3084 1819 3084 
Q 2600 3084 3056 2656 
Q 3513 2228 3513 1497 
Q 3513 744 3044 326 
Q 2575 -91 1722 -91 
Q 1428 -91 1123 -41 
Q 819 9 494 109 
L 494 744 
Q 775 591 1075 516 
Q 1375 441 1709 441 
Q 2250 441 2565 725 
Q 2881 1009 2881 1497 
Q 2881 1984 2565 2268 
Q 2250 2553 1709 2553 
Q 1456 2553 1204 2497 
Q 953 2441 691 2322 
L 691 4666 
z
" transform="scale(0.015625)"/>
       </defs>
       <use xlink:href="#DejaVuSans-35"/>
      </g>
     </g>
    </g>
    <g id="xtick_18">
     <g id="line2d_42">
      <path d="M 254.88 256.32 
L 254.88 155.52 
" clip-path="url(#p7fbaedf94d)" style="fill: none; stroke: #b0b0b0; stroke-width: 0.8; stroke-linecap: square"/>
     </g>
     <g id="line2d_43">
      <g>
       <use xlink:href="#m06fd6730ea" x="254.88" y="256.32" style="stroke: #000000; stroke-width: 0.8"/>
      </g>
     </g>
     <g id="text_11">
      <!-- 6 -->
      <g transform="translate(251.69875 270.918437) scale(0.1 -0.1)">
       <defs>
        <path id="DejaVuSans-36" d="M 2113 2584 
Q 1688 2584 1439 2293 
Q 1191 2003 1191 1497 
Q 1191 994 1439 701 
Q 1688 409 2113 409 
Q 2538 409 2786 701 
Q 3034 994 3034 1497 
Q 3034 2003 2786 2293 
Q 2538 2584 2113 2584 
z
M 3366 4563 
L 3366 3988 
Q 3128 4100 2886 4159 
Q 2644 4219 2406 4219 
Q 1781 4219 1451 3797 
Q 1122 3375 1075 2522 
Q 1259 2794 1537 2939 
Q 1816 3084 2150 3084 
Q 2853 3084 3261 2657 
Q 3669 2231 3669 1497 
Q 3669 778 3244 343 
Q 2819 -91 2113 -91 
Q 1303 -91 875 529 
Q 447 1150 447 2328 
Q 447 3434 972 4092 
Q 1497 4750 2381 4750 
Q 2619 4750 2861 4703 
Q 3103 4656 3366 4563 
z
" transform="scale(0.015625)"/>
       </defs>
       <use xlink:href="#DejaVuSans-36"/>
      </g>
     </g>
    </g>
    <g id="xtick_19">
     <g id="line2d_44">
      <path d="M 288.36 256.32 
L 288.36 155.52 
" clip-path="url(#p7fbaedf94d)" style="fill: none; stroke: #b0b0b0; stroke-width: 0.8; stroke-linecap: square"/>
     </g>
     <g id="line2d_45">
      <g>
       <use xlink:href="#m06fd6730ea" x="288.36" y="256.32" style="stroke: #000000; stroke-width: 0.8"/>
      </g>
     </g>
     <g id="text_12">
      <!-- 7 -->
      <g transform="translate(285.17875 270.918437) scale(0.1 -0.1)">
       <defs>
        <path id="DejaVuSans-37" d="M 525 4666 
L 3525 4666 
L 3525 4397 
L 1831 0 
L 1172 0 
L 2766 4134 
L 525 4134 
L 525 4666 
z
" transform="scale(0.015625)"/>
       </defs>
       <use xlink:href="#DejaVuSans-37"/>
      </g>
     </g>
    </g>
    <g id="xtick_20">
     <g id="line2d_46">
      <path d="M 321.84 256.32 
L 321.84 155.52 
" clip-path="url(#p7fbaedf94d)" style="fill: none; stroke: #b0b0b0; stroke-width: 0.8; stroke-linecap: square"/>
     </g>
     <g id="line2d_47">
      <g>
       <use xlink:href="#m06fd6730ea" x="321.84" y="256.32" style="stroke: #000000; stroke-width: 0.8"/>
      </g>
     </g>
     <g id="text_13">
      <!-- 8 -->
      <g transform="translate(318.65875 270.918437) scale(0.1 -0.1)">
       <defs>
        <path id="DejaVuSans-38" d="M 2034 2216 
Q 1584 2216 1326 1975 
Q 1069 1734 1069 1313 
Q 1069 891 1326 650 
Q 1584 409 2034 409 
Q 2484 409 2743 651 
Q 3003 894 3003 1313 
Q 3003 1734 2745 1975 
Q 2488 2216 2034 2216 
z
M 1403 2484 
Q 997 2584 770 2862 
Q 544 3141 544 3541 
Q 544 4100 942 4425 
Q 1341 4750 2034 4750 
Q 2731 4750 3128 4425 
Q 3525 4100 3525 3541 
Q 3525 3141 3298 2862 
Q 3072 2584 2669 2484 
Q 3125 2378 3379 2068 
Q 3634 1759 3634 1313 
Q 3634 634 3220 271 
Q 2806 -91 2034 -91 
Q 1263 -91 848 271 
Q 434 634 434 1313 
Q 434 1759 690 2068 
Q 947 2378 1403 2484 
z
M 1172 3481 
Q 1172 3119 1398 2916 
Q 1625 2713 2034 2713 
Q 2441 2713 2670 2916 
Q 2900 3119 2900 3481 
Q 2900 3844 2670 4047 
Q 2441 4250 2034 4250 
Q 1625 4250 1398 4047 
Q 1172 3844 1172 3481 
z
" transform="scale(0.015625)"/>
       </defs>
       <use xlink:href="#DejaVuSans-38"/>
      </g>
     </g>
    </g>
    <g id="xtick_21">
     <g id="line2d_48">
      <path d="M 355.32 256.32 
L 355.32 155.52 
" clip-path="url(#p7fbaedf94d)" style="fill: none; stroke: #b0b0b0; stroke-width: 0.8; stroke-linecap: square"/>
     </g>
     <g id="line2d_49">
      <g>
       <use xlink:href="#m06fd6730ea" x="355.32" y="256.32" style="stroke: #000000; stroke-width: 0.8"/>
      </g>
     </g>
     <g id="text_14">
      <!-- 9 -->
      <g transform="translate(352.13875 270.918437) scale(0.1 -0.1)">
       <defs>
        <path id="DejaVuSans-39" d="M 703 97 
L 703 672 
Q 941 559 1184 500 
Q 1428 441 1663 441 
Q 2288 441 2617 861 
Q 2947 1281 2994 2138 
Q 2813 1869 2534 1725 
Q 2256 1581 1919 1581 
Q 1219 1581 811 2004 
Q 403 2428 403 3163 
Q 403 3881 828 4315 
Q 1253 4750 1959 4750 
Q 2769 4750 3195 4129 
Q 3622 3509 3622 2328 
Q 3622 1225 3098 567 
Q 2575 -91 1691 -91 
Q 1453 -91 1209 -44 
Q 966 3 703 97 
z
M 1959 2075 
Q 2384 2075 2632 2365 
Q 2881 2656 2881 3163 
Q 2881 3666 2632 3958 
Q 2384 4250 1959 4250 
Q 1534 4250 1286 3958 
Q 1038 3666 1038 3163 
Q 1038 2656 1286 2365 
Q 1534 2075 1959 2075 
z
" transform="scale(0.015625)"/>
       </defs>
       <use xlink:href="#DejaVuSans-39"/>
      </g>
     </g>
    </g>
    <g id="xtick_22">
     <g id="line2d_50">
      <path d="M 388.8 256.32 
L 388.8 155.52 
" clip-path="url(#p7fbaedf94d)" style="fill: none; stroke: #b0b0b0; stroke-width: 0.8; stroke-linecap: square"/>
     </g>
     <g id="line2d_51">
      <g>
       <use xlink:href="#m06fd6730ea" x="388.8" y="256.32" style="stroke: #000000; stroke-width: 0.8"/>
      </g>
     </g>
     <g id="text_15">
      <!-- 10 -->
      <g transform="translate(382.4375 270.918437) scale(0.1 -0.1)">
       <use xlink:href="#DejaVuSans-31"/>
       <use xlink:href="#DejaVuSans-30" transform="translate(63.623047 0)"/>
      </g>
     </g>
    </g>
    <g id="text_16">
     <!-- Time -->
     <g transform="translate(209.166406 284.596563) scale(0.1 -0.1)">
      <defs>
       <path id="DejaVuSans-54" d="M -19 4666 
L 3928 4666 
L 3928 4134 
L 2272 4134 
L 2272 0 
L 1638 0 
L 1638 4134 
L -19 4134 
L -19 4666 
z
" transform="scale(0.015625)"/>
       <path id="DejaVuSans-6d" d="M 3328 2828 
Q 3544 3216 3844 3400 
Q 4144 3584 4550 3584 
Q 5097 3584 5394 3201 
Q 5691 2819 5691 2113 
L 5691 0 
L 5113 0 
L 5113 2094 
Q 5113 2597 4934 2840 
Q 4756 3084 4391 3084 
Q 3944 3084 3684 2787 
Q 3425 2491 3425 1978 
L 3425 0 
L 2847 0 
L 2847 2094 
Q 2847 2600 2669 2842 
Q 2491 3084 2119 3084 
Q 1678 3084 1418 2786 
Q 1159 2488 1159 1978 
L 1159 0 
L 581 0 
L 581 3500 
L 1159 3500 
L 1159 2956 
Q 1356 3278 1631 3431 
Q 1906 3584 2284 3584 
Q 2666 3584 2933 3390 
Q 3200 3197 3328 2828 
z
" transform="scale(0.015625)"/>
       <path id="DejaVuSans-65" d="M 3597 1894 
L 3597 1613 
L 953 1613 
Q 991 1019 1311 708 
Q 1631 397 2203 397 
Q 2534 397 2845 478 
Q 3156 559 3463 722 
L 3463 178 
Q 3153 47 2828 -22 
Q 2503 -91 2169 -91 
Q 1331 -91 842 396 
Q 353 884 353 1716 
Q 353 2575 817 3079 
Q 1281 3584 2069 3584 
Q 2775 3584 3186 3129 
Q 3597 2675 3597 1894 
z
M 3022 2063 
Q 3016 2534 2758 2815 
Q 2500 3097 2075 3097 
Q 1594 3097 1305 2825 
Q 1016 2553 972 2059 
L 3022 2063 
z
" transform="scale(0.015625)"/>
      </defs>
      <use xlink:href="#DejaVuSans-54"/>
      <use xlink:href="#DejaVuSans-69" transform="translate(57.958984 0)"/>
      <use xlink:href="#DejaVuSans-6d" transform="translate(85.742188 0)"/>
      <use xlink:href="#DejaVuSans-65" transform="translate(183.154297 0)"/>
     </g>
    </g>
   </g>
   <g id="matplotlib.axis_4">
    <g id="ytick_4">
     <g id="line2d_52">
      <path d="M 54 232.705773 
L 388.8 232.705773 
" clip-path="url(#p7fbaedf94d)" style="fill: none; stroke: #b0b0b0; stroke-width: 0.8; stroke-linecap: square"/>
     </g>
     <g id="line2d_53">
      <g>
       <use xlink:href="#m674d0223c4" x="54" y="232.705773" style="stroke: #000000; stroke-width: 0.8"/>
      </g>
     </g>
     <g id="text_17">
      <!-- −0.005 -->
      <g transform="translate(9.992188 236.504992) scale(0.1 -0.1)">
       <defs>
        <path id="DejaVuSans-2e" d="M 684 794 
L 1344 794 
L 1344 0 
L 684 0 
L 684 794 
z
" transform="scale(0.015625)"/>
       </defs>
       <use xlink:href="#DejaVuSans-2212"/>
       <use xlink:href="#DejaVuSans-30" transform="translate(83.789062 0)"/>
       <use xlink:href="#DejaVuSans-2e" transform="translate(147.412109 0)"/>
       <use xlink:href="#DejaVuSans-30" transform="translate(179.199219 0)"/>
       <use xlink:href="#DejaVuSans-30" transform="translate(242.822266 0)"/>
       <use xlink:href="#DejaVuSans-35" transform="translate(306.445312 0)"/>
      </g>
     </g>
    </g>
    <g id="ytick_5">
     <g id="line2d_54">
      <path d="M 54 205.92 
L 388.8 205.92 
" clip-path="url(#p7fbaedf94d)" style="fill: none; stroke: #b0b0b0; stroke-width: 0.8; stroke-linecap: square"/>
     </g>
     <g id="line2d_55">
      <g>
       <use xlink:href="#m674d0223c4" x="54" y="205.92" style="stroke: #000000; stroke-width: 0.8"/>
      </g>
     </g>
     <g id="text_18">
      <!-- 0.000 -->
      <g transform="translate(18.371875 209.719219) scale(0.1 -0.1)">
       <use xlink:href="#DejaVuSans-30"/>
       <use xlink:href="#DejaVuSans-2e" transform="translate(63.623047 0)"/>
       <use xlink:href="#DejaVuSans-30" transform="translate(95.410156 0)"/>
       <use xlink:href="#DejaVuSans-30" transform="translate(159.033203 0)"/>
       <use xlink:href="#DejaVuSans-30" transform="translate(222.65625 0)"/>
      </g>
     </g>
    </g>
    <g id="ytick_6">
     <g id="line2d_56">
      <path d="M 54 179.134227 
L 388.8 179.134227 
" clip-path="url(#p7fbaedf94d)" style="fill: none; stroke: #b0b0b0; stroke-width: 0.8; stroke-linecap: square"/>
     </g>
     <g id="line2d_57">
      <g>
       <use xlink:href="#m674d0223c4" x="54" y="179.134227" style="stroke: #000000; stroke-width: 0.8"/>
      </g>
     </g>
     <g id="text_19">
      <!-- 0.005 -->
      <g transform="translate(18.371875 182.933445) scale(0.1 -0.1)">
       <use xlink:href="#DejaVuSans-30"/>
       <use xlink:href="#DejaVuSans-2e" transform="translate(63.623047 0)"/>
       <use xlink:href="#DejaVuSans-30" transform="translate(95.410156 0)"/>
       <use xlink:href="#DejaVuSans-30" transform="translate(159.033203 0)"/>
       <use xlink:href="#DejaVuSans-35" transform="translate(222.65625 0)"/>
      </g>
     </g>
    </g>
    <g id="text_20">
     <!-- Position -->
     <g transform="translate(3.9125 225.384062) rotate(-90) scale(0.1 -0.1)">
      <defs>
       <path id="DejaVuSans-50" d="M 1259 4147 
L 1259 2394 
L 2053 2394 
Q 2494 2394 2734 2622 
Q 2975 2850 2975 3272 
Q 2975 3691 2734 3919 
Q 2494 4147 2053 4147 
L 1259 4147 
z
M 628 4666 
L 2053 4666 
Q 2838 4666 3239 4311 
Q 3641 3956 3641 3272 
Q 3641 2581 3239 2228 
Q 2838 1875 2053 1875 
L 1259 1875 
L 1259 0 
L 628 0 
L 628 4666 
z
" transform="scale(0.015625)"/>
       <path id="DejaVuSans-73" d="M 2834 3397 
L 2834 2853 
Q 2591 2978 2328 3040 
Q 2066 3103 1784 3103 
Q 1356 3103 1142 2972 
Q 928 2841 928 2578 
Q 928 2378 1081 2264 
Q 1234 2150 1697 2047 
L 1894 2003 
Q 2506 1872 2764 1633 
Q 3022 1394 3022 966 
Q 3022 478 2636 193 
Q 2250 -91 1575 -91 
Q 1294 -91 989 -36 
Q 684 19 347 128 
L 347 722 
Q 666 556 975 473 
Q 1284 391 1588 391 
Q 1994 391 2212 530 
Q 2431 669 2431 922 
Q 2431 1156 2273 1281 
Q 2116 1406 1581 1522 
L 1381 1569 
Q 847 1681 609 1914 
Q 372 2147 372 2553 
Q 372 3047 722 3315 
Q 1072 3584 1716 3584 
Q 2034 3584 2315 3537 
Q 2597 3491 2834 3397 
z
" transform="scale(0.015625)"/>
      </defs>
      <use xlink:href="#DejaVuSans-50"/>
      <use xlink:href="#DejaVuSans-6f" transform="translate(56.677734 0)"/>
      <use xlink:href="#DejaVuSans-73" transform="translate(117.859375 0)"/>
      <use xlink:href="#DejaVuSans-69" transform="translate(169.958984 0)"/>
      <use xlink:href="#DejaVuSans-74" transform="translate(197.742188 0)"/>
      <use xlink:href="#DejaVuSans-69" transform="translate(236.951172 0)"/>
      <use xlink:href="#DejaVuSans-6f" transform="translate(264.734375 0)"/>
      <use xlink:href="#DejaVuSans-6e" transform="translate(325.916016 0)"/>
     </g>
    </g>
   </g>
   <g id="line2d_58">
    <path d="M 54 205.92 
L 54.87048 205.800615 
L 55.74096 205.442499 
L 56.6784 204.794083 
L 57.6828 203.803581 
L 58.75416 202.419735 
L 59.95944 200.475007 
L 61.29864 197.85803 
L 62.77176 194.46437 
L 64.44576 190.016693 
L 66.3876 184.176595 
L 68.66424 176.584539 
L 72.48096 163.675752 
L 73.48536 161.32833 
L 74.4228 159.686848 
L 75.22632 158.705017 
L 75.96288 158.15041 
L 76.63248 157.932417 
L 77.23512 157.968245 
L 77.83776 158.222453 
L 78.50736 158.758762 
L 79.24392 159.653597 
L 80.04744 160.988081 
L 80.98488 163.006907 
L 82.05624 165.904541 
L 83.19456 169.644838 
L 84.53376 174.869127 
L 86.00688 181.56781 
L 87.74784 190.613185 
L 89.75664 200.785138 
L 91.4976 208.515743 
L 93.03768 214.411498 
L 94.44384 218.959817 
L 95.71608 222.351783 
L 96.8544 224.783896 
L 97.8588 226.446732 
L 98.79624 227.584932 
L 99.59976 228.240751 
L 100.33632 228.582404 
L 101.07288 228.676545 
L 101.74248 228.548596 
L 102.47904 228.175052 
L 103.28256 227.492838 
L 104.15304 226.435863 
L 105.62616 224.54198 
L 106.83144 223.343912 
L 107.96976 222.510303 
L 109.04112 221.992997 
L 110.04552 221.744142 
L 111.04992 221.723006 
L 112.05432 221.92745 
L 113.05872 222.354009 
L 114.13008 223.048443 
L 115.2684 224.049003 
L 116.54064 225.474572 
L 117.9468 227.406799 
L 119.48688 229.9206 
L 122.634 235.28772 
L 123.43752 236.039696 
L 124.17408 236.442625 
L 124.84368 236.571795 
L 125.51328 236.476308 
L 126.18288 236.15791 
L 126.91944 235.553005 
L 127.72296 234.593316 
L 128.59344 233.207643 
L 129.59784 231.173631 
L 130.73616 228.325282 
L 132.0084 224.492721 
L 133.41456 219.512607 
L 135.0216 212.950711 
L 136.82952 204.596823 
L 139.97664 189.760762 
L 141.3828 184.439764 
L 142.65504 180.442634 
L 143.79336 177.548685 
L 144.79776 175.54306 
L 145.7352 174.141008 
L 146.53872 173.302817 
L 147.27528 172.829843 
L 147.94488 172.644598 
L 148.61448 172.691354 
L 149.28408 172.968445 
L 150.02064 173.53656 
L 150.82416 174.466504 
L 151.69464 175.832216 
L 152.69904 177.859013 
L 153.7704 180.535141 
L 157.92192 191.645601 
L 159.32808 194.502769 
L 160.66728 196.730042 
L 161.87256 198.308024 
L 162.94392 199.363934 
L 163.94832 200.05393 
L 164.88576 200.434902 
L 165.75624 200.561563 
L 166.62672 200.470871 
L 167.4972 200.165107 
L 168.43464 199.599023 
L 169.43904 198.725843 
L 170.5104 197.499223 
L 172.72008 194.808732 
L 173.59056 194.217874 
L 174.39408 193.936882 
L 175.13064 193.901497 
L 175.8672 194.077178 
L 176.67072 194.507055 
L 177.5412 195.24914 
L 178.47864 196.363216 
L 179.48304 197.9094 
L 180.62136 200.086597 
L 181.8936 203.028146 
L 183.29976 206.86259 
L 184.9068 211.927997 
L 186.71472 218.390929 
L 189.99576 230.380838 
L 191.20104 233.649985 
L 192.2724 235.937855 
L 193.20984 237.454699 
L 194.08032 238.454349 
L 194.81688 238.991791 
L 195.48648 239.235293 
L 196.15608 239.2463 
L 196.82568 239.026328 
L 197.49528 238.577497 
L 198.23184 237.822706 
L 199.10232 236.584011 
L 200.03976 234.839719 
L 201.11112 232.341679 
L 202.3164 228.915415 
L 203.6556 224.387483 
L 208.20888 208.077214 
L 209.61504 204.270694 
L 210.88728 201.426635 
L 212.0256 199.382269 
L 213.09696 197.899582 
L 214.0344 196.957907 
L 214.90488 196.382486 
L 215.7084 196.107005 
L 216.51192 196.076068 
L 217.31544 196.287843 
L 218.11896 196.739588 
L 218.98944 197.495534 
L 219.92688 198.613137 
L 220.99824 200.264744 
L 223.074 203.65611 
L 224.14536 204.899826 
L 225.14976 205.729974 
L 226.0872 206.209943 
L 226.95768 206.40082 
L 227.7612 206.360311 
L 228.63168 206.083822 
L 229.50216 205.56869 
L 230.4396 204.75208 
L 231.444 203.583369 
L 232.58232 201.903909 
L 233.85456 199.601045 
L 235.26072 196.565277 
L 236.8008 192.698612 
L 240.28272 183.65008 
L 241.28712 181.916649 
L 242.22456 180.731909 
L 243.02808 180.051124 
L 243.76464 179.69868 
L 244.43424 179.603089 
L 245.10384 179.720414 
L 245.8404 180.093311 
L 246.57696 180.71867 
L 247.44744 181.777898 
L 248.38488 183.297968 
L 249.45624 185.502297 
L 250.59456 188.368439 
L 251.8668 192.176685 
L 253.33992 197.326978 
L 255.01392 204.043978 
L 256.62096 210.302854 
L 258.09408 215.179792 
L 259.43328 218.855029 
L 260.63856 221.519808 
L 261.70992 223.36381 
L 262.64736 224.566079 
L 263.51784 225.336235 
L 264.32136 225.750658 
L 265.05792 225.881066 
L 265.79448 225.774187 
L 266.53104 225.432098 
L 267.33456 224.793986 
L 268.20504 223.796027 
L 269.14248 222.372765 
L 270.21384 220.317201 
L 271.41912 217.480443 
L 273.294 212.923372 
L 274.6332 210.296831 
L 275.83848 208.407507 
L 276.90984 207.114832 
L 277.91424 206.238174 
L 278.85168 205.714517 
L 279.72216 205.483038 
L 280.52568 205.4862 
L 281.39616 205.722542 
L 282.26664 206.198025 
L 283.20408 206.972691 
L 284.20848 208.097564 
L 285.3468 209.729029 
L 286.55208 211.851401 
L 287.89128 214.658317 
L 289.83312 218.807485 
L 290.90448 220.472782 
L 291.84192 221.536303 
L 292.7124 222.192874 
L 293.51592 222.515825 
L 294.25248 222.573884 
L 294.98904 222.405814 
L 295.7256 222.013808 
L 296.52912 221.334187 
L 297.3996 220.306563 
L 298.404 218.753607 
L 299.47536 216.677764 
L 300.68064 213.847959 
L 302.01984 210.125755 
L 303.55992 205.153207 
L 305.36784 198.499588 
L 306.84096 193.420415 
L 308.1132 189.772297 
L 309.31848 186.972912 
L 310.38984 185.034704 
L 311.32728 183.769977 
L 312.19776 182.958655 
L 312.93432 182.545771 
L 313.67088 182.383207 
L 314.34048 182.451559 
L 315.07704 182.762586 
L 315.8136 183.317948 
L 316.61712 184.198245 
L 317.55456 185.579787 
L 318.55896 187.471956 
L 319.69728 190.11224 
L 320.96952 193.655355 
L 324.71928 204.71292 
L 325.99152 207.510066 
L 327.1968 209.641417 
L 328.26816 211.102103 
L 329.2056 212.040524 
L 330.07608 212.626186 
L 330.8796 212.922318 
L 331.68312 212.984489 
L 332.48664 212.814325 
L 333.29016 212.414328 
L 334.16064 211.725556 
L 335.09808 210.692772 
L 336.16944 209.153235 
L 337.30776 207.113347 
L 338.58 204.365404 
L 339.85224 201.66799 
L 340.99056 199.751352 
L 341.99496 198.457856 
L 342.9324 197.590744 
L 343.80288 197.080999 
L 344.6064 196.862865 
L 345.40992 196.885927 
L 346.21344 197.148175 
L 347.01696 197.646701 
L 347.88744 198.448989 
L 348.89184 199.705898 
L 349.9632 201.425725 
L 351.16848 203.808868 
L 352.50768 206.982684 
L 353.9808 211.065648 
L 357.86448 222.297802 
L 358.93584 224.420735 
L 359.94024 225.946429 
L 360.81072 226.901276 
L 361.61424 227.478553 
L 362.3508 227.751312 
L 363.08736 227.779734 
L 363.82392 227.565513 
L 364.56048 227.111108 
L 365.364 226.345266 
L 366.23448 225.203405 
L 367.23888 223.492617 
L 368.31024 221.219015 
L 369.51552 218.132491 
L 370.85472 214.085633 
L 372.59568 208.027409 
L 374.13576 203.113604 
L 375.47496 199.540619 
L 376.68024 196.907361 
L 377.81856 194.942206 
L 378.82296 193.636948 
L 379.69344 192.83402 
L 380.49696 192.364384 
L 381.30048 192.155148 
L 382.03704 192.191032 
L 382.7736 192.442957 
L 383.57712 192.961355 
L 384.4476 193.805199 
L 385.38504 195.035106 
L 386.4564 196.836521 
L 387.59472 199.195058 
L 388.8 202.166123 
L 388.8 202.166123 
" clip-path="url(#p7fbaedf94d)" style="fill: none; stroke: #1f77b4; stroke-width: 1.5; stroke-linecap: square"/>
   </g>
   <g id="patch_8">
    <path d="M 54 256.32 
L 54 155.52 
" style="fill: none"/>
   </g>
   <g id="patch_9">
    <path d="M 388.8 256.32 
L 388.8 155.52 
" style="fill: none"/>
   </g>
   <g id="patch_10">
    <path d="M 54 256.32 
L 388.8 256.32 
" style="fill: none; stroke: #000000; stroke-width: 0.8; stroke-linejoin: miter; stroke-linecap: square"/>
   </g>
   <g id="patch_11">
    <path d="M 54 205.92 
L 388.8 205.92 
" style="fill: none; stroke: #000000; stroke-width: 0.8; stroke-linejoin: miter; stroke-linecap: square"/>
   </g>
  </g>
 </g>
 <defs>
  <clipPath id="p2c5350f92b">
   <rect x="54" y="34.56" width="334.8" height="100.8"/>
  </clipPath>
  <clipPath id="p7fbaedf94d">
   <rect x="54" y="155.52" width="334.8" height="100.8"/>
  </clipPath>
 </defs>
</svg>
