<?xml version="1.0" encoding="utf-8" standalone="no"?>
<!DOCTYPE svg PUBLIC "-//W3C//DTD SVG 1.1//EN"
  "http://www.w3.org/Graphics/SVG/1.1/DTD/svg11.dtd">
<svg xmlns:xlink="http://www.w3.org/1999/xlink" width="432pt" height="288pt" viewBox="0 0 432 288" xmlns="http://www.w3.org/2000/svg" version="1.1">
 <metadata>
  <rdf:RDF xmlns:dc="http://purl.org/dc/elements/1.1/" xmlns:cc="http://creativecommons.org/ns#" xmlns:rdf="http://www.w3.org/1999/02/22-rdf-syntax-ns#">
   <cc:Work>
    <dc:type rdf:resource="http://purl.org/dc/dcmitype/StillImage"/>
    <dc:date>2025-07-09T14:47:58.891846</dc:date>
    <dc:format>image/svg+xml</dc:format>
    <dc:creator>
     <cc:Agent>
      <dc:title>Matplotlib v3.10.3, https://matplotlib.org/</dc:title>
     </cc:Agent>
    </dc:creator>
   </cc:Work>
  </rdf:RDF>
 </metadata>
 <defs>
  <style type="text/css">*{stroke-linejoin: round; stroke-linecap: butt}</style>
 </defs>
 <g id="figure_1">
  <g id="patch_1">
   <path d="M 0 288 
L 432 288 
L 432 0 
L 0 0 
z
" style="fill: #ffffff"/>
  </g>
  <g id="axes_1">
   <g id="patch_2">
    <path d="M 54 135.36 
L 388.8 135.36 
L 388.8 34.56 
L 54 34.56 
z
" style="fill: #ffffff"/>
   </g>
   <g id="matplotlib.axis_1">
    <g id="xtick_1">
     <g id="line2d_1">
      <path d="M 54 135.36 
L 54 34.56 
" clip-path="url(#p6571a2fa16)" style="fill: none; stroke: #b0b0b0; stroke-width: 0.8; stroke-linecap: square"/>
     </g>
     <g id="line2d_2">
      <defs>
       <path id="md3dc29be28" d="M 0 0 
L 0 3.5 
" style="stroke: #000000; stroke-width: 0.8"/>
      </defs>
      <g>
       <use xlink:href="#md3dc29be28" x="54" y="84.96" style="stroke: #000000; stroke-width: 0.8"/>
      </g>
     </g>
    </g>
    <g id="xtick_2">
     <g id="line2d_3">
      <path d="M 87.48 135.36 
L 87.48 34.56 
" clip-path="url(#p6571a2fa16)" style="fill: none; stroke: #b0b0b0; stroke-width: 0.8; stroke-linecap: square"/>
     </g>
     <g id="line2d_4">
      <g>
       <use xlink:href="#md3dc29be28" x="87.48" y="84.96" style="stroke: #000000; stroke-width: 0.8"/>
      </g>
     </g>
    </g>
    <g id="xtick_3">
     <g id="line2d_5">
      <path d="M 120.96 135.36 
L 120.96 34.56 
" clip-path="url(#p6571a2fa16)" style="fill: none; stroke: #b0b0b0; stroke-width: 0.8; stroke-linecap: square"/>
     </g>
     <g id="line2d_6">
      <g>
       <use xlink:href="#md3dc29be28" x="120.96" y="84.96" style="stroke: #000000; stroke-width: 0.8"/>
      </g>
     </g>
    </g>
    <g id="xtick_4">
     <g id="line2d_7">
      <path d="M 154.44 135.36 
L 154.44 34.56 
" clip-path="url(#p6571a2fa16)" style="fill: none; stroke: #b0b0b0; stroke-width: 0.8; stroke-linecap: square"/>
     </g>
     <g id="line2d_8">
      <g>
       <use xlink:href="#md3dc29be28" x="154.44" y="84.96" style="stroke: #000000; stroke-width: 0.8"/>
      </g>
     </g>
    </g>
    <g id="xtick_5">
     <g id="line2d_9">
      <path d="M 187.92 135.36 
L 187.92 34.56 
" clip-path="url(#p6571a2fa16)" style="fill: none; stroke: #b0b0b0; stroke-width: 0.8; stroke-linecap: square"/>
     </g>
     <g id="line2d_10">
      <g>
       <use xlink:href="#md3dc29be28" x="187.92" y="84.96" style="stroke: #000000; stroke-width: 0.8"/>
      </g>
     </g>
    </g>
    <g id="xtick_6">
     <g id="line2d_11">
      <path d="M 221.4 135.36 
L 221.4 34.56 
" clip-path="url(#p6571a2fa16)" style="fill: none; stroke: #b0b0b0; stroke-width: 0.8; stroke-linecap: square"/>
     </g>
     <g id="line2d_12">
      <g>
       <use xlink:href="#md3dc29be28" x="221.4" y="84.96" style="stroke: #000000; stroke-width: 0.8"/>
      </g>
     </g>
    </g>
    <g id="xtick_7">
     <g id="line2d_13">
      <path d="M 254.88 135.36 
L 254.88 34.56 
" clip-path="url(#p6571a2fa16)" style="fill: none; stroke: #b0b0b0; stroke-width: 0.8; stroke-linecap: square"/>
     </g>
     <g id="line2d_14">
      <g>
       <use xlink:href="#md3dc29be28" x="254.88" y="84.96" style="stroke: #000000; stroke-width: 0.8"/>
      </g>
     </g>
    </g>
    <g id="xtick_8">
     <g id="line2d_15">
      <path d="M 288.36 135.36 
L 288.36 34.56 
" clip-path="url(#p6571a2fa16)" style="fill: none; stroke: #b0b0b0; stroke-width: 0.8; stroke-linecap: square"/>
     </g>
     <g id="line2d_16">
      <g>
       <use xlink:href="#md3dc29be28" x="288.36" y="84.96" style="stroke: #000000; stroke-width: 0.8"/>
      </g>
     </g>
    </g>
    <g id="xtick_9">
     <g id="line2d_17">
      <path d="M 321.84 135.36 
L 321.84 34.56 
" clip-path="url(#p6571a2fa16)" style="fill: none; stroke: #b0b0b0; stroke-width: 0.8; stroke-linecap: square"/>
     </g>
     <g id="line2d_18">
      <g>
       <use xlink:href="#md3dc29be28" x="321.84" y="84.96" style="stroke: #000000; stroke-width: 0.8"/>
      </g>
     </g>
    </g>
    <g id="xtick_10">
     <g id="line2d_19">
      <path d="M 355.32 135.36 
L 355.32 34.56 
" clip-path="url(#p6571a2fa16)" style="fill: none; stroke: #b0b0b0; stroke-width: 0.8; stroke-linecap: square"/>
     </g>
     <g id="line2d_20">
      <g>
       <use xlink:href="#md3dc29be28" x="355.32" y="84.96" style="stroke: #000000; stroke-width: 0.8"/>
      </g>
     </g>
    </g>
    <g id="xtick_11">
     <g id="line2d_21">
      <path d="M 388.8 135.36 
L 388.8 34.56 
" clip-path="url(#p6571a2fa16)" style="fill: none; stroke: #b0b0b0; stroke-width: 0.8; stroke-linecap: square"/>
     </g>
     <g id="line2d_22">
      <g>
       <use xlink:href="#md3dc29be28" x="388.8" y="84.96" style="stroke: #000000; stroke-width: 0.8"/>
      </g>
     </g>
    </g>
   </g>
   <g id="matplotlib.axis_2">
    <g id="ytick_1">
     <g id="line2d_23">
      <path d="M 54 132.96 
L 388.8 132.96 
" clip-path="url(#p6571a2fa16)" style="fill: none; stroke: #b0b0b0; stroke-width: 0.8; stroke-linecap: square"/>
     </g>
     <g id="line2d_24">
      <defs>
       <path id="m52c69cd17b" d="M 0 0 
L -3.5 0 
" style="stroke: #000000; stroke-width: 0.8"/>
      </defs>
      <g>
       <use xlink:href="#m52c69cd17b" x="54" y="132.96" style="stroke: #000000; stroke-width: 0.8"/>
      </g>
     </g>
     <g id="text_1">
      <!-- −1 -->
      <g transform="translate(32.257812 136.759219) scale(0.1 -0.1)">
       <defs>
        <path id="DejaVuSans-2212" d="M 678 2272 
L 4684 2272 
L 4684 1741 
L 678 1741 
L 678 2272 
z
" transform="scale(0.015625)"/>
        <path id="DejaVuSans-31" d="M 794 531 
L 1825 531 
L 1825 4091 
L 703 3866 
L 703 4441 
L 1819 4666 
L 2450 4666 
L 2450 531 
L 3481 531 
L 3481 0 
L 794 0 
L 794 531 
z
" transform="scale(0.015625)"/>
       </defs>
       <use xlink:href="#DejaVuSans-2212"/>
       <use xlink:href="#DejaVuSans-31" transform="translate(83.789062 0)"/>
      </g>
     </g>
    </g>
    <g id="ytick_2">
     <g id="line2d_25">
      <path d="M 54 84.96 
L 388.8 84.96 
" clip-path="url(#p6571a2fa16)" style="fill: none; stroke: #b0b0b0; stroke-width: 0.8; stroke-linecap: square"/>
     </g>
     <g id="line2d_26">
      <g>
       <use xlink:href="#m52c69cd17b" x="54" y="84.96" style="stroke: #000000; stroke-width: 0.8"/>
      </g>
     </g>
     <g id="text_2">
      <!-- 0 -->
      <g transform="translate(40.6375 88.759219) scale(0.1 -0.1)">
       <defs>
        <path id="DejaVuSans-30" d="M 2034 4250 
Q 1547 4250 1301 3770 
Q 1056 3291 1056 2328 
Q 1056 1369 1301 889 
Q 1547 409 2034 409 
Q 2525 409 2770 889 
Q 3016 1369 3016 2328 
Q 3016 3291 2770 3770 
Q 2525 4250 2034 4250 
z
M 2034 4750 
Q 2819 4750 3233 4129 
Q 3647 3509 3647 2328 
Q 3647 1150 3233 529 
Q 2819 -91 2034 -91 
Q 1250 -91 836 529 
Q 422 1150 422 2328 
Q 422 3509 836 4129 
Q 1250 4750 2034 4750 
z
" transform="scale(0.015625)"/>
       </defs>
       <use xlink:href="#DejaVuSans-30"/>
      </g>
     </g>
    </g>
    <g id="ytick_3">
     <g id="line2d_27">
      <path d="M 54 36.96 
L 388.8 36.96 
" clip-path="url(#p6571a2fa16)" style="fill: none; stroke: #b0b0b0; stroke-width: 0.8; stroke-linecap: square"/>
     </g>
     <g id="line2d_28">
      <g>
       <use xlink:href="#m52c69cd17b" x="54" y="36.96" style="stroke: #000000; stroke-width: 0.8"/>
      </g>
     </g>
     <g id="text_3">
      <!-- 1 -->
      <g transform="translate(40.6375 40.759219) scale(0.1 -0.1)">
       <use xlink:href="#DejaVuSans-31"/>
      </g>
     </g>
    </g>
    <g id="text_4">
     <!-- Forcing Function -->
     <g transform="translate(10.275 125.992031) rotate(-90) scale(0.1 -0.1)">
      <defs>
       <path id="DejaVuSans-46" d="M 628 4666 
L 3309 4666 
L 3309 4134 
L 1259 4134 
L 1259 2759 
L 3109 2759 
L 3109 2228 
L 1259 2228 
L 1259 0 
L 628 0 
L 628 4666 
z
" transform="scale(0.015625)"/>
       <path id="DejaVuSans-6f" d="M 1959 3097 
Q 1497 3097 1228 2736 
Q 959 2375 959 1747 
Q 959 1119 1226 758 
Q 1494 397 1959 397 
Q 2419 397 2687 759 
Q 2956 1122 2956 1747 
Q 2956 2369 2687 2733 
Q 2419 3097 1959 3097 
z
M 1959 3584 
Q 2709 3584 3137 3096 
Q 3566 2609 3566 1747 
Q 3566 888 3137 398 
Q 2709 -91 1959 -91 
Q 1206 -91 779 398 
Q 353 888 353 1747 
Q 353 2609 779 3096 
Q 1206 3584 1959 3584 
z
" transform="scale(0.015625)"/>
       <path id="DejaVuSans-72" d="M 2631 2963 
Q 2534 3019 2420 3045 
Q 2306 3072 2169 3072 
Q 1681 3072 1420 2755 
Q 1159 2438 1159 1844 
L 1159 0 
L 581 0 
L 581 3500 
L 1159 3500 
L 1159 2956 
Q 1341 3275 1631 3429 
Q 1922 3584 2338 3584 
Q 2397 3584 2469 3576 
Q 2541 3569 2628 3553 
L 2631 2963 
z
" transform="scale(0.015625)"/>
       <path id="DejaVuSans-63" d="M 3122 3366 
L 3122 2828 
Q 2878 2963 2633 3030 
Q 2388 3097 2138 3097 
Q 1578 3097 1268 2742 
Q 959 2388 959 1747 
Q 959 1106 1268 751 
Q 1578 397 2138 397 
Q 2388 397 2633 464 
Q 2878 531 3122 666 
L 3122 134 
Q 2881 22 2623 -34 
Q 2366 -91 2075 -91 
Q 1284 -91 818 406 
Q 353 903 353 1747 
Q 353 2603 823 3093 
Q 1294 3584 2113 3584 
Q 2378 3584 2631 3529 
Q 2884 3475 3122 3366 
z
" transform="scale(0.015625)"/>
       <path id="DejaVuSans-69" d="M 603 3500 
L 1178 3500 
L 1178 0 
L 603 0 
L 603 3500 
z
M 603 4863 
L 1178 4863 
L 1178 4134 
L 603 4134 
L 603 4863 
z
" transform="scale(0.015625)"/>
       <path id="DejaVuSans-6e" d="M 3513 2113 
L 3513 0 
L 2938 0 
L 2938 2094 
Q 2938 2591 2744 2837 
Q 2550 3084 2163 3084 
Q 1697 3084 1428 2787 
Q 1159 2491 1159 1978 
L 1159 0 
L 581 0 
L 581 3500 
L 1159 3500 
L 1159 2956 
Q 1366 3272 1645 3428 
Q 1925 3584 2291 3584 
Q 2894 3584 3203 3211 
Q 3513 2838 3513 2113 
z
" transform="scale(0.015625)"/>
       <path id="DejaVuSans-67" d="M 2906 1791 
Q 2906 2416 2648 2759 
Q 2391 3103 1925 3103 
Q 1463 3103 1205 2759 
Q 947 2416 947 1791 
Q 947 1169 1205 825 
Q 1463 481 1925 481 
Q 2391 481 2648 825 
Q 2906 1169 2906 1791 
z
M 3481 434 
Q 3481 -459 3084 -895 
Q 2688 -1331 1869 -1331 
Q 1566 -1331 1297 -1286 
Q 1028 -1241 775 -1147 
L 775 -588 
Q 1028 -725 1275 -790 
Q 1522 -856 1778 -856 
Q 2344 -856 2625 -561 
Q 2906 -266 2906 331 
L 2906 616 
Q 2728 306 2450 153 
Q 2172 0 1784 0 
Q 1141 0 747 490 
Q 353 981 353 1791 
Q 353 2603 747 3093 
Q 1141 3584 1784 3584 
Q 2172 3584 2450 3431 
Q 2728 3278 2906 2969 
L 2906 3500 
L 3481 3500 
L 3481 434 
z
" transform="scale(0.015625)"/>
       <path id="DejaVuSans-20" transform="scale(0.015625)"/>
       <path id="DejaVuSans-75" d="M 544 1381 
L 544 3500 
L 1119 3500 
L 1119 1403 
Q 1119 906 1312 657 
Q 1506 409 1894 409 
Q 2359 409 2629 706 
Q 2900 1003 2900 1516 
L 2900 3500 
L 3475 3500 
L 3475 0 
L 2900 0 
L 2900 538 
Q 2691 219 2414 64 
Q 2138 -91 1772 -91 
Q 1169 -91 856 284 
Q 544 659 544 1381 
z
M 1991 3584 
L 1991 3584 
z
" transform="scale(0.015625)"/>
       <path id="DejaVuSans-74" d="M 1172 4494 
L 1172 3500 
L 2356 3500 
L 2356 3053 
L 1172 3053 
L 1172 1153 
Q 1172 725 1289 603 
Q 1406 481 1766 481 
L 2356 481 
L 2356 0 
L 1766 0 
Q 1100 0 847 248 
Q 594 497 594 1153 
L 594 3053 
L 172 3053 
L 172 3500 
L 594 3500 
L 594 4494 
L 1172 4494 
z
" transform="scale(0.015625)"/>
      </defs>
      <use xlink:href="#DejaVuSans-46"/>
      <use xlink:href="#DejaVuSans-6f" transform="translate(53.894531 0)"/>
      <use xlink:href="#DejaVuSans-72" transform="translate(115.076172 0)"/>
      <use xlink:href="#DejaVuSans-63" transform="translate(153.939453 0)"/>
      <use xlink:href="#DejaVuSans-69" transform="translate(208.919922 0)"/>
      <use xlink:href="#DejaVuSans-6e" transform="translate(236.703125 0)"/>
      <use xlink:href="#DejaVuSans-67" transform="translate(300.082031 0)"/>
      <use xlink:href="#DejaVuSans-20" transform="translate(363.558594 0)"/>
      <use xlink:href="#DejaVuSans-46" transform="translate(395.345703 0)"/>
      <use xlink:href="#DejaVuSans-75" transform="translate(447.365234 0)"/>
      <use xlink:href="#DejaVuSans-6e" transform="translate(510.744141 0)"/>
      <use xlink:href="#DejaVuSans-63" transform="translate(574.123047 0)"/>
      <use xlink:href="#DejaVuSans-74" transform="translate(629.103516 0)"/>
      <use xlink:href="#DejaVuSans-69" transform="translate(668.3125 0)"/>
      <use xlink:href="#DejaVuSans-6f" transform="translate(696.095703 0)"/>
      <use xlink:href="#DejaVuSans-6e" transform="translate(757.277344 0)"/>
     </g>
    </g>
   </g>
   <g id="line2d_29">
    <path d="M 54 84.96 
L 54.13392 38.172202 
L 54.3348 37.446416 
L 54.6696 37.203781 
L 55.40616 37.077147 
L 57.6828 37.007939 
L 67.52592 37.013868 
L 69.86952 37.147875 
L 70.33824 37.365527 
L 70.53912 37.76963 
L 70.60608 38.172202 
L 70.67304 39.362976 
L 70.87392 131.747798 
L 71.0748 132.473584 
L 71.4096 132.716219 
L 72.14616 132.842853 
L 74.4228 132.912061 
L 84.26592 132.906132 
L 86.60952 132.772125 
L 87.07824 132.554473 
L 87.27912 132.15037 
L 87.34608 131.747798 
L 87.41304 130.557024 
L 87.61392 38.172202 
L 87.8148 37.446416 
L 88.1496 37.203781 
L 88.88616 37.077147 
L 91.1628 37.007939 
L 101.00592 37.013868 
L 103.34952 37.147875 
L 103.81824 37.365527 
L 104.01912 37.76963 
L 104.08608 38.172202 
L 104.15304 39.362976 
L 104.35392 131.747798 
L 104.5548 132.473584 
L 104.8896 132.716219 
L 105.62616 132.842853 
L 107.9028 132.912061 
L 117.74592 132.906132 
L 120.08952 132.772125 
L 120.55824 132.554473 
L 120.75912 132.15037 
L 120.82608 131.747798 
L 120.89304 130.557024 
L 121.09392 38.172202 
L 121.2948 37.446416 
L 121.6296 37.203781 
L 122.36616 37.077147 
L 124.6428 37.007939 
L 134.48592 37.013868 
L 136.82952 37.147875 
L 137.29824 37.365527 
L 137.49912 37.76963 
L 137.56608 38.172202 
L 137.63304 39.362976 
L 137.83392 131.747798 
L 138.0348 132.473584 
L 138.3696 132.716219 
L 139.10616 132.842853 
L 141.3828 132.912061 
L 151.22592 132.906132 
L 153.56952 132.772125 
L 154.03824 132.554473 
L 154.23912 132.15037 
L 154.30608 131.747798 
L 154.37304 130.557024 
L 154.57392 38.172202 
L 154.7748 37.446416 
L 155.1096 37.203781 
L 155.84616 37.077147 
L 158.1228 37.007939 
L 167.96592 37.013868 
L 170.30952 37.147875 
L 170.77824 37.365527 
L 170.97912 37.76963 
L 171.04608 38.172202 
L 171.11304 39.362976 
L 171.31392 131.747798 
L 171.5148 132.473584 
L 171.8496 132.716219 
L 172.58616 132.842853 
L 174.8628 132.912061 
L 184.70592 132.906132 
L 187.04952 132.772125 
L 187.51824 132.554473 
L 187.71912 132.15037 
L 187.78608 131.747798 
L 187.85304 130.557024 
L 188.05392 38.172202 
L 188.2548 37.446416 
L 188.5896 37.203781 
L 189.32616 37.077147 
L 191.6028 37.007939 
L 201.44592 37.013868 
L 203.78952 37.147875 
L 204.25824 37.365527 
L 204.45912 37.76963 
L 204.52608 38.172202 
L 204.59304 39.362976 
L 204.79392 131.747798 
L 204.9948 132.473584 
L 205.3296 132.716219 
L 206.06616 132.842853 
L 208.3428 132.912061 
L 218.18592 132.906132 
L 220.52952 132.772125 
L 220.99824 132.554473 
L 221.19912 132.15037 
L 221.26608 131.747798 
L 221.33304 130.557024 
L 221.53392 38.172202 
L 221.7348 37.446416 
L 222.0696 37.203781 
L 222.80616 37.077147 
L 225.0828 37.007939 
L 234.92592 37.013868 
L 237.26952 37.147875 
L 237.73824 37.365527 
L 237.93912 37.76963 
L 238.00608 38.172202 
L 238.07304 39.362976 
L 238.27392 131.747798 
L 238.4748 132.473584 
L 238.8096 132.716219 
L 239.54616 132.842853 
L 241.8228 132.912061 
L 251.66592 132.906132 
L 254.00952 132.772125 
L 254.47824 132.554473 
L 254.67912 132.15037 
L 254.74608 131.747798 
L 254.81304 130.557024 
L 255.01392 38.172202 
L 255.2148 37.446416 
L 255.5496 37.203781 
L 256.28616 37.077147 
L 258.5628 37.007939 
L 268.40592 37.013868 
L 270.74952 37.147875 
L 271.21824 37.365527 
L 271.41912 37.76963 
L 271.48608 38.172202 
L 271.55304 39.362976 
L 271.75392 131.747798 
L 271.9548 132.473584 
L 272.2896 132.716219 
L 273.02616 132.842853 
L 275.3028 132.912061 
L 285.14592 132.906132 
L 287.48952 132.772125 
L 287.95824 132.554473 
L 288.15912 132.15037 
L 288.22608 131.747798 
L 288.29304 130.557024 
L 288.49392 38.172202 
L 288.6948 37.446416 
L 289.0296 37.203781 
L 289.76616 37.077147 
L 292.0428 37.007939 
L 301.88592 37.013868 
L 304.22952 37.147875 
L 304.69824 37.365527 
L 304.89912 37.76963 
L 304.96608 38.172202 
L 305.03304 39.362976 
L 305.23392 131.747798 
L 305.4348 132.473584 
L 305.7696 132.716219 
L 306.50616 132.842853 
L 308.7828 132.912061 
L 318.62592 132.906132 
L 320.96952 132.772125 
L 321.43824 132.554473 
L 321.63912 132.15037 
L 321.70608 131.747798 
L 321.77304 130.557024 
L 321.97392 38.172202 
L 322.1748 37.446416 
L 322.5096 37.203781 
L 323.24616 37.077147 
L 325.5228 37.007939 
L 335.36592 37.013868 
L 337.70952 37.147875 
L 338.17824 37.365527 
L 338.37912 37.76963 
L 338.44608 38.172202 
L 338.51304 39.362976 
L 338.71392 131.747798 
L 338.9148 132.473584 
L 339.2496 132.716219 
L 339.98616 132.842853 
L 342.2628 132.912061 
L 352.10592 132.906132 
L 354.44952 132.772125 
L 354.91824 132.554473 
L 355.11912 132.15037 
L 355.18608 131.747798 
L 355.25304 130.557024 
L 355.45392 38.172202 
L 355.6548 37.446416 
L 355.9896 37.203781 
L 356.72616 37.077147 
L 359.0028 37.007939 
L 368.84592 37.013868 
L 371.18952 37.147875 
L 371.65824 37.365527 
L 371.85912 37.76963 
L 371.92608 38.172202 
L 371.99304 39.362976 
L 372.19392 131.747798 
L 372.3948 132.473584 
L 372.7296 132.716219 
L 373.46616 132.842853 
L 375.7428 132.912061 
L 385.58592 132.906132 
L 387.92952 132.772125 
L 388.39824 132.554473 
L 388.59912 132.15037 
L 388.66608 131.747798 
L 388.73304 130.557024 
L 388.8 84.96 
L 388.8 84.96 
" clip-path="url(#p6571a2fa16)" style="fill: none; stroke: #1f77b4; stroke-width: 1.5; stroke-linecap: square"/>
   </g>
   <g id="patch_3">
    <path d="M 54 135.36 
L 54 34.56 
" style="fill: none"/>
   </g>
   <g id="patch_4">
    <path d="M 388.8 135.36 
L 388.8 34.56 
" style="fill: none"/>
   </g>
   <g id="patch_5">
    <path d="M 54 84.96 
L 388.8 84.96 
" style="fill: none; stroke: #000000; stroke-width: 0.8; stroke-linejoin: miter; stroke-linecap: square"/>
   </g>
   <g id="patch_6">
    <path d="M 54 34.56 
L 388.8 34.56 
" style="fill: none"/>
   </g>
  </g>
  <g id="axes_2">
   <g id="patch_7">
    <path d="M 54 256.32 
L 388.8 256.32 
L 388.8 155.52 
L 54 155.52 
z
" style="fill: #ffffff"/>
   </g>
   <g id="matplotlib.axis_3">
    <g id="xtick_12">
     <g id="line2d_30">
      <path d="M 54 256.32 
L 54 155.52 
" clip-path="url(#pb82edd6331)" style="fill: none; stroke: #b0b0b0; stroke-width: 0.8; stroke-linecap: square"/>
     </g>
     <g id="line2d_31">
      <g>
       <use xlink:href="#md3dc29be28" x="54" y="256.32" style="stroke: #000000; stroke-width: 0.8"/>
      </g>
     </g>
     <g id="text_5">
      <!-- 0 -->
      <g transform="translate(50.81875 270.918437) scale(0.1 -0.1)">
       <use xlink:href="#DejaVuSans-30"/>
      </g>
     </g>
    </g>
    <g id="xtick_13">
     <g id="line2d_32">
      <path d="M 87.48 256.32 
L 87.48 155.52 
" clip-path="url(#pb82edd6331)" style="fill: none; stroke: #b0b0b0; stroke-width: 0.8; stroke-linecap: square"/>
     </g>
     <g id="line2d_33">
      <g>
       <use xlink:href="#md3dc29be28" x="87.48" y="256.32" style="stroke: #000000; stroke-width: 0.8"/>
      </g>
     </g>
     <g id="text_6">
      <!-- 1 -->
      <g transform="translate(84.29875 270.918437) scale(0.1 -0.1)">
       <use xlink:href="#DejaVuSans-31"/>
      </g>
     </g>
    </g>
    <g id="xtick_14">
     <g id="line2d_34">
      <path d="M 120.96 256.32 
L 120.96 155.52 
" clip-path="url(#pb82edd6331)" style="fill: none; stroke: #b0b0b0; stroke-width: 0.8; stroke-linecap: square"/>
     </g>
     <g id="line2d_35">
      <g>
       <use xlink:href="#md3dc29be28" x="120.96" y="256.32" style="stroke: #000000; stroke-width: 0.8"/>
      </g>
     </g>
     <g id="text_7">
      <!-- 2 -->
      <g transform="translate(117.77875 270.918437) scale(0.1 -0.1)">
       <defs>
        <path id="DejaVuSans-32" d="M 1228 531 
L 3431 531 
L 3431 0 
L 469 0 
L 469 531 
Q 828 903 1448 1529 
Q 2069 2156 2228 2338 
Q 2531 2678 2651 2914 
Q 2772 3150 2772 3378 
Q 2772 3750 2511 3984 
Q 2250 4219 1831 4219 
Q 1534 4219 1204 4116 
Q 875 4013 500 3803 
L 500 4441 
Q 881 4594 1212 4672 
Q 1544 4750 1819 4750 
Q 2544 4750 2975 4387 
Q 3406 4025 3406 3419 
Q 3406 3131 3298 2873 
Q 3191 2616 2906 2266 
Q 2828 2175 2409 1742 
Q 1991 1309 1228 531 
z
" transform="scale(0.015625)"/>
       </defs>
       <use xlink:href="#DejaVuSans-32"/>
      </g>
     </g>
    </g>
    <g id="xtick_15">
     <g id="line2d_36">
      <path d="M 154.44 256.32 
L 154.44 155.52 
" clip-path="url(#pb82edd6331)" style="fill: none; stroke: #b0b0b0; stroke-width: 0.8; stroke-linecap: square"/>
     </g>
     <g id="line2d_37">
      <g>
       <use xlink:href="#md3dc29be28" x="154.44" y="256.32" style="stroke: #000000; stroke-width: 0.8"/>
      </g>
     </g>
     <g id="text_8">
      <!-- 3 -->
      <g transform="translate(151.25875 270.918437) scale(0.1 -0.1)">
       <defs>
        <path id="DejaVuSans-33" d="M 2597 2516 
Q 3050 2419 3304 2112 
Q 3559 1806 3559 1356 
Q 3559 666 3084 287 
Q 2609 -91 1734 -91 
Q 1441 -91 1130 -33 
Q 819 25 488 141 
L 488 750 
Q 750 597 1062 519 
Q 1375 441 1716 441 
Q 2309 441 2620 675 
Q 2931 909 2931 1356 
Q 2931 1769 2642 2001 
Q 2353 2234 1838 2234 
L 1294 2234 
L 1294 2753 
L 1863 2753 
Q 2328 2753 2575 2939 
Q 2822 3125 2822 3475 
Q 2822 3834 2567 4026 
Q 2313 4219 1838 4219 
Q 1578 4219 1281 4162 
Q 984 4106 628 3988 
L 628 4550 
Q 988 4650 1302 4700 
Q 1616 4750 1894 4750 
Q 2613 4750 3031 4423 
Q 3450 4097 3450 3541 
Q 3450 3153 3228 2886 
Q 3006 2619 2597 2516 
z
" transform="scale(0.015625)"/>
       </defs>
       <use xlink:href="#DejaVuSans-33"/>
      </g>
     </g>
    </g>
    <g id="xtick_16">
     <g id="line2d_38">
      <path d="M 187.92 256.32 
L 187.92 155.52 
" clip-path="url(#pb82edd6331)" style="fill: none; stroke: #b0b0b0; stroke-width: 0.8; stroke-linecap: square"/>
     </g>
     <g id="line2d_39">
      <g>
       <use xlink:href="#md3dc29be28" x="187.92" y="256.32" style="stroke: #000000; stroke-width: 0.8"/>
      </g>
     </g>
     <g id="text_9">
      <!-- 4 -->
      <g transform="translate(184.73875 270.918437) scale(0.1 -0.1)">
       <defs>
        <path id="DejaVuSans-34" d="M 2419 4116 
L 825 1625 
L 2419 1625 
L 2419 4116 
z
M 2253 4666 
L 3047 4666 
L 3047 1625 
L 3713 1625 
L 3713 1100 
L 3047 1100 
L 3047 0 
L 2419 0 
L 2419 1100 
L 313 1100 
L 313 1709 
L 2253 4666 
z
" transform="scale(0.015625)"/>
       </defs>
       <use xlink:href="#DejaVuSans-34"/>
      </g>
     </g>
    </g>
    <g id="xtick_17">
     <g id="line2d_40">
      <path d="M 221.4 256.32 
L 221.4 155.52 
" clip-path="url(#pb82edd6331)" style="fill: none; stroke: #b0b0b0; stroke-width: 0.8; stroke-linecap: square"/>
     </g>
     <g id="line2d_41">
      <g>
       <use xlink:href="#md3dc29be28" x="221.4" y="256.32" style="stroke: #000000; stroke-width: 0.8"/>
      </g>
     </g>
     <g id="text_10">
      <!-- 5 -->
      <g transform="translate(218.21875 270.918437) scale(0.1 -0.1)">
       <defs>
        <path id="DejaVuSans-35" d="M 691 4666 
L 3169 4666 
L 3169 4134 
L 1269 4134 
L 1269 2991 
Q 1406 3038 1543 3061 
Q 1681 3084 1819 3084 
Q 2600 3084 3056 2656 
Q 3513 2228 3513 1497 
Q 3513 744 3044 326 
Q 2575 -91 1722 -91 
Q 1428 -91 1123 -41 
Q 819 9 494 109 
L 494 744 
Q 775 591 1075 516 
Q 1375 441 1709 441 
Q 2250 441 2565 725 
Q 2881 1009 2881 1497 
Q 2881 1984 2565 2268 
Q 2250 2553 1709 2553 
Q 1456 2553 1204 2497 
Q 953 2441 691 2322 
L 691 4666 
z
" transform="scale(0.015625)"/>
       </defs>
       <use xlink:href="#DejaVuSans-35"/>
      </g>
     </g>
    </g>
    <g id="xtick_18">
     <g id="line2d_42">
      <path d="M 254.88 256.32 
L 254.88 155.52 
" clip-path="url(#pb82edd6331)" style="fill: none; stroke: #b0b0b0; stroke-width: 0.8; stroke-linecap: square"/>
     </g>
     <g id="line2d_43">
      <g>
       <use xlink:href="#md3dc29be28" x="254.88" y="256.32" style="stroke: #000000; stroke-width: 0.8"/>
      </g>
     </g>
     <g id="text_11">
      <!-- 6 -->
      <g transform="translate(251.69875 270.918437) scale(0.1 -0.1)">
       <defs>
        <path id="DejaVuSans-36" d="M 2113 2584 
Q 1688 2584 1439 2293 
Q 1191 2003 1191 1497 
Q 1191 994 1439 701 
Q 1688 409 2113 409 
Q 2538 409 2786 701 
Q 3034 994 3034 1497 
Q 3034 2003 2786 2293 
Q 2538 2584 2113 2584 
z
M 3366 4563 
L 3366 3988 
Q 3128 4100 2886 4159 
Q 2644 4219 2406 4219 
Q 1781 4219 1451 3797 
Q 1122 3375 1075 2522 
Q 1259 2794 1537 2939 
Q 1816 3084 2150 3084 
Q 2853 3084 3261 2657 
Q 3669 2231 3669 1497 
Q 3669 778 3244 343 
Q 2819 -91 2113 -91 
Q 1303 -91 875 529 
Q 447 1150 447 2328 
Q 447 3434 972 4092 
Q 1497 4750 2381 4750 
Q 2619 4750 2861 4703 
Q 3103 4656 3366 4563 
z
" transform="scale(0.015625)"/>
       </defs>
       <use xlink:href="#DejaVuSans-36"/>
      </g>
     </g>
    </g>
    <g id="xtick_19">
     <g id="line2d_44">
      <path d="M 288.36 256.32 
L 288.36 155.52 
" clip-path="url(#pb82edd6331)" style="fill: none; stroke: #b0b0b0; stroke-width: 0.8; stroke-linecap: square"/>
     </g>
     <g id="line2d_45">
      <g>
       <use xlink:href="#md3dc29be28" x="288.36" y="256.32" style="stroke: #000000; stroke-width: 0.8"/>
      </g>
     </g>
     <g id="text_12">
      <!-- 7 -->
      <g transform="translate(285.17875 270.918437) scale(0.1 -0.1)">
       <defs>
        <path id="DejaVuSans-37" d="M 525 4666 
L 3525 4666 
L 3525 4397 
L 1831 0 
L 1172 0 
L 2766 4134 
L 525 4134 
L 525 4666 
z
" transform="scale(0.015625)"/>
       </defs>
       <use xlink:href="#DejaVuSans-37"/>
      </g>
     </g>
    </g>
    <g id="xtick_20">
     <g id="line2d_46">
      <path d="M 321.84 256.32 
L 321.84 155.52 
" clip-path="url(#pb82edd6331)" style="fill: none; stroke: #b0b0b0; stroke-width: 0.8; stroke-linecap: square"/>
     </g>
     <g id="line2d_47">
      <g>
       <use xlink:href="#md3dc29be28" x="321.84" y="256.32" style="stroke: #000000; stroke-width: 0.8"/>
      </g>
     </g>
     <g id="text_13">
      <!-- 8 -->
      <g transform="translate(318.65875 270.918437) scale(0.1 -0.1)">
       <defs>
        <path id="DejaVuSans-38" d="M 2034 2216 
Q 1584 2216 1326 1975 
Q 1069 1734 1069 1313 
Q 1069 891 1326 650 
Q 1584 409 2034 409 
Q 2484 409 2743 651 
Q 3003 894 3003 1313 
Q 3003 1734 2745 1975 
Q 2488 2216 2034 2216 
z
M 1403 2484 
Q 997 2584 770 2862 
Q 544 3141 544 3541 
Q 544 4100 942 4425 
Q 1341 4750 2034 4750 
Q 2731 4750 3128 4425 
Q 3525 4100 3525 3541 
Q 3525 3141 3298 2862 
Q 3072 2584 2669 2484 
Q 3125 2378 3379 2068 
Q 3634 1759 3634 1313 
Q 3634 634 3220 271 
Q 2806 -91 2034 -91 
Q 1263 -91 848 271 
Q 434 634 434 1313 
Q 434 1759 690 2068 
Q 947 2378 1403 2484 
z
M 1172 3481 
Q 1172 3119 1398 2916 
Q 1625 2713 2034 2713 
Q 2441 2713 2670 2916 
Q 2900 3119 2900 3481 
Q 2900 3844 2670 4047 
Q 2441 4250 2034 4250 
Q 1625 4250 1398 4047 
Q 1172 3844 1172 3481 
z
" transform="scale(0.015625)"/>
       </defs>
       <use xlink:href="#DejaVuSans-38"/>
      </g>
     </g>
    </g>
    <g id="xtick_21">
     <g id="line2d_48">
      <path d="M 355.32 256.32 
L 355.32 155.52 
" clip-path="url(#pb82edd6331)" style="fill: none; stroke: #b0b0b0; stroke-width: 0.8; stroke-linecap: square"/>
     </g>
     <g id="line2d_49">
      <g>
       <use xlink:href="#md3dc29be28" x="355.32" y="256.32" style="stroke: #000000; stroke-width: 0.8"/>
      </g>
     </g>
     <g id="text_14">
      <!-- 9 -->
      <g transform="translate(352.13875 270.918437) scale(0.1 -0.1)">
       <defs>
        <path id="DejaVuSans-39" d="M 703 97 
L 703 672 
Q 941 559 1184 500 
Q 1428 441 1663 441 
Q 2288 441 2617 861 
Q 2947 1281 2994 2138 
Q 2813 1869 2534 1725 
Q 2256 1581 1919 1581 
Q 1219 1581 811 2004 
Q 403 2428 403 3163 
Q 403 3881 828 4315 
Q 1253 4750 1959 4750 
Q 2769 4750 3195 4129 
Q 3622 3509 3622 2328 
Q 3622 1225 3098 567 
Q 2575 -91 1691 -91 
Q 1453 -91 1209 -44 
Q 966 3 703 97 
z
M 1959 2075 
Q 2384 2075 2632 2365 
Q 2881 2656 2881 3163 
Q 2881 3666 2632 3958 
Q 2384 4250 1959 4250 
Q 1534 4250 1286 3958 
Q 1038 3666 1038 3163 
Q 1038 2656 1286 2365 
Q 1534 2075 1959 2075 
z
" transform="scale(0.015625)"/>
       </defs>
       <use xlink:href="#DejaVuSans-39"/>
      </g>
     </g>
    </g>
    <g id="xtick_22">
     <g id="line2d_50">
      <path d="M 388.8 256.32 
L 388.8 155.52 
" clip-path="url(#pb82edd6331)" style="fill: none; stroke: #b0b0b0; stroke-width: 0.8; stroke-linecap: square"/>
     </g>
     <g id="line2d_51">
      <g>
       <use xlink:href="#md3dc29be28" x="388.8" y="256.32" style="stroke: #000000; stroke-width: 0.8"/>
      </g>
     </g>
     <g id="text_15">
      <!-- 10 -->
      <g transform="translate(382.4375 270.918437) scale(0.1 -0.1)">
       <use xlink:href="#DejaVuSans-31"/>
       <use xlink:href="#DejaVuSans-30" transform="translate(63.623047 0)"/>
      </g>
     </g>
    </g>
    <g id="text_16">
     <!-- Time -->
     <g transform="translate(209.166406 284.596563) scale(0.1 -0.1)">
      <defs>
       <path id="DejaVuSans-54" d="M -19 4666 
L 3928 4666 
L 3928 4134 
L 2272 4134 
L 2272 0 
L 1638 0 
L 1638 4134 
L -19 4134 
L -19 4666 
z
" transform="scale(0.015625)"/>
       <path id="DejaVuSans-6d" d="M 3328 2828 
Q 3544 3216 3844 3400 
Q 4144 3584 4550 3584 
Q 5097 3584 5394 3201 
Q 5691 2819 5691 2113 
L 5691 0 
L 5113 0 
L 5113 2094 
Q 5113 2597 4934 2840 
Q 4756 3084 4391 3084 
Q 3944 3084 3684 2787 
Q 3425 2491 3425 1978 
L 3425 0 
L 2847 0 
L 2847 2094 
Q 2847 2600 2669 2842 
Q 2491 3084 2119 3084 
Q 1678 3084 1418 2786 
Q 1159 2488 1159 1978 
L 1159 0 
L 581 0 
L 581 3500 
L 1159 3500 
L 1159 2956 
Q 1356 3278 1631 3431 
Q 1906 3584 2284 3584 
Q 2666 3584 2933 3390 
Q 3200 3197 3328 2828 
z
" transform="scale(0.015625)"/>
       <path id="DejaVuSans-65" d="M 3597 1894 
L 3597 1613 
L 953 1613 
Q 991 1019 1311 708 
Q 1631 397 2203 397 
Q 2534 397 2845 478 
Q 3156 559 3463 722 
L 3463 178 
Q 3153 47 2828 -22 
Q 2503 -91 2169 -91 
Q 1331 -91 842 396 
Q 353 884 353 1716 
Q 353 2575 817 3079 
Q 1281 3584 2069 3584 
Q 2775 3584 3186 3129 
Q 3597 2675 3597 1894 
z
M 3022 2063 
Q 3016 2534 2758 2815 
Q 2500 3097 2075 3097 
Q 1594 3097 1305 2825 
Q 1016 2553 972 2059 
L 3022 2063 
z
" transform="scale(0.015625)"/>
      </defs>
      <use xlink:href="#DejaVuSans-54"/>
      <use xlink:href="#DejaVuSans-69" transform="translate(57.958984 0)"/>
      <use xlink:href="#DejaVuSans-6d" transform="translate(85.742188 0)"/>
      <use xlink:href="#DejaVuSans-65" transform="translate(183.154297 0)"/>
     </g>
    </g>
   </g>
   <g id="matplotlib.axis_4">
    <g id="ytick_4">
     <g id="line2d_52">
      <path d="M 54 242.098157 
L 388.8 242.098157 
" clip-path="url(#pb82edd6331)" style="fill: none; stroke: #b0b0b0; stroke-width: 0.8; stroke-linecap: square"/>
     </g>
     <g id="line2d_53">
      <g>
       <use xlink:href="#m52c69cd17b" x="54" y="242.098157" style="stroke: #000000; stroke-width: 0.8"/>
      </g>
     </g>
     <g id="text_17">
      <!-- −0.01 -->
      <g transform="translate(16.354687 245.897376) scale(0.1 -0.1)">
       <defs>
        <path id="DejaVuSans-2e" d="M 684 794 
L 1344 794 
L 1344 0 
L 684 0 
L 684 794 
z
" transform="scale(0.015625)"/>
       </defs>
       <use xlink:href="#DejaVuSans-2212"/>
       <use xlink:href="#DejaVuSans-30" transform="translate(83.789062 0)"/>
       <use xlink:href="#DejaVuSans-2e" transform="translate(147.412109 0)"/>
       <use xlink:href="#DejaVuSans-30" transform="translate(179.199219 0)"/>
       <use xlink:href="#DejaVuSans-31" transform="translate(242.822266 0)"/>
      </g>
     </g>
    </g>
    <g id="ytick_5">
     <g id="line2d_54">
      <path d="M 54 205.92 
L 388.8 205.92 
" clip-path="url(#pb82edd6331)" style="fill: none; stroke: #b0b0b0; stroke-width: 0.8; stroke-linecap: square"/>
     </g>
     <g id="line2d_55">
      <g>
       <use xlink:href="#m52c69cd17b" x="54" y="205.92" style="stroke: #000000; stroke-width: 0.8"/>
      </g>
     </g>
     <g id="text_18">
      <!-- 0.00 -->
      <g transform="translate(24.734375 209.719219) scale(0.1 -0.1)">
       <use xlink:href="#DejaVuSans-30"/>
       <use xlink:href="#DejaVuSans-2e" transform="translate(63.623047 0)"/>
       <use xlink:href="#DejaVuSans-30" transform="translate(95.410156 0)"/>
       <use xlink:href="#DejaVuSans-30" transform="translate(159.033203 0)"/>
      </g>
     </g>
    </g>
    <g id="ytick_6">
     <g id="line2d_56">
      <path d="M 54 169.741843 
L 388.8 169.741843 
" clip-path="url(#pb82edd6331)" style="fill: none; stroke: #b0b0b0; stroke-width: 0.8; stroke-linecap: square"/>
     </g>
     <g id="line2d_57">
      <g>
       <use xlink:href="#m52c69cd17b" x="54" y="169.741843" style="stroke: #000000; stroke-width: 0.8"/>
      </g>
     </g>
     <g id="text_19">
      <!-- 0.01 -->
      <g transform="translate(24.734375 173.541062) scale(0.1 -0.1)">
       <use xlink:href="#DejaVuSans-30"/>
       <use xlink:href="#DejaVuSans-2e" transform="translate(63.623047 0)"/>
       <use xlink:href="#DejaVuSans-30" transform="translate(95.410156 0)"/>
       <use xlink:href="#DejaVuSans-31" transform="translate(159.033203 0)"/>
      </g>
     </g>
    </g>
    <g id="text_20">
     <!-- Position -->
     <g transform="translate(10.275 225.384062) rotate(-90) scale(0.1 -0.1)">
      <defs>
       <path id="DejaVuSans-50" d="M 1259 4147 
L 1259 2394 
L 2053 2394 
Q 2494 2394 2734 2622 
Q 2975 2850 2975 3272 
Q 2975 3691 2734 3919 
Q 2494 4147 2053 4147 
L 1259 4147 
z
M 628 4666 
L 2053 4666 
Q 2838 4666 3239 4311 
Q 3641 3956 3641 3272 
Q 3641 2581 3239 2228 
Q 2838 1875 2053 1875 
L 1259 1875 
L 1259 0 
L 628 0 
L 628 4666 
z
" transform="scale(0.015625)"/>
       <path id="DejaVuSans-73" d="M 2834 3397 
L 2834 2853 
Q 2591 2978 2328 3040 
Q 2066 3103 1784 3103 
Q 1356 3103 1142 2972 
Q 928 2841 928 2578 
Q 928 2378 1081 2264 
Q 1234 2150 1697 2047 
L 1894 2003 
Q 2506 1872 2764 1633 
Q 3022 1394 3022 966 
Q 3022 478 2636 193 
Q 2250 -91 1575 -91 
Q 1294 -91 989 -36 
Q 684 19 347 128 
L 347 722 
Q 666 556 975 473 
Q 1284 391 1588 391 
Q 1994 391 2212 530 
Q 2431 669 2431 922 
Q 2431 1156 2273 1281 
Q 2116 1406 1581 1522 
L 1381 1569 
Q 847 1681 609 1914 
Q 372 2147 372 2553 
Q 372 3047 722 3315 
Q 1072 3584 1716 3584 
Q 2034 3584 2315 3537 
Q 2597 3491 2834 3397 
z
" transform="scale(0.015625)"/>
      </defs>
      <use xlink:href="#DejaVuSans-50"/>
      <use xlink:href="#DejaVuSans-6f" transform="translate(56.677734 0)"/>
      <use xlink:href="#DejaVuSans-73" transform="translate(117.859375 0)"/>
      <use xlink:href="#DejaVuSans-69" transform="translate(169.958984 0)"/>
      <use xlink:href="#DejaVuSans-74" transform="translate(197.742188 0)"/>
      <use xlink:href="#DejaVuSans-69" transform="translate(236.951172 0)"/>
      <use xlink:href="#DejaVuSans-6f" transform="translate(264.734375 0)"/>
      <use xlink:href="#DejaVuSans-6e" transform="translate(325.916016 0)"/>
     </g>
    </g>
   </g>
   <g id="line2d_58">
    <path d="M 54 205.92 
L 54.13392 205.812938 
L 54.3348 205.257779 
L 54.6696 203.432296 
L 55.13832 199.446101 
L 56.0088 189.727582 
L 57.348 175.220084 
L 58.08456 169.532547 
L 58.6872 166.412765 
L 59.22288 164.737794 
L 59.62464 164.077165 
L 59.95944 163.858205 
L 60.29424 163.891531 
L 60.696 164.198512 
L 61.23168 164.932555 
L 62.30304 166.909191 
L 63.50832 168.976269 
L 64.31184 169.927928 
L 65.0484 170.45137 
L 65.718 170.668928 
L 66.52152 170.681363 
L 67.59288 170.445196 
L 70.53912 169.689158 
L 70.80696 169.71326 
L 70.94088 170.142373 
L 71.20872 172.192039 
L 71.61048 177.704637 
L 72.21312 189.65542 
L 74.4228 236.792664 
L 75.0924 245.620544 
L 75.62808 250.243019 
L 76.0968 252.658936 
L 76.49856 253.680089 
L 76.7664 253.901968 
L 77.03424 253.812393 
L 77.36904 253.335747 
L 77.83776 252.151081 
L 78.64128 249.31848 
L 80.18136 243.828417 
L 80.91792 241.989544 
L 81.52056 240.985714 
L 82.05624 240.45056 
L 82.59192 240.205115 
L 83.1276 240.191369 
L 83.7972 240.405316 
L 84.93552 241.059952 
L 86.54256 241.946428 
L 87.48 242.254295 
L 87.61392 242.058506 
L 87.8148 240.971047 
L 88.1496 237.346674 
L 88.61832 229.390235 
L 89.4888 209.93321 
L 90.828 180.824537 
L 91.56456 169.393777 
L 92.1672 163.115077 
L 92.70288 159.737411 
L 93.10464 158.400131 
L 93.43944 157.951962 
L 93.70728 157.963169 
L 93.97512 158.250774 
L 94.37688 159.096603 
L 94.97952 161.000134 
L 97.32312 169.085493 
L 97.99272 170.45662 
L 98.59536 171.222958 
L 99.13104 171.573494 
L 99.66672 171.668886 
L 100.26936 171.547942 
L 101.13984 171.115329 
L 103.5504 169.789066 
L 104.28696 169.628421 
L 104.42088 170.043425 
L 104.68872 172.0699 
L 105.09048 177.559381 
L 105.69312 189.497973 
L 107.9028 236.715173 
L 108.5724 245.57591 
L 109.10808 250.221173 
L 109.5768 252.653487 
L 109.97856 253.685805 
L 110.2464 253.913635 
L 110.51424 253.828856 
L 110.84904 253.35667 
L 111.31776 252.175659 
L 112.12128 249.343668 
L 113.66136 243.843678 
L 114.39792 241.998729 
L 115.00056 240.990452 
L 115.53624 240.45204 
L 116.07192 240.204101 
L 116.6076 240.188631 
L 117.2772 240.401411 
L 118.41552 241.055973 
L 120.02256 241.944333 
L 120.96 242.253396 
L 121.09392 242.057756 
L 121.2948 240.970509 
L 121.6296 237.346451 
L 122.09832 229.39037 
L 122.9688 209.933759 
L 124.308 180.825203 
L 125.04456 169.394341 
L 125.6472 163.115518 
L 126.18288 159.737733 
L 126.58464 158.400367 
L 126.91944 157.95213 
L 127.18728 157.963288 
L 127.45512 158.250847 
L 127.85688 159.096618 
L 128.45952 161.000084 
L 130.80312 169.085392 
L 131.47272 170.456539 
L 132.07536 171.222899 
L 132.61104 171.573454 
L 133.14672 171.668863 
L 133.74936 171.547936 
L 134.61984 171.115338 
L 137.0304 169.789081 
L 137.76696 169.628432 
L 137.90088 170.043436 
L 138.16872 172.069909 
L 138.57048 177.559388 
L 139.17312 189.497977 
L 141.3828 236.71517 
L 142.0524 245.575907 
L 142.58808 250.22117 
L 143.0568 252.653484 
L 143.45856 253.685803 
L 143.7264 253.913633 
L 143.99424 253.828854 
L 144.32904 253.356668 
L 144.79776 252.175658 
L 145.60128 249.343668 
L 147.14136 243.843678 
L 147.87792 241.998729 
L 148.48056 240.990453 
L 149.01624 240.45204 
L 149.55192 240.204101 
L 150.0876 240.188632 
L 150.7572 240.401412 
L 151.89552 241.055973 
L 153.50256 241.944333 
L 154.44 242.253396 
L 154.57392 242.057756 
L 154.7748 240.970509 
L 155.1096 237.346451 
L 155.57832 229.39037 
L 156.4488 209.933759 
L 157.788 180.825203 
L 158.52456 169.394341 
L 159.1272 163.115518 
L 159.66288 159.737733 
L 160.06464 158.400367 
L 160.39944 157.95213 
L 160.66728 157.963288 
L 160.93512 158.250847 
L 161.33688 159.096618 
L 161.93952 161.000084 
L 164.28312 169.085392 
L 164.95272 170.456539 
L 165.55536 171.222899 
L 166.09104 171.573454 
L 166.62672 171.668863 
L 167.22936 171.547936 
L 168.09984 171.115338 
L 170.5104 169.789081 
L 171.24696 169.628432 
L 171.38088 170.043436 
L 171.64872 172.069909 
L 172.05048 177.559388 
L 172.65312 189.497977 
L 174.8628 236.71517 
L 175.5324 245.575907 
L 176.06808 250.22117 
L 176.5368 252.653484 
L 176.93856 253.685803 
L 177.2064 253.913633 
L 177.47424 253.828854 
L 177.80904 253.356668 
L 178.27776 252.175658 
L 179.08128 249.343668 
L 180.62136 243.843678 
L 181.35792 241.998729 
L 181.96056 240.990453 
L 182.49624 240.45204 
L 183.03192 240.204101 
L 183.5676 240.188632 
L 184.2372 240.401412 
L 185.37552 241.055973 
L 186.98256 241.944333 
L 187.92 242.253396 
L 188.05392 242.057756 
L 188.2548 240.970509 
L 188.5896 237.346451 
L 189.05832 229.39037 
L 189.9288 209.933759 
L 191.268 180.825203 
L 192.00456 169.394341 
L 192.6072 163.115518 
L 193.14288 159.737733 
L 193.54464 158.400367 
L 193.87944 157.95213 
L 194.14728 157.963288 
L 194.41512 158.250847 
L 194.81688 159.096618 
L 195.41952 161.000084 
L 197.76312 169.085392 
L 198.43272 170.456539 
L 199.03536 171.222899 
L 199.57104 171.573454 
L 200.10672 171.668863 
L 200.70936 171.547936 
L 201.57984 171.115338 
L 203.9904 169.789081 
L 204.72696 169.628432 
L 204.86088 170.043436 
L 205.12872 172.069909 
L 205.53048 177.559388 
L 206.13312 189.497977 
L 208.3428 236.71517 
L 209.0124 245.575907 
L 209.54808 250.22117 
L 210.0168 252.653484 
L 210.41856 253.685803 
L 210.6864 253.913633 
L 210.95424 253.828854 
L 211.28904 253.356668 
L 211.75776 252.175658 
L 212.56128 249.343668 
L 214.10136 243.843678 
L 214.83792 241.998729 
L 215.44056 240.990453 
L 215.97624 240.45204 
L 216.51192 240.204101 
L 217.0476 240.188632 
L 217.7172 240.401412 
L 218.85552 241.055973 
L 220.46256 241.944333 
L 221.4 242.253396 
L 221.53392 242.057756 
L 221.7348 240.970509 
L 222.0696 237.346451 
L 222.53832 229.39037 
L 223.4088 209.933759 
L 224.748 180.825203 
L 225.48456 169.394341 
L 226.0872 163.115518 
L 226.62288 159.737733 
L 227.02464 158.400367 
L 227.35944 157.95213 
L 227.62728 157.963288 
L 227.89512 158.250847 
L 228.29688 159.096618 
L 228.89952 161.000084 
L 231.24312 169.085392 
L 231.91272 170.456539 
L 232.51536 171.222899 
L 233.05104 171.573454 
L 233.58672 171.668863 
L 234.18936 171.547936 
L 235.05984 171.115338 
L 237.4704 169.789081 
L 238.20696 169.628432 
L 238.34088 170.043436 
L 238.60872 172.069909 
L 239.01048 177.559388 
L 239.61312 189.497977 
L 241.8228 236.71517 
L 242.4924 245.575907 
L 243.02808 250.22117 
L 243.4968 252.653484 
L 243.89856 253.685803 
L 244.1664 253.913633 
L 244.43424 253.828854 
L 244.76904 253.356668 
L 245.23776 252.175658 
L 246.04128 249.343668 
L 247.58136 243.843678 
L 248.31792 241.998729 
L 248.92056 240.990453 
L 249.45624 240.45204 
L 249.99192 240.204101 
L 250.5276 240.188632 
L 251.1972 240.401412 
L 252.33552 241.055973 
L 253.94256 241.944333 
L 254.88 242.253396 
L 255.01392 242.057756 
L 255.2148 240.970509 
L 255.5496 237.346451 
L 256.01832 229.39037 
L 256.8888 209.933759 
L 258.228 180.825203 
L 258.96456 169.394341 
L 259.5672 163.115518 
L 260.10288 159.737733 
L 260.50464 158.400367 
L 260.83944 157.95213 
L 261.10728 157.963288 
L 261.37512 158.250847 
L 261.77688 159.096618 
L 262.37952 161.000084 
L 264.72312 169.085392 
L 265.39272 170.456539 
L 265.99536 171.222899 
L 266.53104 171.573454 
L 267.06672 171.668863 
L 267.66936 171.547936 
L 268.53984 171.115338 
L 270.9504 169.789081 
L 271.68696 169.628432 
L 271.82088 170.043436 
L 272.08872 172.069909 
L 272.49048 177.559388 
L 273.09312 189.497977 
L 275.3028 236.71517 
L 275.9724 245.575907 
L 276.50808 250.22117 
L 276.9768 252.653484 
L 277.37856 253.685803 
L 277.6464 253.913633 
L 277.91424 253.828854 
L 278.24904 253.356668 
L 278.71776 252.175658 
L 279.52128 249.343668 
L 281.06136 243.843678 
L 281.79792 241.998729 
L 282.40056 240.990453 
L 282.93624 240.45204 
L 283.47192 240.204101 
L 284.0076 240.188632 
L 284.6772 240.401412 
L 285.81552 241.055973 
L 287.42256 241.944333 
L 288.36 242.253396 
L 288.49392 242.057756 
L 288.6948 240.970509 
L 289.0296 237.346451 
L 289.49832 229.39037 
L 290.3688 209.933759 
L 291.708 180.825203 
L 292.44456 169.394341 
L 293.0472 163.115518 
L 293.58288 159.737733 
L 293.98464 158.400367 
L 294.31944 157.95213 
L 294.58728 157.963288 
L 294.85512 158.250847 
L 295.25688 159.096618 
L 295.85952 161.000084 
L 298.20312 169.085392 
L 298.87272 170.456539 
L 299.47536 171.222899 
L 300.01104 171.573454 
L 300.54672 171.668863 
L 301.14936 171.547936 
L 302.01984 171.115338 
L 304.4304 169.789081 
L 305.16696 169.628432 
L 305.30088 170.043436 
L 305.56872 172.069909 
L 305.97048 177.559388 
L 306.57312 189.497977 
L 308.7828 236.71517 
L 309.4524 245.575907 
L 309.98808 250.22117 
L 310.4568 252.653484 
L 310.85856 253.685803 
L 311.1264 253.913633 
L 311.39424 253.828854 
L 311.72904 253.356668 
L 312.19776 252.175658 
L 313.00128 249.343668 
L 314.54136 243.843678 
L 315.27792 241.998729 
L 315.88056 240.990453 
L 316.41624 240.45204 
L 316.95192 240.204101 
L 317.4876 240.188632 
L 318.1572 240.401412 
L 319.29552 241.055973 
L 320.90256 241.944333 
L 321.84 242.253396 
L 321.97392 242.057756 
L 322.1748 240.970509 
L 322.5096 237.346451 
L 322.97832 229.39037 
L 323.8488 209.933759 
L 325.188 180.825203 
L 325.92456 169.394341 
L 326.5272 163.115518 
L 327.06288 159.737733 
L 327.46464 158.400367 
L 327.79944 157.95213 
L 328.06728 157.963288 
L 328.33512 158.250847 
L 328.73688 159.096618 
L 329.33952 161.000084 
L 331.68312 169.085392 
L 332.35272 170.456539 
L 332.95536 171.222899 
L 333.49104 171.573454 
L 334.02672 171.668863 
L 334.62936 171.547936 
L 335.49984 171.115338 
L 337.9104 169.789081 
L 338.64696 169.628432 
L 338.78088 170.043436 
L 339.04872 172.069909 
L 339.45048 177.559388 
L 340.05312 189.497977 
L 342.2628 236.71517 
L 342.9324 245.575907 
L 343.46808 250.22117 
L 343.9368 252.653484 
L 344.33856 253.685803 
L 344.6064 253.913633 
L 344.87424 253.828854 
L 345.20904 253.356668 
L 345.67776 252.175658 
L 346.48128 249.343668 
L 348.02136 243.843678 
L 348.75792 241.998729 
L 349.36056 240.990453 
L 349.89624 240.45204 
L 350.43192 240.204101 
L 350.9676 240.188632 
L 351.6372 240.401412 
L 352.77552 241.055973 
L 354.38256 241.944333 
L 355.32 242.253396 
L 355.45392 242.057756 
L 355.6548 240.970509 
L 355.9896 237.346451 
L 356.45832 229.39037 
L 357.3288 209.933759 
L 358.668 180.825203 
L 359.40456 169.394341 
L 360.0072 163.115518 
L 360.54288 159.737733 
L 360.94464 158.400367 
L 361.27944 157.95213 
L 361.54728 157.963288 
L 361.81512 158.250847 
L 362.21688 159.096618 
L 362.81952 161.000084 
L 365.16312 169.085392 
L 365.83272 170.456539 
L 366.43536 171.222899 
L 366.97104 171.573454 
L 367.50672 171.668863 
L 368.10936 171.547936 
L 368.97984 171.115338 
L 371.3904 169.789081 
L 372.12696 169.628432 
L 372.26088 170.043436 
L 372.52872 172.069909 
L 372.93048 177.559388 
L 373.53312 189.497977 
L 375.7428 236.71517 
L 376.4124 245.575907 
L 376.94808 250.22117 
L 377.4168 252.653484 
L 377.81856 253.685803 
L 378.0864 253.913633 
L 378.35424 253.828854 
L 378.68904 253.356668 
L 379.15776 252.175658 
L 379.96128 249.343668 
L 381.50136 243.843678 
L 382.23792 241.998729 
L 382.84056 240.990453 
L 383.37624 240.45204 
L 383.91192 240.204101 
L 384.4476 240.188632 
L 385.1172 240.401412 
L 386.25552 241.055973 
L 387.86256 241.944333 
L 388.8 242.253396 
L 388.8 242.253396 
" clip-path="url(#pb82edd6331)" style="fill: none; stroke: #1f77b4; stroke-width: 1.5; stroke-linecap: square"/>
   </g>
   <g id="patch_8">
    <path d="M 54 256.32 
L 54 155.52 
" style="fill: none"/>
   </g>
   <g id="patch_9">
    <path d="M 388.8 256.32 
L 388.8 155.52 
" style="fill: none"/>
   </g>
   <g id="patch_10">
    <path d="M 54 256.32 
L 388.8 256.32 
" style="fill: none; stroke: #000000; stroke-width: 0.8; stroke-linejoin: miter; stroke-linecap: square"/>
   </g>
   <g id="patch_11">
    <path d="M 54 205.92 
L 388.8 205.92 
" style="fill: none; stroke: #000000; stroke-width: 0.8; stroke-linejoin: miter; stroke-linecap: square"/>
   </g>
  </g>
 </g>
 <defs>
  <clipPath id="p6571a2fa16">
   <rect x="54" y="34.56" width="334.8" height="100.8"/>
  </clipPath>
  <clipPath id="pb82edd6331">
   <rect x="54" y="155.52" width="334.8" height="100.8"/>
  </clipPath>
 </defs>
</svg>
