<?xml version="1.0" encoding="utf-8" standalone="no"?>
<!DOCTYPE svg PUBLIC "-//W3C//DTD SVG 1.1//EN"
  "http://www.w3.org/Graphics/SVG/1.1/DTD/svg11.dtd">
<svg xmlns:xlink="http://www.w3.org/1999/xlink" width="406.885938pt" height="267.915469pt" viewBox="0 0 406.885938 267.915469" xmlns="http://www.w3.org/2000/svg" version="1.1">
 <metadata>
  <rdf:RDF xmlns:dc="http://purl.org/dc/elements/1.1/" xmlns:cc="http://creativecommons.org/ns#" xmlns:rdf="http://www.w3.org/1999/02/22-rdf-syntax-ns#">
   <cc:Work>
    <dc:type rdf:resource="http://purl.org/dc/dcmitype/StillImage"/>
    <dc:date>2025-07-09T15:00:06.337930</dc:date>
    <dc:format>image/svg+xml</dc:format>
    <dc:creator>
     <cc:Agent>
      <dc:title>Matplotlib v3.10.3, https://matplotlib.org/</dc:title>
     </cc:Agent>
    </dc:creator>
   </cc:Work>
  </rdf:RDF>
 </metadata>
 <defs>
  <style type="text/css">*{stroke-linejoin: round; stroke-linecap: butt}</style>
 </defs>
 <g id="figure_1">
  <g id="patch_1">
   <path d="M 0 267.915469 
L 406.885938 267.915469 
L 406.885938 0 
L 0 0 
z
" style="fill: #ffffff"/>
  </g>
  <g id="axes_1">
   <g id="patch_2">
    <path d="M 58.523438 109.399219 
L 393.323438 109.399219 
L 393.323438 8.599219 
L 58.523438 8.599219 
z
" style="fill: #ffffff"/>
   </g>
   <g id="matplotlib.axis_1">
    <g id="xtick_1">
     <g id="line2d_1">
      <path d="M 58.523438 109.399219 
L 58.523438 8.599219 
" clip-path="url(#pface901be3)" style="fill: none; stroke: #b0b0b0; stroke-width: 0.8; stroke-linecap: square"/>
     </g>
     <g id="line2d_2">
      <defs>
       <path id="mf5982a2bc1" d="M 0 0 
L 0 3.5 
" style="stroke: #000000; stroke-width: 0.8"/>
      </defs>
      <g>
       <use xlink:href="#mf5982a2bc1" x="58.523438" y="58.999219" style="stroke: #000000; stroke-width: 0.8"/>
      </g>
     </g>
    </g>
    <g id="xtick_2">
     <g id="line2d_3">
      <path d="M 92.003438 109.399219 
L 92.003438 8.599219 
" clip-path="url(#pface901be3)" style="fill: none; stroke: #b0b0b0; stroke-width: 0.8; stroke-linecap: square"/>
     </g>
     <g id="line2d_4">
      <g>
       <use xlink:href="#mf5982a2bc1" x="92.003438" y="58.999219" style="stroke: #000000; stroke-width: 0.8"/>
      </g>
     </g>
    </g>
    <g id="xtick_3">
     <g id="line2d_5">
      <path d="M 125.483438 109.399219 
L 125.483438 8.599219 
" clip-path="url(#pface901be3)" style="fill: none; stroke: #b0b0b0; stroke-width: 0.8; stroke-linecap: square"/>
     </g>
     <g id="line2d_6">
      <g>
       <use xlink:href="#mf5982a2bc1" x="125.483438" y="58.999219" style="stroke: #000000; stroke-width: 0.8"/>
      </g>
     </g>
    </g>
    <g id="xtick_4">
     <g id="line2d_7">
      <path d="M 158.963438 109.399219 
L 158.963438 8.599219 
" clip-path="url(#pface901be3)" style="fill: none; stroke: #b0b0b0; stroke-width: 0.8; stroke-linecap: square"/>
     </g>
     <g id="line2d_8">
      <g>
       <use xlink:href="#mf5982a2bc1" x="158.963438" y="58.999219" style="stroke: #000000; stroke-width: 0.8"/>
      </g>
     </g>
    </g>
    <g id="xtick_5">
     <g id="line2d_9">
      <path d="M 192.443438 109.399219 
L 192.443438 8.599219 
" clip-path="url(#pface901be3)" style="fill: none; stroke: #b0b0b0; stroke-width: 0.8; stroke-linecap: square"/>
     </g>
     <g id="line2d_10">
      <g>
       <use xlink:href="#mf5982a2bc1" x="192.443438" y="58.999219" style="stroke: #000000; stroke-width: 0.8"/>
      </g>
     </g>
    </g>
    <g id="xtick_6">
     <g id="line2d_11">
      <path d="M 225.923438 109.399219 
L 225.923438 8.599219 
" clip-path="url(#pface901be3)" style="fill: none; stroke: #b0b0b0; stroke-width: 0.8; stroke-linecap: square"/>
     </g>
     <g id="line2d_12">
      <g>
       <use xlink:href="#mf5982a2bc1" x="225.923438" y="58.999219" style="stroke: #000000; stroke-width: 0.8"/>
      </g>
     </g>
    </g>
    <g id="xtick_7">
     <g id="line2d_13">
      <path d="M 259.403438 109.399219 
L 259.403438 8.599219 
" clip-path="url(#pface901be3)" style="fill: none; stroke: #b0b0b0; stroke-width: 0.8; stroke-linecap: square"/>
     </g>
     <g id="line2d_14">
      <g>
       <use xlink:href="#mf5982a2bc1" x="259.403438" y="58.999219" style="stroke: #000000; stroke-width: 0.8"/>
      </g>
     </g>
    </g>
    <g id="xtick_8">
     <g id="line2d_15">
      <path d="M 292.883438 109.399219 
L 292.883438 8.599219 
" clip-path="url(#pface901be3)" style="fill: none; stroke: #b0b0b0; stroke-width: 0.8; stroke-linecap: square"/>
     </g>
     <g id="line2d_16">
      <g>
       <use xlink:href="#mf5982a2bc1" x="292.883438" y="58.999219" style="stroke: #000000; stroke-width: 0.8"/>
      </g>
     </g>
    </g>
    <g id="xtick_9">
     <g id="line2d_17">
      <path d="M 326.363438 109.399219 
L 326.363438 8.599219 
" clip-path="url(#pface901be3)" style="fill: none; stroke: #b0b0b0; stroke-width: 0.8; stroke-linecap: square"/>
     </g>
     <g id="line2d_18">
      <g>
       <use xlink:href="#mf5982a2bc1" x="326.363438" y="58.999219" style="stroke: #000000; stroke-width: 0.8"/>
      </g>
     </g>
    </g>
    <g id="xtick_10">
     <g id="line2d_19">
      <path d="M 359.843438 109.399219 
L 359.843438 8.599219 
" clip-path="url(#pface901be3)" style="fill: none; stroke: #b0b0b0; stroke-width: 0.8; stroke-linecap: square"/>
     </g>
     <g id="line2d_20">
      <g>
       <use xlink:href="#mf5982a2bc1" x="359.843438" y="58.999219" style="stroke: #000000; stroke-width: 0.8"/>
      </g>
     </g>
    </g>
    <g id="xtick_11">
     <g id="line2d_21">
      <path d="M 393.323438 109.399219 
L 393.323438 8.599219 
" clip-path="url(#pface901be3)" style="fill: none; stroke: #b0b0b0; stroke-width: 0.8; stroke-linecap: square"/>
     </g>
     <g id="line2d_22">
      <g>
       <use xlink:href="#mf5982a2bc1" x="393.323438" y="58.999219" style="stroke: #000000; stroke-width: 0.8"/>
      </g>
     </g>
    </g>
   </g>
   <g id="matplotlib.axis_2">
    <g id="ytick_1">
     <g id="line2d_23">
      <path d="M 58.523438 106.999219 
L 393.323438 106.999219 
" clip-path="url(#pface901be3)" style="fill: none; stroke: #b0b0b0; stroke-width: 0.8; stroke-linecap: square"/>
     </g>
     <g id="line2d_24">
      <defs>
       <path id="m7cf6a616c0" d="M 0 0 
L -3.5 0 
" style="stroke: #000000; stroke-width: 0.8"/>
      </defs>
      <g>
       <use xlink:href="#m7cf6a616c0" x="58.523438" y="106.999219" style="stroke: #000000; stroke-width: 0.8"/>
      </g>
     </g>
     <g id="text_1">
      <!-- −1 -->
      <g transform="translate(36.78125 110.798437) scale(0.1 -0.1)">
       <defs>
        <path id="DejaVuSans-2212" d="M 678 2272 
L 4684 2272 
L 4684 1741 
L 678 1741 
L 678 2272 
z
" transform="scale(0.015625)"/>
        <path id="DejaVuSans-31" d="M 794 531 
L 1825 531 
L 1825 4091 
L 703 3866 
L 703 4441 
L 1819 4666 
L 2450 4666 
L 2450 531 
L 3481 531 
L 3481 0 
L 794 0 
L 794 531 
z
" transform="scale(0.015625)"/>
       </defs>
       <use xlink:href="#DejaVuSans-2212"/>
       <use xlink:href="#DejaVuSans-31" transform="translate(83.789062 0)"/>
      </g>
     </g>
    </g>
    <g id="ytick_2">
     <g id="line2d_25">
      <path d="M 58.523438 58.999219 
L 393.323438 58.999219 
" clip-path="url(#pface901be3)" style="fill: none; stroke: #b0b0b0; stroke-width: 0.8; stroke-linecap: square"/>
     </g>
     <g id="line2d_26">
      <g>
       <use xlink:href="#m7cf6a616c0" x="58.523438" y="58.999219" style="stroke: #000000; stroke-width: 0.8"/>
      </g>
     </g>
     <g id="text_2">
      <!-- 0 -->
      <g transform="translate(45.160938 62.798437) scale(0.1 -0.1)">
       <defs>
        <path id="DejaVuSans-30" d="M 2034 4250 
Q 1547 4250 1301 3770 
Q 1056 3291 1056 2328 
Q 1056 1369 1301 889 
Q 1547 409 2034 409 
Q 2525 409 2770 889 
Q 3016 1369 3016 2328 
Q 3016 3291 2770 3770 
Q 2525 4250 2034 4250 
z
M 2034 4750 
Q 2819 4750 3233 4129 
Q 3647 3509 3647 2328 
Q 3647 1150 3233 529 
Q 2819 -91 2034 -91 
Q 1250 -91 836 529 
Q 422 1150 422 2328 
Q 422 3509 836 4129 
Q 1250 4750 2034 4750 
z
" transform="scale(0.015625)"/>
       </defs>
       <use xlink:href="#DejaVuSans-30"/>
      </g>
     </g>
    </g>
    <g id="ytick_3">
     <g id="line2d_27">
      <path d="M 58.523438 10.999219 
L 393.323438 10.999219 
" clip-path="url(#pface901be3)" style="fill: none; stroke: #b0b0b0; stroke-width: 0.8; stroke-linecap: square"/>
     </g>
     <g id="line2d_28">
      <g>
       <use xlink:href="#m7cf6a616c0" x="58.523438" y="10.999219" style="stroke: #000000; stroke-width: 0.8"/>
      </g>
     </g>
     <g id="text_3">
      <!-- 1 -->
      <g transform="translate(45.160938 14.798438) scale(0.1 -0.1)">
       <use xlink:href="#DejaVuSans-31"/>
      </g>
     </g>
    </g>
    <g id="text_4">
     <!-- Forcing Function -->
     <g transform="translate(14.798438 100.03125) rotate(-90) scale(0.1 -0.1)">
      <defs>
       <path id="DejaVuSans-46" d="M 628 4666 
L 3309 4666 
L 3309 4134 
L 1259 4134 
L 1259 2759 
L 3109 2759 
L 3109 2228 
L 1259 2228 
L 1259 0 
L 628 0 
L 628 4666 
z
" transform="scale(0.015625)"/>
       <path id="DejaVuSans-6f" d="M 1959 3097 
Q 1497 3097 1228 2736 
Q 959 2375 959 1747 
Q 959 1119 1226 758 
Q 1494 397 1959 397 
Q 2419 397 2687 759 
Q 2956 1122 2956 1747 
Q 2956 2369 2687 2733 
Q 2419 3097 1959 3097 
z
M 1959 3584 
Q 2709 3584 3137 3096 
Q 3566 2609 3566 1747 
Q 3566 888 3137 398 
Q 2709 -91 1959 -91 
Q 1206 -91 779 398 
Q 353 888 353 1747 
Q 353 2609 779 3096 
Q 1206 3584 1959 3584 
z
" transform="scale(0.015625)"/>
       <path id="DejaVuSans-72" d="M 2631 2963 
Q 2534 3019 2420 3045 
Q 2306 3072 2169 3072 
Q 1681 3072 1420 2755 
Q 1159 2438 1159 1844 
L 1159 0 
L 581 0 
L 581 3500 
L 1159 3500 
L 1159 2956 
Q 1341 3275 1631 3429 
Q 1922 3584 2338 3584 
Q 2397 3584 2469 3576 
Q 2541 3569 2628 3553 
L 2631 2963 
z
" transform="scale(0.015625)"/>
       <path id="DejaVuSans-63" d="M 3122 3366 
L 3122 2828 
Q 2878 2963 2633 3030 
Q 2388 3097 2138 3097 
Q 1578 3097 1268 2742 
Q 959 2388 959 1747 
Q 959 1106 1268 751 
Q 1578 397 2138 397 
Q 2388 397 2633 464 
Q 2878 531 3122 666 
L 3122 134 
Q 2881 22 2623 -34 
Q 2366 -91 2075 -91 
Q 1284 -91 818 406 
Q 353 903 353 1747 
Q 353 2603 823 3093 
Q 1294 3584 2113 3584 
Q 2378 3584 2631 3529 
Q 2884 3475 3122 3366 
z
" transform="scale(0.015625)"/>
       <path id="DejaVuSans-69" d="M 603 3500 
L 1178 3500 
L 1178 0 
L 603 0 
L 603 3500 
z
M 603 4863 
L 1178 4863 
L 1178 4134 
L 603 4134 
L 603 4863 
z
" transform="scale(0.015625)"/>
       <path id="DejaVuSans-6e" d="M 3513 2113 
L 3513 0 
L 2938 0 
L 2938 2094 
Q 2938 2591 2744 2837 
Q 2550 3084 2163 3084 
Q 1697 3084 1428 2787 
Q 1159 2491 1159 1978 
L 1159 0 
L 581 0 
L 581 3500 
L 1159 3500 
L 1159 2956 
Q 1366 3272 1645 3428 
Q 1925 3584 2291 3584 
Q 2894 3584 3203 3211 
Q 3513 2838 3513 2113 
z
" transform="scale(0.015625)"/>
       <path id="DejaVuSans-67" d="M 2906 1791 
Q 2906 2416 2648 2759 
Q 2391 3103 1925 3103 
Q 1463 3103 1205 2759 
Q 947 2416 947 1791 
Q 947 1169 1205 825 
Q 1463 481 1925 481 
Q 2391 481 2648 825 
Q 2906 1169 2906 1791 
z
M 3481 434 
Q 3481 -459 3084 -895 
Q 2688 -1331 1869 -1331 
Q 1566 -1331 1297 -1286 
Q 1028 -1241 775 -1147 
L 775 -588 
Q 1028 -725 1275 -790 
Q 1522 -856 1778 -856 
Q 2344 -856 2625 -561 
Q 2906 -266 2906 331 
L 2906 616 
Q 2728 306 2450 153 
Q 2172 0 1784 0 
Q 1141 0 747 490 
Q 353 981 353 1791 
Q 353 2603 747 3093 
Q 1141 3584 1784 3584 
Q 2172 3584 2450 3431 
Q 2728 3278 2906 2969 
L 2906 3500 
L 3481 3500 
L 3481 434 
z
" transform="scale(0.015625)"/>
       <path id="DejaVuSans-20" transform="scale(0.015625)"/>
       <path id="DejaVuSans-75" d="M 544 1381 
L 544 3500 
L 1119 3500 
L 1119 1403 
Q 1119 906 1312 657 
Q 1506 409 1894 409 
Q 2359 409 2629 706 
Q 2900 1003 2900 1516 
L 2900 3500 
L 3475 3500 
L 3475 0 
L 2900 0 
L 2900 538 
Q 2691 219 2414 64 
Q 2138 -91 1772 -91 
Q 1169 -91 856 284 
Q 544 659 544 1381 
z
M 1991 3584 
L 1991 3584 
z
" transform="scale(0.015625)"/>
       <path id="DejaVuSans-74" d="M 1172 4494 
L 1172 3500 
L 2356 3500 
L 2356 3053 
L 1172 3053 
L 1172 1153 
Q 1172 725 1289 603 
Q 1406 481 1766 481 
L 2356 481 
L 2356 0 
L 1766 0 
Q 1100 0 847 248 
Q 594 497 594 1153 
L 594 3053 
L 172 3053 
L 172 3500 
L 594 3500 
L 594 4494 
L 1172 4494 
z
" transform="scale(0.015625)"/>
      </defs>
      <use xlink:href="#DejaVuSans-46"/>
      <use xlink:href="#DejaVuSans-6f" transform="translate(53.894531 0)"/>
      <use xlink:href="#DejaVuSans-72" transform="translate(115.076172 0)"/>
      <use xlink:href="#DejaVuSans-63" transform="translate(153.939453 0)"/>
      <use xlink:href="#DejaVuSans-69" transform="translate(208.919922 0)"/>
      <use xlink:href="#DejaVuSans-6e" transform="translate(236.703125 0)"/>
      <use xlink:href="#DejaVuSans-67" transform="translate(300.082031 0)"/>
      <use xlink:href="#DejaVuSans-20" transform="translate(363.558594 0)"/>
      <use xlink:href="#DejaVuSans-46" transform="translate(395.345703 0)"/>
      <use xlink:href="#DejaVuSans-75" transform="translate(447.365234 0)"/>
      <use xlink:href="#DejaVuSans-6e" transform="translate(510.744141 0)"/>
      <use xlink:href="#DejaVuSans-63" transform="translate(574.123047 0)"/>
      <use xlink:href="#DejaVuSans-74" transform="translate(629.103516 0)"/>
      <use xlink:href="#DejaVuSans-69" transform="translate(668.3125 0)"/>
      <use xlink:href="#DejaVuSans-6f" transform="translate(696.095703 0)"/>
      <use xlink:href="#DejaVuSans-6e" transform="translate(757.277344 0)"/>
     </g>
    </g>
   </g>
   <g id="line2d_29">
    <path d="M 58.523438 58.999219 
L 58.657358 12.211421 
L 58.858238 11.485635 
L 59.193038 11.243 
L 59.929598 11.116366 
L 62.206238 11.047158 
L 72.049358 11.053087 
L 74.392958 11.187094 
L 74.861678 11.404745 
L 75.062558 11.808849 
L 75.129518 12.211421 
L 75.196478 13.402194 
L 75.397358 105.787016 
L 75.598238 106.512803 
L 75.933038 106.755438 
L 76.669598 106.882071 
L 78.946238 106.951279 
L 88.789358 106.945351 
L 91.132958 106.811344 
L 91.601678 106.593692 
L 91.802558 106.189588 
L 91.869518 105.787016 
L 91.936478 104.596243 
L 92.137358 12.211421 
L 92.338238 11.485635 
L 92.673038 11.243 
L 93.409598 11.116366 
L 95.686238 11.047158 
L 105.529358 11.053087 
L 107.872958 11.187094 
L 108.341678 11.404745 
L 108.542558 11.808849 
L 108.609518 12.211421 
L 108.676478 13.402194 
L 108.877358 105.787016 
L 109.078238 106.512803 
L 109.413038 106.755438 
L 110.149598 106.882071 
L 112.426238 106.951279 
L 122.269358 106.945351 
L 124.612958 106.811344 
L 125.081678 106.593692 
L 125.282558 106.189588 
L 125.349518 105.787016 
L 125.416478 104.596243 
L 125.617358 12.211421 
L 125.818238 11.485635 
L 126.153038 11.243 
L 126.889598 11.116366 
L 129.166238 11.047158 
L 139.009358 11.053087 
L 141.352958 11.187094 
L 141.821678 11.404745 
L 142.022558 11.808849 
L 142.089518 12.211421 
L 142.156478 13.402194 
L 142.357358 105.787016 
L 142.558238 106.512803 
L 142.893038 106.755438 
L 143.629598 106.882071 
L 145.906238 106.951279 
L 155.749358 106.945351 
L 158.092958 106.811344 
L 158.561678 106.593692 
L 158.762558 106.189588 
L 158.829518 105.787016 
L 158.896478 104.596243 
L 159.097358 12.211421 
L 159.298238 11.485635 
L 159.633038 11.243 
L 160.369598 11.116366 
L 162.646238 11.047158 
L 172.489358 11.053087 
L 174.832958 11.187094 
L 175.301678 11.404745 
L 175.502558 11.808849 
L 175.569518 12.211421 
L 175.636478 13.402194 
L 175.837358 105.787016 
L 176.038238 106.512803 
L 176.373038 106.755438 
L 177.109598 106.882071 
L 179.386238 106.951279 
L 189.229358 106.945351 
L 191.572958 106.811344 
L 192.041678 106.593692 
L 192.242558 106.189588 
L 192.309518 105.787016 
L 192.376478 104.596243 
L 192.577358 12.211421 
L 192.778238 11.485635 
L 193.113038 11.243 
L 193.849598 11.116366 
L 196.126238 11.047158 
L 205.969358 11.053087 
L 208.312958 11.187094 
L 208.781678 11.404745 
L 208.982558 11.808849 
L 209.049518 12.211421 
L 209.116478 13.402194 
L 209.317358 105.787016 
L 209.518237 106.512803 
L 209.853038 106.755438 
L 210.589598 106.882071 
L 212.866238 106.951279 
L 222.709358 106.945351 
L 225.052958 106.811344 
L 225.521678 106.593692 
L 225.722558 106.189588 
L 225.789518 105.787016 
L 225.856478 104.596243 
L 226.057358 12.211421 
L 226.258238 11.485635 
L 226.593038 11.243 
L 227.329598 11.116366 
L 229.606238 11.047158 
L 239.449358 11.053087 
L 241.792958 11.187094 
L 242.261678 11.404745 
L 242.462558 11.808849 
L 242.529518 12.211421 
L 242.596478 13.402194 
L 242.797358 105.787016 
L 242.998238 106.512803 
L 243.333038 106.755438 
L 244.069598 106.882071 
L 246.346238 106.951279 
L 256.189358 106.945351 
L 258.532958 106.811344 
L 259.001678 106.593692 
L 259.202558 106.189588 
L 259.269518 105.787016 
L 259.336478 104.596243 
L 259.537358 12.211421 
L 259.738238 11.485635 
L 260.073038 11.243 
L 260.809598 11.116366 
L 263.086238 11.047158 
L 272.929358 11.053087 
L 275.272958 11.187094 
L 275.741678 11.404745 
L 275.942558 11.808849 
L 276.009518 12.211421 
L 276.076478 13.402194 
L 276.277358 105.787016 
L 276.478238 106.512803 
L 276.813038 106.755438 
L 277.549598 106.882071 
L 279.826238 106.951279 
L 289.669358 106.945351 
L 292.012958 106.811344 
L 292.481678 106.593692 
L 292.682558 106.189588 
L 292.749518 105.787016 
L 292.816478 104.596243 
L 293.017358 12.211421 
L 293.218238 11.485635 
L 293.553038 11.243 
L 294.289598 11.116366 
L 296.566238 11.047158 
L 306.409358 11.053087 
L 308.752958 11.187094 
L 309.221678 11.404745 
L 309.422558 11.808849 
L 309.489518 12.211421 
L 309.556478 13.402194 
L 309.757358 105.787016 
L 309.958238 106.512803 
L 310.293038 106.755438 
L 311.029598 106.882071 
L 313.306238 106.951279 
L 323.149358 106.945351 
L 325.492958 106.811344 
L 325.961678 106.593692 
L 326.162558 106.189588 
L 326.229518 105.787016 
L 326.296478 104.596243 
L 326.497358 12.211421 
L 326.698238 11.485635 
L 327.033038 11.243 
L 327.769598 11.116366 
L 330.046238 11.047158 
L 339.889358 11.053087 
L 342.232958 11.187094 
L 342.701678 11.404745 
L 342.902558 11.808849 
L 342.969518 12.211421 
L 343.036477 13.402194 
L 343.237358 105.787016 
L 343.438238 106.512803 
L 343.773038 106.755438 
L 344.509598 106.882071 
L 346.786238 106.951279 
L 356.629358 106.945351 
L 358.972958 106.811344 
L 359.441678 106.593692 
L 359.642558 106.189588 
L 359.709518 105.787016 
L 359.776477 104.596243 
L 359.977358 12.211421 
L 360.178238 11.485635 
L 360.513037 11.243 
L 361.249598 11.116366 
L 363.526238 11.047158 
L 373.369358 11.053087 
L 375.712958 11.187094 
L 376.181678 11.404745 
L 376.382558 11.808849 
L 376.449518 12.211421 
L 376.516478 13.402194 
L 376.717358 105.787016 
L 376.918238 106.512803 
L 377.253038 106.755438 
L 377.989598 106.882071 
L 380.266238 106.951279 
L 390.109358 106.945351 
L 392.452958 106.811344 
L 392.921678 106.593692 
L 393.122558 106.189588 
L 393.189518 105.787016 
L 393.256478 104.596243 
L 393.323438 58.999219 
L 393.323438 58.999219 
" clip-path="url(#pface901be3)" style="fill: none; stroke: #1f77b4; stroke-width: 1.5; stroke-linecap: square"/>
   </g>
   <g id="patch_3">
    <path d="M 58.523438 109.399219 
L 58.523438 8.599219 
" style="fill: none"/>
   </g>
   <g id="patch_4">
    <path d="M 393.323438 109.399219 
L 393.323438 8.599219 
" style="fill: none"/>
   </g>
   <g id="patch_5">
    <path d="M 58.523438 58.999219 
L 393.323438 58.999219 
" style="fill: none; stroke: #000000; stroke-width: 0.8; stroke-linejoin: miter; stroke-linecap: square"/>
   </g>
   <g id="patch_6">
    <path d="M 58.523438 8.599219 
L 393.323438 8.599219 
" style="fill: none"/>
   </g>
  </g>
  <g id="axes_2">
   <g id="patch_7">
    <path d="M 58.523438 230.359219 
L 393.323438 230.359219 
L 393.323438 129.559219 
L 58.523438 129.559219 
z
" style="fill: #ffffff"/>
   </g>
   <g id="matplotlib.axis_3">
    <g id="xtick_12">
     <g id="line2d_30">
      <path d="M 58.523438 230.359219 
L 58.523438 129.559219 
" clip-path="url(#p3531db10b7)" style="fill: none; stroke: #b0b0b0; stroke-width: 0.8; stroke-linecap: square"/>
     </g>
     <g id="line2d_31">
      <g>
       <use xlink:href="#mf5982a2bc1" x="58.523438" y="230.359219" style="stroke: #000000; stroke-width: 0.8"/>
      </g>
     </g>
     <g id="text_5">
      <!-- 0 -->
      <g transform="translate(55.342188 244.957656) scale(0.1 -0.1)">
       <use xlink:href="#DejaVuSans-30"/>
      </g>
     </g>
    </g>
    <g id="xtick_13">
     <g id="line2d_32">
      <path d="M 92.003438 230.359219 
L 92.003438 129.559219 
" clip-path="url(#p3531db10b7)" style="fill: none; stroke: #b0b0b0; stroke-width: 0.8; stroke-linecap: square"/>
     </g>
     <g id="line2d_33">
      <g>
       <use xlink:href="#mf5982a2bc1" x="92.003438" y="230.359219" style="stroke: #000000; stroke-width: 0.8"/>
      </g>
     </g>
     <g id="text_6">
      <!-- 1 -->
      <g transform="translate(88.822188 244.957656) scale(0.1 -0.1)">
       <use xlink:href="#DejaVuSans-31"/>
      </g>
     </g>
    </g>
    <g id="xtick_14">
     <g id="line2d_34">
      <path d="M 125.483438 230.359219 
L 125.483438 129.559219 
" clip-path="url(#p3531db10b7)" style="fill: none; stroke: #b0b0b0; stroke-width: 0.8; stroke-linecap: square"/>
     </g>
     <g id="line2d_35">
      <g>
       <use xlink:href="#mf5982a2bc1" x="125.483438" y="230.359219" style="stroke: #000000; stroke-width: 0.8"/>
      </g>
     </g>
     <g id="text_7">
      <!-- 2 -->
      <g transform="translate(122.302188 244.957656) scale(0.1 -0.1)">
       <defs>
        <path id="DejaVuSans-32" d="M 1228 531 
L 3431 531 
L 3431 0 
L 469 0 
L 469 531 
Q 828 903 1448 1529 
Q 2069 2156 2228 2338 
Q 2531 2678 2651 2914 
Q 2772 3150 2772 3378 
Q 2772 3750 2511 3984 
Q 2250 4219 1831 4219 
Q 1534 4219 1204 4116 
Q 875 4013 500 3803 
L 500 4441 
Q 881 4594 1212 4672 
Q 1544 4750 1819 4750 
Q 2544 4750 2975 4387 
Q 3406 4025 3406 3419 
Q 3406 3131 3298 2873 
Q 3191 2616 2906 2266 
Q 2828 2175 2409 1742 
Q 1991 1309 1228 531 
z
" transform="scale(0.015625)"/>
       </defs>
       <use xlink:href="#DejaVuSans-32"/>
      </g>
     </g>
    </g>
    <g id="xtick_15">
     <g id="line2d_36">
      <path d="M 158.963438 230.359219 
L 158.963438 129.559219 
" clip-path="url(#p3531db10b7)" style="fill: none; stroke: #b0b0b0; stroke-width: 0.8; stroke-linecap: square"/>
     </g>
     <g id="line2d_37">
      <g>
       <use xlink:href="#mf5982a2bc1" x="158.963438" y="230.359219" style="stroke: #000000; stroke-width: 0.8"/>
      </g>
     </g>
     <g id="text_8">
      <!-- 3 -->
      <g transform="translate(155.782188 244.957656) scale(0.1 -0.1)">
       <defs>
        <path id="DejaVuSans-33" d="M 2597 2516 
Q 3050 2419 3304 2112 
Q 3559 1806 3559 1356 
Q 3559 666 3084 287 
Q 2609 -91 1734 -91 
Q 1441 -91 1130 -33 
Q 819 25 488 141 
L 488 750 
Q 750 597 1062 519 
Q 1375 441 1716 441 
Q 2309 441 2620 675 
Q 2931 909 2931 1356 
Q 2931 1769 2642 2001 
Q 2353 2234 1838 2234 
L 1294 2234 
L 1294 2753 
L 1863 2753 
Q 2328 2753 2575 2939 
Q 2822 3125 2822 3475 
Q 2822 3834 2567 4026 
Q 2313 4219 1838 4219 
Q 1578 4219 1281 4162 
Q 984 4106 628 3988 
L 628 4550 
Q 988 4650 1302 4700 
Q 1616 4750 1894 4750 
Q 2613 4750 3031 4423 
Q 3450 4097 3450 3541 
Q 3450 3153 3228 2886 
Q 3006 2619 2597 2516 
z
" transform="scale(0.015625)"/>
       </defs>
       <use xlink:href="#DejaVuSans-33"/>
      </g>
     </g>
    </g>
    <g id="xtick_16">
     <g id="line2d_38">
      <path d="M 192.443438 230.359219 
L 192.443438 129.559219 
" clip-path="url(#p3531db10b7)" style="fill: none; stroke: #b0b0b0; stroke-width: 0.8; stroke-linecap: square"/>
     </g>
     <g id="line2d_39">
      <g>
       <use xlink:href="#mf5982a2bc1" x="192.443438" y="230.359219" style="stroke: #000000; stroke-width: 0.8"/>
      </g>
     </g>
     <g id="text_9">
      <!-- 4 -->
      <g transform="translate(189.262188 244.957656) scale(0.1 -0.1)">
       <defs>
        <path id="DejaVuSans-34" d="M 2419 4116 
L 825 1625 
L 2419 1625 
L 2419 4116 
z
M 2253 4666 
L 3047 4666 
L 3047 1625 
L 3713 1625 
L 3713 1100 
L 3047 1100 
L 3047 0 
L 2419 0 
L 2419 1100 
L 313 1100 
L 313 1709 
L 2253 4666 
z
" transform="scale(0.015625)"/>
       </defs>
       <use xlink:href="#DejaVuSans-34"/>
      </g>
     </g>
    </g>
    <g id="xtick_17">
     <g id="line2d_40">
      <path d="M 225.923438 230.359219 
L 225.923438 129.559219 
" clip-path="url(#p3531db10b7)" style="fill: none; stroke: #b0b0b0; stroke-width: 0.8; stroke-linecap: square"/>
     </g>
     <g id="line2d_41">
      <g>
       <use xlink:href="#mf5982a2bc1" x="225.923438" y="230.359219" style="stroke: #000000; stroke-width: 0.8"/>
      </g>
     </g>
     <g id="text_10">
      <!-- 5 -->
      <g transform="translate(222.742188 244.957656) scale(0.1 -0.1)">
       <defs>
        <path id="DejaVuSans-35" d="M 691 4666 
L 3169 4666 
L 3169 4134 
L 1269 4134 
L 1269 2991 
Q 1406 3038 1543 3061 
Q 1681 3084 1819 3084 
Q 2600 3084 3056 2656 
Q 3513 2228 3513 1497 
Q 3513 744 3044 326 
Q 2575 -91 1722 -91 
Q 1428 -91 1123 -41 
Q 819 9 494 109 
L 494 744 
Q 775 591 1075 516 
Q 1375 441 1709 441 
Q 2250 441 2565 725 
Q 2881 1009 2881 1497 
Q 2881 1984 2565 2268 
Q 2250 2553 1709 2553 
Q 1456 2553 1204 2497 
Q 953 2441 691 2322 
L 691 4666 
z
" transform="scale(0.015625)"/>
       </defs>
       <use xlink:href="#DejaVuSans-35"/>
      </g>
     </g>
    </g>
    <g id="xtick_18">
     <g id="line2d_42">
      <path d="M 259.403438 230.359219 
L 259.403438 129.559219 
" clip-path="url(#p3531db10b7)" style="fill: none; stroke: #b0b0b0; stroke-width: 0.8; stroke-linecap: square"/>
     </g>
     <g id="line2d_43">
      <g>
       <use xlink:href="#mf5982a2bc1" x="259.403438" y="230.359219" style="stroke: #000000; stroke-width: 0.8"/>
      </g>
     </g>
     <g id="text_11">
      <!-- 6 -->
      <g transform="translate(256.222188 244.957656) scale(0.1 -0.1)">
       <defs>
        <path id="DejaVuSans-36" d="M 2113 2584 
Q 1688 2584 1439 2293 
Q 1191 2003 1191 1497 
Q 1191 994 1439 701 
Q 1688 409 2113 409 
Q 2538 409 2786 701 
Q 3034 994 3034 1497 
Q 3034 2003 2786 2293 
Q 2538 2584 2113 2584 
z
M 3366 4563 
L 3366 3988 
Q 3128 4100 2886 4159 
Q 2644 4219 2406 4219 
Q 1781 4219 1451 3797 
Q 1122 3375 1075 2522 
Q 1259 2794 1537 2939 
Q 1816 3084 2150 3084 
Q 2853 3084 3261 2657 
Q 3669 2231 3669 1497 
Q 3669 778 3244 343 
Q 2819 -91 2113 -91 
Q 1303 -91 875 529 
Q 447 1150 447 2328 
Q 447 3434 972 4092 
Q 1497 4750 2381 4750 
Q 2619 4750 2861 4703 
Q 3103 4656 3366 4563 
z
" transform="scale(0.015625)"/>
       </defs>
       <use xlink:href="#DejaVuSans-36"/>
      </g>
     </g>
    </g>
    <g id="xtick_19">
     <g id="line2d_44">
      <path d="M 292.883438 230.359219 
L 292.883438 129.559219 
" clip-path="url(#p3531db10b7)" style="fill: none; stroke: #b0b0b0; stroke-width: 0.8; stroke-linecap: square"/>
     </g>
     <g id="line2d_45">
      <g>
       <use xlink:href="#mf5982a2bc1" x="292.883438" y="230.359219" style="stroke: #000000; stroke-width: 0.8"/>
      </g>
     </g>
     <g id="text_12">
      <!-- 7 -->
      <g transform="translate(289.702188 244.957656) scale(0.1 -0.1)">
       <defs>
        <path id="DejaVuSans-37" d="M 525 4666 
L 3525 4666 
L 3525 4397 
L 1831 0 
L 1172 0 
L 2766 4134 
L 525 4134 
L 525 4666 
z
" transform="scale(0.015625)"/>
       </defs>
       <use xlink:href="#DejaVuSans-37"/>
      </g>
     </g>
    </g>
    <g id="xtick_20">
     <g id="line2d_46">
      <path d="M 326.363438 230.359219 
L 326.363438 129.559219 
" clip-path="url(#p3531db10b7)" style="fill: none; stroke: #b0b0b0; stroke-width: 0.8; stroke-linecap: square"/>
     </g>
     <g id="line2d_47">
      <g>
       <use xlink:href="#mf5982a2bc1" x="326.363438" y="230.359219" style="stroke: #000000; stroke-width: 0.8"/>
      </g>
     </g>
     <g id="text_13">
      <!-- 8 -->
      <g transform="translate(323.182188 244.957656) scale(0.1 -0.1)">
       <defs>
        <path id="DejaVuSans-38" d="M 2034 2216 
Q 1584 2216 1326 1975 
Q 1069 1734 1069 1313 
Q 1069 891 1326 650 
Q 1584 409 2034 409 
Q 2484 409 2743 651 
Q 3003 894 3003 1313 
Q 3003 1734 2745 1975 
Q 2488 2216 2034 2216 
z
M 1403 2484 
Q 997 2584 770 2862 
Q 544 3141 544 3541 
Q 544 4100 942 4425 
Q 1341 4750 2034 4750 
Q 2731 4750 3128 4425 
Q 3525 4100 3525 3541 
Q 3525 3141 3298 2862 
Q 3072 2584 2669 2484 
Q 3125 2378 3379 2068 
Q 3634 1759 3634 1313 
Q 3634 634 3220 271 
Q 2806 -91 2034 -91 
Q 1263 -91 848 271 
Q 434 634 434 1313 
Q 434 1759 690 2068 
Q 947 2378 1403 2484 
z
M 1172 3481 
Q 1172 3119 1398 2916 
Q 1625 2713 2034 2713 
Q 2441 2713 2670 2916 
Q 2900 3119 2900 3481 
Q 2900 3844 2670 4047 
Q 2441 4250 2034 4250 
Q 1625 4250 1398 4047 
Q 1172 3844 1172 3481 
z
" transform="scale(0.015625)"/>
       </defs>
       <use xlink:href="#DejaVuSans-38"/>
      </g>
     </g>
    </g>
    <g id="xtick_21">
     <g id="line2d_48">
      <path d="M 359.843438 230.359219 
L 359.843438 129.559219 
" clip-path="url(#p3531db10b7)" style="fill: none; stroke: #b0b0b0; stroke-width: 0.8; stroke-linecap: square"/>
     </g>
     <g id="line2d_49">
      <g>
       <use xlink:href="#mf5982a2bc1" x="359.843438" y="230.359219" style="stroke: #000000; stroke-width: 0.8"/>
      </g>
     </g>
     <g id="text_14">
      <!-- 9 -->
      <g transform="translate(356.662188 244.957656) scale(0.1 -0.1)">
       <defs>
        <path id="DejaVuSans-39" d="M 703 97 
L 703 672 
Q 941 559 1184 500 
Q 1428 441 1663 441 
Q 2288 441 2617 861 
Q 2947 1281 2994 2138 
Q 2813 1869 2534 1725 
Q 2256 1581 1919 1581 
Q 1219 1581 811 2004 
Q 403 2428 403 3163 
Q 403 3881 828 4315 
Q 1253 4750 1959 4750 
Q 2769 4750 3195 4129 
Q 3622 3509 3622 2328 
Q 3622 1225 3098 567 
Q 2575 -91 1691 -91 
Q 1453 -91 1209 -44 
Q 966 3 703 97 
z
M 1959 2075 
Q 2384 2075 2632 2365 
Q 2881 2656 2881 3163 
Q 2881 3666 2632 3958 
Q 2384 4250 1959 4250 
Q 1534 4250 1286 3958 
Q 1038 3666 1038 3163 
Q 1038 2656 1286 2365 
Q 1534 2075 1959 2075 
z
" transform="scale(0.015625)"/>
       </defs>
       <use xlink:href="#DejaVuSans-39"/>
      </g>
     </g>
    </g>
    <g id="xtick_22">
     <g id="line2d_50">
      <path d="M 393.323438 230.359219 
L 393.323438 129.559219 
" clip-path="url(#p3531db10b7)" style="fill: none; stroke: #b0b0b0; stroke-width: 0.8; stroke-linecap: square"/>
     </g>
     <g id="line2d_51">
      <g>
       <use xlink:href="#mf5982a2bc1" x="393.323438" y="230.359219" style="stroke: #000000; stroke-width: 0.8"/>
      </g>
     </g>
     <g id="text_15">
      <!-- 10 -->
      <g transform="translate(386.960938 244.957656) scale(0.1 -0.1)">
       <use xlink:href="#DejaVuSans-31"/>
       <use xlink:href="#DejaVuSans-30" transform="translate(63.623047 0)"/>
      </g>
     </g>
    </g>
    <g id="text_16">
     <!-- Time -->
     <g transform="translate(213.689844 258.635781) scale(0.1 -0.1)">
      <defs>
       <path id="DejaVuSans-54" d="M -19 4666 
L 3928 4666 
L 3928 4134 
L 2272 4134 
L 2272 0 
L 1638 0 
L 1638 4134 
L -19 4134 
L -19 4666 
z
" transform="scale(0.015625)"/>
       <path id="DejaVuSans-6d" d="M 3328 2828 
Q 3544 3216 3844 3400 
Q 4144 3584 4550 3584 
Q 5097 3584 5394 3201 
Q 5691 2819 5691 2113 
L 5691 0 
L 5113 0 
L 5113 2094 
Q 5113 2597 4934 2840 
Q 4756 3084 4391 3084 
Q 3944 3084 3684 2787 
Q 3425 2491 3425 1978 
L 3425 0 
L 2847 0 
L 2847 2094 
Q 2847 2600 2669 2842 
Q 2491 3084 2119 3084 
Q 1678 3084 1418 2786 
Q 1159 2488 1159 1978 
L 1159 0 
L 581 0 
L 581 3500 
L 1159 3500 
L 1159 2956 
Q 1356 3278 1631 3431 
Q 1906 3584 2284 3584 
Q 2666 3584 2933 3390 
Q 3200 3197 3328 2828 
z
" transform="scale(0.015625)"/>
       <path id="DejaVuSans-65" d="M 3597 1894 
L 3597 1613 
L 953 1613 
Q 991 1019 1311 708 
Q 1631 397 2203 397 
Q 2534 397 2845 478 
Q 3156 559 3463 722 
L 3463 178 
Q 3153 47 2828 -22 
Q 2503 -91 2169 -91 
Q 1331 -91 842 396 
Q 353 884 353 1716 
Q 353 2575 817 3079 
Q 1281 3584 2069 3584 
Q 2775 3584 3186 3129 
Q 3597 2675 3597 1894 
z
M 3022 2063 
Q 3016 2534 2758 2815 
Q 2500 3097 2075 3097 
Q 1594 3097 1305 2825 
Q 1016 2553 972 2059 
L 3022 2063 
z
" transform="scale(0.015625)"/>
      </defs>
      <use xlink:href="#DejaVuSans-54"/>
      <use xlink:href="#DejaVuSans-69" transform="translate(57.958984 0)"/>
      <use xlink:href="#DejaVuSans-6d" transform="translate(85.742188 0)"/>
      <use xlink:href="#DejaVuSans-65" transform="translate(183.154297 0)"/>
     </g>
    </g>
   </g>
   <g id="matplotlib.axis_4">
    <g id="ytick_4">
     <g id="line2d_52">
      <path d="M 58.523438 227.306091 
L 393.323438 227.306091 
" clip-path="url(#p3531db10b7)" style="fill: none; stroke: #b0b0b0; stroke-width: 0.8; stroke-linecap: square"/>
     </g>
     <g id="line2d_53">
      <g>
       <use xlink:href="#m7cf6a616c0" x="58.523438" y="227.306091" style="stroke: #000000; stroke-width: 0.8"/>
      </g>
     </g>
     <g id="text_17">
      <!-- −0.04 -->
      <g transform="translate(20.878125 231.105309) scale(0.1 -0.1)">
       <defs>
        <path id="DejaVuSans-2e" d="M 684 794 
L 1344 794 
L 1344 0 
L 684 0 
L 684 794 
z
" transform="scale(0.015625)"/>
       </defs>
       <use xlink:href="#DejaVuSans-2212"/>
       <use xlink:href="#DejaVuSans-30" transform="translate(83.789062 0)"/>
       <use xlink:href="#DejaVuSans-2e" transform="translate(147.412109 0)"/>
       <use xlink:href="#DejaVuSans-30" transform="translate(179.199219 0)"/>
       <use xlink:href="#DejaVuSans-34" transform="translate(242.822266 0)"/>
      </g>
     </g>
    </g>
    <g id="ytick_5">
     <g id="line2d_54">
      <path d="M 58.523438 203.632655 
L 393.323438 203.632655 
" clip-path="url(#p3531db10b7)" style="fill: none; stroke: #b0b0b0; stroke-width: 0.8; stroke-linecap: square"/>
     </g>
     <g id="line2d_55">
      <g>
       <use xlink:href="#m7cf6a616c0" x="58.523438" y="203.632655" style="stroke: #000000; stroke-width: 0.8"/>
      </g>
     </g>
     <g id="text_18">
      <!-- −0.02 -->
      <g transform="translate(20.878125 207.431873) scale(0.1 -0.1)">
       <use xlink:href="#DejaVuSans-2212"/>
       <use xlink:href="#DejaVuSans-30" transform="translate(83.789062 0)"/>
       <use xlink:href="#DejaVuSans-2e" transform="translate(147.412109 0)"/>
       <use xlink:href="#DejaVuSans-30" transform="translate(179.199219 0)"/>
       <use xlink:href="#DejaVuSans-32" transform="translate(242.822266 0)"/>
      </g>
     </g>
    </g>
    <g id="ytick_6">
     <g id="line2d_56">
      <path d="M 58.523438 179.959219 
L 393.323438 179.959219 
" clip-path="url(#p3531db10b7)" style="fill: none; stroke: #b0b0b0; stroke-width: 0.8; stroke-linecap: square"/>
     </g>
     <g id="line2d_57">
      <g>
       <use xlink:href="#m7cf6a616c0" x="58.523438" y="179.959219" style="stroke: #000000; stroke-width: 0.8"/>
      </g>
     </g>
     <g id="text_19">
      <!-- 0.00 -->
      <g transform="translate(29.257813 183.758437) scale(0.1 -0.1)">
       <use xlink:href="#DejaVuSans-30"/>
       <use xlink:href="#DejaVuSans-2e" transform="translate(63.623047 0)"/>
       <use xlink:href="#DejaVuSans-30" transform="translate(95.410156 0)"/>
       <use xlink:href="#DejaVuSans-30" transform="translate(159.033203 0)"/>
      </g>
     </g>
    </g>
    <g id="ytick_7">
     <g id="line2d_58">
      <path d="M 58.523438 156.285783 
L 393.323438 156.285783 
" clip-path="url(#p3531db10b7)" style="fill: none; stroke: #b0b0b0; stroke-width: 0.8; stroke-linecap: square"/>
     </g>
     <g id="line2d_59">
      <g>
       <use xlink:href="#m7cf6a616c0" x="58.523438" y="156.285783" style="stroke: #000000; stroke-width: 0.8"/>
      </g>
     </g>
     <g id="text_20">
      <!-- 0.02 -->
      <g transform="translate(29.257813 160.085002) scale(0.1 -0.1)">
       <use xlink:href="#DejaVuSans-30"/>
       <use xlink:href="#DejaVuSans-2e" transform="translate(63.623047 0)"/>
       <use xlink:href="#DejaVuSans-30" transform="translate(95.410156 0)"/>
       <use xlink:href="#DejaVuSans-32" transform="translate(159.033203 0)"/>
      </g>
     </g>
    </g>
    <g id="ytick_8">
     <g id="line2d_60">
      <path d="M 58.523438 132.612347 
L 393.323438 132.612347 
" clip-path="url(#p3531db10b7)" style="fill: none; stroke: #b0b0b0; stroke-width: 0.8; stroke-linecap: square"/>
     </g>
     <g id="line2d_61">
      <g>
       <use xlink:href="#m7cf6a616c0" x="58.523438" y="132.612347" style="stroke: #000000; stroke-width: 0.8"/>
      </g>
     </g>
     <g id="text_21">
      <!-- 0.04 -->
      <g transform="translate(29.257813 136.411566) scale(0.1 -0.1)">
       <use xlink:href="#DejaVuSans-30"/>
       <use xlink:href="#DejaVuSans-2e" transform="translate(63.623047 0)"/>
       <use xlink:href="#DejaVuSans-30" transform="translate(95.410156 0)"/>
       <use xlink:href="#DejaVuSans-34" transform="translate(159.033203 0)"/>
      </g>
     </g>
    </g>
    <g id="text_22">
     <!-- Position -->
     <g transform="translate(14.798438 199.423281) rotate(-90) scale(0.1 -0.1)">
      <defs>
       <path id="DejaVuSans-50" d="M 1259 4147 
L 1259 2394 
L 2053 2394 
Q 2494 2394 2734 2622 
Q 2975 2850 2975 3272 
Q 2975 3691 2734 3919 
Q 2494 4147 2053 4147 
L 1259 4147 
z
M 628 4666 
L 2053 4666 
Q 2838 4666 3239 4311 
Q 3641 3956 3641 3272 
Q 3641 2581 3239 2228 
Q 2838 1875 2053 1875 
L 1259 1875 
L 1259 0 
L 628 0 
L 628 4666 
z
" transform="scale(0.015625)"/>
       <path id="DejaVuSans-73" d="M 2834 3397 
L 2834 2853 
Q 2591 2978 2328 3040 
Q 2066 3103 1784 3103 
Q 1356 3103 1142 2972 
Q 928 2841 928 2578 
Q 928 2378 1081 2264 
Q 1234 2150 1697 2047 
L 1894 2003 
Q 2506 1872 2764 1633 
Q 3022 1394 3022 966 
Q 3022 478 2636 193 
Q 2250 -91 1575 -91 
Q 1294 -91 989 -36 
Q 684 19 347 128 
L 347 722 
Q 666 556 975 473 
Q 1284 391 1588 391 
Q 1994 391 2212 530 
Q 2431 669 2431 922 
Q 2431 1156 2273 1281 
Q 2116 1406 1581 1522 
L 1381 1569 
Q 847 1681 609 1914 
Q 372 2147 372 2553 
Q 372 3047 722 3315 
Q 1072 3584 1716 3584 
Q 2034 3584 2315 3537 
Q 2597 3491 2834 3397 
z
" transform="scale(0.015625)"/>
      </defs>
      <use xlink:href="#DejaVuSans-50"/>
      <use xlink:href="#DejaVuSans-6f" transform="translate(56.677734 0)"/>
      <use xlink:href="#DejaVuSans-73" transform="translate(117.859375 0)"/>
      <use xlink:href="#DejaVuSans-69" transform="translate(169.958984 0)"/>
      <use xlink:href="#DejaVuSans-74" transform="translate(197.742188 0)"/>
      <use xlink:href="#DejaVuSans-69" transform="translate(236.951172 0)"/>
      <use xlink:href="#DejaVuSans-6f" transform="translate(264.734375 0)"/>
      <use xlink:href="#DejaVuSans-6e" transform="translate(325.916016 0)"/>
     </g>
    </g>
   </g>
   <g id="line2d_62">
    <path d="M 58.523438 179.959219 
L 59.259998 179.847512 
L 60.063518 179.478779 
L 60.933998 178.811831 
L 61.938398 177.737349 
L 63.143678 176.093878 
L 64.750718 173.482552 
L 69.705758 165.133595 
L 71.044958 163.428521 
L 72.183278 162.305875 
L 73.254638 161.552982 
L 74.259038 161.125422 
L 75.196478 160.968906 
L 75.665198 161.04381 
L 76.133918 161.352398 
L 76.669598 161.982066 
L 77.339198 163.161365 
L 78.142718 165.104032 
L 79.080158 168.00742 
L 80.285438 172.552375 
L 81.959438 179.865781 
L 85.910078 197.45886 
L 87.249278 202.297514 
L 88.387598 205.619795 
L 89.325038 207.732617 
L 90.128558 209.066908 
L 90.865118 209.894458 
L 91.534718 210.318726 
L 92.137358 210.430473 
L 92.539118 210.263136 
L 93.007838 209.770474 
L 93.543518 208.830906 
L 94.213118 207.124524 
L 95.016638 204.363672 
L 95.954078 200.285328 
L 97.159357 193.956655 
L 98.833358 183.851315 
L 102.583118 160.88509 
L 103.922318 154.153432 
L 105.060638 149.500365 
L 105.998078 146.516367 
L 106.801598 144.609999 
L 107.538158 143.404648 
L 108.140798 142.804999 
L 108.676478 142.560281 
L 109.078238 142.598161 
L 109.479998 142.913161 
L 109.948718 143.622015 
L 110.484398 144.862907 
L 111.153998 147.02013 
L 111.957518 150.417072 
L 112.961918 155.730886 
L 114.234158 163.786483 
L 116.175998 177.741339 
L 119.055278 198.320773 
L 120.461438 206.829999 
L 121.599758 212.492604 
L 122.604158 216.418707 
L 123.474638 218.944253 
L 124.211198 220.424165 
L 124.813838 221.184682 
L 125.349518 221.52414 
L 125.751278 221.54467 
L 126.086078 221.335097 
L 126.487838 220.8115 
L 127.023518 219.668373 
L 127.626158 217.806516 
L 128.362718 214.767379 
L 129.300158 209.826383 
L 130.438478 202.505244 
L 131.978558 191.011786 
L 136.464878 156.581546 
L 137.737118 148.865263 
L 138.808478 143.621831 
L 139.745918 140.092028 
L 140.549438 137.897045 
L 141.219038 136.664868 
L 141.754718 136.069061 
L 142.223438 135.828132 
L 142.558238 135.860279 
L 142.893038 136.113236 
L 143.294798 136.700633 
L 143.830478 137.947645 
L 144.433118 139.950081 
L 145.169678 143.191333 
L 146.107118 148.42985 
L 147.245438 156.157311 
L 148.852478 168.795533 
L 153.070958 202.835965 
L 154.410158 211.489541 
L 155.481518 217.081084 
L 156.418958 220.87265 
L 157.222478 223.255498 
L 157.892078 224.616419 
L 158.494718 225.355874 
L 158.963438 225.617349 
L 159.298238 225.592292 
L 159.633038 225.340212 
L 160.034798 224.745834 
L 160.570478 223.476299 
L 161.173118 221.431292 
L 161.909678 218.114925 
L 162.847118 212.747895 
L 163.985438 204.822916 
L 165.592478 191.850383 
L 169.877918 156.380374 
L 171.217118 147.562105 
L 172.288478 141.885995 
L 173.225918 138.055611 
L 174.029438 135.665196 
L 174.699038 134.315406 
L 175.234718 133.655336 
L 175.703438 133.379787 
L 176.038238 133.399396 
L 176.373038 133.649804 
L 176.774798 134.247065 
L 177.310478 135.528498 
L 177.913118 137.597417 
L 178.649678 140.957144 
L 179.587118 146.399591 
L 180.725438 154.44178 
L 182.265518 167.038169 
L 186.684878 204.154295 
L 187.957118 212.636209 
L 189.028478 218.414065 
L 189.965918 222.315998 
L 190.769438 224.753701 
L 191.439038 226.13263 
L 191.974718 226.809214 
L 192.443438 227.094273 
L 192.778238 227.078665 
L 193.113038 226.829961 
L 193.514798 226.231772 
L 194.050478 224.944194 
L 194.653118 222.861936 
L 195.389678 219.477251 
L 196.327118 213.990614 
L 197.465438 205.878931 
L 199.005517 193.168129 
L 203.424878 155.689942 
L 204.697118 147.11949 
L 205.768478 141.278955 
L 206.705918 137.332631 
L 207.509438 134.865314 
L 208.179038 133.467896 
L 208.714718 132.780627 
L 209.183438 132.48921 
L 209.518237 132.501972 
L 209.853038 132.749222 
L 210.254798 133.347476 
L 210.790478 134.638131 
L 211.393118 136.727771 
L 212.129678 140.126773 
L 213.067117 145.639262 
L 214.205438 153.792111 
L 215.745518 166.571325 
L 220.164878 204.268718 
L 221.437117 212.893363 
L 222.508477 218.772487 
L 223.445918 222.746329 
L 224.249438 225.232167 
L 224.919038 226.64129 
L 225.454718 227.335443 
L 225.923438 227.631071 
L 226.258238 227.620291 
L 226.593038 227.374175 
L 226.994798 226.776184 
L 227.530478 225.484059 
L 228.133118 223.390373 
L 228.869678 219.983187 
L 229.807118 214.455601 
L 230.945438 206.278389 
L 232.485518 193.458293 
L 236.904878 155.628233 
L 238.177118 146.970433 
L 239.248478 141.067564 
L 240.185918 137.076678 
L 240.989438 134.579271 
L 241.659038 133.162753 
L 242.194718 132.464183 
L 242.663438 132.165785 
L 242.998238 132.17521 
L 243.333038 132.420484 
L 243.734798 133.018132 
L 244.203518 134.119204 
L 244.806158 136.141805 
L 245.542718 139.472249 
L 246.413198 144.490163 
L 247.551518 152.513042 
L 249.024638 164.637991 
L 253.912718 206.261871 
L 255.184958 214.586451 
L 256.256318 220.156195 
L 257.126798 223.605823 
L 257.863358 225.735872 
L 258.532958 227.035748 
L 259.068638 227.64105 
L 259.537358 227.851119 
L 259.872158 227.747521 
L 260.206958 227.409922 
L 260.675678 226.555679 
L 261.211358 225.056701 
L 261.880958 222.447424 
L 262.684478 218.335215 
L 263.688878 211.898715 
L 264.961118 202.136618 
L 266.902958 185.218134 
L 269.849198 159.725133 
L 271.255358 149.484965 
L 272.393678 142.697572 
L 273.398078 138.014523 
L 274.201598 135.216962 
L 274.938158 133.416543 
L 275.540798 132.489595 
L 276.009518 132.105051 
L 276.411278 132.035767 
L 276.746078 132.23317 
L 277.147838 132.775617 
L 277.616558 133.815702 
L 278.219198 135.765859 
L 278.955758 139.017791 
L 279.826238 143.958415 
L 280.897598 151.400324 
L 282.303758 162.82721 
L 287.727518 208.634898 
L 288.932798 216.14609 
L 289.937198 221.088885 
L 290.807678 224.316694 
L 291.544238 226.252973 
L 292.146878 227.290345 
L 292.682558 227.80249 
L 293.084318 227.920588 
L 293.419118 227.770585 
L 293.820878 227.283319 
L 294.289598 226.304929 
L 294.892238 224.429246 
L 295.628798 221.259915 
L 296.499278 216.403491 
L 297.570638 209.043238 
L 298.976798 197.684205 
L 304.534478 150.821093 
L 305.739758 143.395974 
L 306.744158 138.534904 
L 307.614638 135.382497 
L 308.351198 133.511625 
L 308.953838 132.527894 
L 309.489518 132.062927 
L 309.891278 131.992772 
L 310.226078 132.189651 
L 310.627838 132.731711 
L 311.096558 133.771671 
L 311.699198 135.722171 
L 312.435758 138.975256 
L 313.306238 143.918213 
L 314.377598 151.364266 
L 315.783758 162.798321 
L 321.207518 208.640423 
L 322.412798 216.158262 
L 323.417198 221.105789 
L 324.287678 224.337004 
L 325.024238 226.275614 
L 325.626878 227.314501 
L 326.162558 227.82769 
L 326.564318 227.946384 
L 326.899118 227.796754 
L 327.300878 227.309788 
L 327.769598 226.331551 
L 328.372238 224.455755 
L 329.108798 221.285837 
L 329.979278 216.428122 
L 331.050638 209.065489 
L 332.456798 197.702247 
L 338.014478 150.817878 
L 339.219758 143.388724 
L 340.224158 138.524775 
L 341.094638 135.370291 
L 341.831198 133.497995 
L 342.433838 132.513334 
L 342.969518 132.047725 
L 343.371278 131.977202 
L 343.706078 132.173848 
L 344.107838 132.715718 
L 344.576558 133.755576 
L 345.179197 135.706131 
L 345.915758 138.959558 
L 346.786238 143.90328 
L 347.857597 151.350756 
L 349.263758 162.78734 
L 354.687518 208.641999 
L 355.892798 216.162325 
L 356.897198 221.111641 
L 357.767678 224.34416 
L 358.504238 226.283675 
L 359.106878 227.32316 
L 359.642558 227.836771 
L 360.044318 227.955712 
L 360.379118 227.806243 
L 360.780878 227.319418 
L 361.249598 226.34127 
L 361.852238 224.465476 
L 362.588798 221.295392 
L 363.459278 216.437259 
L 364.530638 209.073814 
L 365.936798 197.709092 
L 371.494478 150.816972 
L 372.699758 143.386308 
L 373.704158 138.521271 
L 374.574637 135.365993 
L 375.311198 133.493144 
L 375.913838 132.508118 
L 376.449518 132.042249 
L 376.851278 131.971573 
L 377.186078 132.168119 
L 377.587838 132.709901 
L 378.056558 133.749702 
L 378.659198 135.700251 
L 379.395758 138.953773 
L 380.266238 143.897742 
L 381.337598 151.345703 
L 382.743758 162.783176 
L 388.167518 208.642409 
L 389.372798 216.163664 
L 390.377198 221.113657 
L 391.247678 224.346673 
L 391.984238 226.286537 
L 392.586878 227.326257 
L 393.122558 227.840037 
L 393.323438 227.93447 
L 393.323438 227.93447 
" clip-path="url(#p3531db10b7)" style="fill: none; stroke: #1f77b4; stroke-width: 1.5; stroke-linecap: square"/>
   </g>
   <g id="patch_8">
    <path d="M 58.523438 230.359219 
L 58.523438 129.559219 
" style="fill: none"/>
   </g>
   <g id="patch_9">
    <path d="M 393.323438 230.359219 
L 393.323438 129.559219 
" style="fill: none"/>
   </g>
   <g id="patch_10">
    <path d="M 58.523438 230.359219 
L 393.323438 230.359219 
" style="fill: none; stroke: #000000; stroke-width: 0.8; stroke-linejoin: miter; stroke-linecap: square"/>
   </g>
   <g id="patch_11">
    <path d="M 58.523438 179.959219 
L 393.323438 179.959219 
" style="fill: none; stroke: #000000; stroke-width: 0.8; stroke-linejoin: miter; stroke-linecap: square"/>
   </g>
  </g>
 </g>
 <defs>
  <clipPath id="pface901be3">
   <rect x="58.523438" y="8.599219" width="334.8" height="100.8"/>
  </clipPath>
  <clipPath id="p3531db10b7">
   <rect x="58.523438" y="129.559219" width="334.8" height="100.8"/>
  </clipPath>
 </defs>
</svg>
